<svg width="50" height="50" viewBox="0 0 50 50" fill="none" xmlns="http://www.w3.org/2000/svg">
<mask id="mask0_457_987" style="mask-type:luminance" maskUnits="userSpaceOnUse" x="2" y="6" width="46" height="38">
<path d="M2.91113 6.77657H47.1111V43.1766H2.91113V6.77657Z" fill="white"/>
</mask>
<g mask="url(#mask0_457_987)">
<path d="M27.7331 40.0354C28.279 40.0354 28.7212 39.5943 28.7212 39.0495V36.0912H39.5076V39.0495C39.5076 39.5943 39.9498 40.0354 40.4956 40.0354H27.7331ZM25.517 30.0151C26.4613 30.0151 27.2258 30.7787 27.2258 31.7208C27.2258 32.6625 26.4613 33.4261 25.517 33.4261C24.5738 33.4261 23.8081 32.6625 23.8081 31.7208C23.8081 30.7787 24.5738 30.0151 25.517 30.0151ZM39.2941 32.763C39.2941 33.1292 38.9967 33.4261 38.6295 33.4261H29.5988C29.2321 33.4261 28.9347 33.1292 28.9347 32.763C28.9347 32.3969 29.2321 32.1 29.5988 32.1H38.6295C38.9967 32.1 39.2941 32.3969 39.2941 32.763ZM38.6295 31.424H29.5988C29.2321 31.424 28.9347 31.1276 28.9347 30.7609C28.9347 30.3953 29.2321 30.0984 29.5988 30.0984H38.6295C38.9967 30.0984 39.2941 30.3953 39.2941 30.7609C39.2941 31.1276 38.9967 31.424 38.6295 31.424ZM23.8081 11.5698C23.8081 10.6557 24.5508 9.91511 25.4665 9.91511H42.7623C43.6779 9.91511 44.4201 10.6557 44.4201 11.5698V23.0568C44.4201 23.9708 43.6779 24.712 42.7623 24.712H25.4665C24.5508 24.712 23.8081 23.9708 23.8081 23.0568V11.5698ZM42.7113 33.4261C41.7675 33.4261 41.0029 32.6625 41.0029 31.7208C41.0029 30.7787 41.7675 30.0151 42.7113 30.0151C43.655 30.0151 44.4201 30.7787 44.4201 31.7208C44.4201 32.6625 43.655 33.4261 42.7113 33.4261ZM7.07376 17.5818V16.5083C7.07376 16.451 7.12741 16.4083 7.19928 16.4083H7.73678C7.80814 16.4083 7.86231 16.451 7.86231 16.5083V17.5818C7.86231 17.8391 8.05918 17.9969 8.39981 17.9969C8.73991 17.9969 8.9373 17.8391 8.9373 17.5818V16.5083C8.9373 16.451 8.99095 16.4083 9.06283 16.4083H9.60033C9.67168 16.4083 9.72533 16.451 9.72533 16.5083V17.5787C9.72533 18.1255 9.27741 18.4688 8.39981 18.4688C7.50345 18.4688 7.07376 18.1255 7.07376 17.5818ZM5.60449 18.412H4.17064C4.09928 18.412 4.04564 18.3688 4.04564 18.3115V16.5083C4.04564 16.451 4.09928 16.4083 4.17064 16.4083H5.46126C6.19564 16.4083 6.51803 16.6656 6.51803 16.9662C6.51803 17.2526 6.1597 17.3385 6.1597 17.3385V17.3672C6.1597 17.3672 6.6972 17.4531 6.6972 17.825C6.6972 18.1396 6.3571 18.412 5.60449 18.412ZM10.2274 17.725H10.6753C10.7826 17.725 10.8399 17.7708 10.8899 17.8391C10.9441 17.9109 11.0514 17.9969 11.4097 17.9969C11.7686 17.9969 11.8936 17.8964 11.8936 17.8104C11.8936 17.5245 10.1555 17.7964 10.1555 16.9948C10.1555 16.6516 10.5321 16.351 11.4097 16.351C12.2342 16.351 12.6285 16.6656 12.6285 16.9521C12.6285 17.024 12.5743 17.0667 12.4847 17.0667H12.0368C11.9295 17.0667 11.8722 17.024 11.8217 16.9521C11.7899 16.9094 11.679 16.8234 11.4097 16.8234C11.0873 16.8234 10.9795 16.9094 10.9795 16.9948C10.9795 17.2813 12.718 17.0094 12.718 17.8104C12.718 18.1542 12.3238 18.4688 11.4097 18.4688C10.4779 18.4688 10.0842 18.1542 10.0842 17.8391C10.0842 17.7677 10.1378 17.725 10.2274 17.725ZM44.4201 39.0495V36.0828C45.9128 35.9734 47.0899 34.7307 47.0899 33.213V9.65365C47.0899 8.06407 45.7993 6.77553 44.2066 6.77553H24.0222C22.4295 6.77553 21.1389 8.06407 21.1389 9.65365V33.213C21.1389 34.7307 22.316 35.9734 23.8081 36.0828V39.0495C23.8081 39.5943 24.2508 40.0354 24.7967 40.0354H13.8311V36.8281H9.08001V22.7068C11.7597 22.3641 13.8311 20.0813 13.8311 17.3135C13.8311 14.3099 11.3915 11.874 8.38158 11.874C5.3722 11.874 2.93262 14.3099 2.93262 17.3135C2.93262 20.0813 5.00345 22.3641 7.68314 22.7068V36.8281H2.93262V43.1776H47.0899V40.0354H43.4321C43.9779 40.0354 44.4201 39.5943 44.4201 39.0495Z" fill="white"/>
</g>
<path d="M5.60433 17.6104H4.8335V17.9536H5.60433C5.7835 17.9536 5.87308 17.8823 5.87308 17.7823C5.87308 17.6823 5.7835 17.6104 5.60433 17.6104Z" fill="white"/>
<path d="M5.69391 17.0094C5.69391 16.9234 5.62568 16.8661 5.4611 16.8661H4.8335V17.1526H5.4611C5.62204 17.1526 5.69391 17.0953 5.69391 17.0094Z" fill="white"/>
</svg>
