<svg width="50" height="50" viewBox="0 0 50 50" fill="none" xmlns="http://www.w3.org/2000/svg">
<mask id="mask0_457_886" style="mask-type:luminance" maskUnits="userSpaceOnUse" x="15" y="26" width="20" height="19">
<path d="M15.8667 26.8H34.5334V45H15.8667V26.8Z" fill="white"/>
</mask>
<g mask="url(#mask0_457_886)">
<path d="M31.9963 32.863L33.2479 31.237C32.6744 30.4484 32.7182 30.5083 32.1458 29.7193L30.2119 30.4073C29.6557 30.0031 29.463 29.8625 28.9067 29.4594L28.964 27.4083C28.0369 27.1073 28.1067 27.1297 27.1796 26.8286L26.0202 28.5214C25.3333 28.5214 25.0947 28.5214 24.4062 28.5214L23.2468 26.8286C22.3197 27.1297 22.3895 27.1073 21.4624 27.4083L21.5197 29.4594C20.9635 29.8635 20.7708 30.0042 20.2145 30.4073L18.2812 29.7193C17.7072 30.5083 17.751 30.4484 17.1786 31.237L18.4301 32.863C18.2176 33.5161 18.1442 33.7437 17.9312 34.3969L15.9619 34.9766C15.9619 35.9516 15.9619 35.8771 15.9619 36.8521L17.9312 37.4318C18.1442 38.0849 18.2176 38.3125 18.4301 38.9656L17.1786 40.5917C17.752 41.3802 17.7088 41.3203 18.2812 42.1089L20.2145 41.4214C20.7708 41.8255 20.9635 41.9661 21.5197 42.3693L21.4624 44.4203C22.3895 44.7214 22.3197 44.699 23.2468 45L24.4062 43.3068C25.0932 43.3068 25.3322 43.3068 26.0202 43.3068L27.1796 45C28.1067 44.699 28.0369 44.7214 28.964 44.4203L28.9067 42.3693C29.463 41.9646 29.6557 41.8245 30.2119 41.4214L32.1458 42.1089C32.7192 41.3203 32.6755 41.3802 33.2479 40.5917L31.9963 38.9656C32.2088 38.3125 32.2822 38.0849 32.4952 37.4318L34.465 36.8521C34.465 35.8771 34.465 35.9516 34.465 34.9766L32.4952 34.3969C32.2822 33.7437 32.2088 33.5161 31.9963 32.863ZM25.2114 41.6266C22.0562 41.6266 19.4979 39.0687 19.4979 35.9141C19.4979 32.7599 22.0562 30.2021 25.2114 30.2021C28.3666 30.2021 30.9249 32.7599 30.9249 35.9141C30.9249 39.0687 28.3666 41.6266 25.2114 41.6266Z" fill="white"/>
</g>
<path d="M21.2563 37.4193H22.5105V39.3698H21.2563V37.4193Z" fill="white"/>
<path d="M23.2354 36.5833H24.49V39.3698H23.2354V36.5833Z" fill="white"/>
<path d="M25.2139 34.8844H26.468V39.3698H25.2139V34.8844Z" fill="white"/>
<path d="M27.1924 32.3203H28.4465V39.3698H27.1924V32.3203Z" fill="white"/>
<path d="M26.0338 33.3271L25.3207 30.9224L23.5952 32.7411L24.2134 32.8891C24.1588 33.0755 24.0905 33.2583 24.0093 33.4391C23.8228 33.8469 23.5702 34.2339 23.2567 34.5771C22.9431 34.9193 22.5697 35.2214 22.1504 35.4589C21.9416 35.5786 21.7213 35.6818 21.491 35.7677L20.7905 36.025L21.5322 35.9245C21.7822 35.888 22.0322 35.8307 22.2785 35.7552C22.7713 35.6031 23.2457 35.3682 23.6796 35.0635C24.114 34.7573 24.5062 34.3766 24.8358 33.9401C25.0187 33.6953 25.1817 33.4328 25.3223 33.1552L26.0338 33.3271Z" fill="white"/>
<mask id="mask1_457_886" style="mask-type:luminance" maskUnits="userSpaceOnUse" x="2" y="24" width="15" height="14">
<path d="M2.30518 24.2667H16.2666V38H2.30518V24.2667Z" fill="white"/>
</mask>
<g mask="url(#mask1_457_886)">
<path d="M14.7088 32.3031L16.1843 31.8693C16.1843 31.1391 16.1843 31.1938 16.1843 30.4635L14.7088 30.0292C14.5494 29.5391 14.4947 29.3688 14.3353 28.8797L15.2739 27.6609C14.8447 27.0698 14.877 27.1146 14.4473 26.524L12.9978 27.0401C12.5812 26.738 12.4369 26.6323 12.0202 26.3297L12.0624 24.7922C11.3666 24.5656 11.4202 24.5833 10.7249 24.3583L9.85511 25.6271C9.34001 25.6271 9.16084 25.6271 8.64574 25.6271L7.77594 24.3583C7.08063 24.5844 7.13376 24.5672 6.43844 24.7922L6.48063 26.3297C6.06397 26.6323 5.91969 26.738 5.50251 27.0401L4.05199 26.5214C3.62282 27.112 3.65511 27.0672 3.22594 27.6583L4.16396 28.8776C4.00459 29.3677 3.9499 29.538 3.79053 30.0266L2.31396 30.462C2.31396 31.1922 2.31396 31.1375 2.31396 31.8677L3.78949 32.3021C3.94886 32.7922 4.00355 32.9625 4.16292 33.451L3.22438 34.6703C3.65355 35.2615 3.62126 35.2167 4.05094 35.8073L5.50042 35.2912C5.91709 35.5932 6.06136 35.699 6.47803 36.0016L6.43584 37.5391C7.13167 37.7651 7.07803 37.7479 7.77334 37.9729L8.64313 36.7042C9.15824 36.7042 9.3374 36.7042 9.85251 36.7042L10.7223 37.9729C11.4176 37.7464 11.3645 37.7641 12.0598 37.5391L12.0176 36.0016C12.4343 35.699 12.5785 35.5932 12.9957 35.2912L14.4452 35.8073C14.8744 35.2167 14.8421 35.2615 15.2713 34.6703L14.3332 33.451C14.4937 32.9625 14.5494 32.7922 14.7088 32.3031ZM9.24886 33.3453C8.04469 33.3453 7.06813 32.3693 7.06813 31.1651C7.06813 29.9609 8.04469 28.9844 9.24886 28.9844C10.4535 28.9844 11.4301 29.9609 11.4301 31.1651C11.4301 32.3693 10.4535 33.3453 9.24886 33.3453Z" fill="white"/>
</g>
<mask id="mask2_457_886" style="mask-type:luminance" maskUnits="userSpaceOnUse" x="33" y="24" width="15" height="14">
<path d="M33.7334 24.2667H47.7053V38H33.7334V24.2667Z" fill="white"/>
</mask>
<g mask="url(#mask2_457_886)">
<path d="M47.6959 31.8677C47.6959 31.1375 47.6959 31.1922 47.6959 30.462L46.2203 30.0281C46.061 29.538 46.0063 29.3677 45.8474 28.8786L46.7854 27.6594C46.3563 27.0687 46.3886 27.1135 45.9594 26.5224L44.5094 27.0391C44.0927 26.7365 43.9485 26.6307 43.5318 26.3286L43.574 24.7911C42.8787 24.5646 42.9318 24.5823 42.2365 24.3568L41.3667 25.6255C40.8516 25.6255 40.6724 25.6255 40.1573 25.6255L39.2875 24.3568C38.5922 24.5833 38.6453 24.5656 37.95 24.7911L37.9922 26.3286C37.5756 26.6307 37.4313 26.7365 37.0146 27.0391L35.5646 26.5224C35.1354 27.1135 35.1677 27.0687 34.7386 27.6594L35.6766 28.8786C35.5177 29.3687 35.4631 29.5391 35.3037 30.0281L33.8276 30.462C33.8276 31.1922 33.8276 31.1375 33.8276 31.8677L35.3037 32.3021C35.4631 32.7922 35.5177 32.9625 35.6766 33.451L34.7386 34.6703C35.1677 35.2615 35.1354 35.2167 35.5646 35.8073L37.0146 35.2911C37.4313 35.5932 37.5756 35.699 37.9922 36.0016L37.95 37.5391C38.6453 37.7651 38.5922 37.7479 39.2875 37.9729L40.1573 36.7042C40.6724 36.7042 40.8516 36.7042 41.3667 36.7042L42.2365 37.9729C42.9318 37.7463 42.8787 37.7641 43.574 37.5391L43.5318 36.0016C43.9485 35.699 44.0927 35.5932 44.5094 35.2911L45.9594 35.8073C46.3886 35.2167 46.3563 35.2615 46.7854 34.6703L45.8474 33.451C46.0063 32.9609 46.061 32.7906 46.2203 32.3021L47.6959 31.8677ZM40.761 33.3453C39.5563 33.3453 38.5797 32.3693 38.5797 31.1651C38.5797 29.9609 39.5563 28.9844 40.761 28.9844C41.9651 28.9844 42.9417 29.9609 42.9417 31.1651C42.9417 32.3693 41.9651 33.3453 40.761 33.3453Z" fill="white"/>
</g>
<mask id="mask3_457_886" style="mask-type:luminance" maskUnits="userSpaceOnUse" x="6" y="5" width="38" height="23">
<path d="M6.93311 5H43.0664V27.4667H6.93311V5Z" fill="white"/>
</mask>
<g mask="url(#mask3_457_886)">
<path d="M10.9025 23.4188H11.9577V17.3474H9.24313L14.7124 10.8031L17.3666 14.0224L15.5265 16.1979H20.9374V26.4677L23.6687 25.5807L24.9614 27.4656H25.4614L26.7541 25.5807L29.3785 26.4328V16.1979H34.4634L32.739 14.1578L35.4926 10.8068L40.8103 17.2391H38.3197V22.9599H39.3744V18.2938H43.0515L35.491 9.1474L32.0473 13.3396L24.9947 5L18.0582 13.2036L14.7176 9.15104L6.98584 18.4021H10.9025V23.4188Z" fill="white"/>
</g>
<path d="M17.4888 17.9281H18.544V27.4656H17.4888V17.9281Z" fill="white"/>
<path d="M31.501 17.9281H32.5562V27.4656H31.501V17.9281Z" fill="white"/>
</svg>
