<svg width="50" height="50" viewBox="0 0 50 50" fill="none" xmlns="http://www.w3.org/2000/svg">
<path d="M15.0605 36.5385H4.20166C5.30062 31.8568 5.91156 29.2552 6.03395 28.7349C6.08916 28.4719 6.18604 28.2203 6.32197 27.9885C7.48708 29.1286 10.4001 31.9781 15.0605 36.5385Z" fill="white"/>
<path d="M3.98078 37.4833H15.7464V47.4417C9.29797 47.4417 5.7162 47.4417 4.99953 47.4417C4.16776 47.4438 3.38338 47.0547 2.87974 46.3927C2.38286 45.7589 2.20943 44.9287 2.41203 44.149C2.62088 43.2604 3.14432 41.0385 3.98078 37.4833Z" fill="white"/>
<path d="M34.528 26.6604L28.4931 36.5385H16.4108C10.729 30.9776 7.57122 27.8875 6.93945 27.2703C7.41341 26.8766 8.00977 26.6615 8.62539 26.6604C9.47747 26.6604 16.2957 26.6604 17.1483 26.6604C17.2801 26.8453 17.4171 27.0344 17.5587 27.2224C17.7384 27.4594 17.9077 27.6901 18.0832 27.9271C18.8759 28.9615 19.7493 30.0526 20.6895 31.1812C21.8931 32.5984 22.6764 33.5245 22.6858 33.5339C23.1967 34.1266 24.091 34.1927 24.6842 33.6818C24.7395 33.6328 24.791 33.5807 24.8389 33.5245C25.0342 33.2937 26.5988 31.4505 26.7941 31.2198C27.5395 30.4016 28.3145 29.3865 29.1405 28.3099C29.1707 28.2714 29.4082 27.9604 29.4374 27.9219C29.6129 27.6859 29.7915 27.45 29.9566 27.2224C30.0993 27.0344 30.2363 26.8453 30.3723 26.6604C30.927 26.6604 32.3118 26.6604 34.528 26.6604Z" fill="white"/>
<path d="M40.713 36.5385H29.6025L35.326 27.1708L40.713 36.5385Z" fill="white"/>
<path d="M40.3868 37.4833L30.4389 47.4417H16.6899V37.4833H40.3868Z" fill="white"/>
<path d="M41.8035 36.5385L36.1187 26.6604C39.2744 26.6604 41.0275 26.6604 41.3785 26.6604C42.628 26.649 43.7129 27.5208 43.9702 28.7443C44.0926 29.2635 44.7035 31.862 45.8025 36.5385H41.8035Z" fill="white"/>
<path d="M44.9346 47.4417C44.057 47.4417 39.6684 47.4417 31.7705 47.4417L41.7278 37.4833H46.0252C46.9684 41.4885 47.4919 43.7135 47.5965 44.1583C47.7622 44.962 47.5564 45.7964 47.0346 46.4302C46.5236 47.0682 45.7507 47.4396 44.9346 47.4417Z" fill="white"/>
<path d="M23.7577 18.2193C21.6015 18.2193 19.853 16.4703 19.853 14.313C19.853 12.1552 21.6015 10.4062 23.7577 10.4062C25.914 10.4073 27.6614 12.1552 27.6624 14.313C27.6624 16.4703 25.914 18.2193 23.7577 18.2193Z" fill="white"/>
<path d="M12.1294 14.124C12.1294 17.5057 15.383 22.6792 18.3195 26.6604C18.494 26.8974 18.6643 27.124 18.8336 27.3505C19.8252 28.6453 20.7789 29.8115 21.4075 30.5682C22.6153 31.9896 23.3997 32.9156 23.3997 32.9156C23.569 33.113 23.8669 33.137 24.0653 32.9677C24.0841 32.951 24.1007 32.9344 24.1174 32.9156C24.1174 32.9156 24.9007 31.9896 26.095 30.5813C26.8086 29.8021 27.5773 28.7958 28.3898 27.7328C28.419 27.6943 28.6534 27.3891 28.6825 27.3505C28.857 27.1188 29.0315 26.888 29.1976 26.6604C33.3049 21.1005 35.3877 16.887 35.3877 14.124C35.3586 7.72188 30.1565 2.55156 23.758 2.56406C17.3596 2.55156 12.1586 7.72188 12.1294 14.124ZM30.3695 12.0828H30.3685C30.2966 12.112 29.7268 12.3464 29.6549 12.3755C29.5987 12.4016 29.5377 12.4141 29.4763 12.413C29.2153 12.413 29.0049 12.201 29.0049 11.9401C29.0049 11.751 29.1179 11.5807 29.2914 11.5068C29.3643 11.4766 29.9372 11.2385 30.0091 11.2089C30.2492 11.1099 30.5231 11.2229 30.6221 11.462C30.6231 11.462 30.6231 11.463 30.6231 11.4641C30.7237 11.7042 30.6106 11.9818 30.3695 12.0828ZM29.0648 8.33177C29.2497 8.14896 29.5471 8.14896 29.731 8.33177C29.9148 8.51823 29.9148 8.81719 29.731 9.00313C29.6039 9.12917 28.5924 10.1422 28.4653 10.2693C28.3773 10.3563 28.2591 10.4052 28.1351 10.4063C28.0096 10.4052 27.8903 10.3563 27.7997 10.2693C27.6159 10.0833 27.6159 9.78386 27.7997 9.59792C28.0534 9.34531 28.9382 8.45886 29.0648 8.33177ZM25.9872 7.69375C26.0867 7.45261 26.3643 7.33854 26.6054 7.43906C26.8461 7.54011 26.9606 7.81667 26.8606 8.05781C26.8304 8.12917 26.5929 8.7 26.5627 8.77136C26.4898 8.94948 26.3164 9.06563 26.1231 9.06458C26.0617 9.0625 26.0018 9.05 25.9445 9.02604C25.7044 8.92865 25.5903 8.65417 25.6882 8.41406C25.6893 8.41406 25.6893 8.41302 25.6893 8.41198C25.7492 8.26875 25.957 7.76667 25.9872 7.69375ZM23.2867 6.32917C23.2867 6.06823 23.4971 5.85625 23.758 5.85625C24.019 5.85625 24.2304 6.06823 24.2304 6.32917C24.2304 6.50781 24.2304 7.94011 24.2304 8.11979C24.2304 8.38073 24.019 8.59167 23.758 8.59167C23.4971 8.59167 23.2867 8.38073 23.2867 8.11979C23.2867 7.76146 23.2867 6.68698 23.2867 6.32917ZM21.5299 7.69375C21.5591 7.76667 21.7971 8.34011 21.8273 8.41198C21.9268 8.65208 21.8138 8.92656 21.5747 9.025C21.5737 9.02604 21.5726 9.02604 21.5726 9.02604C21.5153 9.05 21.4544 9.0625 21.3929 9.06458C21.2007 9.06563 21.0273 8.94948 20.9534 8.77136C20.9242 8.7 20.6856 8.12917 20.6565 8.05781C20.5586 7.81563 20.6742 7.53906 20.9159 7.43906C21.156 7.34167 21.4294 7.45469 21.5299 7.69375ZM18.4513 8.33177C18.5778 8.45886 19.5898 9.47083 19.7164 9.59792C19.9023 9.78177 19.9034 10.0813 19.7195 10.2661C19.5356 10.4521 19.2367 10.4531 19.0507 10.2693C18.9247 10.1422 17.9122 9.12917 17.7851 9.00313C17.6013 8.81719 17.6013 8.51823 17.7851 8.33177C17.969 8.14896 18.2674 8.14896 18.4513 8.33177ZM17.507 11.2089C17.5789 11.2385 18.1528 11.4766 18.2247 11.5068C18.4648 11.6089 18.5757 11.8865 18.4742 12.126C18.4002 12.3 18.2299 12.413 18.0409 12.413C17.9794 12.413 17.9185 12.4026 17.8612 12.3807C17.7893 12.3505 17.2195 12.113 17.1487 12.0828C16.9075 11.9828 16.7924 11.7063 16.8919 11.4651C16.8929 11.4651 16.8929 11.4641 16.8929 11.4641C16.9929 11.225 17.2669 11.1109 17.507 11.2089ZM15.7836 13.8401C15.9632 13.8401 17.395 13.8401 17.5737 13.8401C17.8341 13.8401 18.0461 14.0521 18.0461 14.313C18.0461 14.574 17.8341 14.7849 17.5737 14.7849C17.395 14.7849 15.9632 14.7849 15.7836 14.7849C15.5231 14.7849 15.3122 14.574 15.3122 14.313C15.3122 14.0521 15.5231 13.8401 15.7836 13.8401ZM16.8497 16.9828C16.8476 16.7865 16.9669 16.6099 17.1487 16.538C17.2205 16.5078 17.7903 16.274 17.8612 16.2448C18.1023 16.1443 18.3784 16.2573 18.4794 16.4984L18.4804 16.4995C18.5799 16.7385 18.4669 17.0141 18.2268 17.1125C18.2268 17.1135 18.2257 17.1135 18.2247 17.1135C18.1528 17.1438 17.5799 17.3818 17.507 17.4109C17.4507 17.4359 17.3898 17.4484 17.3273 17.4495C17.0674 17.4526 16.8539 17.2438 16.8497 16.9828ZM18.4523 20.2885C18.2664 20.4724 17.9674 20.4714 17.783 20.2854C17.5992 20.1005 17.6002 19.801 17.7862 19.6172C17.9122 19.4917 18.9247 18.4823 19.0518 18.3568C19.2284 18.1729 19.52 18.1667 19.7039 18.3432C19.7091 18.3474 19.7132 18.3516 19.7174 18.3568C19.9002 18.5406 19.9002 18.838 19.7164 19.0219C19.7164 19.0219 18.5778 20.162 18.4523 20.2885ZM21.5299 20.9255C21.4575 21.1016 21.2856 21.2167 21.0955 21.2188C21.0346 21.2177 20.9731 21.2052 20.9159 21.1813C20.6752 21.0807 20.5586 20.8052 20.6565 20.562C20.6867 20.4911 20.9242 19.9208 20.9544 19.849C21.0544 19.6078 21.3315 19.4938 21.5726 19.5932C21.8138 19.6943 21.9278 19.9719 21.8284 20.213C21.8284 20.213 21.5601 20.8552 21.5299 20.9255ZM24.2304 22.2911C24.2304 22.5521 24.02 22.763 23.7591 22.763C23.4981 22.763 23.2867 22.5521 23.2867 22.2911C23.2867 22.1125 23.2867 20.6792 23.2867 20.5005C23.2867 20.2396 23.4981 20.0286 23.7591 20.0286C24.02 20.0286 24.2304 20.2396 24.2304 20.5005C24.2304 20.8594 24.2304 21.9328 24.2304 22.2911ZM26.4216 21.2188C26.2315 21.2167 26.0612 21.1016 25.9872 20.9255C25.957 20.8552 25.719 20.2844 25.6903 20.213C25.5893 19.9719 25.7034 19.6943 25.9445 19.5932C26.1856 19.4938 26.4627 19.6078 26.5638 19.849C26.5929 19.9208 26.8304 20.4911 26.8606 20.562C26.9606 20.8031 26.8461 21.0797 26.6054 21.1792C26.6034 21.1802 26.6023 21.1802 26.6013 21.1813C26.544 21.2052 26.4836 21.2177 26.4216 21.2188ZM18.9143 14.3078C18.9153 11.6297 21.0867 9.45938 23.7632 9.46042C26.4398 9.4625 28.6091 11.6349 28.608 14.313C28.6039 16.9891 26.4336 19.1578 23.758 19.1589C21.0825 19.1578 18.9132 16.9859 18.9143 14.3078ZM29.0659 20.2885C28.9393 20.162 27.9263 19.1484 27.8007 19.0219C27.6169 18.838 27.6169 18.5406 27.8007 18.3568C27.9773 18.1729 28.2695 18.1667 28.4528 18.3432C28.457 18.3474 28.4612 18.3516 28.4653 18.3568C28.5924 18.4823 29.6049 19.4917 29.732 19.6172C29.9159 19.8031 29.9159 20.1026 29.731 20.2885C29.5471 20.4714 29.2497 20.4714 29.0659 20.2885ZM30.1898 17.4495C30.1273 17.4484 30.0664 17.4359 30.0101 17.4109C29.9382 17.3818 29.3643 17.1438 29.2924 17.1135C29.0523 17.0151 28.9382 16.7417 29.0367 16.5016C29.0367 16.5016 29.0367 16.5005 29.0367 16.4995C29.1367 16.2583 29.4127 16.1443 29.6539 16.2438C29.6549 16.2438 29.6549 16.2448 29.656 16.2448C29.7278 16.274 30.2976 16.5078 30.3685 16.538C30.6096 16.6375 30.7237 16.9141 30.6242 17.1552L30.6231 17.1563C30.5502 17.3318 30.3799 17.4474 30.1898 17.4495ZM29.9435 14.7849C29.683 14.7849 29.4721 14.574 29.4721 14.313C29.4721 14.0521 29.683 13.8401 29.9435 13.8401C30.1221 13.8401 31.5549 13.8401 31.7336 13.8401C31.994 13.8401 32.2049 14.0521 32.2049 14.313C32.2049 14.574 31.994 14.7849 31.7336 14.7849C31.3752 14.7849 30.1221 14.7849 29.9435 14.7849Z" fill="white"/>
</svg>
