<svg width="50" height="50" viewBox="0 0 50 50" fill="none" xmlns="http://www.w3.org/2000/svg">
<path d="M34.6257 47.9958H5.65537C5.53558 47.9958 5.41631 47.9901 5.29756 47.9786C5.17829 47.9667 5.06058 47.949 4.94339 47.926C4.8262 47.9026 4.71006 47.8734 4.596 47.8385C4.48141 47.8042 4.36891 47.7635 4.2585 47.7177C4.14808 47.6724 4.04027 47.6208 3.93506 47.5646C3.82933 47.5083 3.72725 47.4469 3.62777 47.3802C3.52829 47.3141 3.43245 47.2427 3.33975 47.1667C3.24756 47.0911 3.15902 47.0104 3.07464 46.926C2.99027 46.8417 2.91006 46.7531 2.83402 46.6604C2.75798 46.5682 2.68714 46.4719 2.62048 46.3724C2.55433 46.2729 2.49287 46.1703 2.43662 46.0651C2.38037 45.9594 2.32933 45.8516 2.2835 45.7411C2.23766 45.6302 2.19756 45.5177 2.16266 45.4036C2.12829 45.2891 2.09912 45.1729 2.07568 45.0557C2.05225 44.9385 2.03506 44.8203 2.02308 44.701C2.01162 44.5823 2.00537 44.4625 2.00537 44.3432V41.7859H32.6621V44.3432C32.6621 44.5234 32.6736 44.7031 32.696 44.8818C32.7179 45.0604 32.7512 45.2375 32.7955 45.4125C32.8392 45.587 32.8939 45.7583 32.959 45.9266C33.0241 46.0948 33.0996 46.2578 33.1851 46.4167C33.2705 46.5755 33.3647 46.7281 33.4689 46.8755C33.5731 47.0224 33.6861 47.1625 33.8075 47.2958C33.9288 47.4286 34.058 47.5536 34.195 47.6708C34.3319 47.788 34.4757 47.8964 34.6257 47.9958Z" fill="white"/>
<path d="M13.3267 24.9896H14.772V26.4365H13.3267V24.9896Z" fill="white"/>
<mask id="mask0_457_853" style="mask-type:luminance" maskUnits="userSpaceOnUse" x="9" y="1" width="34" height="48">
<path d="M9.2002 1.96927H42.4002V48.0693H9.2002V1.96927Z" fill="white"/>
</mask>
<g mask="url(#mask0_457_853)">
<path d="M13.3193 30.8271V32.2885H14.7792V30.8271H13.3193ZM13.3193 30.8271V32.2885H14.7792V30.8271H13.3193ZM13.3193 30.8271V32.2885H14.7792V30.8271H13.3193ZM13.3193 30.8271V32.2885H14.7792V30.8271H13.3193ZM13.3193 30.8271V32.2885H14.7792V30.8271H13.3193ZM13.3193 30.8271V32.2885H14.7792V30.8271H13.3193ZM13.3193 30.8271V32.2885H14.7792V30.8271H13.3193ZM13.3193 36.6719V38.1333H14.7792V36.6719H13.3193ZM13.3193 30.8271V32.2885H14.7792V30.8271H13.3193ZM13.3193 36.6719V38.1333H14.7792V36.6719H13.3193ZM12.9542 1.96927C12.8349 1.96927 12.7156 1.975 12.5964 1.98646C12.4776 1.99844 12.3594 2.01614 12.2422 2.03906C12.125 2.0625 12.0094 2.09166 11.8948 2.12656C11.7802 2.16094 11.6682 2.20156 11.5578 2.24687C11.4474 2.29271 11.3391 2.34375 11.2339 2.40052C11.1286 2.45677 11.026 2.51823 10.9266 2.58489C10.8271 2.65104 10.7313 2.72239 10.6391 2.79844C10.5464 2.87396 10.4583 2.95416 10.3734 3.03906C10.2891 3.12344 10.2089 3.21198 10.1328 3.30469C10.0573 3.39687 9.98594 3.49323 9.91979 3.59271C9.85313 3.69219 9.79167 3.79427 9.73542 3.9C9.67917 4.00573 9.62813 4.11354 9.58229 4.22396C9.53646 4.33437 9.49635 4.44687 9.46198 4.56146C9.42708 4.67604 9.39792 4.79219 9.375 4.90937C9.35156 5.02656 9.33385 5.14479 9.3224 5.26406C9.31042 5.38281 9.30469 5.5026 9.30469 5.62187V41.0552H33.0271C33.0755 41.0552 33.1219 41.0646 33.1667 41.0833C33.2115 41.1016 33.251 41.1281 33.2849 41.1625C33.3193 41.1969 33.3458 41.2359 33.3641 41.2807C33.3828 41.3255 33.3917 41.3724 33.3917 41.4208V44.3432C33.3917 44.4682 33.3979 44.5927 33.4104 44.7167C33.4229 44.8411 33.4417 44.9646 33.4667 45.087C33.4917 45.2094 33.5229 45.3302 33.5604 45.449C33.5979 45.5682 33.6417 45.6854 33.6911 45.8C33.7406 45.9146 33.7958 46.0266 33.8568 46.1354C33.9177 46.2443 33.9844 46.35 34.0557 46.4521C34.1276 46.5547 34.2047 46.6526 34.2865 46.7469C34.3682 46.8411 34.4547 46.9313 34.5458 47.0167C34.637 47.1021 34.7323 47.1828 34.8313 47.2583C34.9307 47.3339 35.0339 47.4042 35.1401 47.4693C35.2469 47.5344 35.3563 47.5938 35.4688 47.6479C35.5818 47.7016 35.6969 47.7495 35.8141 47.7917C35.9318 47.8333 36.051 47.8693 36.1724 47.899C36.2938 47.9286 36.4161 47.9521 36.5396 47.9693C36.663 47.9865 36.7875 47.9974 36.912 48.0021C37.037 48.0062 37.1615 48.0042 37.2859 47.9958C37.4021 47.9854 37.5177 47.9698 37.6323 47.949C37.7469 47.9276 37.8604 47.901 37.9724 47.8693C38.0849 47.8375 38.1953 47.8005 38.3042 47.7583C38.4125 47.7161 38.5193 47.6693 38.6234 47.6167C38.7281 47.5646 38.8297 47.5078 38.9286 47.4464C39.0276 47.3844 39.1234 47.3182 39.2161 47.2479C39.3094 47.1771 39.3984 47.1021 39.4844 47.0234C39.5703 46.9443 39.6521 46.8615 39.7302 46.7745C39.8083 46.688 39.8823 46.5979 39.9516 46.5042C40.0214 46.4104 40.0865 46.3141 40.1469 46.2141C40.2078 46.1146 40.2635 46.012 40.3146 45.9073C40.3656 45.8026 40.4115 45.6953 40.4526 45.5859C40.4938 45.4766 40.5297 45.3656 40.5599 45.2531C40.5906 45.1406 40.6161 45.0266 40.6359 44.912C40.6563 44.7969 40.6708 44.6813 40.6797 44.5646C40.6891 44.4484 40.6927 44.3318 40.6911 44.2151V5.25677C40.6911 4.93437 40.7297 4.61614 40.8063 4.30312C40.8828 3.9901 40.9953 3.6901 41.1438 3.40416C41.2927 3.11771 41.4729 2.85364 41.6854 2.61094C41.8974 2.36823 42.1354 2.15416 42.399 1.96927H12.9542ZM15.5089 38.4984C15.5089 38.5469 15.4995 38.5932 15.4813 38.638C15.4625 38.6828 15.4365 38.7224 15.4021 38.7568C15.3677 38.7911 15.3281 38.8172 15.2839 38.8359C15.2391 38.8542 15.1922 38.8635 15.1438 38.8635H12.9542C12.9057 38.8635 12.8594 38.8542 12.8146 38.8359C12.7698 38.8172 12.7302 38.7911 12.6964 38.7568C12.662 38.7224 12.6354 38.6828 12.6172 38.638C12.5984 38.5932 12.5891 38.5469 12.5891 38.4984V36.3068C12.5891 36.2583 12.5984 36.2115 12.6172 36.1667C12.6354 36.1219 12.662 36.0828 12.6964 36.0484C12.7302 36.0141 12.7698 35.9875 12.8146 35.9693C12.8594 35.9505 12.9057 35.9411 12.9542 35.9411H15.1438C15.1922 35.9411 15.2391 35.9505 15.2839 35.9693C15.3281 35.9875 15.3677 36.0141 15.4021 36.0484C15.4365 36.0828 15.4625 36.1219 15.4813 36.1667C15.4995 36.2115 15.5089 36.2583 15.5089 36.3068V38.4984ZM15.5089 32.6536C15.5089 32.7021 15.4995 32.749 15.4813 32.7932C15.4625 32.838 15.4365 32.8776 15.4021 32.912C15.3677 32.9464 15.3281 32.9724 15.2839 32.9911C15.2391 33.0099 15.1922 33.0187 15.1438 33.0187H12.9542C12.9057 33.0187 12.8594 33.0099 12.8146 32.9911C12.7698 32.9724 12.7302 32.9464 12.6964 32.912C12.662 32.8776 12.6354 32.838 12.6172 32.7932C12.5984 32.749 12.5891 32.7021 12.5891 32.6536V30.462C12.5891 30.4135 12.5984 30.3667 12.6172 30.3224C12.6354 30.2776 12.662 30.238 12.6964 30.2036C12.7302 30.1693 12.7698 30.1432 12.8146 30.1245C12.8594 30.1057 12.9057 30.0969 12.9542 30.0969H15.1438C15.1922 30.0969 15.2391 30.1057 15.2839 30.1245C15.3281 30.1432 15.3677 30.1693 15.4021 30.2036C15.4365 30.238 15.4625 30.2776 15.4813 30.3219C15.4995 30.3667 15.5089 30.4135 15.5089 30.462V32.6536ZM15.5089 26.8089C15.5089 26.8573 15.4995 26.9042 15.4813 26.949C15.4625 26.9937 15.4365 27.0328 15.4021 27.0672C15.3677 27.1016 15.3281 27.1281 15.2839 27.1464C15.2391 27.1651 15.1922 27.1745 15.1438 27.1745H12.9542C12.9057 27.1745 12.8594 27.1651 12.8146 27.1464C12.7698 27.1281 12.7302 27.1016 12.6964 27.0672C12.662 27.0328 12.6354 26.9937 12.6172 26.949C12.5984 26.9042 12.5891 26.8573 12.5891 26.8089V24.6172C12.5891 24.5687 12.5984 24.5224 12.6172 24.4776C12.6354 24.4328 12.662 24.3932 12.6964 24.3589C12.7302 24.3245 12.7698 24.2984 12.8146 24.2797C12.8594 24.2615 12.9057 24.2521 12.9542 24.2521H15.1438C15.1922 24.2521 15.2391 24.2615 15.2839 24.2797C15.3281 24.2984 15.3677 24.3245 15.4021 24.3589C15.4365 24.3932 15.4625 24.4328 15.4813 24.4776C15.4995 24.5224 15.5089 24.5687 15.5089 24.6172V26.8089ZM24.9979 4.52604C25.1411 4.52604 25.2844 4.52969 25.4276 4.53646C25.5708 4.54375 25.7135 4.55416 25.8563 4.56823C25.999 4.58229 26.1411 4.6 26.2833 4.62083C26.425 4.64219 26.5661 4.66666 26.7068 4.69479C26.8474 4.72239 26.987 4.75416 27.126 4.78906C27.2651 4.82396 27.4031 4.86198 27.5406 4.90364C27.6776 4.94531 27.8135 4.9901 27.9484 5.03854C28.0839 5.08698 28.2172 5.13854 28.35 5.19323C28.4823 5.24844 28.613 5.30625 28.7427 5.36771C28.8724 5.42916 29.0005 5.49375 29.1271 5.56146C29.2531 5.62916 29.3781 5.69948 29.501 5.77344C29.624 5.84739 29.7448 5.92396 29.8641 6.00364C29.9833 6.08333 30.1005 6.16614 30.2156 6.25156C30.3307 6.33698 30.4438 6.425 30.5547 6.51614C30.6651 6.60729 30.774 6.70104 30.8802 6.79739C30.9865 6.89375 31.0901 6.99271 31.1917 7.09375C31.2927 7.19531 31.3917 7.29948 31.488 7.40573C31.5844 7.51198 31.6776 7.62031 31.7688 7.73125C31.8594 7.84219 31.9479 7.95521 32.0333 8.07083C32.1188 8.18594 32.201 8.30312 32.2807 8.42239C32.3604 8.54167 32.437 8.66302 32.5109 8.78594C32.5844 8.90885 32.6552 9.03385 32.7224 9.16042C32.7901 9.28698 32.8547 9.4151 32.9161 9.54479C32.9771 9.67448 33.0354 9.80573 33.0901 9.93802C33.1448 10.0708 33.1964 10.2047 33.2448 10.3396C33.2932 10.4745 33.338 10.6109 33.3797 10.7484C33.4214 10.8854 33.4594 11.024 33.4943 11.163C33.5292 11.3021 33.5604 11.4422 33.5885 11.5828C33.6167 11.7234 33.6411 11.8646 33.662 12.0068C33.6833 12.1484 33.7005 12.2911 33.7146 12.4339C33.7286 12.5766 33.7391 12.7198 33.7464 12.863C33.7531 13.0062 33.7568 13.1495 33.7568 13.2932C33.7568 13.4365 33.7531 13.5802 33.7464 13.7234C33.7391 13.8667 33.7286 14.0099 33.7146 14.1526C33.7005 14.2953 33.6833 14.4375 33.662 14.5797C33.6411 14.7214 33.6167 14.863 33.5885 15.0036C33.5604 15.1443 33.5292 15.2844 33.4943 15.4234C33.4594 15.5625 33.4214 15.701 33.3797 15.838C33.338 15.9755 33.2932 16.1115 33.2448 16.2469C33.1964 16.3818 33.1448 16.5156 33.0901 16.6479C33.0354 16.7807 32.9771 16.912 32.9161 17.0417C32.8547 17.1714 32.7901 17.2995 32.7224 17.426C32.6552 17.5526 32.5844 17.6771 32.5109 17.8005C32.437 17.9234 32.3604 18.0448 32.2807 18.1641C32.201 18.2833 32.1188 18.4005 32.0333 18.5156C31.9479 18.6307 31.8594 18.7437 31.7688 18.8547C31.6776 18.9656 31.5844 19.0745 31.488 19.1807C31.3917 19.287 31.2927 19.3911 31.1917 19.4922C31.0901 19.5937 30.9865 19.6927 30.8802 19.7891C30.774 19.8854 30.6651 19.9792 30.5547 20.0703C30.4438 20.1609 30.3307 20.2495 30.2156 20.3349C30.1005 20.4203 29.9833 20.5031 29.8641 20.5828C29.7448 20.6625 29.624 20.7391 29.501 20.813C29.3781 20.8865 29.2531 20.9573 29.1271 21.025C29.0005 21.0927 28.8724 21.1573 28.7427 21.2182C28.613 21.2797 28.4823 21.338 28.35 21.3927C28.2172 21.4479 28.0839 21.4995 27.9484 21.5479C27.8135 21.5958 27.6776 21.6411 27.5406 21.6828C27.4031 21.7245 27.2651 21.7625 27.126 21.7974C26.987 21.8323 26.8474 21.8635 26.7068 21.8917C26.5661 21.9198 26.425 21.9443 26.2833 21.9651C26.1411 21.9865 25.999 22.0036 25.8563 22.0182C25.7135 22.0323 25.5708 22.0427 25.4276 22.0495C25.2844 22.0568 25.1411 22.0604 24.9979 22.0604C24.8547 22.0604 24.7115 22.0568 24.5682 22.0495C24.425 22.0427 24.2818 22.0323 24.1396 22.0177C23.9969 22.0036 23.8547 21.9865 23.7125 21.9651C23.5708 21.9443 23.4297 21.9198 23.2891 21.8917C23.1484 21.8635 23.0089 21.8323 22.8698 21.7974C22.7307 21.7625 22.5922 21.7245 22.4552 21.6828C22.3182 21.6411 22.1818 21.5958 22.0469 21.5479C21.912 21.4995 21.7781 21.4479 21.6458 21.3927C21.5135 21.338 21.3823 21.2797 21.2531 21.2182C21.1234 21.1573 20.9953 21.0927 20.8688 21.025C20.7427 20.9573 20.6177 20.8865 20.4948 20.813C20.3719 20.7391 20.251 20.6625 20.1318 20.5828C20.0125 20.5031 19.8953 20.4203 19.7802 20.3349C19.6651 20.2495 19.5521 20.1609 19.4411 20.0703C19.3302 19.9792 19.2219 19.8854 19.1156 19.7891C19.0094 19.6927 18.9057 19.5937 18.8042 19.4922C18.7031 19.3911 18.6042 19.287 18.5078 19.1807C18.4115 19.0745 18.3182 18.9656 18.2271 18.8547C18.1359 18.7437 18.0479 18.6307 17.9625 18.5156C17.8771 18.4005 17.7948 18.2833 17.7151 18.1641C17.6354 18.0448 17.5589 17.9234 17.4849 17.8005C17.4115 17.6771 17.3406 17.5526 17.2729 17.426C17.2057 17.2995 17.1411 17.1714 17.0797 17.0417C17.0188 16.912 16.9604 16.7807 16.9057 16.6479C16.8505 16.5156 16.799 16.3818 16.751 16.2469C16.7026 16.1115 16.6578 15.9755 16.6161 15.838C16.5745 15.701 16.5359 15.5625 16.5016 15.4234C16.4667 15.2844 16.4349 15.1443 16.4073 15.0036C16.3792 14.863 16.3547 14.7214 16.3339 14.5797C16.3125 14.4375 16.2953 14.2953 16.2813 14.1526C16.2672 14.0099 16.2563 13.8667 16.2495 13.7234C16.2422 13.5802 16.2391 13.4365 16.2391 13.2932C16.2391 13.1495 16.2422 13.0062 16.2495 12.863C16.2563 12.7198 16.2672 12.5766 16.2813 12.4339C16.2953 12.2911 16.3125 12.1484 16.3339 12.0068C16.3547 11.8646 16.3792 11.7234 16.4073 11.5828C16.4349 11.4422 16.4667 11.3021 16.5016 11.163C16.5359 11.024 16.5745 10.8854 16.6161 10.7484C16.6578 10.6109 16.7026 10.4745 16.751 10.3396C16.799 10.2047 16.8505 10.0708 16.9057 9.93802C16.9604 9.80573 17.0188 9.67448 17.0797 9.54479C17.1411 9.4151 17.2057 9.28698 17.2729 9.16042C17.3406 9.03385 17.4115 8.90885 17.4849 8.78594C17.5589 8.66302 17.6354 8.54167 17.7151 8.42239C17.7948 8.30312 17.8771 8.18594 17.9625 8.07083C18.0479 7.95521 18.1359 7.84219 18.2271 7.73125C18.3182 7.62031 18.4115 7.51198 18.5078 7.40573C18.6042 7.29948 18.7031 7.19531 18.8042 7.09375C18.9057 6.99271 19.0094 6.89375 19.1156 6.79739C19.2219 6.70104 19.3302 6.60729 19.4411 6.51614C19.5521 6.425 19.6651 6.33698 19.7802 6.25156C19.8953 6.16614 20.0125 6.08333 20.1318 6.00364C20.251 5.92396 20.3719 5.84739 20.4948 5.77344C20.6177 5.69948 20.7427 5.62916 20.8688 5.56146C20.9953 5.49375 21.1234 5.42916 21.2531 5.36771C21.3823 5.30625 21.5135 5.24844 21.6458 5.19323C21.7781 5.13854 21.912 5.08698 22.0469 5.03854C22.1818 4.9901 22.3182 4.94531 22.4552 4.90364C22.5922 4.86198 22.7307 4.82396 22.8698 4.78906C23.0089 4.75416 23.1484 4.72239 23.2891 4.69479C23.4297 4.66666 23.5708 4.64219 23.7125 4.62083C23.8547 4.6 23.9969 4.58229 24.1396 4.56823C24.2818 4.55416 24.425 4.54375 24.5682 4.53646C24.7115 4.52969 24.8547 4.52604 24.9979 4.52604ZM30.837 38.8635H17.6984C17.6505 38.8635 17.6036 38.8542 17.5589 38.8359C17.5141 38.8172 17.475 38.7911 17.4406 38.7568C17.4062 38.7224 17.3802 38.6828 17.3615 38.638C17.3432 38.5932 17.3339 38.5469 17.3339 38.4984C17.3339 38.45 17.3432 38.4031 17.3615 38.3583C17.3802 38.3141 17.4062 38.2745 17.4406 38.2401C17.475 38.2057 17.5141 38.1792 17.5589 38.1609C17.6036 38.1422 17.6505 38.1333 17.6984 38.1333H30.837C30.8854 38.1333 30.9323 38.1422 30.9771 38.1609C31.0214 38.1792 31.0609 38.2057 31.0953 38.2401C31.1297 38.2745 31.1557 38.3141 31.1745 38.3583C31.1927 38.4031 31.2021 38.45 31.2021 38.4984C31.2021 38.5469 31.1927 38.5932 31.1745 38.638C31.1557 38.6828 31.1297 38.7224 31.0953 38.7568C31.0609 38.7911 31.0214 38.8172 30.9771 38.8359C30.9323 38.8542 30.8854 38.8635 30.837 38.8635ZM37.0417 36.6719H17.6984C17.6505 36.6719 17.6036 36.6625 17.5589 36.6443C17.5141 36.6255 17.475 36.599 17.4406 36.5651C17.4062 36.5307 17.3802 36.4911 17.3615 36.4464C17.3432 36.4016 17.3339 36.3552 17.3339 36.3068C17.3339 36.2583 17.3432 36.2115 17.3615 36.1667C17.3802 36.1219 17.4062 36.0828 17.4406 36.0484C17.475 36.0141 17.5141 35.9875 17.5589 35.9693C17.6036 35.9505 17.6505 35.9411 17.6984 35.9411H37.0417C37.0901 35.9411 37.1365 35.9505 37.1813 35.9693C37.226 35.9875 37.2651 36.0141 37.2995 36.0484C37.3339 36.0828 37.3599 36.1219 37.3786 36.1667C37.3974 36.2115 37.4063 36.2583 37.4063 36.3068C37.4063 36.3552 37.3974 36.4016 37.3786 36.4464C37.3599 36.4911 37.3339 36.5307 37.2995 36.5651C37.2651 36.599 37.226 36.6255 37.1813 36.6443C37.1365 36.6625 37.0901 36.6719 37.0417 36.6719ZM17.6984 32.2885H30.837C30.8854 32.2885 30.9323 32.2979 30.9771 32.3161C31.0214 32.3349 31.0609 32.3609 31.0953 32.3953C31.1297 32.4297 31.1557 32.4693 31.1745 32.5141C31.1927 32.5589 31.2021 32.6052 31.2021 32.6536C31.2021 32.7021 31.1927 32.749 31.1745 32.7932C31.1557 32.838 31.1297 32.8776 31.0953 32.912C31.0609 32.9464 31.0214 32.9724 30.9771 32.9911C30.9323 33.0099 30.8854 33.0187 30.837 33.0187H17.6984C17.6505 33.0187 17.6036 33.0099 17.5589 32.9911C17.5141 32.9724 17.475 32.9464 17.4406 32.912C17.4062 32.8776 17.3802 32.838 17.3615 32.7932C17.3432 32.749 17.3339 32.7021 17.3339 32.6536C17.3339 32.6052 17.3432 32.5589 17.3615 32.5141C17.3802 32.4693 17.4062 32.4297 17.4406 32.3953C17.475 32.3609 17.5141 32.3349 17.5589 32.3161C17.6036 32.2979 17.6505 32.2885 17.6984 32.2885ZM37.0417 30.8271H17.6984C17.6505 30.8271 17.6036 30.8177 17.5589 30.7995C17.5141 30.7807 17.475 30.7547 17.4406 30.7203C17.4062 30.6859 17.3802 30.6464 17.3615 30.6016C17.3432 30.5568 17.3339 30.5104 17.3339 30.462C17.3339 30.4135 17.3432 30.3667 17.3615 30.3219C17.3802 30.2776 17.4062 30.238 17.4406 30.2036C17.475 30.1693 17.5141 30.1432 17.5589 30.1245C17.6036 30.1057 17.6505 30.0969 17.6984 30.0969H37.0417C37.0901 30.0969 37.1365 30.1057 37.1813 30.1245C37.226 30.1432 37.2651 30.1693 37.2995 30.2036C37.3339 30.238 37.3599 30.2776 37.3786 30.3219C37.3974 30.3667 37.4063 30.4135 37.4063 30.462C37.4063 30.5104 37.3974 30.5568 37.3786 30.6016C37.3599 30.6464 37.3339 30.6859 37.2995 30.7203C37.2651 30.7547 37.226 30.7807 37.1813 30.7995C37.1365 30.8177 37.0901 30.8271 37.0417 30.8271ZM17.6984 26.4437H30.837C30.8854 26.4437 30.9323 26.4531 30.9771 26.4714C31.0214 26.4901 31.0609 26.5167 31.0953 26.5505C31.1297 26.5849 31.1557 26.6245 31.1745 26.6693C31.1927 26.7141 31.2021 26.7604 31.2021 26.8089C31.2021 26.8573 31.1927 26.9042 31.1745 26.949C31.1557 26.9937 31.1297 27.0328 31.0953 27.0672C31.0609 27.1016 31.0214 27.1281 30.9771 27.1464C30.9323 27.1651 30.8854 27.1745 30.837 27.1745H17.6984C17.6505 27.1745 17.6036 27.1651 17.5589 27.1464C17.5141 27.1281 17.475 27.1016 17.4406 27.0672C17.4062 27.0328 17.3802 26.9937 17.3615 26.949C17.3432 26.9042 17.3339 26.8573 17.3339 26.8089C17.3339 26.7604 17.3432 26.7141 17.3615 26.6693C17.3802 26.6245 17.4062 26.5849 17.4406 26.5505C17.475 26.5167 17.5141 26.4901 17.5589 26.4714C17.6036 26.4531 17.6505 26.4437 17.6984 26.4437ZM37.0417 24.9823H17.6984C17.6505 24.9823 17.6036 24.9734 17.5589 24.9547C17.5141 24.9359 17.475 24.9099 17.4406 24.8755C17.4062 24.8411 17.3802 24.8016 17.3615 24.7568C17.3432 24.7125 17.3339 24.6656 17.3339 24.6172C17.3339 24.5687 17.3432 24.5224 17.3615 24.4776C17.3802 24.4328 17.4062 24.3932 17.4406 24.3589C17.475 24.3245 17.5141 24.2984 17.5589 24.2797C17.6036 24.2615 17.6505 24.2521 17.6984 24.2521H37.0417C37.0901 24.2521 37.1365 24.2615 37.1813 24.2797C37.226 24.2984 37.2651 24.3245 37.2995 24.3589C37.3339 24.3932 37.3599 24.4328 37.3786 24.4776C37.3974 24.5224 37.4063 24.5687 37.4063 24.6172C37.4063 24.6656 37.3974 24.7125 37.3786 24.7568C37.3599 24.8016 37.3339 24.8411 37.2995 24.8755C37.2651 24.9099 37.226 24.9359 37.1813 24.9547C37.1365 24.9734 37.0901 24.9823 37.0417 24.9823ZM24.9979 21.3297C25.2609 21.3297 25.5229 21.3167 25.7849 21.2911C26.0464 21.2651 26.3063 21.2266 26.5641 21.175C26.8224 21.124 27.0771 21.0599 27.3286 20.9833C27.5802 20.9073 27.8276 20.8187 28.0703 20.7177C28.3135 20.6172 28.551 20.5047 28.7828 20.3807C29.0146 20.2568 29.2401 20.1214 29.4583 19.975C29.6771 19.8292 29.888 19.6724 30.0917 19.5052C30.2948 19.3385 30.4896 19.162 30.6755 18.9755C30.8615 18.7896 31.0375 18.5948 31.2047 18.3917C31.3714 18.188 31.5276 17.9766 31.674 17.7578C31.8198 17.5391 31.9547 17.3135 32.0786 17.0812C32.2026 16.8495 32.3151 16.612 32.4156 16.3687C32.5167 16.1255 32.6047 15.8781 32.6813 15.626C32.7578 15.374 32.8214 15.1193 32.8729 14.8609C32.924 14.6026 32.9625 14.3427 32.9885 14.0807C33.0141 13.8187 33.0271 13.5562 33.0271 13.2932C33.0271 13.0297 33.0141 12.7672 32.9885 12.5052C32.9625 12.2437 32.924 11.9833 32.8729 11.7255C32.8214 11.4672 32.7578 11.212 32.6813 10.9604C32.6047 10.7083 32.5167 10.4609 32.4156 10.2177C32.3151 9.97448 32.2026 9.73698 32.0786 9.50469C31.9547 9.27291 31.8198 9.04739 31.674 8.82812C31.5276 8.60937 31.3714 8.39844 31.2047 8.19479C31.0375 7.99166 30.8615 7.79687 30.6755 7.61041C30.4896 7.42448 30.2948 7.24791 30.0917 7.08073C29.888 6.91406 29.6771 6.75729 29.4583 6.61094C29.2401 6.4651 29.0146 6.32969 28.7828 6.20573C28.551 6.08177 28.3135 5.96927 28.0703 5.86823C27.8276 5.76771 27.5802 5.67916 27.3286 5.6026C27.0771 5.52656 26.8224 5.4625 26.5641 5.41094C26.3063 5.35989 26.0464 5.32135 25.7849 5.29531C25.5229 5.26979 25.2609 5.25677 24.9979 5.25677C24.7349 5.25677 24.4724 5.26979 24.2109 5.29531C23.949 5.32135 23.6896 5.35989 23.4313 5.41094C23.1734 5.4625 22.9188 5.52656 22.6672 5.6026C22.4156 5.67916 22.1682 5.76771 21.9255 5.86823C21.6823 5.96927 21.4448 6.08177 21.213 6.20573C20.9813 6.32969 20.7557 6.4651 20.537 6.61094C20.3188 6.75729 20.1073 6.91406 19.9042 7.08073C19.701 7.24791 19.5063 7.42448 19.3203 7.61041C19.1344 7.79687 18.9583 7.99166 18.7911 8.19479C18.6245 8.39844 18.4682 8.60937 18.3219 8.82812C18.176 9.04739 18.0406 9.27291 17.9167 9.50469C17.7927 9.73698 17.6807 9.97448 17.5797 10.2177C17.4792 10.4609 17.3906 10.7083 17.3146 10.9604C17.238 11.212 17.1745 11.4672 17.1229 11.7255C17.0719 11.9833 17.0333 12.2437 17.0073 12.5052C16.9818 12.7672 16.9688 13.0297 16.9688 13.2932C16.9688 13.5562 16.9818 13.8187 17.0073 14.0807C17.0333 14.3427 17.0719 14.6026 17.1229 14.8609C17.1745 15.1193 17.238 15.374 17.3146 15.626C17.3906 15.8781 17.4792 16.1255 17.5797 16.3687C17.6807 16.612 17.7927 16.8495 17.9167 17.0812C18.0406 17.3135 18.176 17.5391 18.3219 17.7578C18.4682 17.9766 18.6245 18.188 18.7911 18.3917C18.9583 18.5948 19.1344 18.7896 19.3203 18.9755C19.5063 19.162 19.701 19.3385 19.9042 19.5052C20.1073 19.6724 20.3188 19.8292 20.537 19.975C20.7557 20.1214 20.9813 20.2568 21.213 20.3807C21.4448 20.5047 21.6823 20.6172 21.925 20.7177C22.1682 20.8187 22.4156 20.9073 22.6672 20.9833C22.9188 21.0599 23.1734 21.124 23.4313 21.175C23.6896 21.2266 23.949 21.2651 24.2109 21.2911C24.4724 21.3167 24.7349 21.3297 24.9979 21.3297ZM20.8813 13.0302L23.538 15.6896L29.1146 10.1078C29.1495 10.0729 29.1896 10.0458 29.2349 10.0271C29.2807 10.0083 29.3281 9.99896 29.3776 9.99896C29.4266 9.99896 29.474 10.0083 29.5198 10.0271C29.5651 10.0458 29.6052 10.0729 29.6401 10.1078C29.675 10.1427 29.7021 10.1828 29.7208 10.2286C29.7396 10.274 29.749 10.3214 29.749 10.3708C29.749 10.4203 29.7396 10.4677 29.7208 10.513C29.7021 10.5589 29.675 10.599 29.6401 10.6339L23.801 16.4786C23.7661 16.5141 23.7266 16.5417 23.6807 16.5609C23.6354 16.5807 23.5875 16.5901 23.538 16.5901C23.4885 16.5901 23.4406 16.5807 23.3953 16.5609C23.3495 16.5417 23.3099 16.5141 23.275 16.4786L20.3557 13.5562C20.3208 13.5214 20.2938 13.4812 20.275 13.4354C20.2563 13.3901 20.2469 13.3427 20.2469 13.2932C20.2469 13.2437 20.2563 13.1964 20.275 13.151C20.2938 13.1052 20.3208 13.0651 20.3557 13.0302C20.3906 12.9953 20.4307 12.9682 20.476 12.9495C20.5219 12.9307 20.5693 12.9214 20.6182 12.9214C20.6677 12.9214 20.7151 12.9307 20.7604 12.9495C20.8063 12.9682 20.8464 12.9953 20.8813 13.0302ZM13.3193 38.1333H14.7792V36.6719H13.3193V38.1333ZM13.3193 32.2885H14.7792V30.8271H13.3193V32.2885ZM13.3193 36.6719V38.1333H14.7792V36.6719H13.3193ZM13.3193 30.8271V32.2885H14.7792V30.8271H13.3193ZM13.3193 36.6719V38.1333H14.7792V36.6719H13.3193ZM13.3193 30.8271V32.2885H14.7792V30.8271H13.3193ZM13.3193 30.8271V32.2885H14.7792V30.8271H13.3193ZM13.3193 30.8271V32.2885H14.7792V30.8271H13.3193ZM13.3193 30.8271V32.2885H14.7792V30.8271H13.3193ZM13.3193 30.8271V32.2885H14.7792V30.8271H13.3193Z" fill="white"/>
</g>
<mask id="mask1_457_853" style="mask-type:luminance" maskUnits="userSpaceOnUse" x="41" y="1" width="7" height="8">
<path d="M41.3335 1.96927H47.9981V8.66667H41.3335V1.96927Z" fill="white"/>
</mask>
<g mask="url(#mask1_457_853)">
<path d="M44.7058 1.96927C44.8131 1.96927 44.9204 1.97448 45.0277 1.98489C45.135 1.99531 45.2412 2.01146 45.3464 2.03229C45.4521 2.05312 45.5563 2.07916 45.6589 2.11041C45.762 2.14166 45.8631 2.17812 45.9626 2.21927C46.062 2.26041 46.1594 2.30625 46.2542 2.35729C46.349 2.40781 46.4412 2.46354 46.5308 2.52291C46.6199 2.58281 46.7063 2.64687 46.7896 2.7151C46.8725 2.78385 46.9521 2.85573 47.0282 2.93177C47.1042 3.00833 47.1766 3.08802 47.2449 3.17083C47.3131 3.25416 47.3771 3.34062 47.4365 3.43021C47.4964 3.51979 47.5516 3.61198 47.6027 3.70677C47.6532 3.80208 47.699 3.89896 47.7402 3.99844C47.7813 4.09791 47.8178 4.19948 47.849 4.3026C47.8803 4.40521 47.9063 4.50989 47.9271 4.6151C47.948 4.72083 47.9641 4.82708 47.9745 4.93437C47.985 5.04166 47.9902 5.14896 47.9902 5.25677V8.54427H41.4209V5.25677C41.4209 5.14896 41.4261 5.04166 41.437 4.93437C41.4475 4.82708 41.4631 4.72083 41.4844 4.6151C41.5053 4.50989 41.5313 4.40521 41.5626 4.3026C41.5938 4.19948 41.6298 4.09791 41.6709 3.99844C41.712 3.89896 41.7584 3.80208 41.8089 3.70677C41.8594 3.61198 41.9146 3.51979 41.9745 3.43021C42.0344 3.34062 42.0985 3.25416 42.1667 3.17083C42.235 3.08802 42.3068 3.00833 42.3829 2.93177C42.4594 2.85573 42.5386 2.78385 42.6219 2.7151C42.7053 2.64687 42.7912 2.58281 42.8808 2.52291C42.9704 2.46354 43.0626 2.40781 43.1574 2.35729C43.2521 2.30625 43.3495 2.26041 43.4485 2.21927C43.548 2.17812 43.6495 2.14166 43.7521 2.11041C43.8553 2.07916 43.9594 2.05312 44.0646 2.03229C44.1704 2.01146 44.2766 1.99531 44.3839 1.98489C44.4907 1.97448 44.598 1.96927 44.7058 1.96927Z" fill="white"/>
</g>
</svg>
