<svg width="50" height="50" viewBox="0 0 50 50" fill="none" xmlns="http://www.w3.org/2000/svg">
<mask id="mask0_457_772" style="mask-type:luminance" maskUnits="userSpaceOnUse" x="2" y="5" width="46" height="40">
<path d="M2.7998 5.68802H47.1998V44.288H2.7998V5.68802Z" fill="white"/>
</mask>
<g mask="url(#mask0_457_772)">
<path d="M45.6503 22.3802H42.5091V7.57344C42.5091 6.76354 41.8602 6.10052 41.0346 6.10052H30.7565C29.9456 6.10052 29.282 6.76354 29.282 7.57344V22.3802H22.1305L21.3784 20.1115H25.4039C26.2148 20.1115 26.8784 19.463 26.8784 18.638V7.17604C26.8784 6.36563 26.2148 5.70261 25.4039 5.70261H8.97682C8.1513 5.70261 7.50234 6.36563 7.50234 7.17604V18.638C7.50234 19.463 8.1513 20.1115 8.97682 20.1115H13.0023L12.2503 22.3802H4.36172C3.55026 22.3802 2.88672 23.0432 2.88672 23.8531C2.88672 24.6786 3.55026 25.3266 4.36172 25.3266H6.11641V42.8C6.11641 43.6099 6.77995 44.2729 7.59089 44.2729C8.40182 44.2729 9.06536 43.6099 9.06536 42.8V31.0578H28.869V42.8C28.869 43.6099 29.5326 44.2729 30.344 44.2729C31.1549 44.2729 31.8185 43.6099 31.8185 42.8V41.5031H40.9461V42.8C40.9461 43.6099 41.6096 44.2729 42.4206 44.2729C43.2466 44.2729 43.8951 43.6099 43.8951 42.8V25.3266H45.6503C46.4612 25.3266 47.1247 24.6786 47.1247 23.8531C47.1247 23.0432 46.4612 22.3802 45.6503 22.3802ZM10.4513 17.1646V8.64896H23.9294V17.1646H10.4513ZM19.019 22.3802H15.3471L16.0992 20.1115H18.2669L19.019 22.3802ZM28.869 28.1109H9.06536V25.3266H28.869V28.1109ZM35.8294 32.4573C35.8294 33.2677 35.1659 33.9307 34.3549 33.9307C33.5435 33.9307 32.8799 33.2677 32.8799 32.4573V30.6156C32.8799 29.8052 33.5435 29.1427 34.3549 29.1427C35.1659 29.1427 35.8294 29.8052 35.8294 30.6156V32.4573ZM39.5602 22.3802H32.2315V13.3781H39.5602V22.3802Z" fill="white"/>
</g>
<path d="M35.9033 18.9474C36.9799 18.9474 37.8647 18.0635 37.8647 16.988C37.8647 15.8974 36.9799 15.0135 35.9033 15.0135C34.8121 15.0135 33.9272 15.8974 33.9272 16.988C33.9272 18.0635 34.8121 18.9474 35.9033 18.9474Z" fill="white"/>
</svg>
