<svg width="50" height="50" viewBox="0 0 50 50" fill="none" xmlns="http://www.w3.org/2000/svg">
<mask id="mask0_457_1136" style="mask-type:luminance" maskUnits="userSpaceOnUse" x="33" y="1" width="11" height="21">
<path d="M33.0669 1.17343H43.3336V21.7333H33.0669V1.17343Z" fill="white"/>
</mask>
<g mask="url(#mask0_457_1136)">
<path d="M43.2464 13.2088C43.2464 13.1599 43.2417 13.112 43.2324 13.0646C43.223 13.0172 43.2089 12.9708 43.1907 12.926C43.1719 12.8812 43.149 12.8391 43.1225 12.7984C43.0954 12.7583 43.0647 12.7208 43.0308 12.687C42.9964 12.6526 42.9589 12.6219 42.9188 12.5948C42.8787 12.5682 42.836 12.5453 42.7912 12.5271C42.7464 12.5083 42.7006 12.4943 42.6527 12.4849C42.6053 12.4755 42.5574 12.4708 42.5089 12.4708H40.9709L39.7318 8.18333C39.8558 8.10989 39.9735 8.0276 40.0855 7.93645C40.1975 7.84531 40.3022 7.74687 40.3996 7.64062C40.4969 7.53437 40.586 7.42135 40.6667 7.30208C40.748 7.18229 40.8193 7.05781 40.8824 6.9276C40.9449 6.79791 40.9975 6.66406 41.0407 6.52656C41.0834 6.38854 41.1162 6.24895 41.1386 6.10624C41.161 5.96354 41.173 5.82031 41.1746 5.67604C41.1761 5.53176 41.1673 5.38854 41.1475 5.24531C41.1282 5.1026 41.098 4.96197 41.0579 4.82343C41.0178 4.68489 40.9678 4.54999 40.9079 4.41874C40.848 4.28749 40.7787 4.16145 40.7001 4.04062C40.6219 3.91926 40.535 3.80468 40.4397 3.69635C40.3443 3.58801 40.2417 3.48749 40.1318 3.39426C40.0219 3.30104 39.9058 3.21614 39.7834 3.1401C39.661 3.06406 39.5334 2.99687 39.4011 2.93958C39.2688 2.88176 39.1334 2.83437 38.9943 2.79687V1.91145C38.9943 1.86249 38.9897 1.81458 38.9798 1.76718C38.9704 1.71979 38.9563 1.67343 38.9381 1.62864C38.9193 1.58385 38.8969 1.54166 38.8699 1.50104C38.8428 1.46093 38.8126 1.42343 38.7782 1.38958C38.7438 1.3552 38.7063 1.32447 38.6662 1.29791C38.6261 1.27083 38.5834 1.24791 38.5386 1.22968C38.4938 1.21093 38.448 1.19687 38.4006 1.18749C38.3527 1.17812 38.3048 1.17343 38.2563 1.17343C38.2079 1.17343 38.16 1.17812 38.1126 1.18749C38.0652 1.19687 38.0188 1.21093 37.974 1.22968C37.9292 1.24791 37.8871 1.27083 37.8464 1.29791C37.8063 1.32447 37.7693 1.3552 37.735 1.38958C37.7006 1.42343 37.6699 1.46093 37.6433 1.50104C37.6162 1.54166 37.5933 1.58385 37.5751 1.62864C37.5563 1.67343 37.5423 1.71979 37.5329 1.76718C37.5235 1.81458 37.5188 1.86249 37.5188 1.91145V2.79687C37.3792 2.83333 37.2428 2.87968 37.11 2.93593C36.9766 2.9927 36.8485 3.05833 36.7256 3.13385C36.6022 3.20937 36.485 3.29322 36.374 3.38541C36.2631 3.47812 36.1594 3.57812 36.0631 3.68593C35.9667 3.79374 35.8792 3.90781 35.7996 4.02864C35.7199 4.14947 35.6496 4.27499 35.5886 4.40624C35.5277 4.53697 35.4766 4.67187 35.4355 4.81041C35.3943 4.94895 35.3631 5.08958 35.3428 5.23281C35.3219 5.37551 35.3121 5.51926 35.3126 5.66406C35.3131 5.80833 35.324 5.95208 35.3459 6.09531C35.3678 6.23801 35.3996 6.37864 35.4417 6.51666C35.4839 6.65468 35.536 6.78906 35.598 6.91979C35.66 7.05051 35.7313 7.17552 35.8115 7.29583C35.8923 7.41562 35.9808 7.52916 36.0782 7.63645C36.1751 7.74322 36.2792 7.8427 36.3912 7.93437C36.5027 8.02604 36.6204 8.10885 36.7443 8.18333L35.5272 12.4745H33.9891C33.9407 12.4745 33.8928 12.4792 33.8454 12.4885C33.7975 12.4979 33.7516 12.512 33.7068 12.5302C33.6621 12.549 33.6193 12.5713 33.5792 12.5984C33.5386 12.6255 33.5016 12.6562 33.4673 12.6901C33.4329 12.7245 33.4022 12.762 33.3756 12.8021C33.3485 12.8422 33.3256 12.8849 33.3074 12.9297C33.2886 12.9745 33.2746 13.0208 33.2652 13.0682C33.2558 13.1156 33.2511 13.1641 33.2511 13.2125C33.2511 13.2609 33.2558 13.3088 33.2652 13.3562C33.2746 13.4036 33.2886 13.45 33.3074 13.4948C33.3256 13.5396 33.3485 13.5823 33.3756 13.6224C33.4022 13.663 33.4329 13.7 33.4673 13.7344C33.5016 13.7687 33.5386 13.799 33.5792 13.826C33.6193 13.8531 33.6621 13.8755 33.7068 13.8943C33.7516 13.9125 33.7975 13.9266 33.8454 13.9359C33.8928 13.9453 33.9407 13.95 33.9891 13.95H35.0959L33.2001 20.6875C33.1871 20.7338 33.1787 20.7812 33.1751 20.8297C33.1719 20.8781 33.173 20.926 33.1787 20.974C33.1844 21.0219 33.1954 21.0693 33.2105 21.1151C33.2256 21.1609 33.2449 21.2052 33.2688 21.2474C33.2923 21.2891 33.3204 21.3286 33.3516 21.3656C33.3834 21.4021 33.4183 21.4354 33.4563 21.4651C33.4943 21.4948 33.535 21.5208 33.5782 21.5427C33.6214 21.5646 33.6662 21.5818 33.7126 21.5948C33.7589 21.6083 33.8058 21.6172 33.8537 21.6208C33.9022 21.625 33.9501 21.6245 33.9975 21.6193C34.0454 21.6141 34.0923 21.6042 34.1381 21.5896C34.1844 21.575 34.2282 21.5562 34.2704 21.5333C34.3126 21.5104 34.3522 21.4833 34.3891 21.4526C34.4261 21.4213 34.46 21.3875 34.4902 21.35C34.5204 21.3125 34.5469 21.2724 34.5693 21.2302C34.5917 21.1875 34.61 21.1432 34.6235 21.0969L36.6485 13.9578H39.8459L41.2068 18.7542L41.6423 20.2963L41.8709 21.0969C41.8839 21.1437 41.9016 21.1885 41.9235 21.2318C41.9454 21.275 41.9714 21.3156 42.0016 21.3536C42.0313 21.3917 42.0647 21.4266 42.1016 21.4583C42.1386 21.4901 42.1782 21.5177 42.2204 21.5411C42.2626 21.5651 42.3068 21.5844 42.3532 21.5995C42.399 21.6146 42.4464 21.625 42.4943 21.6307C42.5423 21.6365 42.5907 21.6375 42.6391 21.6338C42.6876 21.6302 42.735 21.6219 42.7818 21.6088C42.8282 21.5958 42.8735 21.5781 42.9167 21.5562C42.96 21.5344 43.0006 21.5083 43.0386 21.4786C43.0766 21.4484 43.1115 21.4151 43.1433 21.3781C43.1751 21.3417 43.2027 21.3021 43.2261 21.2599C43.2501 21.2172 43.2699 21.1734 43.285 21.1271C43.3001 21.0812 43.3105 21.0338 43.3162 20.9859C43.3219 20.9375 43.323 20.8896 43.3193 20.8411C43.3157 20.7927 43.3074 20.7453 43.2943 20.6984L43.1433 20.1708L42.8006 18.9568L41.3839 13.9615H42.4907C42.5402 13.9625 42.5897 13.9588 42.6391 13.95C42.6881 13.9411 42.7355 13.9276 42.7818 13.9094C42.8282 13.8906 42.8725 13.8677 42.9141 13.8406C42.9558 13.813 42.9943 13.7818 43.0292 13.7469C43.0647 13.7115 43.0964 13.6729 43.124 13.6318C43.1511 13.5901 43.1746 13.5463 43.1933 13.5C43.2115 13.4536 43.2256 13.4062 43.2344 13.3568C43.2438 13.3078 43.2475 13.2583 43.2464 13.2088ZM37.0688 12.4708L38.1756 8.58906H38.3339L39.4402 12.4708H37.0688ZM38.249 7.12083C38.1522 7.12083 38.0563 7.11145 37.9615 7.0927C37.8662 7.07343 37.774 7.04583 37.6844 7.00833C37.5949 6.97135 37.51 6.92604 37.4292 6.87187C37.349 6.81822 37.2746 6.75729 37.2058 6.68854C37.1376 6.62031 37.0761 6.54531 37.0225 6.4651C36.9688 6.38437 36.923 6.29947 36.886 6.20989C36.849 6.12031 36.8209 6.02812 36.8022 5.93281C36.7834 5.83802 36.774 5.74218 36.774 5.64479C36.774 5.54791 36.7834 5.45208 36.8022 5.35729C36.8209 5.26197 36.849 5.16979 36.886 5.0802C36.923 4.99062 36.9688 4.90572 37.0225 4.82499C37.0761 4.74479 37.1376 4.66979 37.2058 4.60156C37.2746 4.53281 37.349 4.47187 37.4292 4.4177C37.51 4.36406 37.5949 4.31874 37.6844 4.28176C37.774 4.24426 37.8662 4.21666 37.9615 4.19739C38.0563 4.17864 38.1522 4.16926 38.249 4.16926C38.3459 4.16926 38.4417 4.17864 38.5371 4.19739C38.6318 4.21666 38.724 4.24426 38.8136 4.28176C38.9032 4.31874 38.9881 4.36406 39.0688 4.4177C39.149 4.47187 39.224 4.53281 39.2923 4.60156C39.361 4.66979 39.4219 4.74479 39.4756 4.82499C39.5298 4.90572 39.5751 4.99062 39.6121 5.0802C39.649 5.16979 39.6772 5.26197 39.6959 5.35729C39.7152 5.45208 39.7246 5.54791 39.7246 5.64479C39.7246 5.74166 39.7152 5.83749 39.6964 5.93229C39.6777 6.02656 39.6496 6.11874 39.6126 6.20833C39.5761 6.29739 39.5308 6.38229 39.4772 6.46249C39.424 6.54322 39.3631 6.6177 39.2949 6.68593C39.2266 6.75468 39.1527 6.81562 39.0725 6.86979C38.9923 6.92343 38.9079 6.96926 38.8188 7.00624C38.7298 7.04374 38.6381 7.07187 38.5433 7.09114C38.4485 7.11041 38.3532 7.12031 38.2563 7.12083H38.249Z" fill="white"/>
</g>
<path d="M16.6549 21.4365C16.6142 21.4094 16.572 21.3865 16.5267 21.3677C16.4819 21.3495 16.4356 21.3354 16.3882 21.326C16.3403 21.3167 16.2924 21.312 16.2434 21.312C16.195 21.312 16.147 21.3167 16.0991 21.3266C16.0517 21.3359 16.0054 21.35 15.9606 21.3688C15.9158 21.3875 15.8731 21.4104 15.833 21.4375C15.7924 21.4651 15.7554 21.4958 15.721 21.5302C15.6866 21.5646 15.6564 21.6026 15.6293 21.6427L8.03923 33.0807C8.02204 33.1063 8.00693 33.1328 7.99339 33.1604C7.97985 33.1885 7.96787 33.2167 7.95745 33.2458C7.94756 33.275 7.93923 33.3047 7.93298 33.3349C7.92673 33.3651 7.92204 33.3958 7.91943 33.4266C7.91683 33.4573 7.91631 33.488 7.91787 33.5188C7.91891 33.5495 7.92204 33.5802 7.92725 33.6104C7.93245 33.6411 7.93975 33.6708 7.9486 33.7005C7.95745 33.7302 7.96839 33.7589 7.98089 33.787C7.99339 33.8151 8.00745 33.8427 8.0236 33.8693C8.03923 33.8953 8.05693 33.9208 8.0762 33.9448C8.09548 33.9693 8.11579 33.9922 8.13766 34.0135C8.16006 34.0354 8.18298 34.0557 8.20745 34.074C8.23245 34.0927 8.25798 34.1099 8.28454 34.1255C8.3111 34.1411 8.3387 34.1547 8.36735 34.1667C8.39548 34.1786 8.42464 34.1891 8.45433 34.1974C8.48402 34.2057 8.51423 34.2125 8.54443 34.2167L28.8924 37.3307L31.4038 36.224L9.91266 32.9401L16.8653 22.4583C16.8918 22.4177 16.9142 22.375 16.9325 22.3302C16.9507 22.2854 16.9642 22.2391 16.9736 22.1917C16.9825 22.1443 16.9871 22.0958 16.9866 22.0474C16.9861 21.999 16.9814 21.951 16.9715 21.9036C16.9616 21.8563 16.9476 21.8104 16.9288 21.7656C16.9101 21.7208 16.8866 21.6786 16.8595 21.6385C16.8325 21.5984 16.8017 21.5615 16.7674 21.5271C16.733 21.4932 16.6955 21.463 16.6549 21.4365Z" fill="white"/>
<path d="M1.44482 31.4052C1.41826 31.5547 1.39899 31.7052 1.38753 31.8563C1.37607 32.0078 1.3719 32.1594 1.37503 32.3109C1.37815 32.4625 1.38857 32.6135 1.4068 32.7641C1.42451 32.9151 1.45003 33.0641 1.48284 33.2125C1.51513 33.3604 1.55524 33.5068 1.60211 33.651C1.64899 33.7953 1.70315 33.937 1.76409 34.076C1.82503 34.2146 1.89222 34.3505 1.96669 34.4828C2.04065 34.6151 2.12086 34.7432 2.20784 34.8677C2.2943 34.9922 2.38701 35.1125 2.48544 35.2276C2.5844 35.3427 2.68805 35.4531 2.79742 35.5583C2.9068 35.6635 3.02086 35.763 3.14013 35.8573C3.25888 35.951 3.38232 36.0391 3.50992 36.1208C3.63753 36.2026 3.7693 36.2781 3.90419 36.3469C4.03909 36.4162 4.17711 36.4781 4.31826 36.5339C4.4594 36.5891 4.60315 36.6375 4.74899 36.6786C4.89482 36.7203 5.04274 36.7542 5.19169 36.7813L23.8282 39.5448L26.3584 38.4375L5.45367 35.3313C5.35211 35.3125 5.25159 35.2896 5.15211 35.2609C5.05263 35.2328 4.95472 35.1995 4.85836 35.162C4.76253 35.124 4.66826 35.0813 4.57607 35.0344C4.4844 34.987 4.39482 34.9354 4.30784 34.8797C4.22086 34.824 4.13701 34.7641 4.05576 34.6995C3.97451 34.6354 3.8969 34.5677 3.82242 34.4958C3.74794 34.424 3.67763 34.349 3.61044 34.2698C3.54326 34.1912 3.48024 34.1094 3.42138 34.0245C3.36253 33.9396 3.30784 33.8521 3.25732 33.762C3.2068 33.6714 3.16097 33.5792 3.11982 33.4844C3.07815 33.3896 3.04169 33.2927 3.00992 33.1943C2.97815 33.0964 2.95107 32.9964 2.92867 32.8953C2.9068 32.7943 2.88961 32.6927 2.87763 32.5901C2.86565 32.487 2.85836 32.3844 2.85628 32.2807C2.85472 32.1776 2.85732 32.074 2.86565 31.9708C2.87399 31.8677 2.88701 31.7656 2.90524 31.6635C2.95576 31.4438 3.03024 31.2323 3.12919 31.0292C3.22815 30.826 3.34847 30.637 3.49065 30.462C3.63284 30.2865 3.79326 30.1297 3.97138 29.9911C4.15003 29.8526 4.34169 29.7365 4.54638 29.6417C4.81149 29.5115 5.08805 29.4146 5.37659 29.351C5.66513 29.2875 5.9568 29.2589 6.25211 29.2651C6.54742 29.2714 6.83753 29.313 7.12294 29.3891C7.40836 29.4651 7.68024 29.574 7.93961 29.7156C8.02034 29.7563 8.10524 29.7818 8.19534 29.7911C8.28544 29.8005 8.37399 29.7938 8.46097 29.7703C8.54847 29.7474 8.6292 29.7094 8.70263 29.6568C8.77607 29.6042 8.83753 29.5401 8.88753 29.4646L17.0532 17.1859L32.1157 19.0823L32.5214 17.6469L17.9714 15.8135L21.0068 11.2495C21.0334 11.2089 21.0558 11.1661 21.074 11.1214C21.0922 11.0766 21.1058 11.0302 21.1151 10.9828C21.1245 10.9354 21.1287 10.887 21.1282 10.8385C21.1282 10.7901 21.1229 10.7422 21.1131 10.6948C21.1037 10.6474 21.0891 10.6016 21.0703 10.5568C21.0516 10.512 21.0287 10.4698 21.0016 10.4297C20.974 10.3896 20.9433 10.3526 20.9089 10.3182C20.8745 10.2844 20.837 10.2542 20.7964 10.2276C20.7229 10.1865 20.6464 10.151 20.5677 10.1203C17.186 8.87344 14.4896 11.1828 13.5453 12.5885L2.19326 29.6161C1.87763 30.1849 1.62815 30.7813 1.44482 31.4052Z" fill="white"/>
<mask id="mask1_457_1136" style="mask-type:luminance" maskUnits="userSpaceOnUse" x="39" y="19" width="10" height="14">
<path d="M39.8667 19.0667H48.6631V32.5333H39.8667V19.0667Z" fill="white"/>
</mask>
<g mask="url(#mask1_457_1136)">
<path d="M42.2803 31.4094L48.484 20.7094C48.4996 20.6833 48.5132 20.6557 48.5251 20.6276C48.5376 20.6 48.5475 20.5714 48.5564 20.5417C48.5647 20.5125 48.5715 20.4828 48.5762 20.4526C48.5814 20.4224 48.584 20.3922 48.585 20.3615C48.5861 20.3307 48.5855 20.3005 48.5829 20.2698C48.5798 20.2396 48.5757 20.2094 48.5689 20.1797C48.5626 20.1495 48.5543 20.1203 48.5444 20.0917C48.534 20.0625 48.522 20.0344 48.5085 20.0073C48.4949 19.9797 48.4798 19.9536 48.4632 19.9281C48.446 19.9026 48.4277 19.8781 48.4079 19.8547C48.3882 19.8318 48.3668 19.8099 48.3439 19.7891C48.3215 19.7688 48.2975 19.7495 48.2725 19.7323C48.2475 19.7146 48.222 19.6984 48.1949 19.6844C48.1678 19.6698 48.1402 19.6573 48.1116 19.6464C48.0829 19.6354 48.0538 19.626 48.0241 19.6188C47.9949 19.6115 47.9647 19.6063 47.9345 19.6026L44.3939 19.1562L44.7184 20.2964C44.7548 20.4255 44.7793 20.5573 44.7918 20.6911L46.6361 20.9234L39.9824 32.4203L42.2803 31.4094Z" fill="white"/>
</g>
<path d="M39.6099 18.5437L36.9765 18.2115L36.5708 19.6432L40.0453 20.0823L39.6099 18.5437Z" fill="white"/>
<path d="M38.0793 39.5115L33.9043 41.3563L37.0283 42.4297L38.0793 39.5115Z" fill="white"/>
<mask id="mask2_457_1136" style="mask-type:luminance" maskUnits="userSpaceOnUse" x="22" y="32" width="24" height="17">
<path d="M22.3999 32.1333H45.1999V48.4734H22.3999V32.1333Z" fill="white"/>
</mask>
<g mask="url(#mask2_457_1136)">
<path d="M22.4821 42.2677C22.4852 42.3417 22.4993 42.413 22.5243 42.4828C22.5493 42.5526 22.5842 42.6172 22.6285 42.676C22.6733 42.7354 22.7253 42.787 22.7847 42.8302C22.8446 42.874 22.9097 42.9078 22.9795 42.9318L38.7613 48.3588C38.8071 48.375 38.8535 48.3864 38.9014 48.3937C38.9493 48.4005 38.9972 48.4026 39.0457 48.4C39.0936 48.3979 39.1415 48.3906 39.1884 48.3786C39.2352 48.3672 39.28 48.3505 39.3238 48.3302C39.3675 48.3094 39.4087 48.2844 39.4477 48.2557C39.4863 48.2271 39.5217 48.1948 39.5545 48.1588C39.5868 48.1229 39.6154 48.0844 39.6404 48.0427C39.6649 48.0016 39.6858 47.9578 39.7019 47.9125L45.0243 33.1729C45.0483 33.1047 45.0623 33.0349 45.0665 32.9625C45.0701 32.8906 45.0639 32.8193 45.0467 32.7489C45.0295 32.6792 45.0029 32.6125 44.9665 32.5505C44.93 32.488 44.8852 32.4323 44.8321 32.3833C44.779 32.3338 44.7201 32.2932 44.655 32.2614C44.5899 32.2292 44.5217 32.2073 44.4503 32.1958C44.379 32.1838 44.3071 32.1828 44.2352 32.1917C44.1634 32.201 44.0946 32.2208 44.0285 32.2505L22.9207 41.563C22.8529 41.5927 22.7915 41.6318 22.7352 41.6802C22.6795 41.7292 22.6321 41.7849 22.5931 41.8474C22.5535 41.9104 22.5248 41.9776 22.5056 42.0489C22.4868 42.1208 22.479 42.1937 22.4821 42.2677ZM31.5878 40.7656L39.0675 37.4672C39.1337 37.4375 39.2029 37.4182 39.2748 37.4088C39.3467 37.3995 39.4181 37.401 39.4894 37.4125C39.5613 37.4245 39.6295 37.4463 39.6946 37.4781C39.7597 37.5104 39.8186 37.551 39.8717 37.6C39.9243 37.6495 39.9691 37.7052 40.0056 37.7677C40.042 37.8297 40.0691 37.8958 40.0858 37.9661C40.1029 38.0364 40.1097 38.1073 40.1056 38.1797C40.1019 38.2516 40.0878 38.3219 40.0634 38.3896L38.1753 43.6031C38.1587 43.6484 38.1384 43.6922 38.1134 43.7333C38.0884 43.775 38.0597 43.8135 38.0274 43.8495C37.9951 43.8854 37.9592 43.9177 37.9207 43.9463C37.8821 43.975 37.8404 44 37.7972 44.0208C37.7535 44.0411 37.7082 44.0578 37.6613 44.0693C37.6144 44.0812 37.567 44.0885 37.5186 44.0906C37.4707 44.0932 37.4222 44.0911 37.3748 44.0844C37.3269 44.0771 37.28 44.0656 37.2347 44.0495L31.6436 42.1271C31.5738 42.1026 31.5092 42.0687 31.4498 42.025C31.391 41.9812 31.3389 41.9297 31.2951 41.8708C31.2514 41.8115 31.217 41.7469 31.1925 41.6776C31.1681 41.6078 31.154 41.5364 31.1509 41.463C31.1477 41.3891 31.155 41.3167 31.1738 41.2453C31.1925 41.1739 31.2212 41.1068 31.2597 41.0443C31.2983 40.9812 31.3451 40.9255 31.4003 40.8771C31.4561 40.8281 31.517 40.7885 31.5842 40.7583L31.5878 40.7656Z" fill="white"/>
</g>
<path d="M16.5845 31.0365C16.6403 31.1432 16.7173 31.2312 16.8153 31.3C16.9137 31.3693 17.0226 31.4115 17.1418 31.4276C17.1418 31.4276 31.6955 33.5859 31.7319 33.5859C31.8653 33.587 31.9892 33.5547 32.1048 33.4885C32.22 33.4229 32.3111 33.3323 32.3778 33.2172L35.4684 27.738L36.7184 28.8448C36.7548 28.8776 36.7939 28.9068 36.8361 28.9318C36.8783 28.9568 36.922 28.9776 36.9684 28.9937C37.0142 29.0099 37.0616 29.0219 37.1101 29.0286C37.1585 29.0359 37.2069 29.038 37.2559 29.0354C37.3048 29.0328 37.3528 29.0255 37.4002 29.0135C37.4476 29.0016 37.4934 28.9849 37.5377 28.9641C37.5814 28.9432 37.6231 28.9177 37.6627 28.8885C37.7017 28.8594 37.7377 28.8266 37.7705 28.7901C37.8028 28.7536 37.8319 28.7146 37.8569 28.6724C37.8819 28.6302 37.9022 28.5865 37.9189 28.5401C37.9351 28.4943 37.9465 28.4469 37.9538 28.3984C37.9606 28.35 37.9627 28.3016 37.9606 28.2526C37.958 28.2036 37.9502 28.1557 37.9382 28.1083C37.9262 28.0609 37.9095 28.0151 37.8887 27.9708C37.8673 27.9266 37.8423 27.8849 37.8132 27.8458C37.7835 27.8068 37.7507 27.7708 37.7142 27.738L30.5116 21.2703C30.4335 21.1958 30.3423 21.1453 30.2377 21.1187C30.133 21.0927 30.0288 21.0937 29.9252 21.1229L18.1007 23.2661C18.0522 23.2708 18.0048 23.2797 17.958 23.2932C17.9111 23.3073 17.8663 23.3255 17.8236 23.3479C17.7804 23.3703 17.7397 23.3969 17.7022 23.4276C17.6642 23.4583 17.6298 23.4922 17.5986 23.5292C17.5673 23.5667 17.5403 23.6068 17.5168 23.6495C17.4934 23.6922 17.4746 23.737 17.4601 23.7833C17.4455 23.8297 17.4356 23.8771 17.4304 23.9255C17.4257 23.974 17.4252 24.0224 17.4293 24.0708C17.4335 24.1193 17.4429 24.1667 17.4564 24.2135C17.4705 24.2599 17.4882 24.3047 17.5111 24.3479C17.5335 24.3911 17.5601 24.4318 17.5908 24.4693C17.621 24.5073 17.6548 24.5417 17.6923 24.5729C17.7298 24.6042 17.77 24.6312 17.8127 24.6547C17.8548 24.6781 17.8996 24.6969 17.946 24.7115C17.9923 24.726 18.0397 24.7359 18.0882 24.7411C18.1366 24.7458 18.1851 24.7464 18.2335 24.7422C18.2778 24.7422 19.9741 24.4396 19.9741 24.4396L16.6069 30.35C16.547 30.4557 16.5153 30.5693 16.5111 30.6906C16.5075 30.812 16.5319 30.9271 16.5845 31.0365ZM22.5043 28.3099L23.6106 26.3875C23.6345 26.3458 23.6627 26.3068 23.6939 26.2708C23.7257 26.2344 23.7606 26.2016 23.7986 26.1719C23.8361 26.1427 23.8767 26.1172 23.92 26.0953C23.9627 26.074 24.0075 26.0568 24.0538 26.0437C24.1002 26.0312 24.147 26.0229 24.195 26.0193C24.2429 26.0156 24.2908 26.0167 24.3387 26.0224C24.3861 26.0281 24.433 26.0385 24.4788 26.0536C24.5246 26.0682 24.5684 26.0875 24.6101 26.1109C24.6522 26.1349 24.6918 26.1625 24.7283 26.1937C24.7653 26.2255 24.7981 26.2604 24.8283 26.2984C24.858 26.3365 24.8835 26.3771 24.9054 26.4203C24.9272 26.4635 24.945 26.5083 24.958 26.5547C24.971 26.6016 24.9793 26.649 24.983 26.6969C24.9866 26.7453 24.9856 26.7932 24.9798 26.8411C24.9741 26.8891 24.9637 26.9365 24.9486 26.9823C24.9335 27.0281 24.9142 27.0724 24.8908 27.1146L24.3226 28.1068L28.7965 28.7896L29.6705 27.1073C29.6929 27.0641 29.7194 27.0234 29.7496 26.9854C29.7798 26.9474 29.8137 26.9125 29.8512 26.8812C29.8887 26.85 29.9283 26.8224 29.971 26.799C30.0137 26.7755 30.0585 26.7568 30.1048 26.7422C30.1512 26.7276 30.1986 26.7177 30.247 26.7125C30.2955 26.7073 30.3439 26.7068 30.3923 26.7115C30.4413 26.7156 30.4887 26.725 30.5356 26.7385C30.5819 26.7526 30.6267 26.7708 30.67 26.7937C30.7127 26.8156 30.7533 26.8422 30.7913 26.8719C30.8288 26.9021 30.8632 26.9359 30.8944 26.9729C30.9257 27.0099 30.9528 27.0495 30.9762 27.0917C30.9996 27.1339 31.0189 27.1781 31.0335 27.224C31.0481 27.2703 31.0585 27.3172 31.0637 27.3651C31.0694 27.4135 31.07 27.4615 31.0663 27.5099C31.0621 27.5578 31.0533 27.6052 31.0403 27.6516C31.0267 27.6984 31.009 27.7432 30.9871 27.7859L29.8809 29.937C29.8481 29.9974 29.8075 30.0516 29.7595 30.1005C29.7111 30.1495 29.6575 30.1911 29.5976 30.225C29.5382 30.2589 29.4752 30.2839 29.4085 30.3C29.3418 30.3167 29.2741 30.3234 29.2059 30.3208C29.1689 30.3208 23.0356 29.3875 23.0356 29.3875C23.0054 29.3828 22.9757 29.3771 22.9465 29.3693C22.9173 29.3615 22.8887 29.3516 22.8611 29.3401C22.833 29.3286 22.8059 29.3156 22.7793 29.301C22.7528 29.2865 22.7278 29.2698 22.7033 29.2521C22.6788 29.2344 22.6554 29.2151 22.6335 29.1943C22.6116 29.1734 22.5908 29.1516 22.5715 29.1281C22.5522 29.1047 22.5345 29.0807 22.5179 29.0552C22.5017 29.0297 22.4871 29.0031 22.4741 28.976C22.4606 28.949 22.4496 28.9208 22.4397 28.8922C22.4304 28.8635 22.422 28.8344 22.4163 28.8047C22.4101 28.775 22.4059 28.7453 22.4033 28.7151C22.4012 28.6849 22.4007 28.6547 22.4017 28.6245C22.4033 28.5943 22.4064 28.5641 22.4116 28.5344C22.4163 28.5047 22.4231 28.475 22.4319 28.4458C22.4408 28.4172 22.4507 28.3885 22.4632 28.3609C22.4752 28.3333 22.4887 28.3062 22.5043 28.2802V28.3099Z" fill="white"/>
</svg>
