<svg width="50" height="50" viewBox="0 0 50 50" fill="none" xmlns="http://www.w3.org/2000/svg">
<mask id="mask0_457_781" style="mask-type:luminance" maskUnits="userSpaceOnUse" x="1" y="7" width="48" height="36">
<path d="M1.6626 7.49688H48.3626V42.4969H1.6626V7.49688Z" fill="white"/>
</mask>
<g mask="url(#mask0_457_781)">
<path d="M46.0261 40.1083V19.6828C46.0261 18.5193 45.0745 17.5682 43.91 17.5682H36.9897V40.1083H36.0631V9.59427C36.0631 8.43177 35.11 7.47969 33.9485 7.47969H16.0771C14.9157 7.47969 13.9626 8.43177 13.9626 9.59427V40.1099H13.036V17.5682H6.11569C4.95111 17.5682 3.99954 18.5193 3.99954 19.6828V40.1083H1.66309V42.5146H48.3626V40.1083H46.0261ZM39.7787 23.5766C39.7787 23.3927 39.9287 23.2427 40.1126 23.2427H42.9042C43.0886 23.2427 43.2386 23.3927 43.2386 23.5766V28.0609C43.2386 28.2448 43.0886 28.3948 42.9042 28.3948H40.1126C39.9287 28.3948 39.7787 28.2448 39.7787 28.0609V23.5766ZM39.7787 32.15C39.7787 31.9661 39.9287 31.8161 40.1126 31.8161H42.9042C43.0886 31.8161 43.2386 31.9661 43.2386 32.15V36.6344C43.2386 36.8182 43.0886 36.9672 42.9042 36.9672H40.1126C39.9287 36.9672 39.7787 36.8182 39.7787 36.6344V32.15ZM6.78704 23.5766C6.78704 23.3927 6.93704 23.2427 7.1209 23.2427H9.91257C10.0964 23.2427 10.2469 23.3927 10.2469 23.5766V28.0609C10.2469 28.2448 10.0964 28.3948 9.91257 28.3948H7.1209C6.93704 28.3948 6.78704 28.2448 6.78704 28.0609V23.5766ZM6.78704 32.15C6.78704 31.9661 6.93704 31.8161 7.1209 31.8161H9.91257C10.0964 31.8161 10.2469 31.9661 10.2469 32.15V36.6344C10.2469 36.8182 10.0964 36.9672 9.91257 36.9672H7.1209C6.93704 36.9672 6.78704 36.8182 6.78704 36.6344V32.15ZM20.5152 36.6344C20.5152 36.8182 20.3646 36.9672 20.1808 36.9672H17.3891C17.2053 36.9672 17.0548 36.8182 17.0548 36.6344V32.15C17.0548 31.9661 17.2053 31.8161 17.3891 31.8161H20.1808C20.3646 31.8161 20.5152 31.9661 20.5152 32.15V36.6344ZM20.5152 28.0609C20.5152 28.2448 20.3646 28.3948 20.1808 28.3948H17.3891C17.2053 28.3948 17.0548 28.2448 17.0548 28.0609V23.5766C17.0548 23.3927 17.2053 23.2427 17.3891 23.2427H20.1808C20.3646 23.2427 20.5152 23.3927 20.5152 23.5766V28.0609ZM27.2923 40.1083H22.7334V32.2568C22.7334 32.013 22.9303 31.8161 23.174 31.8161H26.8516C27.0954 31.8161 27.2923 32.013 27.2923 32.2568V40.1083ZM23.2818 28.0609V23.5766C23.2818 23.3927 23.4324 23.2427 23.6162 23.2427H26.4094C26.5933 23.2427 26.7433 23.3927 26.7433 23.5766V28.0609C26.7433 28.2448 26.5933 28.3948 26.4094 28.3948H23.6162C23.4324 28.3948 23.2818 28.2448 23.2818 28.0609ZM27.4995 16.8156C27.1683 16.8156 26.8995 17.0854 26.8995 17.4135V19.3109C26.8995 19.6406 26.6298 19.9104 26.3001 19.9104H23.7256C23.3959 19.9104 23.1256 19.6406 23.1256 19.3109V17.4135C23.1256 17.0854 22.8574 16.8156 22.5261 16.8156H20.5938C20.2626 16.8156 19.9938 16.5458 19.9938 16.2161V13.7896C19.9938 13.4599 20.2626 13.1917 20.5938 13.1917H22.5261C22.8574 13.1917 23.1256 12.9203 23.1256 12.5922V10.7141C23.1256 10.3844 23.3959 10.1146 23.7256 10.1146H26.3001C26.6298 10.1146 26.8995 10.3844 26.8995 10.7141V12.5922C26.8995 12.9219 27.1683 13.1917 27.4995 13.1917H29.4318C29.7631 13.1917 30.0313 13.4599 30.0313 13.7896V16.2161C30.0313 16.5458 29.7631 16.8156 29.4318 16.8156H27.4995ZM32.9704 36.6344C32.9704 36.8182 32.8204 36.9672 32.6365 36.9672H29.8449C29.661 36.9672 29.5105 36.8182 29.5105 36.6344V32.15C29.5105 31.9661 29.661 31.8161 29.8449 31.8161H32.6365C32.8204 31.8161 32.9704 31.9661 32.9704 32.15V36.6344ZM32.9704 28.0609C32.9704 28.2448 32.8204 28.3948 32.6365 28.3948H29.8449C29.661 28.3948 29.5105 28.2448 29.5105 28.0609V23.5766C29.5105 23.3927 29.661 23.2427 29.8449 23.2427H32.6365C32.8204 23.2427 32.9704 23.3927 32.9704 23.5766V28.0609Z" fill="white"/>
</g>
</svg>
