<svg width="50" height="50" viewBox="0 0 50 50" fill="none" xmlns="http://www.w3.org/2000/svg">
<path fill-rule="evenodd" clip-rule="evenodd" d="M33.1302 42.2797V33.8896C33.1302 33.0953 32.4703 32.3932 31.636 32.3932H25.2052C25.1328 32.3729 25.061 32.3625 24.9782 32.3625C24.9063 32.3625 24.8339 32.3729 24.762 32.3932H18.3724C17.5271 32.3932 16.837 33.0536 16.837 33.8896V42.2797H9.21045V12.8167C9.21045 12.4552 9.49899 12.1557 9.85993 12.1557H40.1792C40.5401 12.1557 40.8287 12.4552 40.8287 12.8167V42.2797H33.1302ZM25.6381 42.2797V33.6729H31.636C31.749 33.6729 31.8521 33.7865 31.8521 33.8896V42.2797H25.6381ZM24.3292 33.6729V42.2797H18.1146V33.8896C18.1146 33.7865 18.2177 33.6729 18.3724 33.6729H24.3292ZM16.837 19.0396H13.024C12.6631 19.0396 12.3745 18.7505 12.3745 18.3891V14.7052C12.3745 14.3438 12.6631 14.0547 13.024 14.0547H16.837C17.2078 14.0547 17.4964 14.3438 17.4964 14.7052V18.3891C17.4964 18.7505 17.2078 19.0396 16.837 19.0396ZM13.6834 17.7698H16.2183V15.3656H13.6834V17.7698ZM23.525 19.0396H19.712C19.3516 19.0396 19.0631 18.7505 19.0631 18.3891V14.7052C19.0631 14.3438 19.3516 14.0547 19.712 14.0547H23.525C23.8964 14.0547 24.1849 14.3438 24.1849 14.7052V18.3891C24.1849 18.7505 23.8964 19.0396 23.525 19.0396ZM20.3719 17.7698H22.9068V15.3656H20.3719V17.7698ZM30.2547 19.0396H26.4417C26.0709 19.0396 25.7823 18.7505 25.7823 18.3891V14.7052C25.7823 14.3438 26.0709 14.0547 26.4417 14.0547H30.2547C30.6157 14.0547 30.9042 14.3438 30.9042 14.7052V18.3891C30.8729 18.7505 30.5844 19.0396 30.2547 19.0396ZM27.0599 17.7698H29.5953V15.3656H27.0599V17.7698ZM36.974 19.0396H33.161C32.8006 19.0396 32.512 18.7505 32.512 18.3891V14.7052C32.512 14.3438 32.8006 14.0547 33.161 14.0547H36.974C37.3453 14.0547 37.6339 14.3438 37.6339 14.7052V18.3891C37.5922 18.7505 37.3037 19.0396 36.974 19.0396ZM33.7792 17.7698H36.325V15.3656H33.7792V17.7698ZM16.837 25.0042H13.024C12.6631 25.0042 12.3745 24.7151 12.3745 24.3542V20.6802C12.3745 20.3089 12.6631 20.0198 13.024 20.0198H16.837C17.2078 20.0198 17.4964 20.3089 17.4964 20.6802V24.3953C17.4964 24.7151 17.2078 25.0042 16.837 25.0042ZM13.6834 23.7349H16.2183V21.2995H13.6834V23.7349ZM23.525 25.0042H19.712C19.3516 25.0042 19.0631 24.7151 19.0631 24.3542V20.6802C19.0631 20.3089 19.3516 20.0198 19.712 20.0198H23.525C23.8964 20.0198 24.1849 20.3089 24.1849 20.6802V24.3953C24.1849 24.7151 23.8964 25.0042 23.525 25.0042ZM20.3719 23.7349H22.9068V21.2995H20.3719V23.7349ZM30.2547 25.0042H26.4417C26.0709 25.0042 25.7823 24.7151 25.7823 24.3542V20.6802C25.7823 20.3089 26.0709 20.0198 26.4417 20.0198H30.2547C30.6157 20.0198 30.9042 20.3089 30.9042 20.6802V24.3953C30.8729 24.7151 30.5844 25.0042 30.2547 25.0042ZM27.0599 23.7349H29.5953V21.2995H27.0599V23.7349ZM36.974 25.0042H33.161C32.8006 25.0042 32.512 24.7151 32.512 24.3542V20.6802C32.512 20.3089 32.8006 20.0198 33.161 20.0198H36.974C37.3453 20.0198 37.6339 20.3089 37.6339 20.6802V24.3953C37.5922 24.7151 37.3037 25.0042 36.974 25.0042ZM33.7792 23.7349H36.325V21.2995H33.7792V23.7349ZM16.837 30.9797H13.024C12.6631 30.9797 12.3745 30.6906 12.3745 30.3188V26.6453C12.3745 26.2839 12.6631 25.9948 13.024 25.9948H16.837C17.2078 25.9948 17.4964 26.2839 17.4964 26.6453V30.3188C17.4964 30.6906 17.2078 30.9797 16.837 30.9797ZM13.6834 29.7H16.2183V27.2641H13.6834V29.7ZM23.525 30.9797H19.712C19.3516 30.9797 19.0631 30.6906 19.0631 30.3188V26.6453C19.0631 26.2839 19.3516 25.9948 19.712 25.9948H23.525C23.8964 25.9948 24.1849 26.2839 24.1849 26.6453V30.3188C24.1849 30.6906 23.8964 30.9797 23.525 30.9797ZM20.3719 29.7H22.9068V27.2641H20.3719V29.7ZM30.2547 30.9797H26.4417C26.0709 30.9797 25.7823 30.6906 25.7823 30.3188V26.6453C25.7823 26.2839 26.0709 25.9948 26.4417 25.9948H30.2547C30.6157 25.9948 30.9042 26.2839 30.9042 26.6453V30.3188C30.8729 30.6906 30.5844 30.9797 30.2547 30.9797ZM27.0599 29.7H29.5953V27.2641H27.0599V29.7ZM36.974 30.9797H33.161C32.8006 30.9797 32.512 30.6906 32.512 30.3188V26.6453C32.512 26.2839 32.8006 25.9948 33.161 25.9948H36.974C37.3453 25.9948 37.6339 26.2839 37.6339 26.6453V30.3188C37.5922 30.6906 37.3037 30.9797 36.974 30.9797ZM33.7792 29.7H36.325V27.2641H33.7792V29.7Z" fill="white"/>
<mask id="mask0_457_734" style="mask-type:luminance" maskUnits="userSpaceOnUse" x="7" y="43" width="36" height="5">
<path d="M7.2832 43.4667H42.6832V47.4094H7.2832V43.4667Z" fill="white"/>
</mask>
<g mask="url(#mask0_457_734)">
<path fill-rule="evenodd" clip-rule="evenodd" d="M42.0342 47.3984H7.93268C7.57174 47.3984 7.2832 47.099 7.2832 46.738V44.1578C7.2832 43.7865 7.57174 43.4974 7.93268 43.4974H42.0342C42.3947 43.4974 42.6832 43.7865 42.6832 44.1578V46.738C42.6525 47.099 42.3947 47.3984 42.0342 47.3984Z" fill="white"/>
</g>
<path fill-rule="evenodd" clip-rule="evenodd" d="M10.4062 10.938V10.0818C10.4062 9.72031 10.6948 9.43124 11.0656 9.43124H38.8292C39.2 9.43124 39.4885 9.72031 39.4885 10.0818V10.938H10.4062Z" fill="white"/>
<mask id="mask1_457_734" style="mask-type:luminance" maskUnits="userSpaceOnUse" x="11" y="2" width="28" height="7">
<path d="M11.4668 2.60938H38.2668V8.26667H11.4668V2.60938Z" fill="white"/>
</mask>
<g mask="url(#mask1_457_734)">
<path fill-rule="evenodd" clip-rule="evenodd" d="M11.4985 8.20365V3.71407C11.4985 3.13646 12.0037 2.62032 12.622 2.62032H37.0464C37.6647 2.62032 38.1798 3.09532 38.1798 3.71407V8.20365H11.4985ZM16.6204 6.06719H16.0022V7.0474C16.0022 7.37761 15.7136 7.66667 15.3527 7.66667C14.9819 7.66667 14.6933 7.37761 14.6933 7.05782V3.81771C14.6933 3.44584 14.9819 3.15677 15.3527 3.15677C15.7136 3.15677 16.0022 3.44584 16.0022 3.81771V4.75677H16.6204V3.81771C16.6204 3.44584 16.909 3.15677 17.2803 3.15677C17.6407 3.15677 17.9293 3.44584 17.9293 3.81771V7.0474C17.8985 7.37761 17.5996 7.66667 17.2803 7.66667C16.909 7.66667 16.6204 7.37761 16.6204 7.05782V6.06719ZM25.7824 7.66667C25.4215 7.66667 25.1329 7.37761 25.1329 7.05782V4.50886H24.9475C24.5866 4.50886 24.2881 4.20938 24.2881 3.84844C24.2881 3.4875 24.6178 3.22917 24.9475 3.22917H26.6584C27.0188 3.22917 27.3074 3.51823 27.3074 3.88959C27.3074 4.25104 27.0188 4.50886 26.6584 4.50886H26.4418V7.05782C26.4418 7.37761 26.1428 7.66667 25.7824 7.66667ZM30.76 6.10834H29.709V6.3974H30.76C31.1308 6.3974 31.4194 6.68646 31.4194 7.05782C31.4194 7.41927 31.1308 7.66667 30.76 7.66667H29.0595C28.6886 7.66667 28.4001 7.37761 28.4001 7.05782V3.84844C28.4001 3.60052 28.5543 3.40469 28.7605 3.30157C28.8329 3.26042 28.9256 3.23959 29.0079 3.22917H30.76C31.1308 3.22917 31.4194 3.51823 31.4194 3.88959C31.4194 4.25104 31.1308 4.50886 30.76 4.50886H29.709V4.79792H30.76C31.1308 4.79792 31.4194 5.08698 31.4194 5.44792C31.4194 5.81979 31.1308 6.10834 30.76 6.10834ZM34.398 7.66667H33.161C32.8006 7.66667 32.5121 7.37761 32.5121 7.05782V3.88959C32.5121 3.51823 32.8006 3.22917 33.161 3.22917C33.522 3.22917 33.8204 3.51823 33.8204 3.88959V6.43854H34.398C34.7584 6.43854 35.047 6.72761 35.047 7.08907C35.047 7.45 34.7584 7.66667 34.398 7.66667ZM21.3095 7.66667C20.073 7.66667 19.0631 6.65521 19.0631 5.44792C19.0631 4.20938 20.073 3.19844 21.3095 3.19844C22.5465 3.19844 23.5251 4.20938 23.5251 5.44792C23.5251 6.68646 22.5152 7.66667 21.3095 7.66667ZM21.3095 4.46771C20.7631 4.46771 20.3303 4.90104 20.3303 5.44792C20.3303 5.99479 20.7631 6.3974 21.3095 6.3974C21.8558 6.3974 22.2579 5.96407 22.2579 5.44792C22.2579 4.90104 21.8251 4.46771 21.3095 4.46771Z" fill="white"/>
</g>
</svg>
