<svg width="50" height="50" viewBox="0 0 50 50" fill="none" xmlns="http://www.w3.org/2000/svg">
<path fill-rule="evenodd" clip-rule="evenodd" d="M37.6051 43.7896H33.7062C34.0015 43.7802 34.238 43.5375 34.238 43.2406V28.7422C34.238 28.4396 33.9921 28.1932 33.6895 28.1932H16.2937C15.9911 28.1932 15.7452 28.4391 15.7452 28.7422V43.2406C15.7452 43.5375 15.9817 43.7802 16.2765 43.7896H12.3775C12.0749 43.7896 11.8291 43.5432 11.8291 43.2406V16.9021C11.8291 16.599 12.0749 16.3531 12.3775 16.3531H37.6046C37.9072 16.3531 38.1531 16.599 38.1531 16.9021V43.2406C38.1531 43.5432 37.9072 43.7896 37.6046 43.7896H37.6051ZM30.638 43.149V32.6365C30.638 32.3333 30.3921 32.087 30.0895 32.087H19.8937C19.5911 32.087 19.3452 32.3328 19.3452 32.6359V43.149H16.8421V29.2911H33.1406V43.149H30.6374H30.638ZM25.5395 43.149V33.1854H29.5411V43.149H25.5395ZM24.4426 33.1854V43.149H20.4416V33.1854H24.4426ZM34.714 25.3182H15.2682C14.9656 25.3182 14.7202 25.0724 14.7202 24.7693V20.875C14.7202 20.5719 14.9656 20.326 15.2682 20.326H34.714C35.0166 20.326 35.2624 20.5719 35.2624 20.875V24.7693C35.263 25.0724 35.0166 25.3182 34.714 25.3182ZM15.8166 24.2203H34.1656V21.424H15.8166V24.2203Z" fill="white"/>
<path fill-rule="evenodd" clip-rule="evenodd" d="M46.0139 43.7896H37.6051C37.3025 43.7896 37.0566 43.5432 37.0566 43.2406V22.5458C37.0566 22.2427 37.3025 21.9969 37.6051 21.9969H46.0139C46.3171 21.9969 46.5624 22.2427 46.5624 22.5458V43.2406C46.5624 43.5432 46.3171 43.7896 46.0139 43.7896ZM43.4124 32.1786H40.2066C39.9035 32.1786 39.6582 31.9328 39.6582 31.6297V25.4203C39.6582 25.1172 39.904 24.8708 40.2066 24.8708H43.4124C43.715 24.8708 43.9608 25.1172 43.9608 25.4203V31.6297C43.9608 31.9328 43.715 32.1786 43.4124 32.1786ZM40.7546 31.0807H42.8639V25.9693H40.7546V31.0807ZM43.4124 40.9141H40.2066C39.9035 40.9141 39.6582 40.6682 39.6582 40.3651V34.1557C39.6582 33.8526 39.904 33.6063 40.2066 33.6063H43.4124C43.715 33.6063 43.9608 33.8526 43.9608 34.1557V40.3646C43.9608 40.6677 43.715 40.9141 43.4124 40.9141ZM40.7546 39.8156H42.8639V34.7047H40.7546V39.8156Z" fill="white"/>
<path fill-rule="evenodd" clip-rule="evenodd" d="M12.3782 43.7896H3.96934C3.66673 43.7896 3.4209 43.5432 3.4209 43.2406V22.5458C3.4209 22.2427 3.66673 21.9969 3.96934 21.9969H12.3787C12.6813 21.9969 12.9271 22.2427 12.9271 22.5458V43.2406C12.9266 43.5432 12.6813 43.7896 12.3782 43.7896ZM9.77663 32.1786H6.5709C6.26829 32.1786 6.02246 31.9328 6.02246 31.6297V25.4203C6.02246 25.1172 6.26829 24.8708 6.5709 24.8708H9.77663C10.0798 24.8708 10.3251 25.1172 10.3251 25.4203V31.6297C10.3251 31.9328 10.0798 32.1786 9.77663 32.1786ZM7.11882 31.0807H9.22871V25.9693H7.11882V31.0807ZM9.77663 40.9141H6.5709C6.26829 40.9141 6.02246 40.6682 6.02246 40.3651V34.1557C6.02246 33.8526 6.26829 33.6063 6.5709 33.6063H9.77663C10.0798 33.6063 10.3251 33.8526 10.3251 34.1557V40.3646C10.3251 40.6677 10.0798 40.9141 9.77663 40.9141ZM7.11882 39.8156H9.22871V34.7047H7.11882V39.8156Z" fill="white"/>
<mask id="mask0_457_916" style="mask-type:luminance" maskUnits="userSpaceOnUse" x="1" y="42" width="48" height="5">
<path d="M1.59082 42.6667H48.3908V46.4193H1.59082V42.6667Z" fill="white"/>
</mask>
<g mask="url(#mask0_457_916)">
<path fill-rule="evenodd" clip-rule="evenodd" d="M47.8395 46.4208H2.14414C1.84154 46.4208 1.5957 46.1745 1.5957 45.8714V43.2406C1.5957 42.9375 1.84154 42.6911 2.14414 42.6911H47.8395C48.1426 42.6911 48.3879 42.9375 48.3879 43.2406V45.8714C48.3879 46.174 48.1426 46.4208 47.8395 46.4208Z" fill="white"/>
</g>
<path fill-rule="evenodd" clip-rule="evenodd" d="M34.162 17.451H15.9776C15.675 17.451 15.4292 17.2047 15.4292 16.9016V13.6917C15.4292 13.3885 15.675 13.1427 15.9776 13.1427H34.162C34.4646 13.1427 34.7105 13.3885 34.7105 13.6917V16.9016C34.7105 17.2052 34.4646 17.451 34.162 17.451Z" fill="white"/>
<mask id="mask1_457_916" style="mask-type:luminance" maskUnits="userSpaceOnUse" x="11" y="3" width="28" height="12">
<path d="M11.3335 3.61927H38.8002V14.2667H11.3335V3.61927Z" fill="white"/>
</mask>
<g mask="url(#mask1_457_916)">
<path fill-rule="evenodd" clip-rule="evenodd" d="M38.1548 14.2411H11.9845C11.6819 14.2411 11.436 13.9953 11.436 13.6922V4.16927C11.436 3.86615 11.6819 3.62031 11.9845 3.62031H38.1548C38.4574 3.62031 38.7032 3.86615 38.7032 4.16927V13.6917C38.7037 13.9953 38.4574 14.2411 38.1548 14.2411ZM19.9053 11.7151C19.6027 11.7151 19.3574 11.4693 19.3574 11.1661V8.48021L18.2751 10.0755C18.0579 10.3958 17.585 10.3958 17.3678 10.0755L16.3355 8.55417V11.1667C16.3355 11.8896 15.2392 11.8896 15.2392 11.1667V6.76823C15.2392 6.22969 15.9392 6.01458 16.2407 6.4599L17.8215 8.78906L19.4522 6.38646C19.7537 5.94062 20.4537 6.15729 20.4537 6.69479V11.1656C20.4537 11.4693 20.2084 11.7151 19.9058 11.7151H19.9053ZM30.148 11.7151H28.0459C27.7428 11.7151 27.4975 11.4693 27.4975 11.1661V6.72812C27.4975 6.00573 28.5944 6.00573 28.5944 6.72812V10.6167C29.5975 10.6167 30.6959 10.4062 30.6959 11.1656C30.6959 11.4687 30.4511 11.7151 30.148 11.7151ZM34.3522 11.7151H32.2496C31.947 11.7151 31.7017 11.4693 31.7017 11.1661V6.72812C31.7017 6.00573 32.798 6.00573 32.798 6.72812V10.6167C33.8017 10.6167 34.9001 10.4062 34.9001 11.1656C34.9001 11.4687 34.6553 11.7151 34.3527 11.7151H34.3522ZM24.7699 10.1687H22.848L22.2918 11.3937C21.9928 12.0516 20.9944 11.5969 21.2933 10.9385L23.3418 6.44062C23.5662 6.07083 24.1241 6.09635 24.309 6.50365L26.3241 10.9391C26.6241 11.5984 25.6235 12.0479 25.3267 11.3937L24.7699 10.1693V10.1687ZM23.347 9.07083H24.2709L23.809 8.05417L23.347 9.07083Z" fill="white"/>
</g>
</svg>
