<svg width="50" height="50" viewBox="0 0 50 50" fill="none" xmlns="http://www.w3.org/2000/svg">
<mask id="mask0_457_1009" style="mask-type:luminance" maskUnits="userSpaceOnUse" x="10" y="2" width="30" height="46">
<path d="M10.1323 2.47292H39.8323V47.5729H10.1323V2.47292Z" fill="white"/>
</mask>
<g mask="url(#mask0_457_1009)">
<path d="M31.3104 28.7255C31.3104 27.1661 32.5776 25.8963 34.1344 25.8963C35.6901 25.8963 36.9558 27.1661 36.9558 28.7255C36.9558 30.2859 35.6901 31.5552 34.1344 31.5552C32.5776 31.5552 31.3104 30.2859 31.3104 28.7255ZM18.0026 42.3349L18.7922 39.9484H31.1735L31.9631 42.3349H18.0026ZM15.8323 31.5552C14.2756 31.5552 13.0084 30.2859 13.0084 28.7255C13.0084 27.1661 14.2756 25.8963 15.8323 25.8963C17.3886 25.8963 18.6552 27.1661 18.6552 28.7255C18.6552 30.2859 17.3886 31.5552 15.8323 31.5552ZM30.1766 36.9396L30.6797 38.4578H19.286L19.7891 36.9396H30.1766ZM20.3459 30.3667H29.6198C29.824 30.3667 29.9886 30.5318 29.9886 30.7359C29.9886 30.9401 29.824 31.1052 29.6198 31.1052H20.3459C20.1422 31.1052 19.9776 30.9401 19.9776 30.7359C19.9776 30.5318 20.1422 30.3667 20.3459 30.3667ZM19.9776 23.6911C19.9776 23.487 20.1422 23.3219 20.3459 23.3219H29.6198C29.824 23.3219 29.9886 23.487 29.9886 23.6911C29.9886 23.8953 29.824 24.0604 29.6198 24.0604H20.3459C20.1422 24.0604 19.9776 23.8953 19.9776 23.6911ZM20.3459 26.8443H29.6198C29.824 26.8443 29.9886 27.0094 29.9886 27.2135C29.9886 27.4177 29.824 27.5828 29.6198 27.5828H20.3459C20.1422 27.5828 19.9776 27.4177 19.9776 27.2135C19.9776 27.0094 20.1422 26.8443 20.3459 26.8443ZM13.3771 9.79374C13.3771 8.44947 14.4683 7.3552 15.8094 7.3552H34.1552C35.4974 7.3552 36.5875 8.44947 36.5875 9.79374V18.1807H13.3771V9.79374ZM39.8328 31.25V9.79374C39.8328 6.65156 37.2917 4.10416 34.1552 4.10416H31.2735V3.29114C31.2735 2.84322 30.9115 2.47812 30.4631 2.47812H19.5042C19.0558 2.47812 18.6938 2.84322 18.6938 3.29114V4.10416H15.8094C12.6745 4.10416 10.1323 6.65156 10.1323 9.79374V31.25C10.1323 34.3927 12.6745 36.9396 15.8094 36.9396H17.4599L16.9568 38.4578H14.187C13.7433 38.4578 13.3771 38.7932 13.3771 39.2026C13.3771 39.613 13.7433 39.9484 14.187 39.9484H16.4636L15.6735 42.3349H11.286C10.8401 42.3349 10.475 42.7016 10.475 43.1484V43.3859C10.475 43.8328 10.8401 44.1974 11.286 44.1974H15.0568L14.424 46.1088C14.2318 46.6896 14.5453 47.3161 15.1245 47.5094C15.2401 47.5474 15.3578 47.5656 15.4729 47.5656C15.936 47.5656 16.3677 47.2714 16.5219 46.8062L17.386 44.1974H32.5797L33.4443 46.8062C33.5979 47.2714 34.0297 47.5656 34.4933 47.5656C34.6084 47.5656 34.7256 47.5474 34.8412 47.5094C35.4209 47.3161 35.7339 46.6896 35.5417 46.1088L34.9089 44.1974H38.6792C39.124 44.1974 39.4907 43.8328 39.4907 43.3859V43.1484C39.4907 42.7016 39.124 42.3349 38.6792 42.3349H34.2922L33.5026 39.9484H35.7776C36.224 39.9484 36.5875 39.613 36.5875 39.2026C36.5875 38.7932 36.224 38.4578 35.7776 38.4578H33.0089L32.5058 36.9396H34.1552C37.2917 36.9396 39.8328 34.3927 39.8328 31.25Z" fill="white"/>
</g>
</svg>
