<svg width="50" height="50" viewBox="0 0 50 50" fill="none" xmlns="http://www.w3.org/2000/svg">
<mask id="mask0_457_941" style="mask-type:luminance" maskUnits="userSpaceOnUse" x="6" y="1" width="38" height="48">
<path d="M6.42529 1.61094H43.5253V48.4H6.42529V1.61094Z" fill="white"/>
</mask>
<g mask="url(#mask0_457_941)">
<path d="M42.7301 1.62708H7.22021C6.78584 1.62708 6.43896 1.98281 6.43896 2.41719V47.6047C6.43896 48.0396 6.78584 48.3953 7.22021 48.3953H42.7301C43.1645 48.3953 43.5114 48.0396 43.5114 47.6047V2.41719C43.5114 1.98281 43.1645 1.62708 42.7301 1.62708ZM41.9489 46.8219H8.00146V3.2H41.9489V46.8219Z" fill="white"/>
</g>
<path d="M40.0872 4.16458H9.86377C9.4221 4.16458 9.07471 4.5125 9.07471 4.95521V45.0672C9.07471 45.5099 9.4221 45.8578 9.86377 45.8578H40.0872C40.5289 45.8578 40.8763 45.5099 40.8763 45.0672V4.95521C40.8763 4.5125 40.5289 4.16458 40.0872 4.16458ZM24.1862 44.2766H10.6528V5.74531H24.1862V44.2766ZM39.2981 44.2766H25.7648V5.74531H39.2981V44.2766Z" fill="white"/>
<path d="M14.2587 21.5167H12.0181C11.5837 21.5167 11.2285 21.8724 11.2285 22.3073V28.5682C11.2285 29.0031 11.5837 29.3589 12.0181 29.3589H14.2587C14.6931 29.3589 15.0483 29.0031 15.0483 28.5682V22.3073C15.0483 21.8724 14.6931 21.5167 14.2587 21.5167ZM13.4697 27.7781H12.8072V23.0979H13.4697V27.7781Z" fill="white"/>
<path d="M37.9321 21.5167H35.6914C35.2571 21.5167 34.9019 21.8724 34.9019 22.3073V28.5682C34.9019 29.0031 35.2571 29.3589 35.6914 29.3589H37.9321C38.3664 29.3589 38.7216 29.0031 38.7216 28.5682V22.3073C38.7216 21.8724 38.3664 21.5167 37.9321 21.5167ZM37.143 27.7781H36.4805V23.0979H37.143V27.7781Z" fill="white"/>
<path d="M23.5074 14.2833L17.8032 19.074C17.661 19.2005 17.4798 19.2641 17.2975 19.2641C17.0772 19.2641 16.848 19.1609 16.6897 18.9792C16.4136 18.6391 16.461 18.1411 16.7923 17.8646L22.4975 13.074C22.8287 12.7974 23.3261 12.8365 23.6095 13.1687C23.8865 13.5089 23.847 14.0068 23.5074 14.2833Z" fill="white"/>
<path d="M22.6001 18.1964L16.8949 22.9792C16.7459 23.1057 16.5636 23.1693 16.3897 23.1693C16.161 23.1693 15.9402 23.074 15.7813 22.8844C15.498 22.5526 15.5449 22.0542 15.8761 21.7698L21.5813 16.9792C21.9209 16.7026 22.4178 16.7422 22.6938 17.0818C22.9709 17.4141 22.9313 17.912 22.6001 18.1964Z" fill="white"/>
<path d="M19.7431 14.2833L14.0379 19.074C13.8962 19.2005 13.7155 19.2557 13.5332 19.2557C13.304 19.2557 13.0832 19.1609 12.9254 18.9792C12.6483 18.6391 12.6879 18.1411 13.028 17.8646L18.7327 13.074C19.0639 12.7891 19.5608 12.8365 19.8452 13.1688C20.1223 13.5089 20.0749 14.0068 19.7431 14.2833Z" fill="white"/>
<path d="M33.261 18.9792C33.1032 19.1609 32.8746 19.2641 32.6532 19.2641C32.472 19.2641 32.2897 19.2005 32.1475 19.074L26.4433 14.2833C26.1032 14.0068 26.0641 13.5089 26.3407 13.1687C26.624 12.8365 27.1209 12.7974 27.4522 13.074L33.1579 17.8646C33.4897 18.1411 33.5371 18.6391 33.261 18.9792Z" fill="white"/>
<path d="M34.1684 22.8844C34.0105 23.074 33.7897 23.1693 33.56 23.1693C33.3866 23.1693 33.2048 23.1057 33.0553 22.9792L27.3496 18.1964C27.0184 17.912 26.9788 17.4141 27.2553 17.0818C27.5392 16.7422 28.0366 16.7026 28.3678 16.9792L34.073 21.7698C34.4053 22.0542 34.4527 22.5526 34.1684 22.8844Z" fill="white"/>
<path d="M37.025 18.9792C36.8682 19.1609 36.6468 19.2557 36.4172 19.2557C36.2359 19.2557 36.0541 19.2005 35.9125 19.074L30.2073 14.2833C29.8755 14.0068 29.8291 13.5089 30.1047 13.1688C30.3885 12.8365 30.8859 12.7891 31.2172 13.074L36.9218 17.8646C37.2619 18.1411 37.301 18.6391 37.025 18.9792Z" fill="white"/>
</svg>
