<svg width="50" height="50" viewBox="0 0 50 50" fill="none" xmlns="http://www.w3.org/2000/svg">
<mask id="mask0_457_868" style="mask-type:luminance" maskUnits="userSpaceOnUse" x="20" y="12" width="29" height="36">
<path d="M20.6665 12.5333H48.1332V47.1526H20.6665V12.5333Z" fill="white"/>
</mask>
<g mask="url(#mask0_457_868)">
<path d="M37.984 16.9672V14.0906C37.9861 13.2995 38.6283 12.6599 39.4194 12.662C39.7705 12.663 40.109 12.7932 40.371 13.0266C41.0767 13.5932 46.7278 18.1214 47.4335 18.6875C48.0689 19.1542 48.2069 20.0464 47.7403 20.6818C47.6543 20.7995 47.5512 20.9031 47.4335 20.9891C46.7278 21.5536 41.0767 26.074 40.371 26.6385C39.7814 27.1656 38.8762 27.1156 38.3481 26.526C38.1137 26.2641 37.984 25.9255 37.984 25.5745V22.6979C32.7689 22.6979 29.8715 22.6979 29.2923 22.6979C27.7048 22.6979 26.4168 23.9854 26.4168 25.5745C26.4168 27.5885 26.4168 43.6964 26.4168 45.7104C26.4225 46.4984 25.7892 47.1422 25.0017 47.1484C24.7142 47.1484 22.4132 47.1484 22.1257 47.1484C21.3376 47.1516 20.6965 46.5156 20.6934 45.7281C20.6934 45.724 20.6934 45.7198 20.6934 45.7156C20.6934 43.7026 20.6934 27.5932 20.6934 25.5807C20.684 20.8333 24.5236 16.9776 29.2689 16.9672C29.2772 16.9672 29.2845 16.9672 29.2923 16.9672C29.2923 16.9672 32.1903 16.9672 37.984 16.9672Z" fill="white"/>
</g>
<path d="M9.61521 21.6333C10.2058 21.1057 11.111 21.1568 11.6381 21.7464C11.8725 22.0083 12.0022 22.3469 12.0022 22.6979V25.5745H20.6939V31.3276H12.0022V34.2042C12.0011 34.9953 11.3579 35.6349 10.5668 35.6328C10.2157 35.6328 9.87719 35.5026 9.61521 35.2682C8.90948 34.6984 3.25896 30.1427 2.55271 29.5724C1.92042 29.1026 1.78865 28.2083 2.25896 27.576C2.34229 27.4646 2.44125 27.3661 2.55271 27.2833C3.96469 26.1526 8.90948 22.1984 9.61521 21.6333Z" fill="white"/>
<path d="M23.2538 3.62396C23.7189 2.98854 24.6121 2.85156 25.2475 3.31719C25.3642 3.40312 25.4689 3.50625 25.5548 3.62396C26.1184 4.33125 30.6272 9.98281 31.1908 10.6891C31.7189 11.2786 31.6679 12.1839 31.0783 12.712C30.8163 12.9453 30.4777 13.0755 30.1267 13.0766C29.9356 13.0766 28.9767 13.0766 27.2512 13.0766C27.2512 16.8187 27.2512 18.8974 27.2512 19.3125C25.0194 19.8885 23.0142 23.1193 21.4991 24.8562C21.4991 24.2042 21.4991 20.2797 21.4991 13.0828C19.7741 13.0828 18.8152 13.0828 18.6231 13.0828C17.833 13.0578 17.2111 12.3979 17.2356 11.6068C17.246 11.2661 17.3767 10.9406 17.6048 10.6891C18.7345 9.27604 22.6887 4.33125 23.2538 3.62396Z" fill="white"/>
</svg>
