<svg width="50" height="50" viewBox="0 0 50 50" fill="none" xmlns="http://www.w3.org/2000/svg">
<mask id="mask0_457_697" style="mask-type:luminance" maskUnits="userSpaceOnUse" x="41" y="12" width="8" height="10">
<path d="M41.6001 12.1333H48.0798V21.0667H41.6001V12.1333Z" fill="white"/>
</mask>
<g mask="url(#mask0_457_697)">
<path d="M48.0252 17.8042V12.2536H41.7153V17.8042C41.7153 19.5469 43.1304 20.9646 44.87 20.9646C46.6096 20.9646 48.0252 19.5469 48.0252 17.8042Z" fill="white"/>
</g>
<path d="M35.3501 26.5984H41.6605V28.1375H35.3501V26.5984Z" fill="white"/>
<mask id="mask1_457_697" style="mask-type:luminance" maskUnits="userSpaceOnUse" x="33" y="32" width="11" height="16">
<path d="M33.3335 32.9333H43.7335V47.3177H33.3335V32.9333Z" fill="white"/>
</mask>
<g mask="url(#mask1_457_697)">
<path d="M43.6493 47.263V32.9734H33.3613V47.263H43.6493ZM34.8978 38.524C34.8978 38.0688 35.266 37.6995 35.7207 37.6995C36.1754 37.6995 36.5436 38.0688 36.5436 38.524V41.712C36.5436 42.1672 36.1754 42.5365 35.7207 42.5365C35.266 42.5365 34.8978 42.1672 34.8978 41.712V38.524Z" fill="white"/>
</g>
<mask id="mask2_457_697" style="mask-type:luminance" maskUnits="userSpaceOnUse" x="3" y="20" width="44" height="28">
<path d="M3.06689 20.4H46.9336V47.3177H3.06689V20.4Z" fill="white"/>
</mask>
<g mask="url(#mask2_457_697)">
<path d="M46.8315 47.263V22.1891C46.2321 22.4594 45.569 22.6135 44.8701 22.6135C43.217 22.6135 41.756 21.7719 40.8925 20.4938C40.0284 21.7719 38.5675 22.6135 36.9144 22.6135C35.2607 22.6135 33.7998 21.7719 32.9362 20.4938C32.0722 21.7719 30.6118 22.6135 28.9581 22.6135C27.3414 22.6135 25.8623 21.7958 24.98 20.4833C24.0977 21.7958 22.619 22.6135 21.0019 22.6135C19.3487 22.6135 17.8883 21.7719 17.0243 20.4938C16.1602 21.7719 14.6998 22.6135 13.0461 22.6135C11.3925 22.6135 9.93154 21.7719 9.068 20.4938C8.20394 21.7719 6.74352 22.6135 5.08988 22.6135C4.39092 22.6135 3.72842 22.4594 3.12842 22.1891V47.263H31.7149V32.149C31.7149 31.6938 32.0836 31.3245 32.5383 31.3245H44.4722C44.9269 31.3245 45.2951 31.6938 45.2951 32.149V47.263H46.8315ZM29.3836 42.5089C29.3836 42.9641 29.0149 43.3333 28.5602 43.3333H6.28311C5.82894 43.3333 5.46019 42.9641 5.46019 42.5089V25.774C5.46019 25.3182 5.82894 24.9495 6.28311 24.9495H28.5602C29.0149 24.9495 29.3836 25.3182 29.3836 25.774V42.5089ZM43.3065 28.9615C43.3065 29.4167 42.9378 29.7859 42.4831 29.7859H34.5274C34.0727 29.7859 33.7045 29.4167 33.7045 28.9615V25.774C33.7045 25.3182 34.0727 24.9495 34.5274 24.9495H42.4831C42.9378 24.9495 43.3065 25.3182 43.3065 25.774V28.9615Z" fill="white"/>
</g>
<path d="M7.10645 37.3016H27.7372V26.5979H7.10645V37.3016ZM24.5117 29.124C24.8794 29.3927 24.9596 29.9083 24.6913 30.2755L21.2533 34.9938C21.0924 35.2151 20.8419 35.3323 20.5877 35.3323C20.4195 35.3323 20.2497 35.2807 20.1038 35.174C19.7361 34.9052 19.6559 34.3896 19.9242 34.0219L23.3622 29.3042C23.6299 28.9359 24.1445 28.8552 24.5117 29.124ZM19.6257 28.7568C19.9929 29.0255 20.0736 29.5411 19.8054 29.9083L16.3674 34.6271C16.2064 34.8484 15.9559 34.9656 15.7018 34.9656C15.5335 34.9656 15.3637 34.9141 15.2179 34.8073C14.8502 34.5385 14.77 34.0229 15.0382 33.6552L18.4762 28.937C18.7445 28.5688 19.2585 28.4885 19.6257 28.7568ZM10.1523 33.6552L13.5903 28.937C13.8575 28.5688 14.3726 28.4885 14.7398 28.7568C15.107 29.0255 15.1877 29.5411 14.9195 29.9083L11.4814 34.6271C11.3205 34.8484 11.07 34.9656 10.8158 34.9656C10.6476 34.9656 10.4778 34.9141 10.3314 34.8073C9.96426 34.5385 9.88405 34.0229 10.1523 33.6552Z" fill="white"/>
<path d="M28.0919 9.62292H27.2471V10.8552H28.0919C28.3314 10.8552 28.4986 10.7031 28.4986 10.5667V9.91198C28.4986 9.775 28.3314 9.62292 28.0919 9.62292Z" fill="white"/>
<path d="M9.89062 17.8042C9.89062 19.5469 11.3063 20.9646 13.0458 20.9646C14.7854 20.9646 16.201 19.5469 16.201 17.8042V14.45C15.8943 13.7432 15.6729 13.0089 15.5458 12.2536H9.89062V17.8042Z" fill="white"/>
<path d="M21.4609 11.3203V12.7229C21.4609 12.9927 21.7401 13.2125 22.0823 13.2125H24.9792C25.3219 13.2125 25.6005 12.9932 25.6005 12.7229V8.05209H21.4609V11.3203Z" fill="white"/>
<mask id="mask3_457_697" style="mask-type:luminance" maskUnits="userSpaceOnUse" x="1" y="12" width="8" height="10">
<path d="M1.87988 12.1333H8.26686V21.0667H1.87988V12.1333Z" fill="white"/>
</mask>
<g mask="url(#mask3_457_697)">
<path d="M5.08975 20.9646C6.82985 20.9646 8.24495 19.5469 8.24495 17.8042V12.2536H1.93506V17.8042C1.93506 19.5469 3.35016 20.9646 5.08975 20.9646Z" fill="white"/>
</g>
<path d="M36.914 20.9646C38.6536 20.9646 40.0687 19.5469 40.0687 17.8042V12.2536H34.414C34.2869 13.0089 34.065 13.7432 33.7588 14.45V17.8042C33.7588 19.5469 35.1739 20.9646 36.914 20.9646Z" fill="white"/>
<mask id="mask4_457_697" style="mask-type:luminance" maskUnits="userSpaceOnUse" x="16" y="2" width="17" height="17">
<path d="M16.9331 2.71771H32.9331V18.6667H16.9331V2.71771Z" fill="white"/>
</mask>
<g mask="url(#mask4_457_697)">
<path d="M32.8716 11.3578C32.8935 11.1167 32.9081 10.8776 32.9081 10.6323C32.9081 6.25312 29.3513 2.69062 24.9794 2.69062C20.6076 2.69062 17.0508 6.25312 17.0508 10.6323C17.0508 10.8776 17.0659 11.1167 17.0878 11.3552C17.1654 12.2552 17.3956 13.126 17.7716 13.9458C19.0326 16.6896 21.681 18.4604 24.682 18.5661C24.8029 18.5745 24.8878 18.5729 24.9794 18.574C25.0716 18.5745 25.1549 18.575 25.2466 18.5677C28.2779 18.4604 30.9263 16.6896 32.1878 13.9453C32.5638 13.126 32.7935 12.2552 32.8716 11.3578ZM30.1445 10.5667C30.1445 11.6349 29.2232 12.5042 28.0914 12.5042H27.2466V12.7229C27.2466 13.9021 26.2294 14.8615 24.9789 14.8615H22.082C20.832 14.8615 19.8148 13.9021 19.8148 12.7229V7.2276C19.8148 6.7724 20.1831 6.40312 20.6378 6.40312H26.4237C26.8779 6.40312 27.2466 6.7724 27.2466 7.2276V7.97448H28.0914C29.2232 7.97448 30.1445 8.84375 30.1445 9.91198V10.5667Z" fill="white"/>
</g>
<path d="M28.9576 20.9646C30.6972 20.9646 32.1123 19.5469 32.1123 17.8042V17.0323C30.7159 18.601 28.842 19.6693 26.7534 20.0562C27.3331 20.6245 28.1159 20.9646 28.9576 20.9646Z" fill="white"/>
<path d="M17.8467 17.0333V17.8042C17.8467 19.5469 19.2623 20.9646 21.0014 20.9646C21.842 20.9646 22.6238 20.6255 23.2029 20.0589C21.1217 19.675 19.2456 18.6052 17.8467 17.0333Z" fill="white"/>
<path d="M7.10596 38.95H27.7372V41.6839H7.10596V38.95Z" fill="white"/>
</svg>
