<svg width="50" height="50" viewBox="0 0 50 50" fill="none" xmlns="http://www.w3.org/2000/svg">
<mask id="mask0_457_837" style="mask-type:luminance" maskUnits="userSpaceOnUse" x="2" y="2" width="30" height="13">
<path d="M2.93311 2.12708H31.5998V14.9333H2.93311V2.12708Z" fill="white"/>
</mask>
<g mask="url(#mask0_457_837)">
<path d="M7.70921 14.8411C8.92067 14.8411 9.50661 14.4734 10.1326 14.0776C10.7342 13.7021 11.2998 13.3427 12.4629 13.3427C13.6259 13.3427 14.1915 13.7021 14.7972 14.0818C15.4191 14.4734 16.005 14.8411 17.2165 14.8411C18.428 14.8411 19.0139 14.4734 19.6399 14.0776C20.2415 13.7021 20.8071 13.3427 21.9701 13.3427C23.1332 13.3427 23.6988 13.7021 24.3004 14.0818C24.8941 14.4531 25.5082 14.8411 26.7238 14.8411C27.9358 14.8411 28.5254 14.4734 29.1472 14.0776C29.7488 13.7021 30.3144 13.3427 31.4774 13.3427V11.8562C30.3629 11.8562 29.6155 12.1188 29.0342 12.4219L23.5332 11.4203C24.8014 10.9193 25.4233 9.48177 24.9228 8.21354C24.4175 6.94115 22.9837 6.31927 21.7118 6.82396C20.9764 7.11458 20.4717 7.72083 20.2618 8.42344L18.7269 6.01615C18.6504 5.89531 18.5493 5.7901 18.4363 5.70521L13.8196 2.34479C13.5493 2.15104 13.2103 2.08229 12.8827 2.15938L6.64307 3.62552C6.029 3.77083 5.64515 4.38438 5.79046 5.0026C5.9363 5.61615 6.554 6 7.16807 5.85469L12.8952 4.5099L16.9097 7.43385L16.9821 7.54688L10.9764 12.0422C10.266 12.2401 9.76494 12.551 9.33682 12.8255C8.7915 13.1651 8.4889 13.3547 7.70921 13.3547C6.92588 13.3547 6.62692 13.1651 6.08161 12.8219C5.3988 12.3896 4.55088 11.8562 2.95557 11.8562V13.3427C4.11859 13.3427 4.68421 13.7021 5.28577 14.0818C5.90765 14.4734 6.49775 14.8411 7.70921 14.8411Z" fill="white"/>
</g>
<path d="M35.5166 24.3526L35.3146 24.2396L29.7531 21.0813C30.0198 20.9276 30.3026 20.7781 30.5932 20.637C31.6031 20.1359 32.6651 19.7521 33.3922 19.5828C33.5781 19.5344 33.7354 19.5099 33.8765 19.4776C33.9818 19.4656 34.0745 19.4495 34.1474 19.437C34.426 19.4089 34.5875 19.3927 34.5875 19.3927H34.6C34.6682 19.3849 34.7328 19.3766 34.7974 19.3646C34.8984 19.3443 34.9995 19.3203 35.1005 19.288L35.7021 22.2161C35.8073 22.7411 36.2396 23.1406 36.7765 23.2016L42.7135 23.8719C42.762 23.876 42.8104 23.8797 42.8552 23.8797C43.4771 23.8797 44.014 23.4115 44.087 22.7771C44.1635 22.099 43.6708 21.4849 42.9922 21.4083L37.9479 20.8385L37.0916 16.6464C37.6812 16.788 38.3234 16.7229 38.8969 16.4C40.0927 15.7214 40.5125 14.2031 39.8338 13.0073C39.1557 11.812 37.637 11.3917 36.4416 12.0661C35.6781 12.4984 35.238 13.2781 35.1896 14.0937C34.7651 13.9484 34.301 13.9083 33.8323 13.9927C33.8323 13.9927 33.6708 14.0214 33.388 14.0698C33.1901 14.1141 32.9198 14.1667 32.6651 14.2354C32.4271 14.3036 32.1521 14.3724 31.8776 14.4693C30.7469 14.837 29.4177 15.451 28.1661 16.1901C27.5401 16.5615 26.9338 16.9531 26.3526 17.3854L26.1385 17.551L25.9932 17.6641L25.876 17.7812C25.7791 17.874 25.6823 17.9714 25.5849 18.0641L25.4114 18.2536L25.2781 18.4276C24.9307 18.8719 24.6724 19.3807 24.5229 19.9016C24.2078 20.9396 24.3693 22.026 24.7937 22.7896C25.0078 23.1729 25.2661 23.4599 25.4682 23.6375C25.6781 23.8151 25.8031 23.8958 25.8031 23.8958C25.8193 23.9042 25.8354 23.912 25.8515 23.9245C26.0818 24.1505 26.3604 24.3365 26.6875 24.4495L32.7943 26.5536L30.6536 33.0115C30.4922 33.5005 30.7182 34.0417 31.1948 34.2635C31.7078 34.5021 32.3219 34.2797 32.5562 33.763L36.0943 26.174C36.401 25.5156 36.1547 24.7198 35.5166 24.3562V24.3526Z" fill="white"/>
<mask id="mask1_457_837" style="mask-type:luminance" maskUnits="userSpaceOnUse" x="35" y="24" width="13" height="13">
<path d="M35.6001 24.5333H47.6813V36.6667H35.6001V24.5333Z" fill="white"/>
</mask>
<g mask="url(#mask1_457_837)">
<path d="M45.4275 33.1208C44.753 34.1302 43.7234 34.813 42.5359 35.051C42.2411 35.1078 41.9421 35.1359 41.6473 35.1359C39.4864 35.1359 37.6124 33.5974 37.1926 31.4771C36.9583 30.2813 37.2004 29.0698 37.8749 28.0641C38.5494 27.0547 39.5796 26.3719 40.7671 26.1333C41.0661 26.0771 41.3609 26.049 41.6556 26.049C43.8161 26.049 45.69 27.5875 46.1103 29.7078C46.3447 30.8995 46.102 32.1109 45.4275 33.1208ZM47.5681 29.4214C47.0109 26.6021 44.5228 24.5583 41.6556 24.5583C41.2676 24.5583 40.8681 24.599 40.4801 24.6755C38.901 24.9865 37.5359 25.8953 36.6395 27.2359C35.7426 28.5729 35.4234 30.1807 35.7348 31.7599C36.2921 34.5828 38.776 36.6266 41.6473 36.6266C42.039 36.6266 42.4348 36.5859 42.8228 36.5094C44.402 36.1984 45.7671 35.2896 46.6635 33.9484C47.5603 32.6078 47.8791 31.0005 47.5681 29.4214Z" fill="white"/>
</g>
<path d="M29.5349 36.1255H24.6683L22.6693 32.224C22.6245 32.1391 22.5683 32.0583 22.5073 31.9818L16.437 24.9219C16.074 24.5021 15.4761 24.3729 14.9714 24.6068L9.66411 27.087C9.0464 27.3734 8.77557 28.1125 9.0662 28.7307C9.35734 29.3526 10.0922 29.6229 10.7141 29.3323L15.1688 27.2521L17.0068 29.3891L11.9219 34.4255C11.6594 34.5344 11.4131 34.6958 11.2068 34.9182C11.1099 35.0229 11.0292 35.1359 10.9605 35.2531C10.7626 35.4391 10.5969 35.6693 10.4839 35.9359L8.5938 40.5198L2.73755 45.5641C2.29328 45.9521 2.1964 46.6182 2.53963 47.1151C2.90734 47.6443 3.63442 47.7818 4.16724 47.4141L10.9042 42.7573C11.0412 42.6646 11.1625 42.5354 11.2516 42.3859L11.3605 42.2042L13.073 39.3286L15.9766 41.9901L12.1115 45.5844C11.6834 45.9844 11.611 46.6469 11.962 47.1313C12.3417 47.6526 13.073 47.7693 13.5938 47.3901L19.3532 43.2219C19.3974 43.1938 19.4381 43.1573 19.4787 43.1208C20.1006 42.5635 20.149 41.6063 19.5917 40.9844L19.4745 40.8552L15.9365 36.9255L20.5042 33.4557L20.5287 33.488L22.8105 37.9307C23.0204 38.3469 23.4485 38.6052 23.9131 38.6052H29.5349C30.2219 38.6052 30.7792 38.0521 30.7792 37.3656C30.7792 36.6792 30.2219 36.1255 29.5349 36.1255Z" fill="white"/>
<path d="M21.9138 30.5922C22.7414 31.6948 24.3086 31.9172 25.4112 31.0891C26.5138 30.2615 26.7357 28.6943 25.9081 27.5917C25.08 26.4891 23.5128 26.2667 22.4102 27.099C21.3076 27.9229 21.0857 29.4937 21.9138 30.5922Z" fill="white"/>
</svg>
