<svg width="50" height="50" viewBox="0 0 50 50" fill="none" xmlns="http://www.w3.org/2000/svg">
<mask id="mask0_457_653" style="mask-type:luminance" maskUnits="userSpaceOnUse" x="2" y="22" width="46" height="3">
<path d="M2.28223 22.5333H47.7822V24.9333H2.28223V22.5333Z" fill="white"/>
</mask>
<g mask="url(#mask0_457_653)">
<path d="M46.6121 22.5432H3.45322C2.80843 22.5432 2.2876 23.0651 2.2876 23.7104V24.8682H16.4371C16.4746 24.8302 16.5126 24.8016 16.5506 24.7641C16.5787 24.7354 16.6074 24.7161 16.636 24.688C16.6928 24.6406 16.759 24.5932 16.8157 24.5552C16.8444 24.5359 16.8824 24.5078 16.9105 24.4885C16.9772 24.4411 17.0433 24.4031 17.1095 24.3745C17.5173 24.1469 17.9813 24.0141 18.4459 23.976C18.5121 23.9667 18.5787 23.9667 18.6449 23.9667H31.4204C31.4772 23.9667 31.534 23.9667 31.5907 23.976H31.6001C32.0267 24.0047 32.4438 24.1182 32.8324 24.3083C32.8985 24.337 32.9553 24.3745 33.022 24.4125C33.0407 24.4224 33.06 24.4318 33.0787 24.4411C33.0975 24.4505 33.1168 24.4599 33.1355 24.4792C33.1449 24.4885 33.1548 24.4885 33.1735 24.4979C33.1923 24.5078 33.2116 24.5172 33.2303 24.5359C33.2491 24.5453 33.2683 24.5646 33.2871 24.574C33.3251 24.6026 33.3725 24.6307 33.4105 24.6687C33.4293 24.6786 33.4485 24.6974 33.4673 24.7068C33.486 24.7161 33.4959 24.7354 33.5147 24.7448C33.5433 24.7734 33.5808 24.8016 33.6095 24.8302C33.6188 24.8396 33.6282 24.8495 33.6381 24.8589H47.7777V23.701C47.7777 23.0651 47.2564 22.5432 46.6121 22.5432Z" fill="white"/>
</g>
<path d="M3.68076 17.6365H21.6016C22.0756 17.6365 22.4453 17.2661 22.4453 16.7823V16.099H2.82764V16.7917C2.82764 17.2568 3.2068 17.6365 3.68076 17.6365Z" fill="white"/>
<mask id="mask1_457_653" style="mask-type:luminance" maskUnits="userSpaceOnUse" x="2" y="3" width="21" height="13">
<path d="M2.7998 3.16302H22.5331V15.0667H2.7998V3.16302Z" fill="white"/>
</mask>
<g mask="url(#mask1_457_653)">
<path d="M22.4546 4.00729C22.4546 3.54219 22.0755 3.16302 21.6114 3.16302H3.68066C3.21608 3.16302 2.83691 3.54219 2.83691 4.00729V15.0547H22.4546V4.00729Z" fill="white"/>
</g>
<path d="M9.11117 20.3505C9.05439 20.3792 8.90283 20.588 8.90283 20.9297V21.5083H16.3898V20.9297C16.3898 20.5786 16.2377 20.3698 16.181 20.3505H14.058C14.0487 20.3505 14.0487 20.3505 14.0393 20.3505C14.0299 20.3505 14.0299 20.3505 14.0205 20.3505H9.11117Z" fill="white"/>
<path d="M11.7739 18.6708H13.5083V19.3068H11.7739V18.6708Z" fill="white"/>
<path d="M28.463 17.6365H46.3843C46.8583 17.6365 47.2281 17.2661 47.2281 16.7823V16.099H27.6104V16.7917C27.6104 17.2568 27.9895 17.6365 28.463 17.6365Z" fill="white"/>
<mask id="mask2_457_653" style="mask-type:luminance" maskUnits="userSpaceOnUse" x="27" y="3" width="21" height="13">
<path d="M27.6001 3.16302H47.3334V15.0667H27.6001V3.16302Z" fill="white"/>
</mask>
<g mask="url(#mask2_457_653)">
<path d="M47.2378 4.00729C47.2378 3.54219 46.8587 3.16302 46.3946 3.16302H28.4633C27.9993 3.16302 27.6201 3.54219 27.6201 4.00729V15.0547H47.2378V4.00729Z" fill="white"/>
</g>
<path d="M33.8841 20.3505C33.8269 20.3792 33.6753 20.588 33.6753 20.9297V21.5083H41.1623V20.9297C41.1623 20.5786 41.0107 20.3698 40.9539 20.3505H38.831C38.8216 20.3505 38.8216 20.3505 38.8123 20.3505C38.8024 20.3505 38.8024 20.3505 38.793 20.3505H33.8841Z" fill="white"/>
<path d="M36.5566 18.6708H38.291V19.3068H36.5566V18.6708Z" fill="white"/>
<path d="M34.3485 26.0641C34.3579 26.0927 34.3678 26.1208 34.3678 26.1495C34.3772 26.1875 34.3866 26.2161 34.3866 26.2536C34.3959 26.3203 34.4053 26.387 34.4152 26.4625C34.4152 26.4911 34.4152 26.5104 34.4246 26.5385C34.434 26.6526 34.434 26.7568 34.4246 26.8708C34.4152 26.9375 34.4152 27.0036 34.3959 27.0703L34.0454 29.0536H45.323L47.3418 25.9219H34.3011C34.3204 25.9599 34.3392 26.0073 34.3485 26.0641Z" fill="white"/>
<path d="M15.6695 27.0604C15.6408 26.8896 15.6314 26.7094 15.6408 26.5292C15.6408 26.5005 15.6408 26.4818 15.6502 26.4531C15.6596 26.387 15.6695 26.3203 15.6788 26.2443C15.6882 26.2063 15.6976 26.1589 15.707 26.1208C15.707 26.1021 15.7169 26.0828 15.7262 26.0641C15.7356 26.0167 15.7544 25.9599 15.7736 25.912H2.72363L4.74186 29.0443H16.02L15.6695 27.0604Z" fill="white"/>
<mask id="mask3_457_653" style="mask-type:luminance" maskUnits="userSpaceOnUse" x="7" y="30" width="5" height="17">
<path d="M7.8667 30H11.2V46.963H7.8667V30Z" fill="white"/>
</mask>
<g mask="url(#mask3_457_653)">
<path d="M7.90723 30.088H11.101V46.963H7.90723V30.088Z" fill="white"/>
</g>
<mask id="mask4_457_653" style="mask-type:luminance" maskUnits="userSpaceOnUse" x="38" y="30" width="5" height="17">
<path d="M38.9331 30H42.2664V46.963H38.9331V30Z" fill="white"/>
</mask>
<g mask="url(#mask4_457_653)">
<path d="M38.9639 33.9891C38.9639 33.9984 38.9639 34.0078 38.9639 34.0172C38.9639 34.0271 38.9639 34.0365 38.9639 34.0458V46.963H42.1576V30.088H38.9639V33.9891Z" fill="white"/>
</g>
<path d="M33.3913 26.7667C33.4012 26.6813 33.4012 26.5958 33.3913 26.5198C33.3913 26.5005 33.3819 26.4724 33.3819 26.4531C33.3819 26.4344 33.3726 26.4057 33.3726 26.387C33.3726 26.3677 33.3632 26.3583 33.3632 26.3391C33.3345 26.2161 33.2871 26.1115 33.2304 26.0167C33.221 25.9974 33.2116 25.9786 33.2017 25.9693C33.1924 25.95 33.183 25.9313 33.1736 25.9219C33.1642 25.9026 33.1549 25.8932 33.1356 25.8745C33.1262 25.8552 33.1168 25.8458 33.0976 25.8266C33.0976 25.8266 33.0976 25.8172 33.0882 25.8172C33.0788 25.8078 33.0694 25.7984 33.0601 25.7891C33.0502 25.7792 33.0408 25.7698 33.0314 25.7604L33.022 25.751C32.9934 25.7224 32.9746 25.6938 32.946 25.675C32.9179 25.6464 32.8986 25.6276 32.8705 25.599C32.8512 25.5802 32.8325 25.5703 32.8231 25.5516C32.8132 25.5422 32.8038 25.5328 32.7851 25.5229C32.7377 25.4849 32.6903 25.4474 32.6429 25.4188C32.6335 25.4188 32.6241 25.4094 32.6241 25.4094C32.5955 25.3901 32.5668 25.3714 32.5293 25.3521C32.5007 25.3333 32.4627 25.3141 32.4345 25.2953C32.3965 25.2766 32.3679 25.2573 32.3299 25.2479C32.3017 25.2385 32.2731 25.2193 32.245 25.2099C32.2163 25.2005 32.1783 25.1813 32.1408 25.1719C32.1215 25.1625 32.1028 25.1625 32.0835 25.1531C32.0647 25.1432 32.0361 25.1339 32.0174 25.1339C32.008 25.1339 31.9986 25.1339 31.9986 25.1245C31.97 25.1151 31.9413 25.1057 31.9132 25.1057C31.8752 25.0958 31.8371 25.0865 31.7897 25.0771C31.771 25.0771 31.7517 25.0677 31.7236 25.0677C31.695 25.0578 31.6762 25.0578 31.6575 25.0578C31.5814 25.0484 31.5054 25.0484 31.4299 25.0484H18.645C18.5694 25.0484 18.4934 25.0484 18.4179 25.0578C18.3892 25.0578 18.3705 25.0578 18.3512 25.0677C18.3325 25.0677 18.3132 25.0771 18.2851 25.0771C18.247 25.0865 18.209 25.0958 18.1616 25.1057C18.1335 25.1151 18.1049 25.1151 18.0762 25.1245C18.0668 25.1245 18.0575 25.1245 18.0575 25.1339C18.0387 25.1432 18.0101 25.1432 17.9913 25.1531C17.972 25.1625 17.9533 25.1625 17.9345 25.1719C17.8965 25.1813 17.8679 25.2005 17.8299 25.2099C17.8017 25.2193 17.7731 25.2385 17.745 25.2479C17.7163 25.2667 17.6783 25.2766 17.6502 25.2953L17.6121 25.3141C17.5929 25.324 17.5647 25.3427 17.5455 25.3521C17.4512 25.4094 17.3658 25.4661 17.2897 25.5328C17.2804 25.5422 17.2616 25.5516 17.2517 25.5609C17.233 25.5703 17.2142 25.5896 17.2043 25.6083C17.1762 25.637 17.1569 25.6557 17.1288 25.6844C17.1002 25.713 17.0814 25.7318 17.0528 25.7604L17.0434 25.7698C17.034 25.7792 17.0246 25.7891 17.0147 25.7984C17.0054 25.8078 16.996 25.8172 16.9866 25.8266C16.9866 25.8266 16.9866 25.8365 16.9772 25.8365C16.9679 25.8458 16.958 25.8646 16.9392 25.8839C16.9299 25.9026 16.9106 25.912 16.9012 25.9313C16.8918 25.95 16.8825 25.9599 16.8731 25.9786C16.8632 25.9974 16.8538 26.0167 16.8444 26.026C16.8064 26.0927 16.7684 26.1781 16.7403 26.2536C16.7309 26.2917 16.7116 26.3297 16.7022 26.3677C16.7022 26.3771 16.6929 26.387 16.6929 26.3964C16.6929 26.4151 16.6835 26.4344 16.6835 26.4531C16.6835 26.4724 16.6736 26.5005 16.6736 26.5198C16.6642 26.6333 16.6642 26.7568 16.6835 26.8896L17.1476 29.4901L18.4554 36.8646L18.4647 36.912L18.683 38.1365C18.8538 39.076 19.4601 40.1771 20.6351 40.1771H29.4205C30.596 40.1771 31.2116 39.076 31.3731 38.1365L33.3632 26.8802C33.3819 26.8422 33.3819 26.8042 33.3913 26.7667Z" fill="white"/>
<path d="M32.7373 36.4375H37.9305V34.5297H33.0691L32.7373 36.4375Z" fill="white"/>
<path d="M12.1338 34.5297V36.4375H17.3275L16.9864 34.5297H12.1338Z" fill="white"/>
<mask id="mask5_457_653" style="mask-type:luminance" maskUnits="userSpaceOnUse" x="20" y="41" width="10" height="6">
<path d="M20.5332 41.2H29.5999V46.963H20.5332V41.2Z" fill="white"/>
</mask>
<g mask="url(#mask5_457_653)">
<path d="M22.1418 41.2115C21.696 41.8661 20.3408 44.087 20.6345 46.7542C20.6444 46.8677 20.7486 46.9531 20.8621 46.9531H29.2022C29.3252 46.9531 29.42 46.8677 29.4293 46.7542C29.7137 44.087 28.3679 41.8661 27.9226 41.2115H22.1418Z" fill="white"/>
</g>
</svg>
