<svg width="50" height="50" viewBox="0 0 50 50" fill="none" xmlns="http://www.w3.org/2000/svg">
<mask id="mask0_462_608" style="mask-type:luminance" maskUnits="userSpaceOnUse" x="2" y="2" width="21" height="46">
<path d="M2.05225 2.05208H22.6668V47.9521H2.05225V2.05208Z" fill="white"/>
</mask>
<g mask="url(#mask0_462_608)">
<path d="M21.8387 2.05208H12.708V8.60937C12.708 8.66302 12.7028 8.71666 12.6918 8.76927C12.6814 8.82187 12.6658 8.87343 12.6455 8.92291C12.6246 8.97291 12.5996 9.01979 12.5694 9.06458C12.5397 9.10937 12.5059 9.15104 12.4679 9.18906C12.4299 9.22708 12.3882 9.26093 12.3434 9.29062C12.2986 9.32083 12.2517 9.34583 12.2017 9.36666C12.1522 9.38697 12.1007 9.4026 12.0481 9.41302C11.9955 9.42395 11.9418 9.42916 11.8882 9.42916C11.8345 9.42916 11.7809 9.42395 11.7283 9.41302C11.6757 9.4026 11.6241 9.38697 11.5746 9.36666C11.5246 9.34583 11.4772 9.32083 11.433 9.29062C11.3882 9.26093 11.3465 9.22708 11.3085 9.18906C11.2705 9.15104 11.2366 9.10937 11.2064 9.06458C11.1767 9.01979 11.1512 8.97291 11.1309 8.92291C11.1101 8.87343 11.095 8.82187 11.084 8.76927C11.0736 8.71666 11.0684 8.66302 11.0684 8.60937V2.05208H2.87204C2.81839 2.0526 2.76527 2.05781 2.71214 2.06822C2.65954 2.07916 2.6085 2.09479 2.55902 2.1151C2.50902 2.13593 2.46214 2.16145 2.41735 2.19114C2.37256 2.22083 2.33141 2.2552 2.29339 2.29322C2.25537 2.33124 2.221 2.37239 2.19131 2.41718C2.16162 2.46197 2.1361 2.50885 2.11527 2.55885C2.09495 2.60833 2.07933 2.65937 2.06839 2.71197C2.05798 2.7651 2.05277 2.81822 2.05225 2.87187V47.1328C2.05277 47.1865 2.05798 47.2396 2.06839 47.2922C2.07933 47.3448 2.09495 47.3963 2.11527 47.4458C2.1361 47.4953 2.16162 47.5427 2.19131 47.5875C2.221 47.6323 2.25537 47.6734 2.29339 47.7114C2.33141 47.7495 2.37256 47.7833 2.41735 47.8135C2.46214 47.8432 2.50902 47.8687 2.55902 47.8891C2.6085 47.9099 2.65954 47.9255 2.71214 47.9359C2.76527 47.9469 2.81839 47.9521 2.87204 47.9521H11.0684V41.3953C11.0694 41.3422 11.0757 41.2896 11.0871 41.2375C11.0981 41.1854 11.1142 41.1349 11.1356 41.0865C11.1564 41.0375 11.1819 40.9911 11.2121 40.9474C11.2424 40.9036 11.2762 40.863 11.3142 40.8255C11.3522 40.7885 11.3934 40.7552 11.4377 40.726C11.4819 40.6969 11.5288 40.6724 11.5783 40.6521C11.6272 40.6323 11.6778 40.6167 11.7304 40.6068C11.7825 40.5963 11.8351 40.5911 11.8882 40.5911C11.9413 40.5911 11.9939 40.5963 12.046 40.6068C12.0981 40.6167 12.1491 40.6323 12.1981 40.6521C12.2476 40.6724 12.2944 40.6969 12.3387 40.726C12.383 40.7552 12.4241 40.7885 12.4621 40.826C12.5002 40.863 12.534 40.9036 12.5642 40.9474C12.5944 40.9911 12.62 41.0375 12.6408 41.0865C12.6621 41.1349 12.6783 41.1854 12.6892 41.2375C12.7007 41.2896 12.7069 41.3422 12.708 41.3953V47.9521H21.8387C21.8924 47.9526 21.946 47.9474 21.9986 47.937C22.0517 47.9266 22.1028 47.9109 22.1528 47.8906C22.2022 47.8703 22.2496 47.8448 22.2944 47.8151C22.3392 47.7849 22.3809 47.751 22.4189 47.713C22.4569 47.675 22.4913 47.6333 22.521 47.5885C22.5507 47.5437 22.5762 47.4963 22.5965 47.4469C22.6174 47.3969 22.6325 47.3453 22.6429 47.2927C22.6533 47.2396 22.6585 47.1865 22.658 47.1328V2.87187C22.6585 2.81822 22.6533 2.76458 22.6429 2.71197C22.6325 2.65885 22.6174 2.60781 22.5965 2.55781C22.5762 2.50781 22.5507 2.46041 22.521 2.41562C22.4913 2.37083 22.4569 2.32968 22.4189 2.29166C22.3809 2.25312 22.3392 2.21927 22.2944 2.18958C22.2496 2.15937 22.2022 2.13437 22.1528 2.11406C22.1028 2.09322 22.0517 2.07812 21.9986 2.0677C21.946 2.05729 21.8924 2.05208 21.8387 2.05208ZM15.3387 19.3219C15.3007 19.3599 15.259 19.3937 15.2137 19.424C15.1689 19.4536 15.1215 19.4786 15.0715 19.4995C15.0215 19.5198 14.97 19.5354 14.9174 19.5458C14.8642 19.5562 14.8106 19.5615 14.7569 19.5615C14.7028 19.5615 14.6496 19.5562 14.5965 19.5458C14.5434 19.5354 14.4924 19.5198 14.4424 19.4995C14.3924 19.4786 14.345 19.4536 14.3002 19.424C14.2549 19.3937 14.2132 19.3599 14.1752 19.3219L12.708 17.8552V34.1328C12.7069 34.1865 12.7012 34.2391 12.6897 34.2911C12.6788 34.3432 12.6627 34.3937 12.6418 34.4427C12.621 34.4917 12.5955 34.5385 12.5653 34.5823C12.5351 34.6266 12.5012 34.6672 12.4632 34.7047C12.4252 34.7417 12.384 34.775 12.3397 34.8047C12.295 34.8338 12.2481 34.8588 12.1991 34.8786C12.1496 34.899 12.0986 34.9146 12.0465 34.9245C11.9944 34.9349 11.9413 34.9401 11.8882 34.9401C11.8351 34.9401 11.7819 34.9349 11.7299 34.9245C11.6772 34.9146 11.6267 34.899 11.5772 34.8786C11.5283 34.8588 11.4809 34.8338 11.4366 34.8047C11.3924 34.775 11.3512 34.7417 11.3132 34.7047C11.2752 34.6672 11.2408 34.6266 11.2111 34.5823C11.1809 34.5385 11.1554 34.4917 11.1345 34.4427C11.1137 34.3937 11.0976 34.3432 11.0866 34.2911C11.0752 34.2391 11.0694 34.1865 11.0684 34.1328V17.8552L9.6012 19.3219C9.56318 19.3588 9.52152 19.3922 9.47725 19.4208C9.43246 19.45 9.38558 19.474 9.3361 19.4937C9.28662 19.5135 9.2361 19.5286 9.1835 19.5385C9.13141 19.5484 9.07881 19.5531 9.02568 19.5531C8.97256 19.5526 8.91995 19.5469 8.86787 19.5365C8.81579 19.526 8.76475 19.5104 8.71579 19.4901C8.66683 19.4698 8.61996 19.4448 8.57568 19.4151C8.53141 19.3854 8.49079 19.3521 8.45277 19.3146C8.41527 19.2771 8.38141 19.2365 8.35173 19.1922C8.32204 19.1484 8.29652 19.1021 8.27568 19.0531C8.25485 19.0042 8.23923 18.9536 8.22829 18.9016C8.21735 18.8495 8.21162 18.7969 8.21058 18.7437C8.21006 18.6906 8.21423 18.638 8.22412 18.5854C8.2335 18.5333 8.24808 18.4823 8.26735 18.4328C8.28662 18.3833 8.3111 18.3359 8.33923 18.2911C8.36787 18.2463 8.40068 18.2047 8.43766 18.1661L11.2736 15.3302C11.3106 15.2885 11.3517 15.251 11.397 15.2177C11.4418 15.1844 11.4897 15.1557 11.5408 15.1323C11.5913 15.1083 11.6444 15.0901 11.6986 15.0776C11.7533 15.0646 11.8085 15.0573 11.8647 15.0557C11.9205 15.0542 11.9762 15.0583 12.0314 15.0682C12.0866 15.0781 12.1403 15.0932 12.1924 15.1141C12.2444 15.1349 12.2939 15.1609 12.3408 15.1917C12.3871 15.2224 12.4304 15.2578 12.47 15.2979C12.5075 15.3109 15.3012 18.1458 15.3387 18.1667C15.3767 18.2042 15.4106 18.2458 15.4408 18.2901C15.4705 18.3349 15.4955 18.3818 15.5163 18.4312C15.5366 18.4812 15.5522 18.5323 15.5627 18.5849C15.5731 18.6375 15.5783 18.6906 15.5783 18.7443C15.5783 18.7979 15.5731 18.851 15.5627 18.9036C15.5522 18.9562 15.5366 19.0073 15.5163 19.0573C15.4955 19.1068 15.4705 19.1536 15.4408 19.1984C15.4106 19.2427 15.3767 19.2844 15.3387 19.3219Z" fill="white"/>
</g>
<mask id="mask1_462_608" style="mask-type:luminance" maskUnits="userSpaceOnUse" x="27" y="2" width="21" height="46">
<path d="M27.3335 2.05208H47.9522V47.9521H27.3335V2.05208Z" fill="white"/>
</mask>
<g mask="url(#mask1_462_608)">
<path d="M47.1331 2.05208H38.9363V8.60937C38.9363 8.66302 38.9311 8.71666 38.9206 8.76927C38.9102 8.82187 38.8946 8.87343 38.8743 8.92291C38.8535 8.97291 38.8285 9.01979 38.7982 9.06458C38.7686 9.10937 38.7347 9.15104 38.6967 9.18906C38.6581 9.22708 38.617 9.26093 38.5722 9.29062C38.5274 9.32083 38.48 9.34583 38.4305 9.36666C38.3805 9.38697 38.3295 9.4026 38.2769 9.41302C38.2238 9.42395 38.1706 9.42916 38.117 9.42916C38.0628 9.42916 38.0097 9.42395 37.9571 9.41302C37.904 9.4026 37.8529 9.38697 37.8029 9.36666C37.7535 9.34583 37.7061 9.32083 37.6613 9.29062C37.617 9.26093 37.5753 9.22708 37.5373 9.18906C37.4993 9.15104 37.4654 9.10937 37.4352 9.06458C37.4055 9.01979 37.38 8.97291 37.3597 8.92291C37.3389 8.87343 37.3232 8.82187 37.3128 8.76927C37.3024 8.71666 37.2972 8.66302 37.2972 8.60937V2.05208H28.1665C28.1123 2.05208 28.0592 2.05729 28.0061 2.0677C27.9535 2.07812 27.9019 2.09322 27.8524 2.11406C27.8024 2.13437 27.755 2.15937 27.7102 2.18958C27.6654 2.21927 27.6243 2.25312 27.5857 2.29166C27.5477 2.32968 27.5139 2.37083 27.4842 2.41562C27.454 2.46041 27.429 2.50781 27.4081 2.55781C27.3878 2.60781 27.3722 2.65885 27.3618 2.71197C27.3519 2.76458 27.3467 2.81822 27.3467 2.87187V47.1328C27.3467 47.1865 27.3519 47.2396 27.3618 47.2927C27.3722 47.3453 27.3878 47.3969 27.4081 47.4469C27.429 47.4963 27.454 47.5437 27.4842 47.5885C27.5139 47.6333 27.5477 47.675 27.5857 47.713C27.6243 47.751 27.6654 47.7849 27.7102 47.8151C27.755 47.8448 27.8024 47.8703 27.8524 47.8906C27.9019 47.9109 27.9535 47.9266 28.0061 47.937C28.0592 47.9474 28.1123 47.9526 28.1665 47.9521H37.2972V41.3953C37.2982 41.3422 37.3045 41.2896 37.3154 41.2375C37.3269 41.1854 37.343 41.1349 37.3644 41.0865C37.3852 41.0375 37.4107 40.9911 37.441 40.9474C37.4712 40.9036 37.505 40.863 37.543 40.826C37.5811 40.7885 37.6222 40.7552 37.6665 40.726C37.7107 40.6969 37.7576 40.6724 37.8071 40.6521C37.8561 40.6323 37.9066 40.6172 37.9587 40.6068C38.0113 40.5963 38.0639 40.5911 38.117 40.5911C38.1701 40.5911 38.2227 40.5963 38.2748 40.6068C38.3269 40.6172 38.3779 40.6323 38.4269 40.6521C38.4758 40.6724 38.5227 40.6969 38.5675 40.726C38.6118 40.7552 38.6529 40.7885 38.691 40.826C38.729 40.863 38.7628 40.9036 38.793 40.9474C38.8227 40.9911 38.8488 41.0375 38.8696 41.0865C38.8904 41.1354 38.9066 41.1854 38.918 41.2375C38.9295 41.2896 38.9352 41.3422 38.9363 41.3953V47.9521H47.1331C47.1868 47.9521 47.2399 47.9469 47.2925 47.9359C47.3451 47.9255 47.3967 47.9099 47.4462 47.8891C47.4956 47.8687 47.543 47.8432 47.5878 47.8135C47.6326 47.7833 47.6738 47.7495 47.7118 47.7114C47.7498 47.6734 47.7837 47.6323 47.8139 47.5875C47.8436 47.5427 47.8691 47.4953 47.8894 47.4458C47.9102 47.3963 47.9258 47.3448 47.9363 47.2922C47.9472 47.2396 47.9524 47.1865 47.9524 47.1328V2.87187C47.9524 2.81822 47.9472 2.7651 47.9363 2.71197C47.9258 2.65937 47.9102 2.60833 47.8894 2.55885C47.8691 2.50885 47.8436 2.46197 47.8139 2.41718C47.7837 2.37239 47.7498 2.33124 47.7118 2.29322C47.6738 2.2552 47.6326 2.22083 47.5878 2.19114C47.543 2.16145 47.4956 2.13593 47.4462 2.1151C47.3967 2.09479 47.3451 2.07916 47.2925 2.06822C47.2399 2.05781 47.1868 2.0526 47.1331 2.05208ZM41.5675 31.838L38.6988 34.7068C38.6607 34.7453 38.6196 34.7802 38.5748 34.8104C38.53 34.8411 38.4826 34.8667 38.4326 34.888C38.3826 34.9088 38.3311 34.9245 38.2779 34.9354C38.2248 34.9463 38.1712 34.9516 38.117 34.9516C38.0628 34.9516 38.0092 34.9463 37.9561 34.9354C37.9029 34.9245 37.8514 34.9088 37.8014 34.888C37.7514 34.8667 37.704 34.8411 37.6592 34.8104C37.6144 34.7802 37.5727 34.7453 37.5347 34.7068L34.666 31.838C34.6279 31.8 34.5941 31.7588 34.5644 31.7141C34.5347 31.6698 34.5092 31.6224 34.4889 31.5729C34.468 31.5234 34.4524 31.4724 34.442 31.4198C34.4316 31.3672 34.4264 31.3141 34.4264 31.2604C34.4264 31.2068 34.4316 31.1531 34.442 31.1005C34.4524 31.0479 34.468 30.9969 34.4889 30.9474C34.5092 30.8979 34.5347 30.8505 34.5644 30.8062C34.5941 30.7615 34.6279 30.7203 34.666 30.6823C34.7045 30.6443 34.7462 30.6104 34.791 30.5807C34.8363 30.5505 34.8837 30.5255 34.9337 30.5047C34.9831 30.4844 35.0347 30.4687 35.0878 30.4583C35.1404 30.4479 35.1941 30.4427 35.2482 30.4427C35.3019 30.4427 35.3555 30.4479 35.4087 30.4583C35.4613 30.4687 35.5128 30.4844 35.5628 30.5047C35.6128 30.5255 35.6602 30.5505 35.705 30.5807C35.7503 30.6104 35.7915 30.6443 35.83 30.6823L37.2972 32.1495V15.8713C37.2982 15.8182 37.304 15.7656 37.3149 15.7135C37.3264 15.6609 37.342 15.6104 37.3633 15.5615C37.3842 15.5125 37.4097 15.4661 37.4399 15.4219C37.4696 15.3781 37.504 15.3375 37.5415 15.3C37.5795 15.2625 37.6212 15.2292 37.6654 15.2C37.7097 15.1703 37.7566 15.1458 37.8061 15.1255C37.8555 15.1052 37.9061 15.0901 37.9587 15.0797C38.0107 15.0693 38.0633 15.0646 38.117 15.0646C38.1701 15.0646 38.2227 15.0693 38.2753 15.0797C38.3274 15.0901 38.3785 15.1052 38.4274 15.1255C38.4769 15.1458 38.5238 15.1703 38.5686 15.2C38.6128 15.2292 38.654 15.2625 38.692 15.3C38.73 15.3375 38.7639 15.3781 38.7941 15.4219C38.8243 15.4661 38.8493 15.5125 38.8706 15.5615C38.8915 15.6104 38.9076 15.6609 38.9186 15.7135C38.9295 15.7656 38.9357 15.8182 38.9363 15.8713V32.1495L40.4035 30.6823C40.442 30.6453 40.4831 30.6125 40.5279 30.5833C40.5727 30.5547 40.6196 30.5302 40.6691 30.5104C40.718 30.4906 40.7691 30.476 40.8212 30.4661C40.8732 30.4562 40.9264 30.4516 40.9795 30.4516C41.0326 30.4521 41.0852 30.4578 41.1373 30.4682C41.1894 30.4786 41.2399 30.4943 41.2889 30.5146C41.3378 30.5349 41.3847 30.5599 41.429 30.5896C41.4732 30.6193 41.5139 30.6526 41.5519 30.6901C41.5894 30.7276 41.6232 30.7682 41.6529 30.812C41.6831 30.8562 41.7081 30.9026 41.729 30.9516C41.7498 31.0005 41.7654 31.051 41.7764 31.1031C41.7873 31.1552 41.7936 31.2078 41.7941 31.2609C41.7946 31.3141 41.7904 31.3667 41.7811 31.4187C41.7712 31.4713 41.7571 31.5224 41.7373 31.5719C41.718 31.6213 41.6941 31.6682 41.6654 31.713C41.6368 31.7578 41.604 31.7995 41.5675 31.838Z" fill="white"/>
</g>
</svg>
