<svg width="50" height="50" viewBox="0 0 50 50" fill="none" xmlns="http://www.w3.org/2000/svg">
<mask id="mask0_457_878" style="mask-type:luminance" maskUnits="userSpaceOnUse" x="1" y="5" width="48" height="40">
<path d="M1.54346 5.79479H48.4002V44.1948H1.54346V5.79479Z" fill="white"/>
</mask>
<g mask="url(#mask0_457_878)">
<path fill-rule="evenodd" clip-rule="evenodd" d="M30.6805 37.8505V44.0828C30.6805 44.1365 30.6367 44.1802 30.5831 44.1802H28.6784C28.6362 44.1802 28.6003 44.1547 28.5862 44.1146L26.8565 39.1161C26.8424 39.076 26.8065 39.0505 26.7643 39.0505H22.2867C22.244 39.0505 22.2081 39.076 22.1945 39.1161L20.4643 44.1146C20.4503 44.1547 20.4143 44.1802 20.3721 44.1802H18.4674C18.4138 44.1802 18.37 44.1365 18.37 44.0828V37.8505C18.37 37.7964 18.4138 37.7526 18.4674 37.7526H30.5831C30.6367 37.7526 30.6805 37.7964 30.6805 37.8505ZM35.1544 26.6495H40.2477C40.5753 26.6495 40.8482 26.4146 40.8977 26.0911L41.5555 21.7604C41.6242 21.3073 41.5544 20.8479 41.218 20.5359L38.5815 18.0854C38.4044 17.9208 38.2039 17.8146 37.9659 17.8542C37.7279 17.8937 37.5086 18.0359 37.4581 18.2719L36.8008 21.3557C36.7424 21.6292 36.4643 21.7828 36.1852 21.7828H32.9378C32.7154 21.7828 32.5242 21.8828 32.3976 22.0656C32.2711 22.2484 32.2044 22.4818 32.3226 22.6708L34.5388 26.2229C34.6867 26.4599 34.8753 26.6495 35.1544 26.6495ZM40.3539 34.7396C40.0049 34.7396 39.77 34.5026 39.5857 34.2068L36.8164 29.7693C36.669 29.5333 36.7518 29.2411 36.9101 29.013C37.0685 28.7849 37.3075 28.6599 37.5852 28.6599H41.6419C41.9909 28.6599 42.3378 28.4682 42.4107 28.1266L43.232 24.274C43.295 23.9792 43.569 23.8016 43.8664 23.7521C44.1638 23.7026 44.4143 23.8354 44.6352 24.0406L47.9294 27.1021C48.3492 27.4922 48.4362 28.0656 48.3503 28.6323L47.5289 34.0422C47.4674 34.4464 47.1258 34.7396 46.7169 34.7396H43.6398C43.5862 34.7396 43.5424 34.7833 43.5424 34.837V41.4521C43.5424 41.5057 43.5862 41.5495 43.6398 41.5495H47.22C47.5971 41.5495 47.9023 41.8552 47.9023 42.2318C47.9023 42.6089 47.5971 42.9141 47.22 42.9141H38.5003C38.1237 42.9141 37.818 42.6089 37.818 42.2318C37.818 41.8552 38.1237 41.5495 38.5003 41.5495H42.0805C42.1341 41.5495 42.1779 41.5057 42.1779 41.4521V34.837C42.1779 34.7833 42.1341 34.7396 42.0805 34.7396H40.3539ZM14.8221 26.6495H9.7289C9.40182 26.6495 9.12838 26.4146 9.07942 26.0911L8.42161 21.7604C8.35286 21.3068 8.42265 20.8479 8.75859 20.5354L11.3956 18.0854C11.5721 17.9208 11.7726 17.8146 12.0112 17.8542C12.2492 17.8937 12.4685 18.0354 12.5185 18.2719L13.1763 21.3557C13.2346 21.6292 13.5122 21.7823 13.7914 21.7823H17.0393C17.2612 21.7823 17.4523 21.8828 17.5794 22.0656C17.706 22.2479 17.7721 22.4818 17.6544 22.6703L15.4378 26.2229C15.2898 26.4599 15.1018 26.6495 14.8221 26.6495ZM19.9581 23.3891C20.2591 22.8885 20.9544 22.576 21.7695 22.576H27.2815C28.0966 22.576 28.7914 22.8885 29.093 23.3891L30.7456 26.1385L35.9044 34.7203C36.1503 35.1297 36.0799 35.5557 35.706 35.9203C35.3315 36.2849 34.7591 36.4859 34.093 36.4859H14.9581C14.2919 36.4859 13.719 36.2849 13.345 35.9203C12.9711 35.5557 12.9003 35.1297 13.1466 34.7203L18.3049 26.1385L19.9581 23.3891ZM18.0284 5.80989H31.0221C32.2294 5.80989 33.2164 6.79739 33.2164 8.00417V15.3297C33.2164 16.5365 32.2294 17.524 31.0221 17.524H18.0284C16.8216 17.524 15.8341 16.5365 15.8341 15.3297V8.00417C15.8341 6.79739 16.8216 5.80989 18.0284 5.80989ZM17.9977 9.76458L23.3612 9.76146C23.7367 9.76146 24.0409 9.45677 24.0409 9.08177C24.0409 8.70625 23.7367 8.40208 23.3612 8.40208L17.9977 8.40521C17.6227 8.40521 17.318 8.70937 17.318 9.08489C17.318 9.46042 17.6227 9.76458 17.9977 9.76458ZM25.6893 9.76458L31.0529 9.76146C31.4284 9.76146 31.7325 9.45677 31.7325 9.08177C31.7325 8.70625 31.4284 8.40208 31.0529 8.40208L25.6893 8.40521C25.3143 8.40521 25.0096 8.70937 25.0096 9.08489C25.0096 9.46042 25.3143 9.76458 25.6893 9.76458ZM17.9977 12.3479L23.3612 12.3448C23.7367 12.3448 24.0409 12.0406 24.0409 11.6651C24.0409 11.2901 23.7367 10.9854 23.3612 10.9854L17.9977 10.9885C17.6227 10.9885 17.318 11.2932 17.318 11.6682C17.318 12.0437 17.6227 12.3479 17.9977 12.3479ZM25.6893 12.3479L31.0529 12.3448C31.4284 12.3448 31.7325 12.0406 31.7325 11.6651C31.7325 11.2901 31.4284 10.9854 31.0529 10.9854L25.6893 10.9885C25.3143 10.9885 25.0096 11.2932 25.0096 11.6682C25.0096 12.0437 25.3143 12.3479 25.6893 12.3479ZM17.9977 14.9312L23.3612 14.9281C23.7367 14.9281 24.0409 14.624 24.0409 14.2484C24.0409 13.8734 23.7367 13.5693 23.3612 13.5693L17.9977 13.5724C17.6227 13.5724 17.318 13.8766 17.318 14.2521C17.318 14.6271 17.6227 14.9312 17.9977 14.9312ZM25.6893 14.9312L31.0529 14.9281C31.4284 14.9281 31.7325 14.624 31.7325 14.2484C31.7325 13.8734 31.4284 13.5693 31.0529 13.5693L25.6893 13.5724C25.3143 13.5724 25.0096 13.8766 25.0096 14.2521C25.0096 14.6271 25.3143 14.9312 25.6893 14.9312ZM9.62265 34.7396C9.97161 34.7396 10.207 34.5026 10.3914 34.2068L13.1607 29.7693C13.3075 29.5333 13.2247 29.2411 13.0664 29.013C12.9086 28.7849 12.6695 28.6599 12.3919 28.6599H8.33515C7.98619 28.6599 7.6388 28.4682 7.56588 28.1266L6.74452 24.274C6.68202 23.9792 6.40807 23.8016 6.11067 23.7521C5.81275 23.7026 5.56275 23.8354 5.3414 24.0406L2.04765 27.1021C1.62786 27.4922 1.54036 28.0656 1.62682 28.6323L2.44817 34.0417C2.50963 34.4458 2.85129 34.7396 3.26015 34.7396H6.33723C6.39088 34.7396 6.43463 34.7833 6.43463 34.837V41.4521C6.43463 41.5057 6.39088 41.5495 6.33723 41.5495H2.7565C2.37994 41.5495 2.07473 41.8547 2.07473 42.2318C2.07473 42.6083 2.37994 42.9141 2.7565 42.9141H11.4768C11.8534 42.9141 12.1591 42.6083 12.1591 42.2318C12.1591 41.8547 11.8534 41.5495 11.4768 41.5495H7.89661C7.84244 41.5495 7.79869 41.5057 7.79869 41.4521V34.837C7.79869 34.7833 7.84244 34.7396 7.89661 34.7396H9.62265Z" fill="white"/>
</g>
</svg>
