<svg width="50" height="50" viewBox="0 0 50 50" fill="none" xmlns="http://www.w3.org/2000/svg">
<mask id="mask0_457_749" style="mask-type:luminance" maskUnits="userSpaceOnUse" x="22" y="40" width="6" height="9">
<path d="M22.6665 40H27.3332V48.076H22.6665V40Z" fill="white"/>
</mask>
<g mask="url(#mask0_457_749)">
<path d="M22.6689 40.0021H27.283V48.0766H22.6689V40.0021Z" fill="white"/>
</g>
<mask id="mask1_457_749" style="mask-type:luminance" maskUnits="userSpaceOnUse" x="9" y="40" width="6" height="9">
<path d="M9.8667 40H14.6667V48.076H9.8667V40Z" fill="white"/>
</mask>
<g mask="url(#mask1_457_749)">
<path d="M9.97949 40.0021H14.5941V48.0766H9.97949V40.0021Z" fill="white"/>
</g>
<mask id="mask2_457_749" style="mask-type:luminance" maskUnits="userSpaceOnUse" x="35" y="40" width="5" height="9">
<path d="M35.3335 40H40.0002V48.076H35.3335V40Z" fill="white"/>
</mask>
<g mask="url(#mask2_457_749)">
<path d="M35.3584 40.0021H39.9725V48.0766H35.3584V40.0021Z" fill="white"/>
</g>
<mask id="mask3_457_749" style="mask-type:luminance" maskUnits="userSpaceOnUse" x="1" y="1" width="48" height="48">
<path d="M1.87598 1.87604H48.076V48.076H1.87598V1.87604Z" fill="white"/>
</mask>
<g mask="url(#mask3_457_749)">
<path d="M46.8938 31.9271H41.1261V21.5448C41.1261 21.4693 41.1188 21.3943 41.1037 21.3198C41.0891 21.2458 41.0673 21.1734 41.0381 21.1036C41.0094 21.0333 40.9735 20.9672 40.9318 20.9042C40.8897 20.8411 40.8417 20.7828 40.7881 20.7292C40.7344 20.6755 40.6761 20.6276 40.6136 20.5859C40.5506 20.5438 40.4839 20.5083 40.4141 20.4792C40.3438 20.45 40.2719 20.4281 40.1975 20.4135C40.1235 20.399 40.048 20.3911 39.9725 20.3911C39.8969 20.3911 39.8219 20.399 39.7475 20.4135C39.673 20.4281 39.6011 20.45 39.5308 20.4792C39.461 20.5083 39.3943 20.5438 39.3318 20.5859C39.2688 20.6276 39.2105 20.6755 39.1568 20.7292C39.1032 20.7828 39.0553 20.8411 39.0131 20.9042C38.9714 20.9672 38.9355 21.0333 38.9068 21.1036C38.8777 21.1734 38.8558 21.2458 38.8412 21.3198C38.8261 21.3943 38.8188 21.4693 38.8188 21.5448V27.3125H35.3584C35.2824 27.3125 35.2074 27.3198 35.1334 27.3349C35.0589 27.3495 34.9865 27.3714 34.9167 27.4005C34.8469 27.4292 34.7803 27.4646 34.7173 27.5068C34.6542 27.549 34.5959 27.5969 34.5423 27.6505C34.4886 27.7042 34.4412 27.762 34.399 27.825C34.3568 27.888 34.3214 27.9547 34.2923 28.0245C34.2636 28.0948 34.2417 28.1667 34.2266 28.2411C34.212 28.3156 34.2048 28.3906 34.2048 28.4661V31.9271H31.1495L26.8235 28.4661L31.1495 25.0057H33.0511C33.1266 25.0057 33.2022 24.9984 33.2761 24.9833C33.3506 24.9688 33.4225 24.9469 33.4928 24.9177C33.5626 24.8885 33.6292 24.8531 33.6923 24.8109C33.7548 24.7693 33.8131 24.7214 33.8667 24.6677C33.9204 24.6141 33.9683 24.5557 34.0105 24.4927C34.0522 24.4297 34.0881 24.3635 34.1167 24.2932C34.1459 24.2234 34.1678 24.1516 34.1824 24.0771C34.1975 24.0026 34.2048 23.9276 34.2048 23.8521C34.2048 23.776 34.1975 23.701 34.1824 23.6271C34.1678 23.5526 34.1459 23.4807 34.1167 23.4104C34.0881 23.3406 34.0522 23.274 34.0105 23.2109C33.9683 23.1479 33.9204 23.0901 33.8667 23.0365C33.8131 22.9828 33.7548 22.9349 33.6923 22.8927C33.6292 22.851 33.5626 22.8151 33.4928 22.7865C33.4225 22.7573 33.3506 22.7354 33.2761 22.7208C33.2022 22.7057 33.1266 22.6984 33.0511 22.6984H26.1298V13.4698H39.9725C40.0485 13.4698 40.1235 13.4625 40.1975 13.4479C40.2719 13.4333 40.3438 13.4115 40.4141 13.3823C40.4839 13.3536 40.5506 13.3177 40.6136 13.276C40.6766 13.2339 40.735 13.1859 40.7886 13.1323C40.8417 13.0786 40.8897 13.0203 40.9318 12.9573C40.974 12.8943 41.0094 12.8281 41.0386 12.7578C41.0673 12.688 41.0891 12.6156 41.1042 12.5417C41.1188 12.4672 41.1261 12.3922 41.1261 12.3167V11.163C41.1261 11.0589 41.112 10.9563 41.0844 10.8557C41.0568 10.7552 41.0162 10.6604 40.9626 10.5708C40.9094 10.4818 40.8449 10.401 40.7693 10.3286C40.6943 10.2568 40.6105 10.1964 40.5188 10.1469L25.5225 2.07188C25.4386 2.02656 25.3506 1.99167 25.2579 1.96823C25.1657 1.94479 25.0714 1.93333 24.9761 1.93333C24.8808 1.93333 24.787 1.94479 24.6943 1.96823C24.6021 1.99167 24.5136 2.02656 24.4298 2.07188L9.4334 10.1469C9.34173 10.1964 9.2584 10.2568 9.18288 10.3286C9.10788 10.401 9.04329 10.4818 8.98965 10.5708C8.93652 10.6604 8.8959 10.7552 8.86829 10.8557C8.84017 10.9563 8.82663 11.0589 8.82663 11.163V12.3167C8.82663 12.3922 8.83392 12.4672 8.8485 12.5417C8.86309 12.6156 8.88496 12.688 8.91413 12.7578C8.94277 12.8281 8.97871 12.8943 9.02038 12.9573C9.06257 13.0203 9.11048 13.0786 9.16413 13.1323C9.21777 13.1859 9.27611 13.2339 9.33913 13.276C9.40215 13.3177 9.46829 13.3536 9.53861 13.3823C9.6084 13.4115 9.68079 13.4333 9.75475 13.4479C9.82923 13.4625 9.90423 13.4698 9.97975 13.4698H23.8225V22.6984H16.9011C16.8256 22.6984 16.7506 22.7057 16.6761 22.7208C16.6021 22.7354 16.5298 22.7573 16.46 22.7865C16.3896 22.8151 16.3235 22.851 16.2605 22.8927C16.1975 22.9349 16.1391 22.9828 16.0855 23.0365C16.0318 23.0901 15.9844 23.1479 15.9423 23.2109C15.9001 23.274 15.8646 23.3406 15.8355 23.4104C15.8068 23.4807 15.785 23.5526 15.7699 23.6271C15.7553 23.701 15.748 23.776 15.748 23.8521C15.748 23.9276 15.7553 24.0026 15.7699 24.0771C15.785 24.1516 15.8068 24.2234 15.8355 24.2932C15.8646 24.3635 15.9001 24.4297 15.9423 24.4927C15.9844 24.5557 16.0318 24.6141 16.0855 24.6677C16.1391 24.7214 16.1975 24.7693 16.2605 24.8109C16.3235 24.8531 16.3896 24.8885 16.46 24.9177C16.5298 24.9469 16.6021 24.9688 16.6761 24.9833C16.7506 24.9984 16.8256 25.0057 16.9011 25.0057H18.8027L23.1287 28.4661L18.8027 31.9271H15.748V28.4661C15.748 28.3906 15.7407 28.3156 15.7256 28.2411C15.711 28.1667 15.6891 28.0948 15.66 28.0245C15.6313 27.9547 15.5959 27.888 15.5537 27.825C15.5115 27.762 15.4636 27.7042 15.41 27.6505C15.3563 27.5969 15.2985 27.549 15.2355 27.5068C15.1725 27.4646 15.1058 27.4292 15.036 27.4005C14.9657 27.3714 14.8938 27.3495 14.8193 27.3349C14.7449 27.3198 14.6699 27.3125 14.5943 27.3125H11.1334V21.5448C11.1334 21.4693 11.1261 21.3943 11.1115 21.3198C11.0964 21.2458 11.0745 21.1734 11.0459 21.1036C11.0167 21.0333 10.9813 20.9672 10.9391 20.9042C10.8969 20.8411 10.849 20.7828 10.7959 20.7292C10.7423 20.6755 10.6839 20.6276 10.6209 20.5859C10.5579 20.5438 10.4912 20.5083 10.4214 20.4792C10.3516 20.45 10.2792 20.4281 10.2053 20.4135C10.1308 20.399 10.0558 20.3911 9.97975 20.3911C9.90423 20.3911 9.82923 20.399 9.75475 20.4135C9.68079 20.4281 9.6084 20.45 9.53861 20.4792C9.46829 20.5083 9.40215 20.5438 9.33913 20.5859C9.27611 20.6276 9.21777 20.6755 9.16413 20.7292C9.11048 20.7828 9.06309 20.8411 9.0209 20.9042C8.97871 20.9672 8.94329 21.0333 8.91413 21.1036C8.88548 21.1734 8.86361 21.2458 8.8485 21.3198C8.83392 21.3943 8.82663 21.4693 8.82663 21.5448V31.9271H3.0584C2.98288 31.9271 2.90788 31.9344 2.8334 31.949C2.75944 31.9641 2.68704 31.9859 2.61725 32.0146C2.54746 32.0438 2.48079 32.0792 2.41777 32.1214C2.35475 32.1635 2.29642 32.2115 2.24277 32.2646C2.18913 32.3182 2.14173 32.3766 2.09954 32.4396C2.05736 32.5026 2.02194 32.5693 1.99277 32.6391C1.96413 32.7089 1.94225 32.7813 1.92715 32.8552C1.91257 32.9297 1.90527 33.0047 1.90527 33.0807V48.0766H7.67298V38.8484C7.67298 38.7724 7.68027 38.6974 7.69486 38.6234C7.70996 38.549 7.73184 38.4766 7.76048 38.4068C7.78965 38.337 7.82507 38.2703 7.86725 38.2073C7.90944 38.1443 7.95736 38.0859 8.01048 38.0328C8.06413 37.9792 8.12246 37.9313 8.18548 37.8891C8.2485 37.8469 8.31517 37.8115 8.38496 37.7823C8.45475 37.7536 8.52715 37.7318 8.60163 37.7167C8.67559 37.7021 8.75059 37.6948 8.82663 37.6948H15.748C15.8235 37.6948 15.8985 37.7021 15.973 37.7167C16.0469 37.7318 16.1193 37.7536 16.1891 37.7823C16.2594 37.8115 16.3256 37.8469 16.3886 37.8891C16.4516 37.9313 16.51 37.9792 16.5636 38.0328C16.6173 38.0859 16.6646 38.1443 16.7068 38.2073C16.749 38.2703 16.7844 38.337 16.8136 38.4068C16.8423 38.4766 16.8641 38.549 16.8792 38.6234C16.8938 38.6974 16.9011 38.7724 16.9011 38.8484V48.0766H20.362V38.8484C20.362 38.7724 20.3693 38.6974 20.3839 38.6234C20.399 38.549 20.4209 38.4766 20.4501 38.4068C20.4787 38.337 20.5141 38.2703 20.5563 38.2073C20.5985 38.1443 20.6464 38.0859 20.7001 38.0328C20.7532 37.9792 20.8115 37.9313 20.8745 37.8891C20.9376 37.8469 21.0042 37.8115 21.074 37.7823C21.1443 37.7536 21.2162 37.7318 21.2907 37.7167C21.3646 37.7021 21.4396 37.6948 21.5157 37.6948H28.437C28.5126 37.6948 28.5876 37.7021 28.662 37.7167C28.736 37.7318 28.8084 37.7536 28.8782 37.7823C28.9485 37.8115 29.0147 37.8469 29.0777 37.8891C29.1407 37.9313 29.199 37.9792 29.2527 38.0328C29.3063 38.0859 29.3537 38.1443 29.3959 38.2073C29.4381 38.2703 29.4735 38.337 29.5027 38.4068C29.5318 38.4766 29.5537 38.549 29.5683 38.6234C29.5829 38.6974 29.5907 38.7724 29.5907 38.8484V48.0766H33.0511V38.8484C33.0511 38.7724 33.0584 38.6974 33.0735 38.6234C33.0881 38.549 33.11 38.4766 33.1391 38.4068C33.1678 38.337 33.2037 38.2703 33.2454 38.2073C33.2876 38.1443 33.3355 38.0859 33.3891 38.0328C33.4428 37.9792 33.5006 37.9313 33.5636 37.8891C33.6266 37.8469 33.6933 37.8115 33.7631 37.7823C33.8334 37.7536 33.9053 37.7318 33.9798 37.7167C34.0537 37.7021 34.1287 37.6948 34.2048 37.6948H41.1261C41.2016 37.6948 41.2766 37.7021 41.3511 37.7167C41.4256 37.7318 41.4975 37.7536 41.5673 37.7823C41.6376 37.8115 41.7037 37.8469 41.7667 37.8891C41.8298 37.9313 41.8881 37.9792 41.9417 38.0328C41.9954 38.0859 42.0433 38.1443 42.085 38.2073C42.1272 38.2703 42.1626 38.337 42.1917 38.4068C42.2209 38.4766 42.2428 38.549 42.2574 38.6234C42.2725 38.6974 42.2798 38.7724 42.2798 38.8484V48.0766H48.0475V33.0807C48.0475 33.0047 48.0402 32.9297 48.0251 32.8552C48.0105 32.7813 47.9886 32.7089 47.9594 32.6391C47.9308 32.5693 47.8949 32.5026 47.8532 32.4396C47.811 32.3766 47.7631 32.3182 47.7094 32.2646C47.6558 32.2115 47.5975 32.1635 47.535 32.1214C47.4719 32.0792 47.4053 32.0438 47.3355 32.0146C47.2652 31.9859 47.1933 31.9641 47.1188 31.949C47.0443 31.9344 46.9693 31.9271 46.8938 31.9271ZM11.1334 29.6198H13.4407V31.9271H11.1334V29.6198ZM22.498 25.0057H27.4548L24.9761 26.988L22.498 25.0057ZM24.9761 29.9443L27.4548 31.9271H22.498L24.9761 29.9443ZM36.512 29.6198H38.8188V31.9271H36.512V29.6198Z" fill="white"/>
</g>
</svg>
