<svg width="50" height="50" viewBox="0 0 50 50" fill="none" xmlns="http://www.w3.org/2000/svg">
<mask id="mask0_457_958" style="mask-type:luminance" maskUnits="userSpaceOnUse" x="3" y="12" width="39" height="37">
<path d="M3.6875 12.8H41.2V48.5333H3.6875V12.8Z" fill="white"/>
</mask>
<g mask="url(#mask0_457_958)">
<path d="M3.6875 48.2125H6.04688C6.15 46.8859 6.35677 44.25 6.59167 41.3385C6.92708 37.1755 7.31927 33.3151 7.54167 31.1255C7.60208 30.5656 7.77396 30.2115 8.01927 29.9104C8.31979 29.5417 8.80208 29.2521 9.38229 29.0505H23.0182C23.5984 29.2516 24.0802 29.5417 24.3813 29.9104C24.4411 29.9844 24.4969 30.0615 24.5479 30.1438H23.4583C22.3203 30.1438 21.3453 30.9568 21.1406 32.0771L18.6422 45.7417C18.4078 47.0224 19.2552 48.2505 20.5354 48.4849C20.6786 48.5115 20.8214 48.524 20.9625 48.524C22.0781 48.524 23.0688 47.7276 23.2771 46.5906L25.2964 35.5464C25.463 37.2927 25.6427 39.2786 25.8089 41.3391C26.0438 44.2505 26.2505 46.8865 26.3542 48.2125H28.7135C28.5401 45.9906 27.9984 39.5734 27.5724 34.8589L36.1667 34.8594C36.9453 34.8594 37.6339 34.4792 38.063 33.8964C39.1932 33.1688 40.15 31.8583 40.5188 30.1229C41.4203 25.8854 41.4203 21.5031 40.5188 17.2656C39.799 13.8823 36.8505 12.1104 34.7255 13.1339C33.0307 13.9411 32.1083 15.7349 32.0281 17.588C32.1068 17.55 32.1859 17.5125 32.2604 17.4745C33.8547 16.6651 34.5557 15.8297 34.6776 15.6771C34.6885 15.6635 34.6927 15.6578 34.6943 15.6557C34.6943 15.6557 34.6948 15.6552 34.6948 15.6547C35.2333 14.8896 36.2875 14.6974 37.062 15.2271C37.8427 15.7615 38.0432 16.8281 37.5094 17.6099C37.3943 17.7807 36.4979 19.0208 34.4135 20.2078C33.8552 20.5271 33.2099 20.8401 32.4776 21.1281C32.7557 23.5292 32.6438 25.9651 32.1391 28.3375C32.0182 28.9312 31.9906 29.5438 32.051 30.1443H27.0677C26.9661 29.7484 26.8167 29.3828 26.6302 29.0505H27.399C27.7703 29.0505 28.0708 28.7495 28.0708 28.3781V26.249C28.0708 25.8781 27.7703 25.5766 27.399 25.5766H5.00208C4.63073 25.5766 4.33021 25.8776 4.33021 26.249V28.3781C4.33021 28.7495 4.63073 29.0505 5.00208 29.0505H5.77083C5.47188 29.5833 5.26823 30.2042 5.20208 30.8891C4.81094 34.7536 3.91979 45.2391 3.6875 48.2125Z" fill="white"/>
</g>
<path d="M11.2105 23.8286V24.5797C11.2105 24.8563 11.4345 25.0807 11.7105 25.0807H25.2246C25.5011 25.0807 25.7251 24.8563 25.7251 24.5797V23.8286C25.7251 23.5516 25.5011 23.3276 25.2246 23.3276H14.1642C14.16 23.2927 14.1527 23.2583 14.1407 23.2234L9.77041 10.4276C9.68135 10.1661 9.39645 10.0266 9.13499 10.1161L8.42457 10.3589C8.1626 10.4479 8.02353 10.7328 8.11312 10.9948L12.3256 23.3276H11.7105C11.4345 23.3276 11.2105 23.5516 11.2105 23.8286Z" fill="white"/>
<path d="M37.8234 6.17292C37.8593 6.32656 37.8875 6.48177 37.9078 6.63802C37.9286 6.79479 37.9411 6.95208 37.9463 7.1099C37.9515 7.26771 37.9489 7.425 37.9385 7.58281C37.9281 7.7401 37.9099 7.89688 37.8843 8.0526C37.8583 8.20833 37.8255 8.3625 37.7843 8.5151C37.7437 8.66771 37.6953 8.81771 37.6396 8.96563C37.5838 9.11302 37.5213 9.25781 37.4515 9.39948C37.3817 9.54115 37.3052 9.67865 37.2218 9.81302C37.138 9.94688 37.0484 10.0766 36.9526 10.2021C36.8562 10.3271 36.7541 10.4474 36.6463 10.5625C36.5385 10.6776 36.4255 10.7875 36.3067 10.8917C36.188 10.9953 36.0646 11.0932 35.9359 11.1854C35.8078 11.2776 35.6755 11.363 35.5385 11.4417C35.4021 11.5208 35.2619 11.5927 35.1182 11.6578C34.9744 11.7229 34.8276 11.7807 34.6781 11.8313C34.5286 11.8823 34.3776 11.9255 34.2234 11.9615C34.0698 11.9969 33.9151 12.025 33.7583 12.0458C33.6021 12.0661 33.4448 12.0792 33.2869 12.0844C33.1297 12.0896 32.9718 12.087 32.8146 12.0766C32.6573 12.0661 32.5005 12.0479 32.3448 12.0224C32.189 11.9964 32.0349 11.963 31.8828 11.9224C31.7302 11.8813 31.5802 11.8333 31.4328 11.7776C31.2849 11.7219 31.1401 11.6589 30.9989 11.5891C30.8573 11.5193 30.7198 11.4427 30.5854 11.3594C30.4515 11.276 30.3218 11.1859 30.1968 11.0901C30.0718 10.9938 29.9515 10.8917 29.8364 10.7839C29.7213 10.6755 29.6119 10.5625 29.5078 10.4438C29.4036 10.325 29.3057 10.2016 29.214 10.0729C29.1218 9.94479 29.0364 9.81198 28.9578 9.67552C28.8791 9.53854 28.8067 9.39844 28.7422 9.25469C28.6771 9.11094 28.6187 8.96406 28.5682 8.81458C28.5177 8.6651 28.4744 8.51354 28.4385 8.35938C28.4026 8.20573 28.3744 8.05052 28.3541 7.89427C28.3333 7.7375 28.3208 7.58021 28.3156 7.4224C28.3104 7.26458 28.313 7.10729 28.3234 6.94948C28.3338 6.79219 28.3521 6.63542 28.3776 6.47969C28.4036 6.32396 28.4364 6.16979 28.4776 6.01719C28.5182 5.86458 28.5666 5.71458 28.6224 5.56667C28.6781 5.41927 28.7406 5.27448 28.8104 5.13281C28.8802 4.99115 28.9567 4.85365 29.0401 4.71927C29.1234 4.58542 29.2135 4.45573 29.3093 4.33021C29.4057 4.20521 29.5078 4.0849 29.6156 3.96979C29.7234 3.85469 29.8364 3.74479 29.9552 3.64115C30.0739 3.53698 30.1974 3.43906 30.326 3.34688C30.4541 3.25521 30.5864 3.16979 30.7234 3.09063C30.8599 3.01198 31 2.93958 31.1437 2.87448C31.2875 2.80937 31.4343 2.75156 31.5838 2.70104C31.7328 2.65 31.8843 2.60677 32.0385 2.57083C32.1922 2.53542 32.3468 2.50729 32.5036 2.48646C32.6599 2.46615 32.8172 2.45313 32.9744 2.44792C33.1323 2.44271 33.2901 2.44531 33.4474 2.45573C33.6047 2.46615 33.7614 2.48437 33.9172 2.5099C34.0729 2.53594 34.2271 2.56927 34.3791 2.6099C34.5317 2.65104 34.6817 2.69948 34.8291 2.75469C34.9771 2.81042 35.1218 2.87344 35.263 2.94323C35.4047 3.01302 35.5422 3.08958 35.6765 3.17292C35.8104 3.25625 35.9401 3.34635 36.0651 3.44219C36.1901 3.53854 36.3104 3.64063 36.4255 3.74844C36.5406 3.85677 36.65 3.96979 36.7541 4.08854C36.8583 4.20729 36.9562 4.33073 37.0479 4.45938C37.1401 4.5875 37.2255 4.72031 37.3041 4.85677C37.3828 4.99375 37.4552 5.13385 37.5198 5.2776C37.5849 5.42188 37.6432 5.56823 37.6937 5.71771C37.7442 5.86719 37.7875 6.01875 37.8234 6.17292Z" fill="white"/>
<path d="M34.2014 19.8354C36.2305 18.6792 37.0665 17.5 37.155 17.3682C37.555 16.7828 37.4045 15.9813 36.8196 15.5813C36.605 15.4339 36.3545 15.3563 36.0956 15.3563C35.6779 15.3563 35.2852 15.5604 35.0446 15.901L35.0352 15.9146L35.03 15.9214L35.0139 15.9411L35.0113 15.9448C34.8175 16.187 34.0597 17.0411 32.454 17.8568C32.3133 17.9281 32.1706 17.9964 32.0253 18.063C29.9357 19.0208 27.3618 19.5068 24.3654 19.5083C23.5524 19.5083 22.6951 19.4708 21.8165 19.3974C21.78 19.3938 21.7435 19.3927 21.7076 19.3927C21.0461 19.3927 20.4842 19.9104 20.429 20.5714C20.3691 21.2776 20.8956 21.9005 21.6014 21.9604C22.5524 22.0406 23.4821 22.0807 24.3659 22.0807H24.3852C27.9279 22.0807 30.5602 21.4339 32.4227 20.6875C33.1201 20.4073 33.7133 20.1141 34.2014 19.8354Z" fill="white"/>
<mask id="mask1_457_958" style="mask-type:luminance" maskUnits="userSpaceOnUse" x="30" y="36" width="17" height="12">
<path d="M30.3999 36.1333H46.2874V48H30.3999V36.1333Z" fill="white"/>
</mask>
<g mask="url(#mask1_457_958)">
<path d="M30.4907 47.9677H46.298L44.2845 36.1802H32.5048L30.4907 47.9677Z" fill="white"/>
</g>
</svg>
