<svg width="50" height="50" viewBox="0 0 50 50" fill="none" xmlns="http://www.w3.org/2000/svg">
<mask id="mask0_457_933" style="mask-type:luminance" maskUnits="userSpaceOnUse" x="0" y="2" width="50" height="46">
<path d="M0.897949 2.03751H49.0979V47.9375H0.897949V2.03751Z" fill="white"/>
</mask>
<g mask="url(#mask0_457_933)">
<path fill-rule="evenodd" clip-rule="evenodd" d="M49.0979 47.1573C49.0979 47.5849 48.7511 47.9318 48.323 47.9318H1.67295C1.24482 47.9318 0.897949 47.5849 0.897949 47.1573C0.897949 46.7297 1.24482 46.3828 1.67295 46.3828H48.323C48.7511 46.3828 49.0979 46.7297 49.0979 47.1573ZM39.0172 20.6464C38.9495 20.6464 38.8834 20.6453 38.8157 20.6443C38.5 20.638 38.2422 20.8948 38.2422 21.2104V44.2688C38.2422 44.5823 38.4953 44.8349 38.8084 44.8349H39.2256C39.5386 44.8349 39.7917 44.5823 39.7917 44.2688V21.2104C39.7917 20.8948 39.5339 20.638 39.2183 20.6443C39.1521 20.6453 39.0844 20.6464 39.0172 20.6464ZM32.9849 16.5995C31.4412 15.0568 30.4855 12.924 30.4855 10.5693C30.4855 8.21458 31.4401 6.08281 32.9849 4.5401C34.5271 2.99687 36.661 2.04323 39.0172 2.04323C41.373 2.04323 43.5058 2.99687 45.049 4.5401C46.5927 6.08281 47.5485 8.21458 47.5485 10.5693C47.5485 12.924 46.5927 15.0568 45.049 16.5995C43.5058 18.1427 41.373 19.0979 39.0172 19.0979C36.661 19.0979 34.5271 18.1437 32.9849 16.5995ZM36.3912 15.3594C36.3912 15.787 36.7381 16.1339 37.1662 16.1339C37.5938 16.1339 37.9407 15.787 37.9407 15.3594V11.9531H40.0808C40.7953 11.9531 41.4448 11.6615 41.9151 11.1917C42.3849 10.7224 42.6766 10.0729 42.6766 9.35885V7.60156C42.6766 6.8875 42.3849 6.23802 41.9151 5.76823C41.4448 5.29844 40.7953 5.00729 40.0808 5.00729H37.1662C36.7381 5.00729 36.3912 5.35417 36.3912 5.78177V15.3594ZM40.8198 10.0958C41.0099 9.90573 41.1271 9.64427 41.1271 9.35729V7.60156C41.1271 7.3151 41.0089 7.05365 40.8198 6.86302C40.6292 6.67292 40.3677 6.55469 40.0808 6.55469H37.9407V10.4031H40.0808C40.3677 10.4042 40.6292 10.2859 40.8198 10.0958ZM7.03649 28.1141H30.0552C30.8266 28.1141 31.3631 27.3469 31.0964 26.6229L28.0938 18.4495C27.9334 18.0135 27.5177 17.7234 27.0526 17.7234H10.0391C9.57399 17.7234 9.15837 18.0135 8.99795 18.4495L5.99535 26.6229C5.72868 27.3458 6.26514 28.1141 7.03649 28.1141ZM2.44743 39.0839V30.6313C2.44743 30.0964 2.88128 29.663 3.4167 29.663H33.674C34.2089 29.663 34.6427 30.0964 34.6427 30.6313V39.0839C34.6427 39.6188 34.2089 40.0521 33.674 40.0521H3.41774C2.88285 40.0521 2.44743 39.6188 2.44743 39.0839ZM26.0849 34.8578C26.0849 35.7005 26.4297 36.4656 26.9828 37.0229C27.537 37.5771 28.3032 37.9203 29.149 37.9203C29.9953 37.9203 30.7615 37.5771 31.3157 37.0229L31.3615 36.974C31.8896 36.4219 32.2136 35.6766 32.2136 34.8589C32.2136 34.0167 31.8688 33.251 31.3157 32.6932C30.7615 32.1391 29.9953 31.7958 29.149 31.7958C28.3032 31.7958 27.537 32.1391 26.9828 32.6932L26.937 32.7438C26.4089 33.2932 26.0849 34.0396 26.0849 34.8578ZM4.87816 34.8578C4.87816 35.6755 5.20212 36.4219 5.73024 36.9724L5.77607 37.0219C6.33024 37.576 7.09639 37.9193 7.94222 37.9193C8.78857 37.9193 9.55472 37.576 10.1078 37.0208C10.6636 36.4656 11.0068 35.6995 11.0068 34.8578C11.0068 34.0396 10.6828 33.2932 10.1547 32.7427L10.1089 32.6922C9.55472 32.138 8.78857 31.7948 7.94222 31.7948C7.09639 31.7948 6.33024 32.138 5.77712 32.6932C5.22295 33.2495 4.87816 34.0156 4.87816 34.8578ZM6.87139 35.9281C7.14482 36.2016 7.52451 36.3714 7.94222 36.3714C8.36045 36.3714 8.74014 36.2016 9.01722 35.9281C9.28962 35.6562 9.45837 35.2781 9.45837 34.8578C9.45837 34.4542 9.30264 34.0891 9.05003 33.8193L9.01462 33.787C8.74118 33.5135 8.36201 33.3438 7.94378 33.3438C7.52555 33.3438 7.14587 33.5135 6.86878 33.787C6.59639 34.0589 6.42764 34.437 6.42764 34.8578C6.42764 35.2609 6.58337 35.626 6.83649 35.8958L6.87139 35.9281ZM29.149 36.3714C29.5672 36.3714 29.9469 36.2016 30.2203 35.9281L30.2552 35.8958C30.5084 35.6271 30.6651 35.2609 30.6651 34.8578C30.6651 34.437 30.4964 34.0589 30.2219 33.787C29.948 33.5135 29.5688 33.3438 29.1506 33.3438C28.7323 33.3438 28.3526 33.5135 28.0792 33.787L28.0443 33.8193C27.7912 34.0891 27.636 34.4542 27.636 34.8578C27.636 35.2781 27.8042 35.6562 28.0792 35.9281C28.3516 36.2016 28.7313 36.3714 29.149 36.3714ZM26.9042 41.601C26.5896 41.601 26.3344 41.8563 26.3344 42.1708V44.2651C26.3344 44.5797 26.5896 44.8349 26.9042 44.8349H31.0506C31.3651 44.8349 31.6209 44.5797 31.6209 44.2651V42.1708C31.6209 41.8563 31.3651 41.601 31.0506 41.601H26.9042ZM6.04118 41.601C5.7266 41.601 5.47087 41.8563 5.47087 42.1708V44.2651C5.47087 44.5797 5.7266 44.8349 6.04118 44.8349H10.1875C10.5016 44.8349 10.7573 44.5797 10.7573 44.2651V42.1708C10.7573 41.8563 10.5016 41.601 10.1875 41.601H6.04118Z" fill="white"/>
</g>
</svg>
