<svg width="101" height="101" viewBox="0 0 101 101" fill="none" xmlns="http://www.w3.org/2000/svg">
<path d="M32.2964 31.1955C29.6599 29.7861 26.6755 29.0736 23.6599 29.1392L23.5974 26.2871C27.1005 26.2111 30.5776 27.0403 33.6391 28.683L32.2964 31.1955Z" fill="black"/>
<path d="M7.21425 51.1403C7.86321 53.5528 8.98717 55.7569 10.5601 57.6788L8.35696 59.4892C6.52154 57.2455 5.21009 54.6871 4.46321 51.8757C2.53613 44.7236 4.67467 37.0871 10.0101 31.9507L11.982 34.0069C7.39654 38.4246 5.56113 44.9976 7.21425 51.1403Z" fill="black"/>
<path d="M10.7371 50.1934C10.5257 49.4059 10.3861 48.6049 10.3174 47.8038C9.73298 41.1195 14.0174 35.0049 20.5049 33.2653C25.8382 31.834 31.2642 33.7788 34.6142 37.7424H30.4299C27.8528 35.9007 24.5319 35.1393 21.2434 36.0174C16.0924 37.3976 12.6924 42.257 13.1569 47.5528C13.2132 48.183 13.3215 48.8163 13.4903 49.4518C15.0549 55.2893 21.0778 58.7715 26.9121 57.2111C27.8871 56.9486 28.7674 56.5215 29.6028 56.0309H34.1549C32.4361 57.8695 30.2299 59.2726 27.6507 59.9632C20.2965 61.934 12.709 57.5507 10.7371 50.1934Z" fill="black"/>
<path d="M38.2505 32.0538C39.9411 33.7017 41.2828 35.6465 42.3068 37.7455H39.1203C38.3359 36.4142 37.3755 35.1882 36.2578 34.0955L38.2505 32.0538Z" fill="black"/>
<path d="M28.5963 63.4882C32.8297 62.3528 36.364 59.6955 38.7119 56.0309L42.0244 56.0309C41.8963 56.2757 41.8078 56.533 41.6682 56.7715C38.9578 61.4715 34.5765 64.8361 29.3349 66.2392C25.2328 67.3434 20.9692 67.1403 17.0161 65.6663L18.013 62.9913C21.4057 64.26 25.0703 64.434 28.5963 63.4882Z" fill="black"/>
<mask id="mask0_483_1073" style="mask-type:luminance" maskUnits="userSpaceOnUse" x="21" y="23" width="77" height="58">
<path d="M21.5234 23.1028L21.5234 80.9695L97.8245 80.9695L97.8245 23.1028L21.5234 23.1028Z" fill="white"/>
</mask>
<g mask="url(#mask0_483_1073)">
<path d="M47.1381 69.6705L47.1381 53.1788H27.8214C24.3527 53.1788 21.5339 50.3559 21.5339 46.885C21.5339 43.4205 24.3558 40.5975 27.8214 40.5975H56.4839C55.4266 39.6673 54.2152 38.5923 52.8673 37.3725C49.8319 34.6142 47.3173 32.0767 47.3173 28.985C47.3173 27.6194 47.836 26.308 48.8621 25.0694C52.1683 21.1257 57.2652 24.183 61.7829 27.36C69.6433 32.8892 73.2235 35.3705 73.9819 35.8923C74.4839 36.0548 75.0589 36.1767 75.7089 36.3142C78.5173 36.9267 82.7266 37.8392 88.0027 42.659H96.3996C97.186 42.659 97.8246 43.2955 97.8246 44.085L97.8246 72.9184C97.8246 73.7028 97.186 74.3444 96.3996 74.3444L88.1277 74.3444C86.66 76.0496 81.835 80.7778 73.5433 80.7778H59.2141C51.3673 80.7746 47.1381 75.0569 47.1381 69.6705ZM73.5402 77.9226C81.9319 77.9226 86.1183 72.3132 86.2923 72.0798C86.5631 71.7121 86.9912 71.4892 87.4464 71.4892L94.9746 71.4892V45.508H87.4464C87.085 45.508 86.7339 45.3684 86.4694 45.1173C81.5725 40.5059 77.836 39.6934 75.1079 39.1028C74.2412 38.9153 73.4912 38.7465 72.8506 38.5132C72.736 38.4725 72.6277 38.4184 72.5287 38.3444C72.5287 38.3444 69.1246 36.0121 60.1433 29.6892C54.1725 25.4892 52.1881 25.5403 51.0485 26.8975C50.4558 27.6111 50.1673 28.2892 50.1673 28.9798C50.1673 30.9017 52.3506 33.0465 54.7798 35.2559C57.5704 37.7798 59.7558 39.6736 61.2329 40.9309C61.686 41.3215 61.8569 41.9486 61.6454 42.5132C61.4381 43.0757 60.9079 43.4486 60.3089 43.4486L27.8214 43.4486C25.9256 43.4486 24.3839 44.9913 24.3839 46.885C24.3839 48.784 25.9256 50.3267 27.8214 50.3267H48.56C49.3464 50.3267 49.985 50.9632 49.985 51.7528L49.985 69.6705C49.985 73.7705 53.1516 77.9257 59.2089 77.9257H73.5402V77.9226Z" fill="black"/>
</g>
</svg>
