<svg width="100" height="100" viewBox="0 0 100 100" fill="none" xmlns="http://www.w3.org/2000/svg">
<g clip-path="url(#clip0_481_903)">
<mask id="mask0_481_903" style="mask-type:luminance" maskUnits="userSpaceOnUse" x="58" y="35" width="32" height="48">
<path d="M58.1333 35.2H89.8666V82.5302H58.1333V35.2Z" fill="white"/>
</mask>
<g mask="url(#mask0_481_903)">
<path fill-rule="evenodd" clip-rule="evenodd" d="M66.1396 72.3157C66.1396 74.4657 66.2042 76.6177 66.1198 78.7646C66.0292 81.1167 64.5948 82.4927 62.375 82.5448C60.1813 82.5948 58.4313 81.2594 58.3844 78.9917C58.2563 72.699 58.2636 66.399 58.3782 60.1063C58.4167 57.9782 60.1417 56.599 62.4178 56.5438C65.2532 56.475 68.0917 56.4677 70.9261 56.5407C72.2855 56.5761 72.8771 56.3636 72.9907 54.7261C73.2667 50.7584 73.9584 46.8292 75.148 43.0125C76.5959 38.3657 80.6334 35.3906 85.4542 35.424C88.8188 35.4469 90.2792 37.3584 89.3896 40.7282C88.0438 45.824 86.6323 50.9011 85.2313 55.9802C82.9803 64.1427 82.973 64.1407 74.423 64.1407C72.4292 64.1407 70.4282 64.2479 68.4448 64.1084C66.7105 63.9844 65.9375 64.4 66.1136 66.3302C66.2969 68.3094 66.1553 70.3188 66.1553 72.3157C66.15 72.3157 66.1438 72.3157 66.1396 72.3157Z" fill="white"/>
</g>
<mask id="mask1_481_903" style="mask-type:luminance" maskUnits="userSpaceOnUse" x="10" y="35" width="32" height="48">
<path d="M10.1333 35.2H41.8666V82.5302H10.1333V35.2Z" fill="white"/>
</mask>
<g mask="url(#mask1_481_903)">
<path fill-rule="evenodd" clip-rule="evenodd" d="M41.6197 69.549C41.6197 72.4688 41.6572 75.3875 41.6093 78.3073C41.5656 80.9761 39.9593 82.5938 37.526 82.5396C35.1895 82.4896 33.7812 80.9334 33.7614 78.2802C33.7343 74.2854 33.6718 70.2875 33.7937 66.2969C33.8458 64.6344 33.5072 64.0084 31.6926 64.0927C28.2489 64.2542 24.7916 64.1646 21.3416 64.1313C18.2593 64.1021 16.5739 62.8115 15.7312 59.7688C13.9333 53.2886 12.1614 46.8 10.4405 40.2979C9.66972 37.3854 11.1822 35.499 14.1978 35.425C19.2468 35.3011 23.5593 38.4136 24.9489 43.4021C25.9583 47.0156 26.7124 50.7084 26.878 54.4709C26.9447 55.9969 27.3395 56.6542 29.002 56.5563C31.4478 56.4104 33.9083 56.5094 36.3624 56.5198C40.3041 56.5354 41.6145 57.8334 41.6208 61.7115C41.6239 64.325 41.6197 66.9365 41.6197 69.549Z" fill="white"/>
</g>
<path fill-rule="evenodd" clip-rule="evenodd" d="M50.2239 31.2687C52.5978 31.2687 54.9718 31.2437 57.3468 31.2739C61.5145 31.326 64.527 34.3208 64.6531 38.5C64.6718 39.1135 64.6593 39.7281 64.6593 40.3416C64.6603 43.4104 64.6572 43.3229 61.7051 43.4166C60.1656 43.4666 59.4531 43.1312 59.6426 41.4375C59.727 40.7041 60.0916 39.3698 58.9926 39.3271C57.7697 39.2771 58.1801 40.6344 58.2739 41.3344C58.5176 43.1469 57.7624 43.4719 56.1156 43.4229C52.1353 43.3 48.1489 43.3 44.1708 43.4229C42.5322 43.4719 41.9406 42.9646 42.1968 41.375C42.2572 41.0021 42.2166 40.6083 42.1791 40.2271C42.1364 39.7635 42.0416 39.2146 41.4593 39.2479C40.9593 39.2771 40.7062 39.7062 40.7385 40.2385C40.7426 40.3156 40.7499 40.3927 40.7385 40.4687C40.5958 41.4177 41.2395 42.8937 40.3635 43.2187C39.1499 43.6687 37.6531 43.3583 36.277 43.3708C35.801 43.375 35.5937 43.1 35.6135 42.6594C35.7166 40.3041 35.1301 37.8562 36.1749 35.6187C37.4343 32.9239 39.5885 31.3458 42.6406 31.2791C45.1666 31.2239 47.6947 31.2687 50.2239 31.2687Z" fill="white"/>
<path fill-rule="evenodd" clip-rule="evenodd" d="M50.3667 50.6646C44.0771 50.6646 37.7844 50.5771 31.498 50.7166C29.5886 50.7594 29.5709 49.8594 29.7115 48.5271C29.8365 47.3219 29.0407 45.8 31.4959 45.8198C43.999 45.9271 56.5032 45.925 69.0063 45.8156C71.1605 45.7958 70.6782 47.0406 70.6209 48.1489C70.5646 49.2385 71.3751 50.7666 69.0063 50.7125C62.7959 50.5698 56.5803 50.6646 50.3667 50.6646Z" fill="white"/>
<path fill-rule="evenodd" clip-rule="evenodd" d="M75.772 71.4229C74.4678 71.4229 73.1647 71.4146 71.8605 71.425C70.5022 71.4364 69.5886 70.8052 69.523 69.4406C69.449 67.9479 70.4897 67.5135 71.8074 67.5177C73.9532 67.525 76.1011 67.5281 78.248 67.5167C83.1095 67.4927 85.9667 65.3344 87.2574 60.6427C88.9397 54.5302 90.5938 48.4104 92.2209 42.2854C92.5949 40.876 93.2022 39.6687 94.8386 40.1531C96.4105 40.6177 96.3876 41.9333 96.0011 43.3573C94.349 49.4802 92.8272 55.6375 91.1365 61.7521C89.4178 67.9708 84.7584 71.4135 78.3032 71.4229C77.4584 71.424 76.6147 71.4229 75.772 71.4229Z" fill="white"/>
<path fill-rule="evenodd" clip-rule="evenodd" d="M23.9324 71.4229C22.3751 71.299 20.5543 71.5021 18.7095 71.1375C13.6084 70.1302 10.3647 67.0792 8.94697 62.2208C7.12822 55.9854 5.57092 49.675 3.92197 43.3917C3.57092 42.0542 3.46676 40.599 5.10634 40.1417C6.74176 39.6854 7.3428 40.8813 7.71884 42.3031C9.31676 48.3625 10.9855 54.4031 12.6043 60.4563C13.874 65.2031 16.8105 67.5 21.7105 67.5177C23.8574 67.525 26.0043 67.525 28.1511 67.5188C29.4688 67.5146 30.5563 68.0083 30.4834 69.4333C30.4178 70.7073 29.4886 71.4417 28.1147 71.4271C26.8095 71.4115 25.5053 71.4229 23.9324 71.4229Z" fill="white"/>
<path fill-rule="evenodd" clip-rule="evenodd" d="M89.0697 26.8927C89.0655 30.3802 86.2791 33.1594 82.803 33.1448C79.3197 33.1292 76.5687 30.3427 76.5843 26.8416C76.5978 23.351 79.3645 20.6114 82.8603 20.6229C86.3697 20.6364 89.0728 23.3666 89.0697 26.8927Z" fill="white"/>
<path fill-rule="evenodd" clip-rule="evenodd" d="M23.3176 26.724C23.3468 30.2521 20.6551 33.0656 17.1833 33.1344C13.8155 33.2021 10.8426 30.3271 10.7603 26.9219C10.676 23.4313 13.5801 20.5896 17.2239 20.599C20.6322 20.6094 23.2895 23.2792 23.3176 26.724Z" fill="white"/>
<path fill-rule="evenodd" clip-rule="evenodd" d="M55.9593 23.3979C55.9728 26.6969 53.4739 29.1833 50.1728 29.1594C46.9478 29.1354 44.3301 26.4979 44.3791 23.3208C44.4249 20.275 47.0499 17.676 50.1301 17.6271C53.3624 17.575 55.9468 20.1323 55.9593 23.3979Z" fill="white"/>
</g>
<defs>
<clipPath id="clip0_481_903">
<rect width="100" height="100" fill="white"/>
</clipPath>
</defs>
</svg>
