<svg width="100" height="100" viewBox="0 0 100 100" fill="none" xmlns="http://www.w3.org/2000/svg">
<g clip-path="url(#clip0_481_765)">
<mask id="mask0_481_765" style="mask-type:luminance" maskUnits="userSpaceOnUse" x="2" y="12" width="97" height="76">
<path d="M2.1333 12.4625H98.1333V87.4625H2.1333V12.4625Z" fill="white"/>
</mask>
<g mask="url(#mask0_481_765)">
<path d="M93.225 39.6677C92.602 39.6688 92.0031 39.55 91.4281 39.3125C90.8531 39.075 90.3447 38.7354 89.9052 38.2948C67.9343 16.3531 32.1833 16.3531 10.2125 38.2948C10.1031 38.4031 9.98953 38.5042 9.87078 38.6011C9.75099 38.6969 9.62808 38.7875 9.49995 38.8719C9.37287 38.9563 9.24058 39.0344 9.10516 39.1052C8.96974 39.1771 8.8312 39.2417 8.68953 39.3C8.54787 39.3573 8.40308 39.4084 8.2562 39.4521C8.10933 39.4959 7.96141 39.5323 7.81037 39.5615C7.66037 39.5906 7.50828 39.6125 7.3562 39.6271C7.20412 39.6417 7.05099 39.649 6.89787 39.6479C6.74474 39.6479 6.59162 39.6396 6.43953 39.625C6.28641 39.6094 6.13537 39.5865 5.98537 39.5563C5.83537 39.5261 5.68641 39.4886 5.54058 39.4438C5.3937 39.399 5.24995 39.3479 5.10828 39.2886C4.96662 39.2302 4.82808 39.1646 4.6937 39.0917C4.55828 39.0198 4.42703 38.9406 4.29995 38.8563C4.17287 38.7709 4.04995 38.6802 3.9312 38.5823C3.81349 38.4854 3.69995 38.3834 3.59162 38.275C3.48328 38.1667 3.38016 38.0531 3.28328 37.9354C3.18537 37.8167 3.09474 37.6948 3.00933 37.5667C2.92391 37.4396 2.84578 37.3094 2.77287 37.174C2.70099 37.0396 2.63537 36.9011 2.57599 36.7604C2.51766 36.6188 2.46558 36.475 2.42078 36.3292C2.37599 36.1823 2.33849 36.0344 2.30828 35.8844C2.27808 35.7344 2.25516 35.5834 2.23953 35.4313C2.22391 35.2792 2.21662 35.1261 2.21558 34.9729C2.21558 34.8198 2.22287 34.6677 2.23641 34.5156C2.25099 34.3625 2.27287 34.2115 2.30308 34.0615C2.33224 33.9115 2.3687 33.7625 2.41245 33.6167C2.4562 33.4698 2.50724 33.3261 2.56558 33.1844C2.62287 33.0427 2.68745 32.9042 2.75933 32.7688C2.8312 32.6334 2.90933 32.5021 2.9937 32.374C3.07808 32.2469 3.1687 32.1229 3.26453 32.0042C3.36141 31.8854 3.46349 31.7719 3.57078 31.6636C15.9812 19.2823 32.4802 12.4625 50.0593 12.4625C67.6375 12.4625 84.1468 19.2823 96.5468 31.6636C96.7104 31.8261 96.8604 32 96.9979 32.1854C97.1354 32.3709 97.2583 32.5656 97.3677 32.7688C97.476 32.9719 97.5697 33.1823 97.6468 33.399C97.725 33.6167 97.7864 33.8386 97.8312 34.0646C97.876 34.2906 97.9041 34.5188 97.9156 34.749C97.927 34.9792 97.9218 35.2094 97.8989 35.4386C97.876 35.6677 97.8364 35.8948 97.7802 36.1188C97.7239 36.3417 97.652 36.5604 97.5635 36.7729C97.475 36.9865 97.3718 37.1917 97.2531 37.3896C97.1343 37.5875 97.002 37.775 96.8552 37.9531C96.7083 38.1323 96.55 38.2979 96.3791 38.4531C96.2072 38.6084 96.026 38.75 95.8343 38.8771C95.6416 39.0052 95.4416 39.1188 95.2333 39.2177C95.0239 39.3167 94.8093 39.399 94.5885 39.4656C94.3677 39.5323 94.1427 39.5834 93.9145 39.6167C93.6854 39.6511 93.4562 39.6677 93.225 39.6677ZM83.2697 51.5573C83.3781 51.449 83.4812 51.3354 83.5791 51.2167C83.677 51.0979 83.7687 50.974 83.8541 50.8469C83.9395 50.7188 84.0187 50.5875 84.0906 50.4521C84.1635 50.3167 84.2291 50.1781 84.2875 50.0354C84.3468 49.8938 84.3979 49.75 84.4427 49.6021C84.4875 49.4552 84.525 49.3073 84.5552 49.1563C84.5854 49.0052 84.6072 48.8542 84.6229 48.7011C84.6375 48.5479 84.6447 48.3948 84.6447 48.2417C84.6447 48.0875 84.6375 47.9344 84.6229 47.7813C84.6072 47.6292 84.5854 47.4771 84.5552 47.3261C84.525 47.1761 84.4875 47.0271 84.4427 46.8802C84.3979 46.7334 84.3468 46.5886 84.2875 46.4469C84.2291 46.3052 84.1635 46.1656 84.0906 46.0302C84.0187 45.8948 83.9395 45.7636 83.8541 45.6354C83.7687 45.5084 83.677 45.3854 83.5791 45.2667C83.4812 45.1479 83.3781 45.0334 83.2697 44.925C64.9593 26.6427 35.1697 26.6427 16.8593 44.925C16.752 45.0344 16.65 45.1479 16.5531 45.2667C16.4572 45.3854 16.3666 45.5084 16.2822 45.6365C16.1979 45.7646 16.1197 45.8959 16.0479 46.0313C15.976 46.1667 15.9114 46.3042 15.8541 46.4459C15.7958 46.5875 15.7447 46.7323 15.701 46.8781C15.6572 47.025 15.6208 47.174 15.5916 47.324C15.5614 47.474 15.5395 47.625 15.525 47.7771C15.5114 47.9292 15.5041 48.0823 15.5041 48.2354C15.5052 48.3886 15.5125 48.5406 15.5281 48.6927C15.5437 48.8448 15.5666 48.9969 15.5968 49.1469C15.627 49.2969 15.6645 49.4448 15.7093 49.5906C15.7541 49.7375 15.8062 49.8813 15.8645 50.0219C15.9239 50.1636 15.9895 50.3011 16.0614 50.4365C16.1343 50.5709 16.2125 50.7021 16.2979 50.8292C16.3833 50.9563 16.4739 51.0792 16.5718 51.1969C16.6687 51.3156 16.7718 51.4292 16.8802 51.5365C16.9885 51.6448 17.102 51.7479 17.2197 51.8448C17.3385 51.9417 17.4614 52.0334 17.5885 52.1177C17.7156 52.2031 17.8468 52.2823 17.9822 52.3542C18.1177 52.4261 18.2552 52.4917 18.3968 52.5511C18.5385 52.6094 18.6822 52.6615 18.8291 52.7063C18.975 52.7511 19.1239 52.7886 19.2739 52.8188C19.4239 52.849 19.575 52.8709 19.7281 52.8865C19.8802 52.9021 20.0333 52.9104 20.1864 52.9104C20.3395 52.9115 20.4927 52.9042 20.6447 52.8896C20.7979 52.875 20.9489 52.8531 21.0989 52.824C21.25 52.7948 21.3979 52.7584 21.5447 52.7146C21.6916 52.6709 21.8364 52.6198 21.9781 52.5615C22.1197 52.5042 22.2583 52.4396 22.3937 52.3677C22.5291 52.2959 22.6614 52.2188 22.7885 52.1344C22.9166 52.05 23.0395 51.9594 23.1593 51.8636C23.2781 51.7667 23.3916 51.6646 23.501 51.5573C38.1489 36.9302 61.9822 36.9302 76.6281 51.5573C76.7375 51.6656 76.851 51.7688 76.9697 51.8667C77.0885 51.9636 77.2125 52.0552 77.3395 52.1406C77.4677 52.2261 77.6 52.3052 77.7354 52.3771C77.8708 52.45 78.0093 52.5156 78.152 52.574C78.2937 52.6334 78.4385 52.6854 78.5854 52.7292C78.7333 52.774 78.8822 52.8115 79.0333 52.8417C79.1833 52.8719 79.3354 52.8938 79.4885 52.9094C79.6416 52.924 79.7958 52.9313 79.9489 52.9313C80.1031 52.9313 80.2562 52.924 80.4093 52.9094C80.5625 52.8938 80.7145 52.8719 80.8656 52.8417C81.0166 52.8115 81.1656 52.774 81.3125 52.7292C81.4593 52.6854 81.6041 52.6334 81.7468 52.574C81.8885 52.5156 82.027 52.45 82.1635 52.3771C82.2989 52.3052 82.4302 52.2261 82.5583 52.1406C82.6864 52.0552 82.8093 51.9636 82.9281 51.8667C83.0468 51.7688 83.1614 51.6656 83.2697 51.5573ZM69.9875 64.8219C70.0958 64.7125 70.1989 64.599 70.2968 64.4802C70.3937 64.3615 70.4854 64.2386 70.5708 64.1104C70.6562 63.9834 70.7354 63.8511 70.8083 63.7156C70.8802 63.5802 70.9458 63.4417 71.0052 63.3C71.0635 63.1584 71.1156 63.0136 71.1604 62.8667C71.2052 62.7198 71.2427 62.5709 71.2718 62.4198C71.302 62.2698 71.325 62.1177 71.3395 61.9646C71.3552 61.8125 71.3625 61.6594 71.3625 61.5052C71.3625 61.3521 71.3552 61.199 71.3395 61.0459C71.325 60.8927 71.302 60.7406 71.2718 60.5906C71.2427 60.4396 71.2052 60.2906 71.1604 60.1438C71.1156 59.9969 71.0635 59.8531 71.0052 59.7104C70.9458 59.5688 70.8802 59.4302 70.8083 59.2948C70.7354 59.1594 70.6562 59.0281 70.5708 58.9C70.4854 58.7719 70.3937 58.649 70.2968 58.5302C70.1989 58.4115 70.0958 58.2979 69.9875 58.1896C59.002 47.2198 41.1281 47.2198 30.1427 58.1896C30.0364 58.299 29.9364 58.4125 29.8427 58.5313C29.7479 58.6511 29.6593 58.774 29.577 58.9011C29.4947 59.0292 29.4187 59.1604 29.3489 59.2948C29.2791 59.4302 29.2156 59.5677 29.1593 59.7094C29.1031 59.85 29.0541 59.9938 29.0114 60.1396C28.9697 60.2854 28.9343 60.4323 28.9062 60.5823C28.8781 60.7313 28.8572 60.8813 28.8437 61.0323C28.8312 61.1834 28.825 61.3354 28.826 61.4875C28.827 61.6386 28.8364 61.7906 28.852 61.9417C28.8687 62.0927 28.8916 62.2417 28.9218 62.3906C28.9531 62.5396 28.9906 62.6865 29.0354 62.8313C29.0802 62.9761 29.1322 63.1188 29.1916 63.2594C29.25 63.399 29.3156 63.5354 29.3875 63.6698C29.4593 63.8031 29.5385 63.9334 29.6229 64.0594C29.7072 64.1854 29.7979 64.3073 29.8947 64.424C29.9916 64.5417 30.0937 64.6531 30.201 64.7615C30.3083 64.8688 30.4208 64.9698 30.5385 65.0667C30.6552 65.1636 30.777 65.2542 30.9041 65.3386C31.0302 65.4229 31.1604 65.5011 31.2937 65.574C31.4281 65.6459 31.5645 65.7104 31.7052 65.7698C31.8447 65.8281 31.9875 65.8802 32.1333 65.925C32.2781 65.9698 32.425 66.0084 32.5739 66.0386C32.7229 66.0688 32.8729 66.0927 33.0239 66.1084C33.175 66.125 33.327 66.1334 33.4791 66.1344C33.6312 66.1365 33.7833 66.1302 33.9343 66.1167C34.0854 66.1042 34.2364 66.0834 34.3854 66.0552C34.5354 66.0271 34.6833 65.9917 34.8291 65.95C34.975 65.9073 35.1187 65.8584 35.2593 65.8021C35.401 65.7459 35.5395 65.6834 35.6739 65.6136C35.8093 65.5438 35.9406 65.4677 36.0687 65.3854C36.1968 65.3031 36.3197 65.2156 36.4385 65.1209C36.5583 65.0271 36.6729 64.9271 36.7822 64.8219C37 64.6042 37.2218 64.3938 37.45 64.1875C37.6781 63.9813 37.9114 63.7813 38.1489 63.5875C38.3864 63.3927 38.6291 63.2042 38.876 63.0219C39.1229 62.8396 39.3739 62.6625 39.6302 62.4927C39.8854 62.3219 40.1458 62.1584 40.4093 62.0011C40.6729 61.8427 40.9406 61.6917 41.2114 61.5479C41.4822 61.4031 41.7572 61.2656 42.0354 61.1344C42.3125 61.0031 42.5937 60.8792 42.8781 60.7625C43.1614 60.6448 43.4489 60.5344 43.7385 60.4313C44.027 60.3281 44.3197 60.2323 44.6135 60.1427C44.9072 60.0542 45.2041 59.9719 45.502 59.8979C45.8 59.824 46.1 59.7563 46.401 59.6969C46.7031 59.6365 47.0052 59.5844 47.3093 59.5396C47.6135 59.4948 47.9187 59.4573 48.2239 59.4271C48.5302 59.3969 48.8364 59.374 49.1437 59.3594C49.45 59.3448 49.7572 59.3365 50.0645 59.3365C50.3718 59.3365 50.6791 59.3448 50.9864 59.3594C51.2927 59.374 51.6 59.3969 51.9052 59.4271C52.2114 59.4573 52.5156 59.4948 52.8197 59.5396C53.1239 59.5844 53.427 59.6365 53.7281 59.6969C54.0302 59.7563 54.3291 59.824 54.6281 59.8979C54.926 59.9719 55.2218 60.0542 55.5156 60.1427C55.8104 60.2323 56.102 60.3281 56.3916 60.4313C56.6812 60.5344 56.9677 60.6448 57.251 60.7625C57.5354 60.8792 57.8166 61.0031 58.0947 61.1344C58.3718 61.2656 58.6468 61.4031 58.9177 61.5479C59.1895 61.6917 59.4562 61.8427 59.7197 62.0011C59.9843 62.1584 60.2437 62.3219 60.4989 62.4927C60.7552 62.6625 61.0062 62.8396 61.2531 63.0219C61.5 63.2042 61.7427 63.3927 61.9802 63.5875C62.2187 63.7813 62.451 63.9813 62.6791 64.1875C62.9072 64.3938 63.1302 64.6042 63.3479 64.8219C63.4562 64.9302 63.5697 65.0334 63.6885 65.1302C63.8083 65.2271 63.9312 65.3188 64.0593 65.4042C64.1864 65.4896 64.3187 65.5688 64.4541 65.6406C64.5895 65.7125 64.7291 65.7781 64.8708 65.8375C65.0125 65.8959 65.1572 65.9479 65.3041 65.9917C65.452 66.0365 65.601 66.074 65.751 66.1042C65.902 66.1334 66.0541 66.1563 66.2072 66.1709C66.3604 66.1865 66.5135 66.1938 66.6677 66.1938C66.8208 66.1938 66.9739 66.1865 67.127 66.1709C67.2802 66.1563 67.4322 66.1334 67.5833 66.1042C67.7343 66.074 67.8833 66.0365 68.0302 65.9917C68.177 65.9479 68.3218 65.8959 68.4635 65.8375C68.6062 65.7781 68.7447 65.7125 68.8802 65.6406C69.0156 65.5688 69.1479 65.4896 69.275 65.4042C69.4031 65.3188 69.527 65.2271 69.6458 65.1302C69.7645 65.0334 69.8781 64.9302 69.9875 64.8219ZM56.7 84.7156C56.827 84.5886 56.951 84.4584 57.0708 84.325C57.1895 84.1917 57.3062 84.0542 57.4177 83.9136C57.5291 83.774 57.6364 83.6302 57.7406 83.4834C57.8437 83.3375 57.9437 83.1875 58.0385 83.0354C58.1333 82.8834 58.2239 82.7281 58.3093 82.5709C58.3958 82.4136 58.477 82.2542 58.5541 82.0917C58.6312 81.9302 58.7031 81.7656 58.7708 81.6C58.8385 81.4334 58.901 81.2656 58.9593 81.0959C59.0166 80.9261 59.0697 80.7552 59.1177 80.5823C59.1656 80.4094 59.2093 80.2354 59.2468 80.0604C59.2854 79.8854 59.3177 79.7084 59.3458 79.5313C59.3739 79.3542 59.3968 79.1771 59.4145 78.9979C59.4322 78.8198 59.4447 78.6417 59.452 78.4625C59.4604 78.2834 59.4625 78.1031 59.4593 77.924C59.4572 77.7448 59.4489 77.5656 59.4354 77.3875C59.4229 77.2084 59.4041 77.0302 59.3812 76.8521C59.3583 76.674 59.3291 76.4979 59.2958 76.3209C59.2625 76.1448 59.2239 75.9698 59.1812 75.7959C59.1375 75.6219 59.0885 75.449 59.0354 75.2781C58.9822 75.1073 58.9239 74.9375 58.8604 74.7698C58.7979 74.6021 58.7291 74.4354 58.6572 74.2719C58.5843 74.1084 58.5072 73.9459 58.425 73.7865C58.3427 73.6271 58.2572 73.4698 58.1656 73.3156C58.075 73.1604 57.9791 73.0084 57.8802 72.8594C57.7802 72.7104 57.676 72.5646 57.5687 72.4209C57.4604 72.2781 57.3479 72.1375 57.2322 72.0011C57.1166 71.8646 56.9958 71.7313 56.8729 71.6011C56.7489 71.4709 56.6218 71.3448 56.4906 71.2219C56.3593 71.099 56.225 70.9802 56.0875 70.8656C55.95 70.75 55.8083 70.6396 55.6645 70.5323C55.5197 70.4261 55.3729 70.3229 55.2229 70.225C55.0729 70.1261 54.9208 70.0323 54.7645 69.9417C54.6093 69.8521 54.451 69.7667 54.2916 69.6865C54.1312 69.6063 53.9687 69.5292 53.8031 69.4584C53.6385 69.3865 53.4718 69.3198 53.3041 69.2584C53.1354 69.1969 52.9645 69.1396 52.7937 69.0875C52.6218 69.0354 52.4479 68.9875 52.2739 68.9459C52.0989 68.9031 51.9239 68.8656 51.7468 68.8344C51.5708 68.8021 51.3927 68.775 51.2145 68.7521C51.0364 68.7302 50.8583 68.7136 50.6791 68.7021C50.5 68.6896 50.3197 68.6834 50.1406 68.6813C49.9614 68.6802 49.7812 68.6834 49.602 68.6927C49.4229 68.7011 49.2437 68.7146 49.0656 68.7334C48.8864 68.7531 48.7093 68.7771 48.5322 68.8063C48.3541 68.8354 48.1781 68.8688 48.0031 68.9084C47.8281 68.9479 47.6541 68.9917 47.4812 69.0406C47.3083 69.0896 47.1375 69.1438 46.9677 69.2031C46.7979 69.2625 46.6302 69.3261 46.4645 69.3948C46.2989 69.4625 46.1354 69.5365 45.9729 69.6136C45.8114 69.6917 45.652 69.774 45.4947 69.8615C45.3385 69.9479 45.1833 70.0396 45.0322 70.1354C44.8802 70.2313 44.7312 70.3313 44.5854 70.4365C44.4395 70.5406 44.2968 70.649 44.1562 70.7615C44.0166 70.874 43.8802 70.9906 43.7468 71.1104C43.6145 71.2313 43.4843 71.3552 43.3583 71.4834C43.2322 71.6104 43.1104 71.7417 42.9916 71.8771C42.8739 72.0115 42.7593 72.15 42.6489 72.2906C42.5385 72.4323 42.4312 72.5771 42.3291 72.724C42.227 72.8719 42.1291 73.0219 42.0354 73.175C41.9416 73.3281 41.8531 73.4834 41.7677 73.6417C41.6833 73.8 41.6031 73.9604 41.5281 74.1229C41.452 74.2854 41.3812 74.45 41.3156 74.6167C41.25 74.7834 41.1885 74.9521 41.1322 75.1219C41.076 75.2927 41.0239 75.4646 40.977 75.6375C40.9312 75.8104 40.8895 75.9854 40.8531 76.1604C40.8166 76.3365 40.7854 76.5125 40.7583 76.6896C40.7322 76.8677 40.7114 77.0448 40.6947 77.224C40.6781 77.4021 40.6677 77.5813 40.6614 77.7604C40.6552 77.9396 40.6552 78.1188 40.6593 78.2979C40.6635 78.4771 40.6729 78.6563 40.6875 78.8354C40.702 79.0136 40.7218 79.1917 40.7468 79.3698C40.7718 79.5469 40.802 79.724 40.8364 79.9C40.8718 80.0761 40.9114 80.25 40.9572 80.424C41.002 80.5979 41.052 80.7698 41.1062 80.9406C41.1614 81.1115 41.2208 81.2802 41.2854 81.4479C41.35 81.6146 41.4197 81.7802 41.4937 81.9438C41.5677 82.1073 41.6468 82.2677 41.7302 82.4271C41.8135 82.5854 41.901 82.7417 41.9937 82.8959C42.0854 83.05 42.1822 83.2011 42.2833 83.349C42.3843 83.4969 42.4895 83.6427 42.5989 83.7844C42.7083 83.9271 42.8208 84.0656 42.9385 84.2021C43.0562 84.3375 43.177 84.4698 43.302 84.599C43.427 84.7281 43.5552 84.8531 43.6875 84.974C43.8187 85.0959 43.9541 85.2136 44.0937 85.3271C44.2322 85.4406 44.3739 85.5511 44.5187 85.6563C44.6645 85.7625 44.8125 85.8636 44.9635 85.9604C45.1145 86.0584 45.2677 86.1511 45.4239 86.2386C45.5802 86.3271 45.7385 86.4115 45.9 86.4906C46.0604 86.5698 46.2239 86.6448 46.3895 86.7146C46.5541 86.7844 46.7218 86.85 46.8906 86.9104C47.0604 86.9709 47.2302 87.0261 47.4031 87.0771C47.575 87.1271 47.7489 87.1729 47.9239 87.2136C48.0989 87.2542 48.2739 87.2906 48.451 87.3209C48.6281 87.3511 48.8062 87.3771 48.9843 87.3979C49.1625 87.4177 49.3416 87.4333 49.5208 87.4438C49.7 87.4542 49.8791 87.4594 50.0593 87.4594C50.676 87.4594 51.2864 87.399 51.8906 87.2792C52.4958 87.1594 53.0833 86.9813 53.6531 86.7458C54.2218 86.5104 54.7635 86.2219 55.276 85.8802C55.7895 85.5386 56.2635 85.1511 56.7 84.7156Z" fill="white"/>
</g>
</g>
<defs>
<clipPath id="clip0_481_765">
<rect width="100" height="100" fill="white"/>
</clipPath>
</defs>
</svg>
