<svg width="100" height="100" viewBox="0 0 100 100" fill="none" xmlns="http://www.w3.org/2000/svg">
<g clip-path="url(#clip0_481_877)">
<path d="M18.6979 50.7458C18.6979 50.8531 18.6875 50.9604 18.6667 51.0656C18.6458 51.1719 18.6146 51.274 18.5729 51.374C18.5323 51.4729 18.4813 51.5677 18.4219 51.6573C18.3625 51.7469 18.2938 51.8292 18.2177 51.9063C18.1417 51.9823 18.0594 52.05 17.9698 52.1094C17.8802 52.1698 17.7854 52.2198 17.6865 52.2615C17.5865 52.3031 17.4844 52.3333 17.3792 52.3552C17.2729 52.3761 17.1667 52.3865 17.0594 52.3865C16.951 52.3865 16.8448 52.3761 16.7396 52.3552C16.6344 52.3333 16.5313 52.3031 16.4323 52.2615C16.3323 52.2198 16.2385 52.1698 16.149 52.1094C16.0594 52.05 15.976 51.9823 15.9 51.9063C15.824 51.8292 15.7563 51.7469 15.6969 51.6573C15.6365 51.5677 15.5865 51.4729 15.5448 51.374C15.5042 51.274 15.4729 51.1719 15.4521 51.0656C15.4313 50.9604 15.4198 50.8531 15.4198 50.7458C15.4198 50.6375 15.4313 50.5313 15.4521 50.4261C15.4729 50.3198 15.5042 50.2177 15.5448 50.1177C15.5865 50.0188 15.6365 49.924 15.6969 49.8344C15.7563 49.7448 15.824 49.6615 15.9 49.5854C15.976 49.5094 16.0594 49.4417 16.149 49.3813C16.2385 49.3219 16.3323 49.2708 16.4323 49.2302C16.5313 49.1886 16.6344 49.1573 16.7396 49.1365C16.8448 49.1156 16.951 49.1052 17.0594 49.1052C17.1667 49.1052 17.2729 49.1156 17.3792 49.1365C17.4844 49.1573 17.5865 49.1886 17.6865 49.2302C17.7854 49.2708 17.8802 49.3219 17.9698 49.3813C18.0594 49.4417 18.1417 49.5094 18.2177 49.5854C18.2938 49.6615 18.3625 49.7448 18.4219 49.8344C18.4813 49.924 18.5323 50.0188 18.5729 50.1177C18.6146 50.2177 18.6458 50.3198 18.6667 50.4261C18.6875 50.5313 18.6979 50.6375 18.6979 50.7458Z" fill="white"/>
<path d="M29.3417 46.9188C29.8646 48.0886 30.1542 49.3844 30.1542 50.7458C30.1542 52.1073 29.8646 53.4031 29.3417 54.5729C27.8729 57.8646 24.5729 60.1656 20.7427 60.1656C15.5552 60.1656 11.3323 55.9406 11.3323 50.7458C11.3323 45.5531 15.5531 41.325 20.7427 41.325C24.5729 41.3271 27.8729 43.6271 29.3417 46.9188ZM20.7979 50.7458C20.7979 48.6823 19.1208 47.0031 17.0594 47.0031C14.9979 47.0031 13.3198 48.6823 13.3198 50.7458C13.3198 52.8094 14.9979 54.4886 17.0594 54.4886C19.1208 54.4886 20.7979 52.8115 20.7979 50.7458Z" fill="white"/>
<mask id="mask0_481_877" style="mask-type:luminance" maskUnits="userSpaceOnUse" x="5" y="35" width="90" height="42">
<path d="M5.87183 35.4667H94.0718V76.8H5.87183V35.4667Z" fill="white"/>
</mask>
<g mask="url(#mask0_481_877)">
<path d="M5.87183 35.4802V73.9334C5.87183 75.4938 7.13953 76.7625 8.69683 76.7625H91.2906C92.8249 76.7625 94.0718 75.5115 94.0718 73.9761V35.4802H5.87183ZM49.2833 73.0177H14.3697C13.7895 73.0177 13.3197 72.5469 13.3197 71.9656C13.3197 71.3844 13.7895 70.9146 14.3697 70.9146H49.2854C49.8656 70.9146 50.3354 71.3844 50.3354 71.9656C50.3333 72.5448 49.8635 73.0177 49.2833 73.0177ZM13.3197 66.5552C13.3197 65.975 13.7895 65.5042 14.3697 65.5042H36.6906C37.2729 65.5042 37.7406 65.975 37.7406 66.5552C37.7406 67.1365 37.2729 67.6073 36.6906 67.6073H14.3697C13.7895 67.6073 13.3197 67.1365 13.3197 66.5552ZM64.1187 51.4417L60.376 55.6813C60.1791 55.9073 59.8916 56.0365 59.5895 56.0365H30.9656C29.0479 59.7365 25.1854 62.2688 20.7427 62.2688C14.3968 62.2688 9.23433 57.1 9.23433 50.7479C9.23433 44.3948 14.3968 39.2271 20.7427 39.2271C25.1854 39.2271 29.0479 41.7583 30.9656 45.4584H40.1322C40.3666 45.4584 40.5916 45.5365 40.777 45.6781L43.0822 47.4729L44.9385 44.9719C45.1374 44.7052 45.451 44.5469 45.7812 44.5469H45.7833C46.1177 44.5469 46.4302 44.7073 46.627 44.9761L48.5583 47.6167L50.8458 45.5125C51.0593 45.3146 51.3468 45.2167 51.6354 45.2365C51.9249 45.2573 52.1937 45.4011 52.3739 45.625L53.6802 47.2531L55.7218 45.5823C55.9083 45.4281 56.1437 45.3438 56.3864 45.3438H59.5874C59.8916 45.3438 60.1843 45.475 60.3833 45.7073L64.1249 50.0604C64.4697 50.4584 64.4656 51.05 64.1187 51.4417ZM90.7104 61.0594C90.7104 63.5844 88.6572 65.6375 86.1364 65.6375H71.3124C68.7895 65.6375 66.7385 63.5844 66.7385 61.0594V51.1813C66.7385 48.6573 68.7895 46.6021 71.3124 46.6021H86.1364C88.6572 46.6021 90.7104 48.6573 90.7104 51.1813V61.0594Z" fill="white"/>
</g>
<path d="M66 46H93V67H66V46Z" fill="white"/>
<path d="M61.9406 50.7375L59.1166 53.9344H31.8073C32.0958 52.9219 32.2541 51.8521 32.2541 50.7458C32.2541 49.6406 32.0958 48.5719 31.8073 47.5573H39.776L42.6416 49.7885C42.8645 49.9635 43.1479 50.0396 43.4291 50C43.7083 49.9635 43.9604 49.8135 44.1302 49.5854L45.7791 47.3635L47.5614 49.801C47.7385 50.0437 48.0093 50.1979 48.3062 50.226C48.602 50.2552 48.8989 50.1562 49.1187 49.9552L51.4427 47.8135L52.7104 49.3948C52.8843 49.6125 53.1406 49.7521 53.4198 49.7802C53.6989 49.8094 53.976 49.725 54.1937 49.5469L56.7635 47.4417H59.1104L61.9406 50.7375Z" fill="white"/>
<mask id="mask1_481_877" style="mask-type:luminance" maskUnits="userSpaceOnUse" x="5" y="23" width="90" height="11">
<path d="M5.87183 23.2104H94.0718V33.6H5.87183V23.2104Z" fill="white"/>
</mask>
<g mask="url(#mask1_481_877)">
<path d="M91.2906 23.2385H8.69683C7.14162 23.2385 5.87183 24.5073 5.87183 26.0677V33.3771H94.0718V26.025C94.0718 24.4885 92.8249 23.2385 91.2906 23.2385ZM62.827 29.3594H57.877C57.2968 29.3594 56.827 28.8885 56.827 28.3083C56.827 27.7271 57.2968 27.2562 57.877 27.2562H62.827C63.4072 27.2562 63.877 27.7271 63.877 28.3083C63.8749 28.8885 63.4052 29.3594 62.827 29.3594ZM73.3385 29.3594H68.3916C67.8114 29.3594 67.3416 28.8885 67.3416 28.3083C67.3416 27.7271 67.8114 27.2562 68.3916 27.2562H73.3385C73.9218 27.2562 74.3895 27.7271 74.3895 28.3083C74.3895 28.8885 73.9197 29.3594 73.3385 29.3594ZM83.8531 29.3594H78.9062C78.3249 29.3594 77.8552 28.8885 77.8552 28.3083C77.8552 27.7271 78.3249 27.2562 78.9062 27.2562H83.8531C84.4354 27.2562 84.9031 27.7271 84.9031 28.3083C84.9031 28.8885 84.4354 29.3594 83.8531 29.3594Z" fill="white"/>
</g>
</g>
<defs>
<clipPath id="clip0_481_877">
<rect width="100" height="100" fill="white"/>
</clipPath>
</defs>
</svg>
