<svg width="100" height="100" viewBox="0 0 100 100" fill="none" xmlns="http://www.w3.org/2000/svg">
<mask id="mask0_483_1021" style="mask-type:luminance" maskUnits="userSpaceOnUse" x="83" y="24" width="14" height="19">
<path d="M83.2 24.2667H96.1593V42.1333H83.2V24.2667Z" fill="white"/>
</mask>
<g mask="url(#mask0_483_1021)">
<path d="M96.05 35.6083V24.5073H83.4302V35.6083C83.4302 39.0937 86.2604 41.9291 89.7396 41.9291C93.2187 41.9291 96.05 39.0937 96.05 35.6083Z" fill="white"/>
</g>
<path d="M70.7 53.1969H83.3208V56.275H70.7V53.1969Z" fill="white"/>
<mask id="mask1_483_1021" style="mask-type:luminance" maskUnits="userSpaceOnUse" x="66" y="65" width="22" height="30">
<path d="M66.6667 65.8667H87.4667V94.6354H66.6667V65.8667Z" fill="white"/>
</mask>
<g mask="url(#mask1_483_1021)">
<path d="M87.298 94.5261V65.9469H66.7219V94.5261H87.298ZM69.7948 77.0479C69.7948 76.1375 70.5313 75.399 71.4407 75.399C72.35 75.399 73.0865 76.1375 73.0865 77.0479V83.424C73.0865 84.3344 72.35 85.0729 71.4407 85.0729C70.5313 85.0729 69.7948 84.3344 69.7948 83.424V77.0479Z" fill="white"/>
</g>
<mask id="mask2_483_1021" style="mask-type:luminance" maskUnits="userSpaceOnUse" x="6" y="40" width="88" height="55">
<path d="M6.1333 40.8H93.8666V94.6354H6.1333V40.8Z" fill="white"/>
</mask>
<g mask="url(#mask2_483_1021)">
<path d="M93.6624 94.5261V44.3781C92.4634 44.9188 91.1374 45.2271 89.7394 45.2271C86.4332 45.2271 83.5113 43.5438 81.7842 40.9875C80.0561 43.5438 77.1342 45.2271 73.828 45.2271C70.5207 45.2271 67.5988 43.5438 65.8717 40.9875C64.1436 43.5438 61.2228 45.2271 57.9155 45.2271C54.6821 45.2271 51.7238 43.5917 49.9592 40.9667C48.1946 43.5917 45.2374 45.2271 42.003 45.2271C38.6967 45.2271 35.7759 43.5438 34.0478 40.9875C32.3196 43.5438 29.3988 45.2271 26.0915 45.2271C22.7842 45.2271 19.8624 43.5438 18.1353 40.9875C16.4071 43.5438 13.4863 45.2271 10.179 45.2271C8.7811 45.2271 7.4561 44.9188 6.2561 44.3781V94.5261H63.429V64.2979C63.429 63.3875 64.1665 62.649 65.0759 62.649H88.9436C89.853 62.649 90.5894 63.3875 90.5894 64.2979V94.5261H93.6624ZM58.7665 85.0177C58.7665 85.9281 58.029 86.6667 57.1196 86.6667H12.5655C11.6571 86.6667 10.9196 85.9281 10.9196 85.0177V51.5479C10.9196 50.6365 11.6571 49.899 12.5655 49.899H57.1196C58.029 49.899 58.7665 50.6365 58.7665 51.5479V85.0177ZM86.6124 57.9229C86.6124 58.8333 85.8749 59.5719 84.9655 59.5719H69.054C68.1446 59.5719 67.4082 58.8333 67.4082 57.9229V51.5479C67.4082 50.6365 68.1446 49.899 69.054 49.899H84.9655C85.8749 49.899 86.6124 50.6365 86.6124 51.5479V57.9229Z" fill="white"/>
</g>
<path d="M14.2124 74.6032H55.4739V53.1959H14.2124V74.6032ZM49.0228 58.2479C49.7582 58.7854 49.9187 59.8167 49.3822 60.5511L42.5062 69.9875C42.1843 70.4302 41.6832 70.6646 41.1749 70.6646C40.8384 70.6646 40.4989 70.5615 40.2072 70.3479C39.4718 69.8104 39.3114 68.7792 39.8478 68.0438L46.7239 58.6084C47.2593 57.8719 48.2884 57.7104 49.0228 58.2479ZM39.2509 57.5136C39.9853 58.0511 40.1468 59.0823 39.6103 59.8167L32.7343 69.2542C32.4124 69.6969 31.9114 69.9313 31.403 69.9313C31.0666 69.9313 30.727 69.8282 30.4353 69.6146C29.6999 69.0771 29.5395 68.0459 30.0759 67.3104L36.952 57.874C37.4884 57.1375 38.5166 56.9771 39.2509 57.5136ZM20.3041 67.3104L27.1801 57.874C27.7145 57.1375 28.7447 56.9771 29.4791 57.5136C30.2134 58.0511 30.3749 59.0823 29.8384 59.8167L22.9624 69.2542C22.6405 69.6969 22.1395 69.9313 21.6312 69.9313C21.2947 69.9313 20.9551 69.8282 20.6624 69.6146C19.928 69.0771 19.7676 68.0459 20.3041 67.3104Z" fill="white"/>
<path d="M56.1832 19.2458H54.4937V21.7104H56.1832C56.6624 21.7104 56.9968 21.4063 56.9968 21.1333V19.824C56.9968 19.55 56.6624 19.2458 56.1832 19.2458Z" fill="white"/>
<path d="M19.7812 35.6083C19.7812 39.0937 22.6125 41.9291 26.0917 41.9291C29.5708 41.9291 32.4021 39.0937 32.4021 35.6083V28.9C31.7885 27.4864 31.3458 26.0177 31.0917 24.5073H19.7812V35.6083Z" fill="white"/>
<path d="M42.9219 22.6406V25.4459C42.9219 25.9854 43.4802 26.425 44.1646 26.425H49.9583C50.6438 26.425 51.201 25.9865 51.201 25.4459V16.1042H42.9219V22.6406Z" fill="white"/>
<mask id="mask3_483_1021" style="mask-type:luminance" maskUnits="userSpaceOnUse" x="3" y="24" width="14" height="19">
<path d="M3.75928 24.2667H16.5332V42.1333H3.75928V24.2667Z" fill="white"/>
</mask>
<g mask="url(#mask3_483_1021)">
<path d="M10.179 41.9291C13.6592 41.9291 16.4894 39.0937 16.4894 35.6083V24.5073H3.86963V35.6083C3.86963 39.0937 6.69984 41.9291 10.179 41.9291Z" fill="white"/>
</g>
<path d="M73.8282 41.9291C77.3074 41.9291 80.1376 39.0937 80.1376 35.6083V24.5073H68.8282C68.5741 26.0177 68.1303 27.4864 67.5178 28.9V35.6083C67.5178 39.0937 70.348 41.9291 73.8282 41.9291Z" fill="white"/>
<mask id="mask4_483_1021" style="mask-type:luminance" maskUnits="userSpaceOnUse" x="33" y="5" width="33" height="33">
<path d="M33.8667 5.43542H65.8667V37.3333H33.8667V5.43542Z" fill="white"/>
</mask>
<g mask="url(#mask4_483_1021)">
<path d="M65.7437 22.7157C65.7875 22.2334 65.8166 21.7552 65.8166 21.2646C65.8166 12.5063 58.7031 5.38129 49.9593 5.38129C41.2156 5.38129 34.1021 12.5063 34.1021 21.2646C34.1021 21.7552 34.1323 22.2334 34.176 22.7105C34.3312 24.5105 34.7916 26.2521 35.5437 27.8917C38.0656 33.3792 43.3625 36.9209 49.3646 37.1323C49.6062 37.149 49.776 37.1459 49.9593 37.148C50.1437 37.149 50.3104 37.15 50.4937 37.1355C56.5562 36.9209 61.8531 33.3792 64.376 27.8907C65.1281 26.2521 65.5875 24.5105 65.7437 22.7157ZM60.2896 21.1334C60.2896 23.2698 58.4468 25.0084 56.1833 25.0084H54.4937V25.4459C54.4937 27.8042 52.4593 29.723 49.9583 29.723H44.1646C41.6646 29.723 39.6302 27.8042 39.6302 25.4459V14.4552C39.6302 13.5448 40.3666 12.8063 41.276 12.8063H52.8479C53.7562 12.8063 54.4937 13.5448 54.4937 14.4552V15.949H56.1833C58.4468 15.949 60.2896 17.6875 60.2896 19.824V21.1334Z" fill="white"/>
</g>
<path d="M57.9157 41.9292C61.3948 41.9292 64.225 39.0937 64.225 35.6083V34.0646C61.4323 37.2021 57.6844 39.3385 53.5073 40.1125C54.6667 41.249 56.2323 41.9292 57.9157 41.9292Z" fill="white"/>
<path d="M35.6938 34.0667V35.6083C35.6938 39.0937 38.5251 41.9292 42.0032 41.9292C43.6845 41.9292 45.248 41.251 46.4063 40.1177C42.2438 39.35 38.4918 37.2104 35.6938 34.0667Z" fill="white"/>
<path d="M14.2114 77.9H55.4739V83.3677H14.2114V77.9Z" fill="white"/>
</svg>
