<svg width="100" height="100" viewBox="0 0 100 100" fill="none" xmlns="http://www.w3.org/2000/svg">
<g clip-path="url(#clip0_481_923)">
<path d="M14.6708 38.5646H12.9375C12.7635 38.5646 12.5906 38.7375 12.5906 38.9115V43.426C12.5906 43.6 12.7635 43.774 12.9375 43.774H14.6708C14.8437 43.774 15.0177 43.6 15.0177 43.426V38.9115C15.0177 38.7375 14.8437 38.5646 14.6708 38.5646Z" fill="white"/>
<path d="M14.6708 55.7552H12.9375C12.7635 55.7552 12.5906 55.9281 12.5906 56.1021V60.6166C12.5906 60.7906 12.7635 60.9646 12.9375 60.9646H14.6708C14.8437 60.9646 15.0177 60.7906 15.0177 60.6166V56.1021C15.0177 55.9281 14.8437 55.7552 14.6708 55.7552Z" fill="white"/>
<mask id="mask0_481_923" style="mask-type:luminance" maskUnits="userSpaceOnUse" x="3" y="78" width="94" height="10">
<path d="M3.0531 78.1334H96.8531V87.7334H3.0531V78.1334Z" fill="white"/>
</mask>
<g mask="url(#mask0_481_923)">
<path d="M3.0542 84.4063C3.0542 86.1427 4.4417 87.7052 6.34899 87.7052H93.5584C95.2917 87.7052 96.8521 86.3167 96.8521 84.4063V78.1552H3.0542V84.4063Z" fill="white"/>
</g>
<mask id="mask1_481_923" style="mask-type:luminance" maskUnits="userSpaceOnUse" x="80" y="90" width="8" height="5">
<path d="M80.5333 90.9333H87.4667V94.825H80.5333V90.9333Z" fill="white"/>
</mask>
<g mask="url(#mask1_481_923)">
<path d="M80.5552 93.9563C80.5552 94.4771 80.9021 94.825 81.4218 94.825H86.45C86.9698 94.825 87.3166 94.4771 87.3166 93.9563V91.0042H80.5552V93.9563Z" fill="white"/>
</g>
<path d="M46.226 21.3739H64.2573C64.4302 21.3739 64.6042 21.2 64.6042 21.026V17.901C64.6042 17.7271 64.4302 17.5531 64.2573 17.5531H46.226C46.0521 17.5531 45.8792 17.7271 45.8792 17.901V21.026C45.8792 21.2 46.0521 21.3739 46.226 21.3739Z" fill="white"/>
<mask id="mask2_481_923" style="mask-type:luminance" maskUnits="userSpaceOnUse" x="12" y="90" width="8" height="5">
<path d="M12.5333 90.9333H19.4667V94.825H12.5333V90.9333Z" fill="white"/>
</mask>
<g mask="url(#mask2_481_923)">
<path d="M12.5906 93.9563C12.5906 94.4771 12.9375 94.825 13.4572 94.825H18.4854C19.0052 94.825 19.352 94.4771 19.352 93.9563V91.0042H12.5906V93.9563Z" fill="white"/>
</g>
<path d="M86.6229 38.5646H84.8896C84.7156 38.5646 84.5427 38.7375 84.5427 38.9115V43.426C84.5427 43.6 84.7156 43.774 84.8896 43.774H86.6229C86.7969 43.774 86.9698 43.6 86.9698 43.426V38.9115C86.9698 38.7375 86.7969 38.5646 86.6229 38.5646Z" fill="white"/>
<path d="M86.6229 55.7552H84.8896C84.7156 55.7552 84.5427 55.9281 84.5427 56.1021V60.6166C84.5427 60.7906 84.7156 60.9646 84.8896 60.9646H86.6229C86.7969 60.9646 86.9698 60.7906 86.9698 60.6166V56.1021C86.9698 55.9281 86.7969 55.7552 86.6229 55.7552Z" fill="white"/>
<mask id="mask3_481_923" style="mask-type:luminance" maskUnits="userSpaceOnUse" x="3" y="20" width="94" height="55">
<path d="M3.0531 20.8H96.8V74.9333H3.0531V20.8Z" fill="white"/>
</mask>
<g mask="url(#mask3_481_923)">
<path d="M93.3855 21.026H68.0719C68.0719 23.1104 66.3375 24.6729 64.2573 24.6729H46.2261C44.1448 24.6729 42.4115 22.9364 42.4115 21.026H6.34899C4.61462 21.026 3.0542 22.4156 3.0542 24.326V74.6823H96.6792V24.325C96.6792 22.5895 95.2917 21.026 93.3855 21.026ZM46.7459 67.7364C46.7459 69.8198 45.0125 71.5562 42.9313 71.5562H15.8844C13.8042 71.5562 12.0698 69.8198 12.0698 67.7364V64.2635C10.3365 63.9166 9.12295 62.3531 9.12295 60.6166V56.102C9.12295 54.3656 10.3365 52.8031 12.0698 52.4562V47.0729C10.3365 46.726 9.12295 45.1625 9.12295 43.426V38.9114C9.12295 37.175 10.3365 35.6125 12.0698 35.2645V31.7927C12.0698 29.7083 13.8042 27.9718 15.8844 27.9718H42.9313C45.0125 27.9718 46.7459 29.7083 46.7459 31.7927V67.7364ZM90.4375 43.426C90.4375 45.1625 89.224 46.726 87.4896 47.0729V52.4562C89.224 52.8031 90.4375 54.3656 90.4375 56.102V60.6166C90.4375 62.3531 89.224 63.9166 87.4896 64.2635V67.7364C87.4896 69.8198 85.7563 71.5562 83.6761 71.5562H56.8021C54.7219 71.5562 52.9875 69.8198 52.9875 67.7364V31.7927C52.9875 29.7083 54.7219 27.9718 56.8021 27.9718H83.849C85.9292 27.9718 87.6636 29.7083 87.6636 31.7927V35.2645C89.3969 35.6125 90.6105 37.175 90.6105 38.9114V43.426H90.4375Z" fill="white"/>
</g>
<path d="M83.849 31.4448H56.8021C56.6281 31.4448 56.4552 31.6188 56.4552 31.7927V67.7365C56.4552 67.9104 56.6281 68.0834 56.8021 68.0834H83.849C84.0229 68.0834 84.1958 67.9104 84.1958 67.7365V64.2636C82.4625 63.9167 81.2479 62.3532 81.2479 60.6167V56.1021C81.2479 54.3657 82.4625 52.8032 84.1958 52.4563V47.073C82.4625 46.7261 81.2479 45.1625 81.2479 43.4261V38.9115C81.2479 37.175 82.4625 35.6125 84.1958 35.2646V31.7927C84.0229 31.6188 84.0229 31.4448 83.849 31.4448ZM62.35 55.2344C62.35 56.1021 61.4833 56.9709 60.6167 56.9709C59.749 56.9709 58.8823 56.1021 58.8823 55.2344V52.8032C58.8823 51.9344 59.749 51.0667 60.6167 51.0667C61.4833 51.0667 62.35 51.9344 62.35 52.8032V55.2344ZM75.3531 50.8927L72.4062 61.3115C72.2323 62.1802 71.5396 62.5271 70.6719 62.5271C70.499 62.5271 70.325 62.5271 70.1521 62.5271C69.2854 62.1802 68.7646 61.3115 68.9385 60.4438L71.5396 51.4136H68.2448C67.551 51.4136 66.8583 51.0667 66.3375 50.5459C65.8177 50.025 65.8177 49.1563 65.9906 48.4615L68.9385 38.0438C69.2854 37.175 70.1521 36.6542 71.0187 36.8282C71.8854 37.175 72.4062 38.0438 72.2323 38.9115L69.6323 47.9407H72.7531C73.4458 47.9407 74.1396 48.2886 74.6604 48.8094C75.3531 49.5042 75.5271 50.198 75.3531 50.8927Z" fill="white"/>
<path d="M42.9312 31.4448H15.8844C15.7114 31.4448 15.5375 31.6188 15.5375 31.7927V35.2646C17.2719 35.6125 18.4854 37.175 18.4854 38.9115V43.4261C18.4854 45.1625 17.2719 46.7261 15.5375 47.073V52.4563C17.2719 52.8032 18.4854 54.3657 18.4854 56.1021V60.6167C18.4854 62.3532 17.2719 63.9167 15.5375 64.2636V67.7365C15.5375 67.9104 15.7114 68.0834 15.8844 68.0834H42.9312C43.1052 68.0834 43.2781 67.9104 43.2781 67.7365V31.7927C43.2781 31.6188 43.1052 31.4448 42.9312 31.4448ZM40.851 55.2344C40.851 56.1021 40.1573 56.9709 39.1177 56.9709C38.25 56.9709 37.3833 56.1021 37.3833 55.2344V52.8032C37.3833 51.9344 38.25 51.0667 39.1177 51.0667C40.1573 51.0667 40.851 51.9344 40.851 52.8032V55.2344ZM40.851 45.5105C40.851 47.2469 39.4635 48.4615 37.9031 48.4615H24.2062C22.4729 48.4615 21.2594 47.073 21.2594 45.5105V37.349C21.2594 35.6125 22.6458 34.3969 24.2062 34.3969H37.7302C39.4635 34.3969 40.6781 35.7865 40.6781 37.349V45.5105H40.851Z" fill="white"/>
<path d="M24.5531 37.8698H37.3833V44.9896H24.5531V37.8698Z" fill="white"/>
<mask id="mask4_481_923" style="mask-type:luminance" maskUnits="userSpaceOnUse" x="9" y="5" width="23" height="13">
<path d="M9.06665 5.22498H32V17.6H9.06665V5.22498Z" fill="white"/>
</mask>
<g mask="url(#mask4_481_923)">
<path d="M10.8562 8.69789H14.3239V17.5531H26.6343V8.69789H30.102C31.1416 8.69789 31.8354 8.0031 31.8354 6.96143C31.8354 5.91977 31.1416 5.22498 30.102 5.22498H11.0302C9.98953 5.22498 9.29578 5.91977 9.29578 6.96143C9.29578 8.0031 9.98953 8.69789 10.8562 8.69789Z" fill="white"/>
</g>
</g>
<defs>
<clipPath id="clip0_481_923">
<rect width="100" height="100" fill="white"/>
</clipPath>
</defs>
</svg>
