<svg width="100" height="100" viewBox="0 0 100 100" fill="none" xmlns="http://www.w3.org/2000/svg">
<g clip-path="url(#clip0_481_745)">
<mask id="mask0_481_745" style="mask-type:luminance" maskUnits="userSpaceOnUse" x="29" y="1" width="42" height="26">
<path d="M29.6001 1.12915H70.4001V26.1333H29.6001V1.12915Z" fill="white"/>
</mask>
<g mask="url(#mask0_481_745)">
<path d="M33.147 21.3708V18.1177C33.147 14.3354 36.223 11.2573 40.0022 11.2573C41.3626 11.2573 42.6762 11.6552 43.8064 12.4104L44.7533 13.0417C47.8658 15.1177 52.1147 15.1177 55.2272 13.0417L56.1741 12.4104C57.3022 11.6552 58.6158 11.2573 59.9772 11.2573C63.7564 11.2573 66.8314 14.3354 66.8314 18.1177V21.3708C66.8314 23.5656 68.2449 25.4208 70.2001 26.1187V9.57083C70.2001 4.92395 66.422 1.1427 61.7793 1.1427H38.2001C33.5564 1.1427 29.7793 4.92395 29.7793 9.57083V26.1187C31.7345 25.4208 33.147 23.5656 33.147 21.3708Z" fill="white"/>
</g>
<path d="M69.3707 29.3729C65.9603 28.2958 63.4624 25.1375 63.4624 21.3708V18.1177C63.4624 16.1927 61.8978 14.6281 59.977 14.6281C59.2863 14.6281 58.6155 14.8302 58.0447 15.2135L57.0968 15.8458C52.8728 18.6625 47.1093 18.6625 42.8853 15.8458L41.9384 15.2135C41.3624 14.8302 40.6926 14.6281 40.002 14.6281C38.0801 14.6281 36.5155 16.1948 36.5155 18.1177V21.3708C36.5155 25.1375 34.0176 28.2958 30.6072 29.3729L37.5561 43.2854H48.3051V38.2281H51.6738V43.2854H62.4218L69.3707 29.3729ZM42.4103 39.9146C41.0176 39.9146 39.8843 38.7802 39.8843 37.3854C39.8843 35.9917 41.0176 34.8573 42.4103 34.8573C43.803 34.8573 44.9363 35.9917 44.9363 37.3854C44.9363 38.7802 43.803 39.9146 42.4103 39.9146ZM46.6207 33.1719H34.8311V29.8H46.6207V33.1719ZM53.3572 29.8H65.1468V33.1719H53.3572V29.8ZM57.5676 39.9146C56.1749 39.9146 55.0416 38.7802 55.0416 37.3854C55.0416 35.9917 56.1749 34.8573 57.5676 34.8573C58.9613 34.8573 60.0947 35.9917 60.0947 37.3854C60.0947 38.7802 58.9613 39.9146 57.5676 39.9146Z" fill="white"/>
<path d="M76.9364 34.8573C76.9364 32.6625 75.5239 30.8083 73.5676 30.1104V39.6021C75.5239 38.9062 76.9364 37.0521 76.9364 34.8573Z" fill="white"/>
<path d="M39.9448 62.9208C40.4917 67.9865 44.7854 71.9427 49.9896 71.9427C55.1938 71.9427 59.4865 67.9865 60.0344 62.9208C56.9802 64.3677 53.5854 65.2 49.9896 65.2C46.3938 65.2 42.9979 64.3677 39.9448 62.9208Z" fill="white"/>
<path d="M34.8311 45.3698L29.7791 35.2552V41.6C29.7791 46.7114 31.6968 51.3708 34.8311 54.9354V45.3698Z" fill="white"/>
<path d="M26.4105 39.6042V30.1115C24.4553 30.8094 23.0417 32.6635 23.0417 34.8583C23.0417 37.0531 24.4553 38.9062 26.4105 39.6042Z" fill="white"/>
<mask id="mask1_481_745" style="mask-type:luminance" maskUnits="userSpaceOnUse" x="17" y="61" width="65" height="38">
<path d="M17.9895 61.6H81.9895V98.9281H17.9895V61.6Z" fill="white"/>
</mask>
<g mask="url(#mask1_481_745)">
<path d="M70.1999 61.8292H63.4624C63.4624 69.2646 57.4187 75.3146 49.9895 75.3146C42.5603 75.3146 36.5155 69.2646 36.5155 61.8292H29.7791C23.2791 61.8292 17.9895 67.124 17.9895 73.6292V98.9146H26.4103V80.3719H29.7791V98.9146H70.1999V80.3719H73.5676V98.9146H81.9895V73.6292C81.9895 67.124 76.6989 61.8292 70.1999 61.8292Z" fill="white"/>
</g>
<path d="M61.7791 46.6573H38.2V57.9969C41.5229 60.3979 45.5864 61.8292 49.9895 61.8292C54.3916 61.8292 58.4562 60.3979 61.7791 57.9969V46.6573Z" fill="white"/>
<path d="M70.2001 35.2552L65.147 45.3698V54.9354C68.2813 51.3708 70.2001 46.7114 70.2001 41.6V35.2552Z" fill="white"/>
</g>
<defs>
<clipPath id="clip0_481_745">
<rect width="100" height="100" fill="white"/>
</clipPath>
</defs>
</svg>
