<svg width="100" height="100" viewBox="0 0 100 100" fill="none" xmlns="http://www.w3.org/2000/svg">
<g clip-path="url(#clip0_481_805)">
<path d="M80.8312 32.3344C81.3708 34.0031 81.6031 35.7708 81.4646 37.5094C81.3093 39.4687 80.7437 41.1073 80.1021 42.3948L85.2791 40.9698C85.9083 39.1635 86.1958 37.2854 86.1354 35.3802C86.0885 33.9208 85.8229 32.4844 85.3698 31.0948L80.8312 32.3344Z" fill="white"/>
<mask id="mask0_481_805" style="mask-type:luminance" maskUnits="userSpaceOnUse" x="31" y="10" width="56" height="32">
<path d="M31.7334 10H86.1334V41.8667H31.7334V10Z" fill="white"/>
</mask>
<g mask="url(#mask0_481_805)">
<path d="M37.5271 31.8979C38.8833 35.0313 39.9011 38.3167 40.5542 41.6761L85.2521 29.4677C85.949 27.074 86.7104 22.7073 85.1292 17.8156C83.9719 14.2334 81.9875 11.6813 80.4188 10.0875L31.9021 22.2344C34.15 25.2229 36.0417 28.4677 37.5271 31.8979Z" fill="white"/>
</g>
<mask id="mask1_481_805" style="mask-type:luminance" maskUnits="userSpaceOnUse" x="6" y="10" width="69" height="12">
<path d="M6.66675 10H74.4001V21.0667H6.66675V10Z" fill="white"/>
</mask>
<g mask="url(#mask1_481_805)">
<path d="M74.1771 10H50.4708L6.71875 20.9531H30.426L74.1771 10Z" fill="white"/>
</g>
<path d="M94.2178 57.0771H82.2407L79.6897 63.0365L91.6074 65.7896L94.2178 57.0771Z" fill="white"/>
<path d="M6.74163 36.3125V22.5531H1.39893L6.74163 36.3125Z" fill="white"/>
<path d="M69.0646 45.424C69.075 45.4229 69.0844 45.4282 69.0938 45.4271L77.9073 43C78.7271 41.7761 79.6729 39.8709 79.8698 37.3834C79.9927 35.8282 79.7802 34.2469 79.2875 32.7573L45.1011 42.0927C45.6032 43.6292 45.8969 45.2188 45.949 46.8365C46.0052 48.5771 45.7979 50.299 45.3292 51.9709L68.7594 45.5188C68.8511 45.4688 68.9542 45.4354 69.0646 45.424Z" fill="white"/>
<path d="M56.8407 50.4604L54.2761 51.1677C55.8928 54.4021 59.2542 56.5229 62.9084 56.5229C68.2272 56.5229 72.5542 52.1896 72.5542 46.8615C72.5542 46.6219 72.5428 46.3813 72.5251 46.1406L69.9761 46.8427C69.9761 46.849 69.9772 46.8542 69.9772 46.8604C69.9772 50.7625 66.8053 53.9375 62.9084 53.9375C60.4084 53.9385 58.1032 52.5875 56.8407 50.4604Z" fill="white"/>
<path d="M91.3584 67.374L64.8178 61.2406C64.4553 61.1573 64.198 60.8333 64.198 60.4615V58.1229H56.397V64.1052L91.3595 78.1094V67.374H91.3584Z" fill="white"/>
<path d="M68.3542 47.2896L58.4521 50.0167C59.4667 51.4469 61.123 52.3386 62.9084 52.3386C65.7792 52.3386 68.1355 50.1094 68.3542 47.2896Z" fill="white"/>
<path d="M57.1645 56.5229C55.5791 55.576 54.2291 54.2469 53.2625 52.6396V56.5229H57.1645Z" fill="white"/>
<path d="M44.9053 56.5229H51.6615V51.8875L44.9053 53.7469V56.5229Z" fill="white"/>
<path d="M40.1374 43.4489C40.0676 43.4677 39.9957 43.4771 39.9259 43.4771C39.7749 43.4771 39.6259 43.4344 39.4978 43.3521C39.3072 43.2323 39.177 43.0364 39.1374 42.8156C38.5166 39.2791 37.4811 35.8187 36.0572 32.5323C34.5155 28.9698 32.5134 25.6187 30.1218 22.5531H8.34155V40.425L13.2988 52.3385H43.5228C44.1197 50.5729 44.4082 48.7448 44.3478 46.8875C44.2999 45.3969 44.0249 43.9312 43.5541 42.5156L40.1374 43.4489ZM26.2093 49.0687C25.2968 49.3875 24.3395 49.5448 23.3686 49.5448C21.953 49.5448 20.5093 49.2083 19.1332 48.5437C16.1468 47.101 13.7416 44.2802 12.5322 40.8052C10.3041 34.3958 12.8134 27.675 18.1249 25.8229C20.3676 25.0406 22.8811 25.2271 25.1999 26.3479C28.1874 27.7916 30.5926 30.6125 31.802 34.0875C34.0301 40.4958 31.5218 47.2166 26.2093 49.0687Z" fill="white"/>
<path d="M55.4417 65.4469H48.0344L78.7417 78.4917H88.0094L55.4417 65.4469Z" fill="white"/>
<path d="M44.9053 58.1229H54.7949V63.8469H44.9053V58.1229Z" fill="white"/>
<mask id="mask2_481_805" style="mask-type:luminance" maskUnits="userSpaceOnUse" x="92" y="57" width="7" height="32">
<path d="M92.8 57.0667H98.8198V88.2667H92.8V57.0667Z" fill="white"/>
</mask>
<g mask="url(#mask2_481_805)">
<path d="M95.8886 57.0771L92.9595 66.8552V79.0604L98.6709 88.049V57.0771H95.8886Z" fill="white"/>
</g>
<mask id="mask3_481_805" style="mask-type:luminance" maskUnits="userSpaceOnUse" x="80" y="80" width="19" height="10">
<path d="M80 80H98.1333V90H80V80Z" fill="white"/>
</mask>
<g mask="url(#mask3_481_805)">
<path d="M80.0354 80.0917L86.3302 90H98.0135L91.7187 80.0917H80.0354Z" fill="white"/>
</g>
<path d="M23.3625 30.8927C22.6302 30.5396 21.8906 30.3604 21.1719 30.3604C20.6979 30.3604 20.2323 30.4385 19.7864 30.5948C16.9385 31.5875 15.6906 35.4698 17.0041 39.2479C17.7562 41.4125 19.2031 43.1448 20.9729 44C22.1875 44.5875 23.4239 44.6896 24.55 44.2979C27.3969 43.3052 28.6448 39.424 27.3312 35.6448C26.5781 33.4802 25.1312 31.7479 23.3625 30.8927ZM23.301 40.7062C22.2114 41.0865 20.8208 39.9344 20.1948 38.1344C19.5687 36.3333 19.9437 34.5667 21.0333 34.1865C22.1239 33.8062 23.5146 34.9583 24.1406 36.7583C24.7666 38.5583 24.3906 40.326 23.301 40.7062Z" fill="white"/>
<path d="M30.2905 34.6125C29.2197 31.5354 27.1103 29.0469 24.5041 27.7875C23.3353 27.2229 22.1458 26.9396 20.9801 26.9396C20.1885 26.9396 19.4072 27.0708 18.653 27.3333C14.1728 28.8958 12.1062 34.7031 14.0447 40.2792C15.1145 43.3562 17.2239 45.8437 19.8301 47.1031C21.7937 48.051 23.8166 48.2083 25.6833 47.5573C30.1614 45.9969 32.2291 40.1885 30.2905 34.6125ZM25.076 45.8083C24.4655 46.0219 23.8249 46.1271 23.1718 46.1271C22.2083 46.1271 21.2208 45.8958 20.276 45.4396C18.127 44.4021 16.3843 42.3365 15.4926 39.7729C13.8895 35.1625 15.578 30.3677 19.2583 29.0833C20.7718 28.5552 22.477 28.6865 24.0593 29.4521C26.2083 30.4906 27.951 32.5562 28.8426 35.1187C30.4458 39.7302 28.7562 44.526 25.076 45.8083Z" fill="white"/>
</g>
<defs>
<clipPath id="clip0_481_805">
<rect width="100" height="100" fill="white"/>
</clipPath>
</defs>
</svg>
