<svg width="100" height="100" viewBox="0 0 100 100" fill="none" xmlns="http://www.w3.org/2000/svg">
<g clip-path="url(#clip0_481_842)">
<path d="M70.4249 30.3354C70.4249 25.6656 66.5384 21.7708 61.8676 21.7708C59.8478 21.9323 59.2259 21.6166 58.4499 22.0854L49.8937 29.3979C38.0634 19.751 42.4187 22.2396 37.9103 21.9323C33.2395 21.9323 29.353 25.6656 29.353 30.4896V40.2906H70.2718V30.3354H70.4249Z" fill="white"/>
<mask id="mask0_481_842" style="mask-type:luminance" maskUnits="userSpaceOnUse" x="39" y="2" width="21" height="21">
<path d="M39.7334 2.01459H60.0001V22.1333H39.7334V2.01459Z" fill="white"/>
</mask>
<g mask="url(#mask0_481_842)">
<path d="M49.8937 21.9323C55.3396 21.9323 59.8479 17.4156 59.8479 11.9698C59.8479 6.52292 55.3396 2.01459 49.8937 2.01459C44.4479 2.01459 39.9302 6.3698 39.9302 11.9698C39.9302 17.5771 44.4479 21.9323 49.8937 21.9323Z" fill="white"/>
</g>
<path d="M19.5521 54.6H80.2343C81.1635 54.6 81.7854 53.9865 81.7854 53.049V44.799C81.7854 44.0229 81.1635 43.2479 80.2343 43.2479H19.5521C18.6146 43.2479 17.9927 44.0229 17.9927 44.799V53.049C17.9927 53.825 18.6146 54.6 19.5521 54.6Z" fill="white"/>
<path d="M75.5646 57.7198H24.2146V85.8781C24.8448 86.6542 25.3052 87.4292 25.774 88.2135C27.3333 85.4094 29.6604 83.0833 32.7802 81.9917C31.5271 80.7396 30.5979 78.8812 30.5979 76.8531C30.5979 72.8135 33.8625 69.5406 37.9104 69.5406C41.9583 69.5406 45.0698 72.8135 45.0698 76.8531C45.0698 78.8812 44.2938 80.7396 42.8875 81.9917C45.8448 83.2365 48.3344 85.4094 49.8938 88.2135C51.4448 85.4094 53.7802 83.0833 56.8906 81.9917C55.4927 80.7396 54.7177 78.8812 54.7177 76.8531C54.7177 72.8135 57.9813 69.5406 62.0302 69.5406C66.0698 69.5406 69.3427 72.8135 69.3427 76.8531C69.3427 78.8812 68.5667 80.7396 67.1604 81.9917C70.1177 83.2365 72.6073 85.4094 74.1667 88.2135C74.6354 87.4292 75.0958 86.6542 75.7177 85.8781V57.7198H75.5646Z" fill="white"/>
<path d="M13.7906 81.2167C16.2792 81.2167 18.3083 79.1886 18.3083 76.7C18.3083 74.2104 16.2792 72.1823 13.7906 72.1823C11.3021 72.1823 9.28229 74.2104 9.28229 76.7C9.12917 79.1886 11.3021 81.2167 13.7906 81.2167Z" fill="white"/>
<mask id="mask1_481_842" style="mask-type:luminance" maskUnits="userSpaceOnUse" x="3" y="84" width="22" height="15">
<path d="M3.19995 84H24.5333V98.0146H3.19995V84Z" fill="white"/>
</mask>
<g mask="url(#mask1_481_842)">
<path d="M13.7906 84.0125C8.03856 84.0125 3.2146 88.674 3.2146 94.5886C3.2146 96.3021 7.41564 98.0146 13.7906 98.0146C20.175 98.0146 24.3761 96.3021 24.3761 94.5886C24.2146 88.6823 19.5521 84.0125 13.7906 84.0125Z" fill="white"/>
</g>
<path d="M41.9583 76.7C41.9583 74.3646 40.0926 72.4979 37.9103 72.4979C35.7374 72.4979 33.7083 74.3646 33.7083 76.7C33.7083 79.0344 35.5749 80.7396 37.9103 80.7396C40.2458 80.7396 41.9583 79.0344 41.9583 76.7Z" fill="white"/>
<mask id="mask2_481_842" style="mask-type:luminance" maskUnits="userSpaceOnUse" x="27" y="84" width="22" height="15">
<path d="M27.2 84H48.5333V98.0146H27.2V84Z" fill="white"/>
</mask>
<g mask="url(#mask2_481_842)">
<path d="M37.9103 84.0125C32.1572 84.0125 27.3333 88.674 27.3333 94.5886C27.3333 96.3021 31.5353 98.0146 37.9103 98.0146C44.2937 98.0146 48.4958 96.3021 48.4958 94.5886C48.3343 88.6823 43.6718 84.0125 37.9103 84.0125Z" fill="white"/>
</g>
<path d="M66.0699 76.7C66.0699 74.3646 64.2032 72.4979 61.8678 72.4979C59.5334 72.4979 57.6667 74.3646 57.6667 76.7C57.6667 79.0344 59.5334 80.7396 61.8678 80.7396C64.2032 80.7396 66.0699 79.0344 66.0699 76.7Z" fill="white"/>
<mask id="mask3_481_842" style="mask-type:luminance" maskUnits="userSpaceOnUse" x="51" y="84" width="22" height="15">
<path d="M51.2 84H72.8V98.0146H51.2V84Z" fill="white"/>
</mask>
<g mask="url(#mask3_481_842)">
<path d="M62.0302 84.0125C56.2688 84.0125 51.4448 88.674 51.4448 94.5886C51.4448 96.3021 55.6469 98.0146 62.0302 98.0146C68.4052 98.0146 72.6073 96.3021 72.6073 94.5886C72.4532 88.6823 67.7834 84.0125 62.0302 84.0125Z" fill="white"/>
</g>
<path d="M86.1407 81.5229C88.7917 81.5229 90.8115 79.3417 90.8115 76.8531C90.8115 74.2104 88.6292 72.1823 86.1407 72.1823C83.499 72.1823 81.4792 74.3646 81.4792 76.8531C81.3167 79.3417 83.499 81.5229 86.1407 81.5229Z" fill="white"/>
<mask id="mask4_481_842" style="mask-type:luminance" maskUnits="userSpaceOnUse" x="75" y="84" width="22" height="15">
<path d="M75.4666 84H96.7259V98.0146H75.4666V84Z" fill="white"/>
</mask>
<g mask="url(#mask4_481_842)">
<path d="M86.1405 84.0125C80.3884 84.0125 75.5645 88.674 75.5645 94.5886C75.5645 96.3021 79.7655 98.0146 86.1405 98.0146C92.5249 98.0146 96.7259 96.3021 96.7259 94.5886C96.5728 88.6823 91.902 84.0125 86.1405 84.0125Z" fill="white"/>
</g>
</g>
<defs>
<clipPath id="clip0_481_842">
<rect width="100" height="100" fill="white"/>
</clipPath>
</defs>
</svg>
