<svg width="100" height="100" viewBox="0 0 100 100" fill="none" xmlns="http://www.w3.org/2000/svg">
<mask id="mask0_483_1015" style="mask-type:luminance" maskUnits="userSpaceOnUse" x="1" y="4" width="98" height="92">
<path d="M1.7959 4.07501H98.1959V95.875H1.7959V4.07501Z" fill="white"/>
</mask>
<g mask="url(#mask0_483_1015)">
<path fill-rule="evenodd" clip-rule="evenodd" d="M98.1959 94.3146C98.1959 95.1698 97.5022 95.8636 96.6459 95.8636H3.3459C2.48965 95.8636 1.7959 95.1698 1.7959 94.3146C1.7959 93.4594 2.48965 92.7657 3.3459 92.7657H96.6459C97.5022 92.7657 98.1959 93.4594 98.1959 94.3146ZM78.0344 41.2927C77.899 41.2927 77.7667 41.2907 77.6313 41.2886C77.0001 41.2761 76.4844 41.7896 76.4844 42.4209V88.5375C76.4844 89.1646 76.9907 89.6698 77.6167 89.6698H78.4511C79.0772 89.6698 79.5834 89.1646 79.5834 88.5375V42.4209C79.5834 41.7896 79.0678 41.2761 78.4365 41.2886C78.3042 41.2907 78.1688 41.2927 78.0344 41.2927ZM65.9699 33.199C62.8824 30.1136 60.9709 25.8479 60.9709 21.1386C60.9709 16.4292 62.8803 12.1657 65.9699 9.08024C69.0542 5.99378 73.3219 4.08649 78.0344 4.08649C82.7459 4.08649 87.0115 5.99378 90.098 9.08024C93.1855 12.1657 95.0969 16.4292 95.0969 21.1386C95.0969 25.8479 93.1855 30.1136 90.098 33.199C87.0115 36.2854 82.7459 38.1959 78.0344 38.1959C73.3219 38.1959 69.0542 36.2875 65.9699 33.199ZM72.7824 30.7188C72.7824 31.574 73.4761 32.2677 74.3324 32.2677C75.1876 32.2677 75.8813 31.574 75.8813 30.7188V23.9063H80.1615C81.5907 23.9063 82.8897 23.3229 83.8303 22.3834C84.7699 21.4448 85.3532 20.1459 85.3532 18.7177V15.2032C85.3532 13.775 84.7699 12.4761 83.8303 11.5365C82.8897 10.5969 81.5907 10.0146 80.1615 10.0146H74.3324C73.4761 10.0146 72.7824 10.7084 72.7824 11.5636V30.7188ZM81.6397 20.1917C82.0199 19.8115 82.2542 19.2886 82.2542 18.7146V15.2032C82.2542 14.6302 82.0178 14.1073 81.6397 13.7261C81.2584 13.3459 80.7355 13.1094 80.1615 13.1094H75.8813V20.8063H80.1615C80.7355 20.8084 81.2584 20.5719 81.6397 20.1917ZM14.073 56.2282H60.1105C61.6532 56.2282 62.7261 54.6938 62.1928 53.2459L56.1876 36.899C55.8667 36.0271 55.0355 35.4469 54.1053 35.4469H20.0782C19.148 35.4469 18.3167 36.0271 17.9959 36.899L11.9907 53.2459C11.4574 54.6917 12.5303 56.2282 14.073 56.2282ZM4.89486 78.1677V61.2625C4.89486 60.1927 5.76257 59.3261 6.8334 59.3261H67.348C68.4178 59.3261 69.2855 60.1927 69.2855 61.2625V78.1677C69.2855 79.2375 68.4178 80.1042 67.348 80.1042H6.83548C5.76569 80.1042 4.89486 79.2375 4.89486 78.1677ZM52.1699 69.7157C52.1699 71.4011 52.8594 72.9313 53.9657 74.0459C55.074 75.1542 56.6063 75.8407 58.298 75.8407C59.9907 75.8407 61.523 75.1542 62.6313 74.0459L62.723 73.948C63.7792 72.8438 64.4272 71.3532 64.4272 69.7177C64.4272 68.0334 63.7376 66.5021 62.6313 65.3865C61.523 64.2782 59.9907 63.5917 58.298 63.5917C56.6063 63.5917 55.074 64.2782 53.9657 65.3865L53.874 65.4875C52.8178 66.5865 52.1699 68.0792 52.1699 69.7157ZM9.75632 69.7157C9.75632 71.3511 10.4042 72.8438 11.4605 73.9448L11.5521 74.0438C12.6605 75.1521 14.1928 75.8386 15.8844 75.8386C17.5771 75.8386 19.1094 75.1521 20.2157 74.0417C21.3271 72.9313 22.0136 71.399 22.0136 69.7157C22.0136 68.0792 21.3657 66.5865 20.3094 65.4854L20.2178 65.3844C19.1094 64.2761 17.5771 63.5896 15.8844 63.5896C14.1928 63.5896 12.6605 64.2761 11.5542 65.3865C10.4459 66.499 9.75632 68.0313 9.75632 69.7157ZM13.7428 71.8563C14.2896 72.4032 15.049 72.7427 15.8844 72.7427C16.7209 72.7427 17.4803 72.4032 18.0344 71.8563C18.5792 71.3125 18.9167 70.5563 18.9167 69.7157C18.9167 68.9084 18.6053 68.1782 18.1001 67.6386L18.0292 67.574C17.4824 67.0271 16.724 66.6875 15.8876 66.6875C15.0511 66.6875 14.2917 67.0271 13.7376 67.574C13.1928 68.1177 12.8553 68.874 12.8553 69.7157C12.8553 70.5219 13.1667 71.2521 13.673 71.7917L13.7428 71.8563ZM58.298 72.7427C59.1344 72.7427 59.8938 72.4032 60.4407 71.8563L60.5105 71.7917C61.0167 71.2542 61.3303 70.5219 61.3303 69.7157C61.3303 68.874 60.9928 68.1177 60.4438 67.574C59.8959 67.0271 59.1376 66.6875 58.3011 66.6875C57.4647 66.6875 56.7053 67.0271 56.1584 67.574L56.0886 67.6386C55.5824 68.1782 55.2719 68.9084 55.2719 69.7157C55.2719 70.5563 55.6084 71.3125 56.1584 71.8563C56.7032 72.4032 57.4626 72.7427 58.298 72.7427ZM53.8084 83.2021C53.1792 83.2021 52.6688 83.7125 52.6688 84.3417V88.5302C52.6688 89.1594 53.1792 89.6698 53.8084 89.6698H62.1011C62.7303 89.6698 63.2417 89.1594 63.2417 88.5302V84.3417C63.2417 83.7125 62.7303 83.2021 62.1011 83.2021H53.8084ZM12.0824 83.2021C11.4532 83.2021 10.9417 83.7125 10.9417 84.3417V88.5302C10.9417 89.1594 11.4532 89.6698 12.0824 89.6698H20.3751C21.0032 89.6698 21.5147 89.1594 21.5147 88.5302V84.3417C21.5147 83.7125 21.0032 83.2021 20.3751 83.2021H12.0824Z" fill="white"/>
</g>
</svg>
