<svg width="100" height="100" viewBox="0 0 100 100" fill="none" xmlns="http://www.w3.org/2000/svg">
<mask id="mask0_481_972" style="mask-type:luminance" maskUnits="userSpaceOnUse" x="0" y="66" width="100" height="17">
<path d="M0.815674 66.6667H99.2157V82.7459H0.815674V66.6667Z" fill="white"/>
</mask>
<g mask="url(#mask0_481_972)">
<path d="M64.2115 78.6177H35.8188C35.624 78.6177 35.498 78.4115 35.5886 78.2396L37.774 74.0365C37.8188 73.9511 37.9073 73.8969 38.0042 73.8969H62.0261C62.123 73.8969 62.2126 73.9511 62.2573 74.0365L64.4428 78.2396C64.5323 78.4115 64.4073 78.6177 64.2115 78.6177ZM98.5876 79.0948L86.8303 67.3521C86.4282 66.95 85.8844 66.725 85.3167 66.725H14.7146C14.1459 66.725 13.6021 66.95 13.2 67.3521L1.44276 79.0948C1.04067 79.4959 0.815674 80.0396 0.815674 80.6073C0.815674 81.7886 1.77401 82.7459 2.9563 82.7459H97.074C98.2563 82.7459 99.2157 81.7886 99.2157 80.6073C99.2157 80.0396 98.9896 79.4959 98.5876 79.0948Z" fill="white"/>
</g>
<mask id="mask1_481_972" style="mask-type:luminance" maskUnits="userSpaceOnUse" x="13" y="17" width="74" height="46">
<path d="M13.8667 17.1688H86.1334V62.9333H13.8667V17.1688Z" fill="white"/>
</mask>
<g mask="url(#mask1_481_972)">
<path d="M82.6844 17.1917H17.3469C15.4563 17.1917 13.9094 18.7364 13.9094 20.625V59.3687C13.9094 61.2562 15.4563 62.8021 17.3469 62.8021H82.6844C84.574 62.8021 86.1209 61.2562 86.1209 59.3687V20.625C86.1209 18.7364 84.574 17.1917 82.6844 17.1917ZM82.1428 21.1656V58.8281H17.8875V21.1656H82.1428Z" fill="white"/>
<path d="M20 57V23H80V57H20Z" fill="white" stroke="white"/>
</g>
</svg>
