<svg width="100" height="100" viewBox="0 0 100 100" fill="none" xmlns="http://www.w3.org/2000/svg">
<g clip-path="url(#clip0_481_773)">
<mask id="mask0_481_773" style="mask-type:luminance" maskUnits="userSpaceOnUse" x="2" y="43" width="96" height="11">
<path d="M2.70508 43.4667H97.3051V53.3333H2.70508V43.4667Z" fill="white"/>
</mask>
<g mask="url(#mask0_481_773)">
<path d="M95.7311 53.1458H4.43626C3.56751 53.1458 2.8623 52.4406 2.8623 51.5719V45.276C2.8623 44.4073 3.56751 43.7031 4.43626 43.7031H95.7311C96.5998 43.7031 97.305 44.4073 97.305 45.276V51.5719C97.305 52.4406 96.5998 53.1458 95.7311 53.1458ZM6.01126 49.9979H94.1571V46.85H6.01126V49.9979Z" fill="white"/>
</g>
<mask id="mask1_481_773" style="mask-type:luminance" maskUnits="userSpaceOnUse" x="2" y="49" width="25" height="46">
<path d="M2.70508 49.8667H26.6665V94.0979H2.70508V49.8667Z" fill="white"/>
</mask>
<g mask="url(#mask1_481_773)">
<path d="M10.733 94.0635H4.4361C3.92777 94.0635 3.44965 93.8177 3.15381 93.4031C2.85798 92.9875 2.78194 92.4552 2.9486 91.975L17.1153 51.0573C17.334 50.4229 17.9319 49.9979 18.6028 49.9979H24.8996C25.408 49.9979 25.8861 50.2438 26.1819 50.6594C26.4778 51.074 26.5538 51.6063 26.3861 52.0865L12.2205 93.0042C12.0017 93.6385 11.4038 94.0635 10.733 94.0635ZM6.64652 90.9156H9.61215L22.6892 53.1458H19.7236L6.64652 90.9156Z" fill="white"/>
</g>
<mask id="mask2_481_773" style="mask-type:luminance" maskUnits="userSpaceOnUse" x="73" y="49" width="25" height="46">
<path d="M73.6001 49.8667H97.3053V94.0979H73.6001V49.8667Z" fill="white"/>
</mask>
<g mask="url(#mask2_481_773)">
<path d="M95.7314 94.0635H89.4355C88.7647 94.0635 88.1668 93.6385 87.948 93.0042L73.7814 52.0865C73.6147 51.6052 73.6918 51.0729 73.9866 50.6594C74.2824 50.2438 74.7605 49.9979 75.2689 49.9979H81.5647C82.2355 49.9979 82.8334 50.4229 83.0522 51.0573L97.2189 91.975C97.3855 92.4573 97.3084 92.9885 97.0147 93.4031C96.7189 93.8177 96.2418 94.0635 95.7314 94.0635ZM90.5564 90.9156H93.522L80.4449 53.1458H77.4793L90.5564 90.9156Z" fill="white"/>
</g>
<path d="M84.7136 46.85H75.2688C74.4 46.85 73.6948 46.1448 73.6948 45.2761V32.6865C73.6948 31.8178 74.4 31.1125 75.2688 31.1125H84.7136C85.5823 31.1125 86.2875 31.8178 86.2875 32.6865V45.2761C86.2875 46.1448 85.5823 46.85 84.7136 46.85ZM76.8427 43.7032H83.1396V34.2605H76.8427V43.7032Z" fill="white"/>
<path d="M20.1769 46.85H10.7331C9.86439 46.85 9.15918 46.1448 9.15918 45.2761V32.6865C9.15918 31.8178 9.86439 31.1125 10.7331 31.1125H20.1769C21.0456 31.1125 21.7508 31.8178 21.7508 32.6865V45.2761C21.7508 46.1448 21.0456 46.85 20.1769 46.85ZM12.3071 43.7032H18.6029V34.2605H12.3071V43.7032Z" fill="white"/>
<path d="M87.8615 40.5553H84.7136C83.8438 40.5553 83.1396 39.85 83.1396 38.9813V32.6865C83.1396 31.8178 83.8438 31.1125 84.7136 31.1125H87.8615C90.4646 31.1125 92.5834 33.2313 92.5834 35.8344C92.5834 38.4365 90.4646 40.5553 87.8615 40.5553ZM86.2876 37.4073H87.8615C88.7303 37.4073 89.4355 36.7011 89.4355 35.8344C89.4355 34.9667 88.7303 34.2605 87.8615 34.2605H86.2876V37.4073Z" fill="white"/>
<path d="M15.4553 34.2604C14.5866 34.2604 13.8813 33.5552 13.8813 32.6865V21.6698C13.8813 20.801 14.5866 20.0958 15.4553 20.0958C16.3241 20.0958 17.0293 20.801 17.0293 21.6698V32.6865C17.0293 33.5552 16.3241 34.2604 15.4553 34.2604Z" fill="white"/>
<path d="M17.0284 34.2604C16.7919 34.2604 16.5513 34.2062 16.3242 34.0948C15.5471 33.7062 15.2315 32.7604 15.6211 31.9833L20.3429 22.5406C20.7315 21.7614 21.6773 21.4468 22.4554 21.8364C23.2325 22.225 23.5481 23.1708 23.1586 23.9489L18.4367 33.3916C18.1617 33.9416 17.6054 34.2604 17.0284 34.2604Z" fill="white"/>
<path d="M13.8822 34.2604C13.3051 34.2604 12.7488 33.9417 12.4738 33.3896L7.75195 23.9469C7.36341 23.1698 7.67799 22.224 8.45508 21.8354C9.23112 21.4427 10.177 21.7615 10.5676 22.5386L15.2895 31.9813C15.679 32.7584 15.3634 33.7042 14.5863 34.0938C14.3592 34.2063 14.1186 34.2604 13.8822 34.2604Z" fill="white"/>
<path d="M56.38 46.8501H43.7873C41.1842 46.8501 39.0654 44.7323 39.0654 42.1292C39.0654 39.5261 41.1842 37.4073 43.7873 37.4073H56.38C58.9831 37.4073 61.1019 39.5261 61.1019 42.1292C61.1019 44.7323 58.9831 46.8501 56.38 46.8501ZM43.7873 40.5553C42.9186 40.5553 42.2133 41.2615 42.2133 42.1292C42.2133 42.9959 42.9186 43.7032 43.7873 43.7032H56.38C57.2488 43.7032 57.954 42.9959 57.954 42.1292C57.954 41.2615 57.2488 40.5553 56.38 40.5553H43.7873Z" fill="white"/>
<mask id="mask3_481_773" style="mask-type:luminance" maskUnits="userSpaceOnUse" x="29" y="5" width="42" height="28">
<path d="M29.6001 5.89795H70.6668V32.8H29.6001V5.89795Z" fill="white"/>
</mask>
<g mask="url(#mask3_481_773)">
<path d="M68.9731 32.6865H31.196C30.3273 32.6865 29.6221 31.9813 29.6221 31.1126V7.50633C29.6221 6.63758 30.3273 5.93237 31.196 5.93237H68.9731C69.8419 5.93237 70.5471 6.63758 70.5471 7.50633V31.1126C70.5471 31.9813 69.8419 32.6865 68.9731 32.6865ZM32.77 29.5386H67.3992V9.07925H32.77V29.5386Z" fill="white"/>
</g>
<path d="M68.9731 32.6865H31.196C30.3273 32.6865 29.6221 31.9813 29.6221 31.1125V24.8177C29.6221 23.949 30.3273 23.2438 31.196 23.2438H68.9731C69.8419 23.2438 70.5471 23.949 70.5471 24.8177V31.1125C70.5471 31.9813 69.8419 32.6865 68.9731 32.6865ZM32.77 29.5386H67.3992V26.3917H32.77V29.5386Z" fill="white"/>
<path d="M54.8063 40.5552H45.3626C44.8897 40.5552 44.4449 40.3448 44.1459 39.9792C43.8459 39.6157 43.7272 39.1354 43.8199 38.6729L45.3938 30.8042C45.5397 30.0677 46.1855 29.5386 46.9365 29.5386H53.2324C53.9834 29.5386 54.6282 30.0677 54.7751 30.8042L56.349 38.6729C56.4417 39.1354 56.322 39.6157 56.023 39.9792C55.7261 40.3448 55.2782 40.5552 54.8063 40.5552ZM47.2824 37.4073H52.8876L51.9428 32.6865H48.2282L47.2824 37.4073Z" fill="white"/>
</g>
<defs>
<clipPath id="clip0_481_773">
<rect width="100" height="100" fill="white"/>
</clipPath>
</defs>
</svg>
