<svg width="100" height="100" viewBox="0 0 100 100" fill="none" xmlns="http://www.w3.org/2000/svg">
<g clip-path="url(#clip0_481_985)">
<path d="M14.3154 31.9552C14.3154 32.2364 14.329 32.5156 14.3561 32.7948C14.3842 33.075 14.4248 33.352 14.48 33.627C14.5342 33.902 14.6029 34.1739 14.6842 34.4427C14.7654 34.7114 14.8602 34.975 14.9675 35.2343C15.0748 35.4937 15.1946 35.7479 15.3269 35.9948C15.4592 36.2427 15.6029 36.4833 15.7592 36.7166C15.9154 36.95 16.0821 37.175 16.2602 37.3916C16.4383 37.6083 16.6269 37.8166 16.8248 38.0145C17.0238 38.2135 17.2311 38.402 17.4477 38.5802C17.6644 38.7573 17.8904 38.925 18.1238 39.0802C18.3571 39.2364 18.5967 39.3802 18.8446 39.5135C19.0925 39.6458 19.3456 39.7656 19.605 39.8729C19.8644 39.9802 20.1279 40.0739 20.3967 40.1562C20.6654 40.2375 20.9373 40.3052 21.2123 40.3604C21.4873 40.4145 21.7644 40.4562 22.0436 40.4833C22.3238 40.5114 22.6029 40.525 22.8842 40.525C23.1644 40.525 23.4446 40.5114 23.7238 40.4833C24.0029 40.4562 24.28 40.4145 24.5561 40.3604C24.8311 40.3052 25.1029 40.2375 25.3717 40.1562C25.6394 40.0739 25.904 39.9802 26.1633 39.8729C26.4227 39.7656 26.6758 39.6458 26.9227 39.5135C27.1706 39.3802 27.4113 39.2364 27.6446 39.0802C27.8779 38.925 28.1029 38.7573 28.3196 38.5802C28.5373 38.402 28.7446 38.2135 28.9425 38.0145C29.1415 37.8166 29.33 37.6083 29.5081 37.3916C29.6852 37.175 29.8529 36.95 30.0081 36.7166C30.1644 36.4833 30.3081 36.2427 30.4404 35.9948C30.5727 35.7479 30.6925 35.4937 30.8008 35.2343C30.9081 34.975 31.0019 34.7114 31.0842 34.4427C31.1654 34.1739 31.2331 33.902 31.2883 33.627C31.3425 33.352 31.3842 33.075 31.4113 32.7948C31.4394 32.5156 31.4529 32.2364 31.4529 31.9552C31.4529 31.675 31.4394 31.3948 31.4113 31.1156C31.3842 30.8364 31.3425 30.5583 31.2883 30.2833C31.2331 30.0083 31.1654 29.7364 31.0842 29.4677C31.0019 29.1989 30.9081 28.9354 30.8008 28.676C30.6925 28.4166 30.5727 28.1635 30.4404 27.9156C30.3081 27.6677 30.1644 27.4281 30.0081 27.1948C29.8529 26.9614 29.6852 26.7354 29.5081 26.5187C29.33 26.302 29.1415 26.0937 28.9425 25.8958C28.7446 25.6968 28.5373 25.5093 28.3196 25.3312C28.1029 25.1531 27.8779 24.9864 27.6446 24.8302C27.4113 24.6739 27.1706 24.5302 26.9227 24.3979C26.6758 24.2656 26.4227 24.1458 26.1633 24.0385C25.904 23.9302 25.6394 23.8364 25.3717 23.7552C25.1029 23.6729 24.8311 23.6052 24.5561 23.55C24.28 23.4958 24.0029 23.4541 23.7238 23.427C23.4446 23.4 23.1644 23.3854 22.8842 23.3854C22.6029 23.3854 22.3238 23.4 22.0436 23.427C21.7644 23.4541 21.4873 23.4958 21.2123 23.55C20.9373 23.6052 20.6654 23.6729 20.3967 23.7552C20.1279 23.8364 19.8644 23.9302 19.605 24.0385C19.3456 24.1458 19.0925 24.2656 18.8446 24.3979C18.5967 24.5302 18.3571 24.6739 18.1238 24.8302C17.8904 24.9864 17.6644 25.1531 17.4477 25.3312C17.2311 25.5093 17.0238 25.6968 16.8248 25.8958C16.6269 26.0937 16.4383 26.302 16.2602 26.5187C16.0821 26.7354 15.9154 26.9614 15.7592 27.1948C15.6029 27.4281 15.4592 27.6677 15.3269 27.9156C15.1946 28.1635 15.0748 28.4166 14.9675 28.676C14.8602 28.9354 14.7654 29.1989 14.6842 29.4677C14.6029 29.7364 14.5342 30.0083 14.48 30.2833C14.4248 30.5583 14.3842 30.8364 14.3561 31.1156C14.329 31.3948 14.3154 31.675 14.3154 31.9552ZM28.5967 31.9552C28.5967 32.1427 28.5873 32.3291 28.5686 32.5156C28.5508 32.701 28.5227 32.8864 28.4863 33.0698C28.4498 33.2531 28.405 33.4343 28.3508 33.6135C28.2956 33.7927 28.2331 33.9687 28.1613 34.1416C28.0904 34.3145 28.0102 34.4833 27.9217 34.6489C27.8342 34.8135 27.7373 34.9739 27.6342 35.1291C27.53 35.2854 27.4186 35.4354 27.2998 35.5791C27.1811 35.7239 27.0561 35.8625 26.9238 35.9948C26.7915 36.127 26.6529 36.2531 26.5081 36.3718C26.3633 36.4906 26.2133 36.602 26.0581 36.7052C25.9019 36.8093 25.7415 36.9052 25.5769 36.9937C25.4113 37.0823 25.2425 37.1614 25.0696 37.2333C24.8967 37.3052 24.7217 37.3677 24.5425 37.4218C24.3633 37.477 24.1821 37.5218 23.9988 37.5583C23.8144 37.5948 23.63 37.6229 23.4436 37.6406C23.2581 37.6593 23.0706 37.6687 22.8842 37.6687C22.6967 37.6687 22.5102 37.6593 22.3238 37.6406C22.1373 37.6229 21.9529 37.5948 21.7696 37.5583C21.5863 37.5218 21.405 37.477 21.2258 37.4218C21.0467 37.3677 20.8706 37.3052 20.6977 37.2333C20.5248 37.1614 20.3561 37.0823 20.1915 36.9937C20.0258 36.9052 19.8654 36.8093 19.7102 36.7052C19.555 36.602 19.405 36.4906 19.2602 36.3718C19.1154 36.2531 18.9769 36.127 18.8446 35.9948C18.7123 35.8625 18.5873 35.7239 18.4686 35.5791C18.3498 35.4354 18.2383 35.2854 18.1342 35.1291C18.03 34.9739 17.9342 34.8135 17.8456 34.6489C17.7581 34.4833 17.6779 34.3145 17.6061 34.1416C17.5342 33.9687 17.4717 33.7927 17.4175 33.6135C17.3633 33.4343 17.3175 33.2531 17.2811 33.0698C17.2446 32.8864 17.2175 32.701 17.1988 32.5156C17.1811 32.3291 17.1717 32.1427 17.1717 31.9552C17.1717 31.7687 17.1811 31.5812 17.1988 31.3958C17.2175 31.2093 17.2446 31.0239 17.2811 30.8406C17.3175 30.6573 17.3633 30.476 17.4175 30.2968C17.4717 30.1177 17.5342 29.9416 17.6061 29.7687C17.6779 29.5958 17.7581 29.427 17.8456 29.2625C17.9342 29.0968 18.03 28.9364 18.1342 28.7812C18.2383 28.626 18.3498 28.476 18.4686 28.3312C18.5873 28.1864 18.7123 28.0479 18.8446 27.9156C18.9769 27.7833 19.1154 27.6573 19.2602 27.5395C19.405 27.4208 19.555 27.3093 19.7102 27.2052C19.8654 27.101 20.0258 27.0052 20.1915 26.9166C20.3561 26.8291 20.5248 26.7489 20.6977 26.677C20.8706 26.6052 21.0467 26.5427 21.2258 26.4885C21.405 26.4343 21.5863 26.3885 21.7696 26.352C21.9529 26.3156 22.1373 26.2885 22.3238 26.2698C22.5102 26.251 22.6967 26.2427 22.8842 26.2427C23.0706 26.2427 23.2581 26.251 23.4436 26.2698C23.63 26.2885 23.8144 26.3156 23.9988 26.352C24.1821 26.3885 24.3633 26.4343 24.5425 26.4885C24.7217 26.5427 24.8967 26.6052 25.0696 26.677C25.2425 26.7489 25.4113 26.8291 25.5769 26.9166C25.7415 27.0052 25.9019 27.101 26.0581 27.2052C26.2133 27.3093 26.3633 27.4208 26.5081 27.5395C26.6529 27.6573 26.7915 27.7833 26.9238 27.9156C27.0561 28.0479 27.1811 28.1864 27.2998 28.3312C27.4186 28.476 27.53 28.626 27.6342 28.7812C27.7373 28.9364 27.8342 29.0968 27.9217 29.2625C28.0102 29.427 28.0904 29.5958 28.1613 29.7687C28.2331 29.9416 28.2956 30.1177 28.3508 30.2968C28.405 30.476 28.4498 30.6573 28.4863 30.8406C28.5227 31.0239 28.5508 31.2093 28.5686 31.3958C28.5873 31.5812 28.5967 31.7687 28.5967 31.9552Z" fill="white"/>
<path d="M24.3125 69.0906C26.4833 69.0906 32.5521 69.7469 34.5521 72.7323C37.251 76.7885 41.45 92.1563 41.45 92.3135L44.3063 91.5708C44.1344 90.9135 39.9354 75.574 36.9802 71.1615C34.4229 67.3906 28.4823 66.5052 25.7406 66.2333V56.2354H35.7375C35.9708 56.2354 36.2042 56.224 36.4375 56.201C36.6698 56.1781 36.901 56.1438 37.1302 56.099C37.3594 56.0531 37.5865 55.9958 37.8104 55.9281C38.0333 55.8604 38.2542 55.7813 38.4698 55.6917C38.6854 55.6031 38.8969 55.5031 39.1031 55.3927C39.3094 55.2823 39.5104 55.1625 39.7042 55.0323C39.899 54.9021 40.0865 54.7635 40.2677 54.6146C40.4479 54.4667 40.6208 54.3094 40.7865 54.1438C40.9521 53.9792 41.1083 53.8052 41.2573 53.625C41.4052 53.4438 41.5448 53.2563 41.674 53.0615C41.8042 52.8677 41.924 52.6667 42.0344 52.4604C42.1448 52.2542 42.2448 52.0438 42.3344 51.8271C42.424 51.6115 42.5021 51.3917 42.5708 51.1677C42.6385 50.9438 42.6948 50.7167 42.7406 50.4875C42.7865 50.2583 42.8208 50.0271 42.8438 49.7948C42.8667 49.5615 42.8781 49.3281 42.8781 49.0948C42.8781 49.001 42.8688 48.9073 42.85 48.8156C42.8323 48.724 42.8052 48.6344 42.7688 48.5479C42.7333 48.4615 42.6896 48.3792 42.6375 48.301C42.5854 48.2229 42.526 48.151 42.4594 48.0844C42.3938 48.0177 42.3208 47.9594 42.2427 47.9073C42.1656 47.8552 42.0833 47.8104 41.9958 47.775C41.9094 47.7385 41.8208 47.7115 41.7281 47.6938C41.6365 47.675 41.5438 47.6667 41.45 47.6667H25.5979C25.5156 47.2656 25.401 46.876 25.2521 46.4948C25.1031 46.1146 24.9229 45.749 24.7115 45.4C24.501 45.05 24.2615 44.7208 23.9927 44.4125C23.725 44.1042 23.4333 43.8208 23.1167 43.5625C22.8 43.3042 22.4646 43.075 22.1083 42.874C21.7521 42.6729 21.3823 42.5042 20.9969 42.3677C20.6125 42.2302 20.2188 42.1271 19.8167 42.0573C19.4135 41.9875 19.0083 41.9531 18.6 41.9531C18.3188 41.9531 18.0396 41.9667 17.7594 41.9948C17.4802 42.0219 17.2031 42.0635 16.9281 42.1177C16.6531 42.1729 16.3813 42.2406 16.1125 42.3219C15.8438 42.4042 15.5802 42.4979 15.3208 42.6052C15.0615 42.7125 14.8083 42.8323 14.5604 42.9646C14.3125 43.0969 14.0729 43.2417 13.8396 43.3979C13.6063 43.5531 13.3802 43.7208 13.1635 43.8979C12.9469 44.076 12.7396 44.2646 12.5406 44.4635C12.3427 44.6615 12.1542 44.8698 11.976 45.0865C11.7979 45.3031 11.6313 45.5281 11.475 45.7615C11.3187 45.9948 11.175 46.2354 11.0427 46.4833C10.9104 46.7302 10.7906 46.9844 10.6833 47.2438C10.576 47.5031 10.4813 47.7667 10.4 48.0354C10.3187 48.3042 10.25 48.576 10.1958 48.851C10.1406 49.126 10.1 49.4031 10.0719 49.6823C10.0448 49.9625 10.0312 50.2417 10.0312 50.5229V66.2333C10.0312 70.1896 12.4156 77.6594 21.4563 77.6594H29.0677L35.851 93.9135L38.4792 92.8281L31.3385 75.6885C31.2854 75.5583 31.2135 75.4385 31.125 75.3292C31.0354 75.2198 30.9323 75.126 30.8156 75.0469C30.699 74.9677 30.5729 74.9083 30.4385 74.8667C30.3031 74.825 30.1656 74.8042 30.025 74.8031H21.4563C13.1875 74.8031 12.8875 67.1052 12.8875 66.2333V50.5229C12.8875 50.3354 12.8969 50.149 12.9146 49.9625C12.9333 49.776 12.9604 49.5917 12.9969 49.4083C13.0333 49.225 13.0792 49.0438 13.1333 48.8646C13.1875 48.6854 13.25 48.5094 13.3219 48.3365C13.3938 48.1635 13.474 47.9948 13.5615 47.8292C13.65 47.6646 13.7458 47.5042 13.85 47.349C13.9542 47.1927 14.0656 47.0427 14.1844 46.8979C14.3031 46.7542 14.4281 46.6156 14.5604 46.4833C14.6927 46.351 14.8313 46.225 14.976 46.1063C15.1208 45.9875 15.2708 45.876 15.426 45.7729C15.5813 45.6687 15.7417 45.5729 15.9073 45.4844C16.0719 45.3958 16.2406 45.3167 16.4135 45.2448C16.5865 45.1729 16.7625 45.1104 16.9417 45.0552C17.1208 45.001 17.3021 44.9563 17.4854 44.9198C17.6688 44.8833 17.8531 44.8552 18.0396 44.8375C18.226 44.8187 18.4125 44.8094 18.6 44.8094C18.7396 44.8094 18.8802 44.8167 19.0198 44.8302C19.1594 44.8438 19.2979 44.8646 19.4354 44.8917C19.5729 44.9198 19.7094 44.9531 19.8438 44.9938C19.9781 45.0354 20.1094 45.0823 20.2396 45.1354C20.3688 45.1896 20.4958 45.25 20.6198 45.3156C20.7427 45.3823 20.8635 45.4542 20.9802 45.5323C21.0969 45.6094 21.2094 45.6937 21.3177 45.7823C21.426 45.8708 21.5302 45.9656 21.6292 46.0646C21.7281 46.1635 21.8229 46.2677 21.9115 46.376C22.001 46.4844 22.0844 46.5969 22.1625 46.7135C22.2396 46.8302 22.3125 46.951 22.3781 47.075C22.4448 47.1979 22.5042 47.325 22.5583 47.4552C22.6115 47.5844 22.6594 47.7167 22.7 47.851C22.7406 47.9854 22.774 48.1208 22.8021 48.2583C22.8292 48.3958 22.85 48.5344 22.8635 48.675C22.8771 48.8146 22.8844 48.9542 22.8844 49.0948C22.8844 49.1885 22.8938 49.2813 22.9115 49.3729C22.9302 49.4646 22.9573 49.5542 22.9927 49.6406C23.0292 49.7281 23.0729 49.8104 23.125 49.8875C23.1771 49.9656 23.2365 50.0385 23.3021 50.1042C23.3688 50.1708 23.4406 50.2302 23.5188 50.2823C23.5969 50.3344 23.6792 50.3781 23.7656 50.4135C23.8521 50.45 23.9417 50.4771 24.0333 50.4948C24.126 50.5135 24.2188 50.5229 24.3125 50.5229H39.7792C39.7052 50.7302 39.6167 50.9313 39.5125 51.125C39.4073 51.3188 39.2885 51.5042 39.1563 51.6802C39.0229 51.8552 38.8781 52.0198 38.7198 52.1729C38.5615 52.326 38.3917 52.4667 38.2125 52.5938C38.0323 52.7208 37.8438 52.8333 37.6469 52.9313C37.449 53.0292 37.2458 53.1115 37.0354 53.1781C36.826 53.2448 36.6115 53.2948 36.3938 53.3292C36.176 53.3625 35.9573 53.3792 35.7375 53.3792H20.0281V56.2354H22.8844V67.6615C22.8844 67.7552 22.8938 67.849 22.9115 67.9406C22.9302 68.0323 22.9573 68.1219 22.9927 68.2083C23.0292 68.2948 23.0729 68.3771 23.125 68.4552C23.1771 68.5333 23.2365 68.6052 23.3021 68.6719C23.3688 68.7385 23.4406 68.7969 23.5188 68.849C23.5969 68.901 23.6792 68.9458 23.7656 68.9813C23.8521 69.0177 23.9417 69.0448 24.0333 69.0625C24.126 69.0813 24.2188 69.0906 24.3125 69.0906Z" fill="white"/>
<mask id="mask0_481_985" style="mask-type:luminance" maskUnits="userSpaceOnUse" x="4" y="53" width="24" height="44">
<path d="M4.31885 53.3334H27.2001V96.2667H4.31885V53.3334Z" fill="white"/>
</mask>
<g mask="url(#mask0_481_985)">
<path d="M12.8876 83.3729H15.7438V96.2271H18.6001V83.3729H27.1688V80.5167H12.8876C12.7001 80.5167 12.5136 80.5073 12.3272 80.4885C12.1407 80.4708 11.9563 80.4427 11.773 80.4062C11.5897 80.3698 11.4084 80.325 11.2293 80.2698C11.0501 80.2156 10.8741 80.1531 10.7011 80.0812C10.5282 80.0094 10.3595 79.9302 10.1949 79.8417C10.0293 79.7531 9.86885 79.6573 9.71364 79.5531C9.55843 79.4489 9.40843 79.3385 9.26364 79.2198C9.11885 79.101 8.98031 78.975 8.84801 78.8427C8.71572 78.7104 8.59072 78.5719 8.47197 78.4271C8.35322 78.2833 8.24176 78.1323 8.1376 77.9771C8.03343 77.8219 7.9376 77.6614 7.84906 77.4958C7.76156 77.3312 7.68135 77.1625 7.60947 76.9896C7.5376 76.8167 7.4751 76.6406 7.42093 76.4614C7.36676 76.2823 7.32093 76.101 7.28447 75.9177C7.24801 75.7344 7.22093 75.5489 7.20218 75.3635C7.18447 75.1771 7.1751 74.9906 7.1751 74.8031V53.3792H4.31885V74.8031C4.31885 75.0833 4.33239 75.3635 4.35947 75.6427C4.3876 75.9229 4.42822 76.2 4.48343 76.475C4.5376 76.75 4.60635 77.0219 4.6876 77.2906C4.76885 77.5594 4.86364 77.8229 4.97093 78.0823C5.07822 78.3417 5.19801 78.5948 5.33031 78.8427C5.4626 79.0906 5.60635 79.3312 5.7626 79.5646C5.91885 79.7979 6.08551 80.0229 6.26364 80.2396C6.44176 80.4562 6.63031 80.6646 6.82822 80.8625C7.02718 81.0614 7.23447 81.2489 7.45114 81.4271C7.66781 81.6052 7.89385 81.7729 8.12718 81.9281C8.36051 82.0844 8.6001 82.2281 8.84801 82.3604C9.09593 82.4927 9.34906 82.6125 9.60843 82.7208C9.86781 82.8281 10.1313 82.9219 10.4001 83.0042C10.6688 83.0854 10.9407 83.1531 11.2157 83.2083C11.4907 83.2625 11.7678 83.3042 12.047 83.3312C12.3272 83.3594 12.6063 83.3729 12.8876 83.3729Z" fill="white"/>
</g>
<path d="M77.1532 23.3854C76.872 23.3854 76.5928 23.4 76.3126 23.427C76.0334 23.4541 75.7563 23.4958 75.4813 23.55C75.2063 23.6052 74.9345 23.6729 74.6657 23.7552C74.397 23.8364 74.1334 23.9302 73.8741 24.0385C73.6147 24.1458 73.3616 24.2656 73.1136 24.3979C72.8657 24.5302 72.6261 24.6739 72.3928 24.8302C72.1595 24.9864 71.9345 25.1531 71.7168 25.3312C71.5001 25.5093 71.2928 25.6968 71.0938 25.8958C70.8959 26.0937 70.7074 26.302 70.5293 26.5187C70.3511 26.7354 70.1845 26.9614 70.0282 27.1948C69.872 27.4281 69.7282 27.6677 69.5959 27.9156C69.4636 28.1635 69.3438 28.4166 69.2366 28.676C69.1293 28.9354 69.0345 29.1989 68.9532 29.4677C68.872 29.7364 68.8032 30.0083 68.7491 30.2833C68.6938 30.5583 68.6532 30.8364 68.6251 31.1156C68.598 31.3948 68.5845 31.675 68.5845 31.9552C68.5845 32.2364 68.598 32.5156 68.6251 32.7948C68.6532 33.075 68.6938 33.352 68.7491 33.627C68.8032 33.902 68.872 34.1739 68.9532 34.4427C69.0345 34.7114 69.1293 34.975 69.2366 35.2343C69.3438 35.4937 69.4636 35.7479 69.5959 35.9948C69.7282 36.2427 69.872 36.4833 70.0282 36.7166C70.1845 36.95 70.3511 37.175 70.5293 37.3916C70.7074 37.6083 70.8959 37.8166 71.0938 38.0145C71.2928 38.2135 71.5001 38.402 71.7168 38.5802C71.9345 38.7573 72.1595 38.925 72.3928 39.0802C72.6261 39.2364 72.8657 39.3802 73.1136 39.5135C73.3616 39.6458 73.6147 39.7656 73.8741 39.8729C74.1334 39.9802 74.397 40.0739 74.6657 40.1562C74.9345 40.2375 75.2063 40.3052 75.4813 40.3604C75.7563 40.4145 76.0334 40.4562 76.3126 40.4833C76.5928 40.5114 76.872 40.525 77.1532 40.525C77.4334 40.525 77.7136 40.5114 77.9928 40.4833C78.272 40.4562 78.5491 40.4145 78.8251 40.3604C79.1001 40.3052 79.372 40.2375 79.6407 40.1562C79.9084 40.0739 80.173 39.9802 80.4324 39.8729C80.6918 39.7656 80.9449 39.6458 81.1918 39.5135C81.4397 39.3802 81.6803 39.2364 81.9136 39.0802C82.147 38.925 82.372 38.7573 82.5886 38.5802C82.8063 38.402 83.0136 38.2135 83.2116 38.0145C83.4105 37.8166 83.5991 37.6083 83.7772 37.3916C83.9543 37.175 84.122 36.95 84.2772 36.7166C84.4334 36.4833 84.5772 36.2427 84.7095 35.9948C84.8418 35.7479 84.9616 35.4937 85.0699 35.2343C85.1772 34.975 85.2709 34.7114 85.3532 34.4427C85.4345 34.1739 85.5022 33.902 85.5574 33.627C85.6116 33.352 85.6532 33.075 85.6803 32.7948C85.7084 32.5156 85.722 32.2364 85.722 31.9552C85.722 31.675 85.7084 31.3948 85.6803 31.1156C85.6532 30.8364 85.6116 30.5583 85.5574 30.2833C85.5022 30.0083 85.4345 29.7364 85.3532 29.4677C85.2709 29.1989 85.1772 28.9354 85.0699 28.676C84.9616 28.4166 84.8418 28.1635 84.7095 27.9156C84.5772 27.6677 84.4334 27.4281 84.2772 27.1948C84.122 26.9614 83.9543 26.7354 83.7772 26.5187C83.5991 26.302 83.4105 26.0937 83.2116 25.8958C83.0136 25.6968 82.8063 25.5093 82.5886 25.3312C82.372 25.1531 82.147 24.9864 81.9136 24.8302C81.6803 24.6739 81.4397 24.5302 81.1918 24.3979C80.9449 24.2656 80.6918 24.1458 80.4324 24.0385C80.173 23.9302 79.9084 23.8364 79.6407 23.7552C79.372 23.6729 79.1001 23.6052 78.8251 23.55C78.5491 23.4958 78.272 23.4541 77.9928 23.427C77.7136 23.4 77.4334 23.3854 77.1532 23.3854ZM77.1532 37.6687C76.9657 37.6687 76.7793 37.6593 76.5928 37.6406C76.4063 37.6229 76.222 37.5948 76.0386 37.5583C75.8553 37.5218 75.6741 37.477 75.4949 37.4218C75.3157 37.3677 75.1397 37.3052 74.9668 37.2333C74.7938 37.1614 74.6251 37.0823 74.4605 36.9937C74.2949 36.9052 74.1345 36.8093 73.9793 36.7052C73.8241 36.602 73.6741 36.4906 73.5293 36.3718C73.3845 36.2531 73.2459 36.127 73.1136 35.9948C72.9813 35.8625 72.8563 35.7239 72.7376 35.5791C72.6188 35.4354 72.5074 35.2854 72.4032 35.1291C72.2991 34.9739 72.2032 34.8135 72.1147 34.6489C72.0272 34.4833 71.947 34.3145 71.8751 34.1416C71.8032 33.9687 71.7407 33.7927 71.6866 33.6135C71.6324 33.4343 71.5866 33.2531 71.5501 33.0698C71.5136 32.8864 71.4866 32.701 71.4678 32.5156C71.4501 32.3291 71.4407 32.1427 71.4407 31.9552C71.4407 31.7687 71.4501 31.5812 71.4678 31.3958C71.4866 31.2093 71.5136 31.0239 71.5501 30.8406C71.5866 30.6573 71.6324 30.476 71.6866 30.2968C71.7407 30.1177 71.8032 29.9416 71.8751 29.7687C71.947 29.5958 72.0272 29.427 72.1147 29.2625C72.2032 29.0968 72.2991 28.9364 72.4032 28.7812C72.5074 28.626 72.6188 28.476 72.7376 28.3312C72.8563 28.1864 72.9813 28.0479 73.1136 27.9156C73.2459 27.7833 73.3845 27.6573 73.5293 27.5395C73.6741 27.4208 73.8241 27.3093 73.9793 27.2052C74.1345 27.101 74.2949 27.0052 74.4605 26.9166C74.6251 26.8291 74.7938 26.7489 74.9668 26.677C75.1397 26.6052 75.3157 26.5427 75.4949 26.4885C75.6741 26.4343 75.8553 26.3885 76.0386 26.352C76.222 26.3156 76.4063 26.2885 76.5928 26.2698C76.7793 26.251 76.9657 26.2427 77.1532 26.2427C77.3397 26.2427 77.5272 26.251 77.7126 26.2698C77.8991 26.2885 78.0834 26.3156 78.2678 26.352C78.4511 26.3885 78.6324 26.4343 78.8116 26.4885C78.9907 26.5427 79.1657 26.6052 79.3386 26.677C79.5116 26.7489 79.6803 26.8291 79.8459 26.9166C80.0105 27.0052 80.1709 27.101 80.3261 27.2052C80.4824 27.3093 80.6324 27.4208 80.7772 27.5395C80.922 27.6573 81.0605 27.7833 81.1928 27.9156C81.3251 28.0479 81.4501 28.1864 81.5688 28.3312C81.6876 28.476 81.7991 28.626 81.9032 28.7812C82.0063 28.9364 82.1032 29.0968 82.1907 29.2625C82.2793 29.427 82.3595 29.5958 82.4303 29.7687C82.5022 29.9416 82.5647 30.1177 82.6199 30.2968C82.6741 30.476 82.7188 30.6573 82.7553 30.8406C82.7918 31.0239 82.8199 31.2093 82.8376 31.3958C82.8563 31.5812 82.8657 31.7687 82.8657 31.9552C82.8657 32.1427 82.8563 32.3291 82.8376 32.5156C82.8199 32.701 82.7918 32.8864 82.7553 33.0698C82.7188 33.2531 82.6741 33.4343 82.6199 33.6135C82.5647 33.7927 82.5022 33.9687 82.4303 34.1416C82.3595 34.3145 82.2793 34.4833 82.1907 34.6489C82.1032 34.8135 82.0063 34.9739 81.9032 35.1291C81.7991 35.2854 81.6876 35.4354 81.5688 35.5791C81.4501 35.7239 81.3251 35.8625 81.1928 35.9948C81.0605 36.127 80.922 36.2531 80.7772 36.3718C80.6324 36.4906 80.4824 36.602 80.3261 36.7052C80.1709 36.8093 80.0105 36.9052 79.8459 36.9937C79.6803 37.0823 79.5116 37.1614 79.3386 37.2333C79.1657 37.3052 78.9907 37.3677 78.8116 37.4218C78.6324 37.477 78.4511 37.5218 78.2678 37.5583C78.0834 37.5948 77.8991 37.6229 77.7126 37.6406C77.5272 37.6593 77.3397 37.6687 77.1532 37.6687Z" fill="white"/>
<path d="M78.5813 74.8031H70.0125C69.8709 74.8042 69.7334 74.825 69.599 74.8667C69.4636 74.9083 69.3386 74.9677 69.2209 75.0469C69.1042 75.126 69.0011 75.2198 68.9125 75.3292C68.823 75.4385 68.7521 75.5583 68.698 75.6885L61.5573 92.8281L64.1854 93.9135L70.9688 77.6594H78.5813C87.6209 77.6594 90.0063 70.1896 90.0063 66.2333V50.5229C90.0063 50.2417 89.9927 49.9625 89.9646 49.6823C89.9375 49.4031 89.8959 49.126 89.8417 48.851C89.7865 48.576 89.7188 48.3042 89.6375 48.0354C89.5552 47.7667 89.4615 47.5021 89.3542 47.2438C89.2459 46.9844 89.1261 46.7302 88.9938 46.4833C88.8615 46.2354 88.7177 45.9948 88.5615 45.7615C88.4063 45.5281 88.2386 45.3031 88.0615 45.0865C87.8834 44.8698 87.6948 44.6615 87.4959 44.4635C87.298 44.2646 87.0907 44.076 86.873 43.8979C86.6563 43.7208 86.4313 43.5531 86.198 43.3979C85.9646 43.2417 85.724 43.0969 85.4761 42.9646C85.2292 42.8323 84.9761 42.7125 84.7167 42.6052C84.4573 42.4979 84.1927 42.4042 83.925 42.3219C83.6563 42.2406 83.3844 42.1729 83.1094 42.1177C82.8334 42.0635 82.5563 42.0219 82.2771 41.9948C81.998 41.9667 81.7177 41.9531 81.4375 41.9531C81.0292 41.9531 80.623 41.9875 80.2209 42.0573C79.8177 42.1271 79.424 42.2302 79.0396 42.3677C78.6552 42.5042 78.2844 42.6729 77.9292 42.874C77.573 43.075 77.2365 43.3042 76.9198 43.5625C76.6042 43.8208 76.3115 44.1042 76.0438 44.4125C75.7761 44.7208 75.5365 45.05 75.325 45.4C75.1136 45.749 74.9334 46.1146 74.7854 46.4948C74.6365 46.876 74.5209 47.2656 74.4396 47.6667H58.5875C58.4938 47.6667 58.4011 47.675 58.3084 47.6938C58.2167 47.7115 58.1271 47.7385 58.0407 47.775C57.9542 47.8104 57.8719 47.8552 57.7938 47.9073C57.7157 47.9594 57.6438 48.0177 57.5771 48.0844C57.5115 48.151 57.4521 48.2229 57.4 48.301C57.3479 48.3792 57.3042 48.4615 57.2677 48.5479C57.2323 48.6344 57.2052 48.724 57.1865 48.8156C57.1688 48.9073 57.1594 49.001 57.1594 49.0948C57.1594 49.3281 57.1709 49.5615 57.1938 49.7948C57.2167 50.0271 57.2511 50.2583 57.2959 50.4875C57.3417 50.7167 57.399 50.9438 57.4667 51.1677C57.5344 51.3917 57.6136 51.6115 57.7032 51.8271C57.7917 52.0438 57.8917 52.2542 58.0021 52.4604C58.1125 52.6667 58.2323 52.8677 58.3625 53.0615C58.4927 53.2563 58.6313 53.4438 58.7802 53.625C58.9282 53.8052 59.0854 53.9792 59.2511 54.1438C59.4157 54.3094 59.5886 54.4667 59.7698 54.6146C59.9511 54.7635 60.1386 54.9021 60.3323 55.0323C60.5271 55.1625 60.7271 55.2823 60.9334 55.3927C61.1396 55.5031 61.3511 55.6031 61.5667 55.6917C61.7834 55.7813 62.0032 55.8604 62.2271 55.9281C62.4511 55.9958 62.6771 56.0531 62.9063 56.099C63.1365 56.1438 63.3667 56.1781 63.6 56.201C63.8323 56.224 64.0657 56.2354 64.3 56.2354H74.2969V66.2333C71.5542 66.4479 65.6136 67.3333 63.1146 71.1042C60.1584 75.5177 55.974 90.8573 55.7886 91.5135L58.5302 92.2563C58.5302 92.099 62.8146 76.7313 65.4854 72.675C67.4698 69.7615 73.5542 69.0906 75.725 69.0906C75.8188 69.0906 75.9115 69.0813 76.0032 69.0625C76.0959 69.0448 76.1844 69.0177 76.2709 68.9813C76.3584 68.9458 76.4407 68.901 76.5177 68.849C76.5959 68.7969 76.6688 68.7385 76.7344 68.6719C76.8011 68.6052 76.8605 68.5333 76.9125 68.4552C76.9646 68.3771 77.0084 68.2948 77.0438 68.2083C77.0802 68.1219 77.1073 68.0323 77.125 67.9406C77.1438 67.849 77.1532 67.7552 77.1532 67.6615V56.2354H80.0094V53.3792H64.3C64.0792 53.3792 63.8604 53.3625 63.6427 53.3292C63.425 53.2948 63.2115 53.2448 63.0011 53.1781C62.7917 53.1115 62.5875 53.0292 62.3907 52.9313C62.1938 52.8333 62.0052 52.7208 61.825 52.5938C61.6448 52.4667 61.4761 52.326 61.3177 52.1729C61.1594 52.0198 61.0136 51.8552 60.8813 51.6802C60.7479 51.5042 60.6292 51.3188 60.525 51.125C60.4209 50.9313 60.3313 50.7302 60.2584 50.5229H75.725C75.8188 50.5229 75.9115 50.5135 76.0032 50.4948C76.0959 50.4771 76.1844 50.45 76.2709 50.4135C76.3584 50.3781 76.4407 50.3344 76.5177 50.2823C76.5959 50.2302 76.6688 50.1708 76.7344 50.1042C76.8011 50.0385 76.8605 49.9656 76.9125 49.8875C76.9646 49.8104 77.0084 49.7281 77.0438 49.6406C77.0802 49.5542 77.1073 49.4646 77.125 49.3729C77.1438 49.2813 77.1532 49.1885 77.1532 49.0948C77.1532 48.9542 77.1594 48.8146 77.174 48.675C77.1875 48.5344 77.2084 48.3958 77.2355 48.2583C77.2625 48.1208 77.2969 47.9854 77.3375 47.851C77.3782 47.7167 77.425 47.5844 77.4792 47.4552C77.5323 47.325 77.5927 47.1979 77.6584 47.075C77.725 46.951 77.7969 46.8302 77.875 46.7135C77.9532 46.5969 78.0365 46.4844 78.125 46.376C78.2146 46.2677 78.3084 46.1635 78.4073 46.0646C78.5073 45.9656 78.6105 45.8708 78.7188 45.7823C78.8282 45.6937 78.9407 45.6094 79.0573 45.5323C79.174 45.4542 79.2938 45.3823 79.4177 45.3156C79.5417 45.25 79.6677 45.1896 79.798 45.1354C79.9271 45.0823 80.0594 45.0354 80.1938 44.9938C80.3282 44.9531 80.4636 44.9198 80.6011 44.8917C80.7386 44.8646 80.8782 44.8438 81.0177 44.8302C81.1573 44.8167 81.2969 44.8094 81.4375 44.8094C81.624 44.8094 81.8115 44.8187 81.9969 44.8375C82.1834 44.8552 82.3677 44.8833 82.5521 44.9198C82.7355 44.9563 82.9167 45.001 83.0959 45.0552C83.275 45.1104 83.45 45.1729 83.623 45.2448C83.7959 45.3167 83.9646 45.3958 84.1302 45.4844C84.2948 45.5729 84.4552 45.6687 84.6105 45.7729C84.7667 45.876 84.9167 45.9875 85.0615 46.1063C85.2063 46.225 85.3448 46.351 85.4771 46.4833C85.6094 46.6156 85.7344 46.7542 85.8532 46.8979C85.9719 47.0427 86.0834 47.1927 86.1875 47.349C86.2907 47.5042 86.3875 47.6646 86.475 47.8292C86.5636 47.9948 86.6438 48.1635 86.7146 48.3365C86.7865 48.5094 86.849 48.6854 86.9042 48.8646C86.9584 49.0438 87.0032 49.225 87.0396 49.4083C87.0761 49.5917 87.1042 49.776 87.1219 49.9625C87.1407 50.149 87.15 50.3354 87.15 50.5229V66.2333C87.15 67.1052 86.85 74.8031 78.5813 74.8031Z" fill="white"/>
<mask id="mask1_481_985" style="mask-type:luminance" maskUnits="userSpaceOnUse" x="72" y="53" width="24" height="44">
<path d="M72.7998 53.3334H95.7186V96.2667H72.7998V53.3334Z" fill="white"/>
</mask>
<g mask="url(#mask1_481_985)">
<path d="M92.8624 74.8031C92.8624 74.9906 92.853 75.1771 92.8343 75.3635C92.8166 75.5489 92.7884 75.7344 92.752 75.9177C92.7155 76.101 92.6707 76.2823 92.6166 76.4614C92.5614 76.6406 92.4989 76.8167 92.427 76.9896C92.3562 77.1625 92.2759 77.3312 92.1874 77.4958C92.0999 77.6614 92.003 77.8219 91.8999 77.9771C91.7957 78.1323 91.6843 78.2833 91.5655 78.4271C91.4468 78.5719 91.3218 78.7104 91.1895 78.8427C91.0572 78.975 90.9187 79.101 90.7739 79.2198C90.6291 79.3385 90.4791 79.4489 90.3228 79.5531C90.1676 79.6573 90.0072 79.7531 89.8426 79.8417C89.677 79.9302 89.5082 80.0094 89.3353 80.0812C89.1624 80.1531 88.9874 80.2156 88.8082 80.2698C88.6291 80.325 88.4478 80.3698 88.2645 80.4062C88.0801 80.4427 87.8957 80.4708 87.7093 80.4885C87.5239 80.5073 87.3364 80.5167 87.1499 80.5167H72.8687V83.3729H81.4374V96.2271H84.2937V83.3729H87.1499C87.4301 83.3729 87.7103 83.3594 87.9895 83.3312C88.2687 83.3042 88.5457 83.2625 88.8218 83.2083C89.0968 83.1531 89.3687 83.0854 89.6374 83.0042C89.9051 82.9219 90.1697 82.8281 90.4291 82.7208C90.6884 82.6125 90.9416 82.4927 91.1884 82.3604C91.4364 82.2281 91.677 82.0844 91.9103 81.9281C92.1437 81.7729 92.3687 81.6052 92.5853 81.4271C92.803 81.2489 93.0103 81.0614 93.2082 80.8625C93.4072 80.6646 93.5957 80.4562 93.7739 80.2396C93.9509 80.0229 94.1187 79.7979 94.2739 79.5646C94.4301 79.3312 94.5739 79.0906 94.7062 78.8427C94.8384 78.5948 94.9582 78.3417 95.0666 78.0823C95.1739 77.8229 95.2676 77.5594 95.3499 77.2906C95.4312 77.0219 95.4989 76.75 95.5541 76.475C95.6082 76.2 95.6499 75.9229 95.677 75.6427C95.7051 75.3635 95.7187 75.0833 95.7187 74.8031V53.3792H92.8624V74.8031Z" fill="white"/>
</g>
<path d="M51.4468 96.2271V61.949H70.0124V59.0928H30.0249V61.949H48.5905V96.2271H51.4468Z" fill="white"/>
<path d="M55.7312 7.67502C54.3468 7.67502 52.9989 7.89898 51.6895 8.34585C51.2353 7.91877 50.753 7.52606 50.2426 7.16981C49.7312 6.81252 49.1978 6.49377 48.6405 6.2146C48.0832 5.93439 47.5082 5.69689 46.9166 5.50106C46.3249 5.30523 45.7228 5.15314 45.1082 5.04481C44.4947 4.93648 43.8759 4.87398 43.253 4.85523C42.6301 4.83752 42.0093 4.8646 41.3895 4.93648C40.7707 5.00835 40.1603 5.12502 39.5582 5.28648C38.9562 5.44689 38.3687 5.65106 37.7957 5.89793C37.2228 6.14377 36.6718 6.43023 36.1405 6.75731C35.6103 7.08439 35.1051 7.44793 34.628 7.84793C34.1499 8.24793 33.703 8.68023 33.2884 9.14585C32.8728 9.61043 32.4937 10.1031 32.1509 10.624C31.8072 11.1438 31.503 11.6865 31.2384 12.2511C30.9739 12.8156 30.752 13.3959 30.5718 13.9927C30.3926 14.5896 30.2562 15.1959 30.1645 15.8125C30.0728 16.4292 30.0259 17.049 30.0249 17.6729C30.0249 18.2302 30.0614 18.7865 30.1343 19.3396C30.2072 19.8927 30.3145 20.4386 30.4582 20.9781C30.602 21.5167 30.7801 22.0438 30.9926 22.5604C31.2051 23.0761 31.4499 23.5761 31.728 24.0604C32.0051 24.5438 32.3134 25.0084 32.6509 25.4521C32.9884 25.8959 33.3541 26.3156 33.7468 26.7125C34.1395 27.1084 34.5562 27.4781 34.9968 27.8198C35.4374 28.1615 35.8989 28.474 36.3801 28.7563L35.7374 33.1834C35.7134 33.3198 35.7103 33.4563 35.727 33.5927C35.7426 33.7302 35.778 33.8615 35.8332 33.9886C35.8874 34.1156 35.9582 34.2323 36.0468 34.3375C36.1353 34.4438 36.2364 34.5354 36.3509 34.6115C36.602 34.7615 36.8739 34.8281 37.1655 34.8115C37.4197 34.8136 37.6582 34.7521 37.8791 34.6261L45.5197 30.2552C46.0041 30.15 46.4801 30.0167 46.9478 29.8563C47.8009 30.6688 48.7468 31.3521 49.7874 31.9052C50.828 32.4584 51.9239 32.8604 53.0749 33.1125L60.7155 37.4823C60.9405 37.6104 61.1832 37.6729 61.4437 37.6688C61.7343 37.6688 62.0009 37.5886 62.2436 37.4261C62.3582 37.349 62.4593 37.2573 62.5478 37.1511C62.6353 37.0459 62.7072 36.9292 62.7614 36.8021C62.8155 36.6761 62.8509 36.5438 62.8676 36.4063C62.8843 36.2698 62.8801 36.1334 62.8572 35.9969L62.2291 31.5698C62.528 31.3917 62.8186 31.2011 63.102 31C63.3853 30.7979 63.6603 30.5844 63.927 30.3604C64.1926 30.1365 64.4489 29.9021 64.6968 29.6573C64.9436 29.4115 65.1801 29.1573 65.4062 28.8927C65.6332 28.6292 65.8478 28.3552 66.053 28.074C66.2572 27.7927 66.4489 27.5031 66.6301 27.2052C66.8103 26.9084 66.9791 26.6042 67.1353 26.2927C67.2916 25.9813 67.4343 25.6646 67.5645 25.3427C67.6947 25.0198 67.8114 24.6917 67.9155 24.3604C68.0197 24.0281 68.1093 23.6917 68.1853 23.3521C68.2624 23.0136 68.3249 22.6709 68.3728 22.3261C68.4218 21.9823 68.4562 21.6365 68.477 21.2886C68.4978 20.9417 68.5041 20.5938 68.4968 20.2459C68.4884 19.8979 68.4666 19.5511 68.4311 19.2042C68.3957 18.8584 68.3457 18.5146 68.2822 18.1719C68.2176 17.8302 68.1405 17.4917 68.0489 17.1552C67.9582 16.8198 67.853 16.4886 67.7343 16.1615C67.6166 15.8334 67.4853 15.5115 67.3405 15.1948C67.1968 14.8781 67.0395 14.5688 66.8697 14.2646C66.6999 13.9604 66.5187 13.6646 66.3249 13.375C66.1311 13.0854 65.9259 12.8052 65.7103 12.5323C65.4936 12.2604 65.2666 11.9969 65.0291 11.7427C64.7905 11.4886 64.5426 11.2448 64.2853 11.0115C64.028 10.7771 63.7614 10.5542 63.4853 10.3417C63.2093 10.1302 62.9259 9.92918 62.6332 9.7396C62.3416 9.55106 62.0426 9.37398 61.7364 9.20939C61.4291 9.04377 61.1166 8.89169 60.7978 8.7521C60.4791 8.61252 60.1551 8.48648 59.827 8.37293C59.4978 8.26043 59.1645 8.16043 58.827 8.07502C58.4905 7.98856 58.1499 7.91564 57.8072 7.85731C57.4645 7.79898 57.1197 7.75418 56.7728 7.72398C56.4259 7.69377 56.0791 7.6771 55.7312 7.67502ZM44.7489 27.499C44.5926 27.5354 44.4457 27.5927 44.3062 27.6709L39.0072 30.7125L39.3645 28.1844C39.3791 28.0396 39.3718 27.8948 39.3416 27.7511C39.3114 27.6084 39.2614 27.4719 39.1895 27.3448C39.1176 27.2167 39.0291 27.1031 38.9228 27.0021C38.8155 26.9021 38.6968 26.8198 38.5645 26.7563C38.3884 26.6719 38.2145 26.5813 38.0426 26.4865C37.8718 26.3906 37.703 26.2906 37.5374 26.1854C37.3718 26.0802 37.2093 25.9698 37.0509 25.8552C36.8916 25.7406 36.7364 25.6209 36.5843 25.4969C36.4322 25.374 36.2843 25.2448 36.1395 25.1125C35.9947 24.9802 35.8551 24.8438 35.7187 24.7021C35.5822 24.5615 35.4499 24.4167 35.3218 24.2677C35.1937 24.1198 35.0707 23.9667 34.952 23.8115C34.8332 23.6552 34.7187 23.4959 34.6093 23.3334C34.4999 23.1709 34.3947 23.0052 34.2947 22.8365C34.1957 22.6677 34.1009 22.4959 34.0114 22.3219C33.9207 22.1469 33.8364 21.9698 33.7572 21.7906C33.678 21.6115 33.6041 21.4302 33.5353 21.2459C33.4666 21.0625 33.4041 20.8771 33.3457 20.6896C33.2884 20.5021 33.2364 20.3136 33.1895 20.1229C33.1426 19.9323 33.102 19.7406 33.0666 19.5479C33.0312 19.3552 33.002 19.1615 32.978 18.9667C32.9541 18.7719 32.9364 18.5771 32.9239 18.3813C32.9114 18.1854 32.9041 17.9896 32.9041 17.7927C32.903 17.5969 32.9072 17.4011 32.9187 17.2052C32.9291 17.0094 32.9457 16.8146 32.9676 16.6198C32.9895 16.425 33.0176 16.2302 33.0509 16.0375C33.0843 15.8438 33.1239 15.6521 33.1687 15.4615C33.2134 15.2698 33.2634 15.0813 33.3197 14.8927C33.3759 14.7052 33.4374 14.5188 33.5041 14.3344C33.5707 14.15 33.6437 13.9677 33.7207 13.7875C33.7989 13.6084 33.8812 13.4302 33.9697 13.2552C34.0582 13.0802 34.1509 12.9073 34.2489 12.7375C34.3478 12.5677 34.4509 12.4011 34.5593 12.2375C34.6666 12.074 34.7801 11.9136 34.8968 11.7573C35.0145 11.6 35.1364 11.4469 35.2634 11.2969C35.3895 11.1469 35.5207 11.0011 35.6551 10.8584C35.7905 10.7167 35.9301 10.5781 36.0728 10.4448C36.2166 10.3104 36.3634 10.1813 36.5145 10.0563C36.6655 9.93023 36.8197 9.81043 36.977 9.69377C37.1353 9.5771 37.2968 9.46564 37.4614 9.35939C37.6259 9.25314 37.7937 9.15106 37.9634 9.05418C38.1343 8.95731 38.3072 8.86564 38.4832 8.77918C38.6593 8.69273 38.8374 8.61043 39.0187 8.53439C39.1989 8.45835 39.3812 8.38752 39.5666 8.32189C39.7509 8.25731 39.9374 8.19689 40.1259 8.14273C40.3145 8.08856 40.5041 8.0396 40.6957 7.99585C40.8874 7.95314 41.0791 7.91564 41.2728 7.88335C41.4666 7.85106 41.6603 7.82502 41.8551 7.80523C42.0509 7.78439 42.2457 7.76981 42.4416 7.76043C42.6374 7.75106 42.8332 7.74794 43.0301 7.75106C43.2259 7.75314 43.4218 7.76148 43.6176 7.77606C43.8124 7.7896 44.0082 7.80939 44.202 7.83543C44.3968 7.86043 44.5905 7.89168 44.7822 7.92918C44.9749 7.96564 45.1666 8.00835 45.3562 8.05627C45.5468 8.10418 45.7353 8.15835 45.9218 8.21773C46.1093 8.2771 46.2937 8.34168 46.477 8.41148C46.6603 8.48231 46.8405 8.55731 47.0197 8.63856C47.1989 8.71877 47.3749 8.80523 47.5478 8.89585C47.7218 8.98752 47.8926 9.08335 48.0603 9.18439C48.228 9.28648 48.3937 9.39168 48.5551 9.50314C48.7166 9.61356 48.8749 9.72918 49.0301 9.85002C49.1843 9.96981 49.3364 10.0948 49.4832 10.224C49.6312 10.3531 49.7749 10.4865 49.9145 10.624C50.0541 10.7615 50.1895 10.9031 50.3207 11.049C50.452 11.1938 50.5791 11.3438 50.702 11.4969C50.8249 11.649 50.9426 11.8063 51.0562 11.9656C51.1697 12.1261 51.278 12.2896 51.3822 12.4552C51.4853 12.6219 51.5843 12.7906 51.678 12.9636C51.7718 13.1354 51.8603 13.3104 51.9447 13.4875C52.028 13.6646 52.1062 13.8448 52.1791 14.0271C52.252 14.2084 52.3197 14.3927 52.3822 14.5792C52.4437 14.7646 52.5009 14.9521 52.552 15.1417C52.603 15.3313 52.6478 15.5219 52.6884 15.7136C52.728 15.9063 52.7624 16.099 52.7905 16.2927C52.8197 16.4865 52.8426 16.6813 52.8593 16.8771C52.8759 17.0719 52.8874 17.2677 52.8937 17.4636C52.8989 17.6594 52.8989 17.8563 52.8926 18.0521C52.8864 18.2479 52.8749 18.4438 52.8572 18.6386C52.8395 18.8344 52.8166 19.0292 52.7874 19.2229C52.7593 19.4167 52.7239 19.6094 52.6843 19.8011C52.6437 19.9938 52.5978 20.1844 52.5468 20.3729C52.4947 20.5625 52.4374 20.75 52.3749 20.9354C52.3124 21.1219 52.2447 21.3052 52.1718 21.4875C52.0978 21.6698 52.0197 21.849 51.9353 22.0261C51.852 22.2031 51.7624 22.3781 51.6687 22.55C51.5749 22.7219 51.4749 22.8906 51.3707 23.0573C51.2666 23.2229 51.1582 23.3865 51.0447 23.5459C50.9312 23.7063 50.8124 23.8625 50.6895 24.0146C50.5666 24.1677 50.4395 24.3167 50.3072 24.4625C50.1759 24.6073 50.0405 24.749 49.8999 24.8854C49.7603 25.0229 49.6166 25.1563 49.4687 25.2854C49.3207 25.4136 49.1687 25.5386 49.0134 25.6584C48.8582 25.7781 48.6999 25.8938 48.5384 26.0042C48.3759 26.1146 48.2114 26.2209 48.0437 26.3209C47.8749 26.4219 47.7041 26.5177 47.5301 26.6084C47.3562 26.7 47.1801 26.7854 47.0009 26.8656C46.8228 26.9459 46.6416 27.0209 46.4582 27.0906C46.2749 27.1604 46.0895 27.225 45.903 27.2844C45.7155 27.3427 45.527 27.3959 45.3374 27.4438C45.1468 27.4917 44.9551 27.5344 44.7624 27.5709L44.7489 27.499ZM60.0155 29.5417C59.8832 29.6052 59.7645 29.6875 59.6572 29.7875C59.5509 29.8875 59.4624 30.0021 59.3905 30.1302C59.3187 30.2573 59.2687 30.3927 59.2384 30.5365C59.2082 30.6792 59.2009 30.824 59.2155 30.9698L59.5728 33.4979L54.303 30.5271C54.1624 30.4531 54.0155 30.4011 53.8603 30.3698C52.352 30.0709 50.9864 29.4573 49.7614 28.5271C50.1176 28.3011 50.4614 28.0584 50.7937 27.7979C51.1259 27.5375 51.4437 27.2615 51.7489 26.9698C52.0541 26.6781 52.3437 26.3719 52.6187 26.0521C52.8937 25.7323 53.152 25.399 53.3937 25.0531C53.6353 24.7084 53.8603 24.3511 54.0676 23.9834C54.2739 23.6156 54.4624 23.2386 54.6322 22.8531C54.802 22.4667 54.952 22.0729 55.0832 21.6719C55.2145 21.2709 55.3259 20.8646 55.4166 20.4521C55.5072 20.0396 55.578 19.625 55.628 19.2052C55.678 18.7865 55.7072 18.3667 55.7166 17.9448C55.7249 17.5229 55.7134 17.1011 55.6801 16.6802C55.6478 16.2604 55.5937 15.8417 55.5197 15.4271C55.4457 15.0115 55.352 14.6 55.2374 14.1948C55.1228 13.7886 54.9895 13.3886 54.8353 12.9959C54.6812 12.6031 54.5093 12.2188 54.3176 11.8427C54.1259 11.4667 53.9166 11.1011 53.6884 10.7459C54.3614 10.6021 55.0426 10.5302 55.7312 10.5313C56.0114 10.5323 56.2905 10.5459 56.5697 10.5709C56.8489 10.5948 57.127 10.6313 57.403 10.6792C57.6791 10.7281 57.952 10.7875 58.2239 10.8584C58.4947 10.9292 58.7624 11.0115 59.0259 11.1052C59.2905 11.199 59.5499 11.3031 59.8051 11.4188C60.0614 11.5344 60.3114 11.6604 60.5562 11.7969C60.8009 11.9334 61.0395 12.0802 61.2718 12.2365C61.5041 12.3927 61.7291 12.5594 61.9478 12.7344C62.1666 12.9104 62.377 13.0948 62.5801 13.2875C62.7832 13.4813 62.978 13.6823 63.1634 13.8917C63.3499 14.1011 63.527 14.3188 63.6947 14.5427C63.8624 14.7677 64.0207 14.999 64.1687 15.2365C64.3166 15.474 64.4551 15.7177 64.5832 15.9667C64.7114 16.2167 64.828 16.4709 64.9343 16.7302C65.0416 16.9896 65.1364 17.2521 65.2207 17.5198C65.3051 17.7875 65.378 18.0573 65.4395 18.3313C65.5009 18.6042 65.5509 18.8802 65.5895 19.1573C65.628 19.4354 65.6551 19.7136 65.6697 19.9938C65.6853 20.274 65.6884 20.5531 65.6801 20.8334C65.6718 21.1136 65.6509 21.3927 65.6186 21.6719C65.5874 21.95 65.5437 22.2261 65.4884 22.5011C65.4332 22.7761 65.3655 23.0479 65.2874 23.3167C65.2093 23.5865 65.1207 23.8521 65.0197 24.1136C64.9197 24.375 64.8082 24.6323 64.6864 24.8844C64.5645 25.1365 64.4322 25.3834 64.2884 25.624C64.1457 25.8656 63.9936 26.1 63.8312 26.3281C63.6687 26.5563 63.4968 26.7781 63.3155 26.9917C63.1343 27.2052 62.9447 27.4115 62.7457 27.6094C62.5478 27.8073 62.3405 27.9959 62.127 28.1771C61.9124 28.3573 61.6905 28.5281 61.4624 28.6906C61.2332 28.8521 60.9978 29.0042 60.7562 29.1469C60.5145 29.2886 60.2676 29.4198 60.0155 29.5417Z" fill="white"/>
<path d="M40.0218 17.6729C40.0218 17.7666 40.0124 17.8593 39.9937 17.951C39.9759 18.0437 39.9489 18.1323 39.9124 18.2198C39.877 18.3062 39.8332 18.3885 39.7812 18.4666C39.7291 18.5437 39.6697 18.6166 39.603 18.6823C39.5374 18.7489 39.4645 18.8083 39.3864 18.8604C39.3093 18.9125 39.227 18.9562 39.1395 18.9927C39.053 19.0281 38.9645 19.0552 38.8718 19.0739C38.7801 19.0916 38.6874 19.101 38.5937 19.101C38.4999 19.101 38.4072 19.0916 38.3145 19.0739C38.2228 19.0552 38.1332 19.0281 38.0468 18.9927C37.9603 18.9562 37.878 18.9125 37.7999 18.8604C37.7218 18.8083 37.6499 18.7489 37.5832 18.6823C37.5176 18.6166 37.4582 18.5437 37.4062 18.4666C37.3541 18.3885 37.3103 18.3062 37.2739 18.2198C37.2384 18.1323 37.2114 18.0437 37.1926 17.951C37.1749 17.8593 37.1655 17.7666 37.1655 17.6729C37.1655 17.5791 37.1749 17.4864 37.1926 17.3937C37.2114 17.302 37.2384 17.2125 37.2739 17.126C37.3103 17.0395 37.3541 16.9573 37.4062 16.8791C37.4582 16.801 37.5176 16.7291 37.5832 16.6625C37.6499 16.5968 37.7218 16.5375 37.7999 16.4854C37.878 16.4333 37.9603 16.3895 38.0468 16.3531C38.1332 16.3177 38.2228 16.2906 38.3145 16.2718C38.4072 16.2531 38.4999 16.2448 38.5937 16.2448C38.6874 16.2448 38.7801 16.2531 38.8718 16.2718C38.9645 16.2906 39.053 16.3177 39.1395 16.3531C39.227 16.3895 39.3093 16.4333 39.3864 16.4854C39.4645 16.5375 39.5374 16.5968 39.603 16.6625C39.6697 16.7291 39.7291 16.801 39.7812 16.8791C39.8332 16.9573 39.877 17.0395 39.9124 17.126C39.9489 17.2125 39.9759 17.302 39.9937 17.3937C40.0124 17.4864 40.0218 17.5791 40.0218 17.6729Z" fill="white"/>
<path d="M44.3064 17.6729C44.3064 17.7666 44.2971 17.8593 44.2783 17.951C44.2606 18.0437 44.2335 18.1323 44.1971 18.2198C44.1617 18.3062 44.1179 18.3885 44.0658 18.4666C44.0137 18.5437 43.9544 18.6166 43.8877 18.6823C43.8221 18.7489 43.7492 18.8083 43.671 18.8604C43.5939 18.9125 43.5117 18.9562 43.4242 18.9927C43.3377 19.0281 43.2492 19.0552 43.1564 19.0739C43.0648 19.0916 42.9721 19.101 42.8783 19.101C42.7846 19.101 42.6919 19.0916 42.5992 19.0739C42.5075 19.0552 42.4179 19.0281 42.3314 18.9927C42.245 18.9562 42.1627 18.9125 42.0846 18.8604C42.0064 18.8083 41.9346 18.7489 41.8679 18.6823C41.8023 18.6166 41.7429 18.5437 41.6908 18.4666C41.6387 18.3885 41.595 18.3062 41.5585 18.2198C41.5231 18.1323 41.496 18.0437 41.4773 17.951C41.4596 17.8593 41.4502 17.7666 41.4502 17.6729C41.4502 17.5791 41.4596 17.4864 41.4773 17.3937C41.496 17.302 41.5231 17.2125 41.5585 17.126C41.595 17.0395 41.6387 16.9573 41.6908 16.8791C41.7429 16.801 41.8023 16.7291 41.8679 16.6625C41.9346 16.5968 42.0064 16.5375 42.0846 16.4854C42.1627 16.4333 42.245 16.3895 42.3314 16.3531C42.4179 16.3177 42.5075 16.2906 42.5992 16.2718C42.6919 16.2531 42.7846 16.2448 42.8783 16.2448C42.9721 16.2448 43.0648 16.2531 43.1564 16.2718C43.2492 16.2906 43.3377 16.3177 43.4242 16.3531C43.5117 16.3895 43.5939 16.4333 43.671 16.4854C43.7492 16.5375 43.8221 16.5968 43.8877 16.6625C43.9544 16.7291 44.0137 16.801 44.0658 16.8791C44.1179 16.9573 44.1617 17.0395 44.1971 17.126C44.2335 17.2125 44.2606 17.302 44.2783 17.3937C44.2971 17.4864 44.3064 17.5791 44.3064 17.6729Z" fill="white"/>
<path d="M48.5906 17.6729C48.5906 17.7666 48.5813 17.8593 48.5625 17.951C48.5448 18.0437 48.5177 18.1323 48.4813 18.2198C48.4458 18.3062 48.4021 18.3885 48.35 18.4666C48.2979 18.5437 48.2385 18.6166 48.1719 18.6823C48.1063 18.7489 48.0333 18.8083 47.9552 18.8604C47.8781 18.9125 47.7958 18.9562 47.7083 18.9927C47.6219 19.0281 47.5333 19.0552 47.4406 19.0739C47.349 19.0916 47.2563 19.101 47.1625 19.101C47.0687 19.101 46.976 19.0916 46.8833 19.0739C46.7917 19.0552 46.7021 19.0281 46.6156 18.9927C46.5292 18.9562 46.4469 18.9125 46.3688 18.8604C46.2906 18.8083 46.2188 18.7489 46.1521 18.6823C46.0865 18.6166 46.0271 18.5437 45.975 18.4666C45.9229 18.3885 45.8792 18.3062 45.8427 18.2198C45.8073 18.1323 45.7802 18.0437 45.7615 17.951C45.7437 17.8593 45.7344 17.7666 45.7344 17.6729C45.7344 17.5791 45.7437 17.4864 45.7615 17.3937C45.7802 17.302 45.8073 17.2125 45.8427 17.126C45.8792 17.0395 45.9229 16.9573 45.975 16.8791C46.0271 16.801 46.0865 16.7291 46.1521 16.6625C46.2188 16.5968 46.2906 16.5375 46.3688 16.4854C46.4469 16.4333 46.5292 16.3895 46.6156 16.3531C46.7021 16.3177 46.7917 16.2906 46.8833 16.2718C46.976 16.2531 47.0687 16.2448 47.1625 16.2448C47.2563 16.2448 47.349 16.2531 47.4406 16.2718C47.5333 16.2906 47.6219 16.3177 47.7083 16.3531C47.7958 16.3895 47.8781 16.4333 47.9552 16.4854C48.0333 16.5375 48.1063 16.5968 48.1719 16.6625C48.2385 16.7291 48.2979 16.801 48.35 16.8791C48.4021 16.9573 48.4458 17.0395 48.4813 17.126C48.5177 17.2125 48.5448 17.302 48.5625 17.3937C48.5813 17.4864 48.5906 17.5791 48.5906 17.6729Z" fill="white"/>
</g>
<defs>
<clipPath id="clip0_481_985">
<rect width="100" height="100" fill="white"/>
</clipPath>
</defs>
</svg>
