<svg width="100" height="100" viewBox="0 0 100 100" fill="none" xmlns="http://www.w3.org/2000/svg">
<g clip-path="url(#clip0_481_694)">
<mask id="mask0_481_694" style="mask-type:luminance" maskUnits="userSpaceOnUse" x="3" y="37" width="94" height="10">
<path d="M3.24268 37.3334H96.8427V46.9334H3.24268V37.3334Z" fill="white"/>
</mask>
<g mask="url(#mask0_481_694)">
<path d="M95.2425 46.8855H4.84349C3.98307 46.8855 3.28516 46.1876 3.28516 45.3282V39.099C3.28516 38.2397 3.98307 37.5417 4.84349 37.5417H95.2425C96.1029 37.5417 96.8008 38.2397 96.8008 39.099V45.3282C96.8008 46.1876 96.1029 46.8855 95.2425 46.8855ZM6.40182 43.7709H93.6841V40.6563H6.40182V43.7709Z" fill="white"/>
</g>
<path d="M32.8987 62.4563H7.96019C7.10081 62.4563 6.40186 61.7584 6.40186 60.899V45.3282C6.40186 44.4688 7.10081 43.7709 7.96019 43.7709H32.8987C33.7581 43.7709 34.4571 44.4688 34.4571 45.3282V60.899C34.4571 61.7584 33.7581 62.4563 32.8987 62.4563ZM9.51956 59.3417H31.3394V46.8855H9.51956V59.3417Z" fill="white"/>
<path d="M25.1052 53.1135H15.7542C14.8938 53.1135 14.1948 52.4156 14.1948 51.5562C14.1948 50.6968 14.8938 49.9989 15.7542 49.9989H25.1052C25.9657 49.9989 26.6646 50.6968 26.6646 51.5562C26.6646 52.4156 25.9657 53.1135 25.1052 53.1135Z" fill="white"/>
<path d="M20.43 56.2281C19.5696 56.2281 18.8706 55.5302 18.8706 54.6708V51.5562C18.8706 50.6968 19.5696 49.9989 20.43 49.9989C21.2894 49.9989 21.9883 50.6968 21.9883 51.5562V54.6708C21.9883 55.5302 21.2894 56.2281 20.43 56.2281Z" fill="white"/>
<path d="M32.8987 78.0281H7.96019C7.10081 78.0281 6.40186 77.3302 6.40186 76.4708V60.899C6.40186 60.0396 7.10081 59.3417 7.96019 59.3417H32.8987C33.7581 59.3417 34.4571 60.0396 34.4571 60.899V76.4708C34.4571 77.3302 33.7581 78.0281 32.8987 78.0281ZM9.51956 74.9136H31.3394V62.4563H9.51956V74.9136Z" fill="white"/>
<path d="M25.1052 68.6854H15.7542C14.8938 68.6854 14.1948 67.9875 14.1948 67.1281C14.1948 66.2687 14.8938 65.5708 15.7542 65.5708H25.1052C25.9657 65.5708 26.6646 66.2687 26.6646 67.1281C26.6646 67.9875 25.9657 68.6854 25.1052 68.6854Z" fill="white"/>
<path d="M20.43 71.7989C19.5696 71.7989 18.8706 71.1021 18.8706 70.2416V67.1281C18.8706 66.2687 19.5696 65.5708 20.43 65.5708C21.2894 65.5708 21.9883 66.2687 21.9883 67.1281V70.2416C21.9883 71.1021 21.2894 71.7989 20.43 71.7989Z" fill="white"/>
<mask id="mask1_481_694" style="mask-type:luminance" maskUnits="userSpaceOnUse" x="6" y="74" width="29" height="20">
<path d="M6.3999 74.6666H34.6666V93.5989H6.3999V74.6666Z" fill="white"/>
</mask>
<g mask="url(#mask1_481_694)">
<path d="M32.8987 93.5989H7.96019C7.10081 93.5989 6.40186 92.902 6.40186 92.0416V76.4707C6.40186 75.6114 7.10081 74.9135 7.96019 74.9135H32.8987C33.7581 74.9135 34.4571 75.6114 34.4571 76.4707V92.0416C34.4571 92.902 33.7581 93.5989 32.8987 93.5989ZM9.51956 90.4853H31.3394V78.028H9.51956V90.4853Z" fill="white"/>
</g>
<path d="M25.1052 84.2563H15.7542C14.8938 84.2563 14.1948 83.5584 14.1948 82.699C14.1948 81.8396 14.8938 81.1417 15.7542 81.1417H25.1052C25.9657 81.1417 26.6646 81.8396 26.6646 82.699C26.6646 83.5584 25.9657 84.2563 25.1052 84.2563Z" fill="white"/>
<path d="M20.43 87.3709C19.5696 87.3709 18.8706 86.673 18.8706 85.8136V82.699C18.8706 81.8396 19.5696 81.1417 20.43 81.1417C21.2894 81.1417 21.9883 81.8396 21.9883 82.699V85.8136C21.9883 86.673 21.2894 87.3709 20.43 87.3709Z" fill="white"/>
<path d="M92.1252 62.4563H67.1877C66.3273 62.4563 65.6294 61.7584 65.6294 60.899V45.3282C65.6294 44.4688 66.3273 43.7709 67.1877 43.7709H92.1252C92.9856 43.7709 93.6846 44.4688 93.6846 45.3282V60.899C93.6846 61.7584 92.9856 62.4563 92.1252 62.4563ZM68.7461 59.3417H90.5669V46.8855H68.7461V59.3417Z" fill="white"/>
<path d="M84.3323 53.1135H74.9802C74.1208 53.1135 73.4219 52.4156 73.4219 51.5562C73.4219 50.6968 74.1208 49.9989 74.9802 49.9989H84.3323C85.1927 49.9989 85.8906 50.6968 85.8906 51.5562C85.8906 52.4156 85.1927 53.1135 84.3323 53.1135Z" fill="white"/>
<path d="M79.6565 56.2281C78.7961 56.2281 78.0981 55.5302 78.0981 54.6708V51.5562C78.0981 50.6968 78.7961 49.9989 79.6565 49.9989C80.5169 49.9989 81.2148 50.6968 81.2148 51.5562V54.6708C81.2148 55.5302 80.5169 56.2281 79.6565 56.2281Z" fill="white"/>
<path d="M54.7185 53.1135H45.3675C44.5071 53.1135 43.8081 52.4156 43.8081 51.5562C43.8081 50.6968 44.5071 49.9989 45.3675 49.9989H54.7185C55.5789 49.9989 56.2769 50.6968 56.2769 51.5562C56.2769 52.4156 55.5789 53.1135 54.7185 53.1135Z" fill="white"/>
<path d="M50.0427 56.2281C49.1823 56.2281 48.4844 55.5302 48.4844 54.6708V51.5562C48.4844 50.6968 49.1823 49.9989 50.0427 49.9989C50.9031 49.9989 51.6021 50.6968 51.6021 51.5562V54.6708C51.6021 55.5302 50.9031 56.2281 50.0427 56.2281Z" fill="white"/>
<path d="M92.1252 78.0281H67.1877C66.3273 78.0281 65.6294 77.3302 65.6294 76.4708V60.899C65.6294 60.0396 66.3273 59.3417 67.1877 59.3417H92.1252C92.9856 59.3417 93.6846 60.0396 93.6846 60.899V76.4708C93.6846 77.3302 92.9856 78.0281 92.1252 78.0281ZM68.7461 74.9136H90.5669V62.4563H68.7461V74.9136Z" fill="white"/>
<path d="M84.3323 68.6854H74.9802C74.1208 68.6854 73.4219 67.9875 73.4219 67.1281C73.4219 66.2687 74.1208 65.5708 74.9802 65.5708H84.3323C85.1927 65.5708 85.8906 66.2687 85.8906 67.1281C85.8906 67.9875 85.1927 68.6854 84.3323 68.6854Z" fill="white"/>
<path d="M79.6565 71.7989C78.7961 71.7989 78.0981 71.1021 78.0981 70.2416V67.1281C78.0981 66.2687 78.7961 65.5708 79.6565 65.5708C80.5169 65.5708 81.2148 66.2687 81.2148 67.1281V70.2416C81.2148 71.1021 80.5169 71.7989 79.6565 71.7989Z" fill="white"/>
<mask id="mask2_481_694" style="mask-type:luminance" maskUnits="userSpaceOnUse" x="65" y="74" width="29" height="20">
<path d="M65.6001 74.6666H93.8668V93.5989H65.6001V74.6666Z" fill="white"/>
</mask>
<g mask="url(#mask2_481_694)">
<path d="M92.1252 93.5989H67.1877C66.3273 93.5989 65.6294 92.902 65.6294 92.0416V76.4707C65.6294 75.6114 66.3273 74.9135 67.1877 74.9135H92.1252C92.9856 74.9135 93.6846 75.6114 93.6846 76.4707V92.0416C93.6846 92.902 92.9856 93.5989 92.1252 93.5989ZM68.7461 90.4853H90.5669V78.028H68.7461V90.4853Z" fill="white"/>
</g>
<path d="M84.3323 84.2563H74.9802C74.1208 84.2563 73.4219 83.5584 73.4219 82.699C73.4219 81.8396 74.1208 81.1417 74.9802 81.1417H84.3323C85.1927 81.1417 85.8906 81.8396 85.8906 82.699C85.8906 83.5584 85.1927 84.2563 84.3323 84.2563Z" fill="white"/>
<path d="M79.6565 87.3709C78.7961 87.3709 78.0981 86.673 78.0981 85.8136V82.699C78.0981 81.8396 78.7961 81.1417 79.6565 81.1417C80.5169 81.1417 81.2148 81.8396 81.2148 82.699V85.8136C81.2148 86.673 80.5169 87.3709 79.6565 87.3709Z" fill="white"/>
<path d="M67.1873 62.4563H32.8987C32.0383 62.4563 31.3394 61.7584 31.3394 60.899V45.3282C31.3394 44.4688 32.0383 43.7709 32.8987 43.7709H67.1873C68.0477 43.7709 68.7456 44.4688 68.7456 45.3282V60.899C68.7456 61.7584 68.0477 62.4563 67.1873 62.4563ZM34.4571 59.3417H65.6289V46.8855H34.4571V59.3417Z" fill="white"/>
<path d="M56.2771 40.6563H43.8083C41.2312 40.6563 39.1333 38.5605 39.1333 35.9855C39.1333 33.4094 41.2312 31.3136 43.8083 31.3136H56.2771C58.8552 31.3136 60.9531 33.4094 60.9531 35.9855C60.9531 38.5605 58.8552 40.6563 56.2771 40.6563ZM43.8083 34.4282C42.9479 34.4282 42.25 35.1271 42.25 35.9855C42.25 36.8428 42.9479 37.5417 43.8083 37.5417H56.2771C57.1375 37.5417 57.8364 36.8428 57.8364 35.9855C57.8364 35.1271 57.1375 34.4282 56.2771 34.4282H43.8083Z" fill="white"/>
<path d="M50.0427 34.4282C49.1823 34.4282 48.4844 33.7302 48.4844 32.8709V26.6417C48.4844 25.7823 49.1823 25.0854 50.0427 25.0854C50.9031 25.0854 51.6021 25.7823 51.6021 26.6417V32.8709C51.6021 33.7302 50.9031 34.4282 50.0427 34.4282Z" fill="white"/>
<mask id="mask3_481_694" style="mask-type:luminance" maskUnits="userSpaceOnUse" x="32" y="6" width="36" height="23">
<path d="M32.7998 6.39893H67.1998V28.2666H32.7998V6.39893Z" fill="white"/>
</mask>
<g mask="url(#mask3_481_694)">
<path d="M65.6291 28.1989H34.4573C33.5968 28.1989 32.8989 27.502 32.8989 26.6416V7.95622C32.8989 7.09684 33.5968 6.39893 34.4573 6.39893H65.6291C66.4896 6.39893 67.1875 7.09684 67.1875 7.95622V26.6416C67.1875 27.502 66.4896 28.1989 65.6291 28.1989ZM36.0156 25.0854H64.0708V9.51351H36.0156V25.0854Z" fill="white"/>
</g>
<path d="M85.8904 40.6563H76.5394C75.6789 40.6563 74.98 39.9584 74.98 39.099V26.6417C74.98 25.7823 75.6789 25.0854 76.5394 25.0854H85.8904C86.7508 25.0854 87.4498 25.7823 87.4498 26.6417V39.099C87.4498 39.9584 86.7508 40.6563 85.8904 40.6563ZM78.0977 37.5417H84.3321V28.199H78.0977V37.5417Z" fill="white"/>
<path d="M21.9885 40.6563H12.6365C11.776 40.6563 11.0781 39.9584 11.0781 39.099V26.6417C11.0781 25.7823 11.776 25.0854 12.6365 25.0854H21.9885C22.849 25.0854 23.5469 25.7823 23.5469 26.6417V39.099C23.5469 39.9584 22.849 40.6563 21.9885 40.6563ZM14.1948 37.5417H20.4302V28.199H14.1948V37.5417Z" fill="white"/>
<path d="M89.0086 34.4282H85.8909C85.0304 34.4282 84.3325 33.7302 84.3325 32.8709V26.6417C84.3325 25.7823 85.0304 25.0854 85.8909 25.0854H89.0086C91.5867 25.0854 93.6846 27.1813 93.6846 29.7563C93.6846 32.3323 91.5867 34.4282 89.0086 34.4282ZM87.4502 31.3136H89.0086C89.869 31.3136 90.5669 30.6146 90.5669 29.7563C90.5669 28.8979 89.869 28.199 89.0086 28.199H87.4502V31.3136Z" fill="white"/>
<path d="M17.3127 28.199C16.4523 28.199 15.7544 27.5021 15.7544 26.6417V15.7417C15.7544 14.8823 16.4523 14.1854 17.3127 14.1854C18.1731 14.1854 18.8711 14.8823 18.8711 15.7417V26.6417C18.8711 27.5021 18.1731 28.199 17.3127 28.199Z" fill="white"/>
<path d="M18.8699 28.199C18.6355 28.199 18.397 28.1458 18.173 28.0354C17.4032 27.651 17.0918 26.7156 17.4762 25.9458L22.1522 16.6031C22.5366 15.8323 23.4741 15.5208 24.2439 15.9073C25.0137 16.2917 25.3251 17.2271 24.9407 17.9969L20.2647 27.3396C19.9918 27.8844 19.4418 28.199 18.8699 28.199Z" fill="white"/>
<path d="M15.755 28.199C15.1831 28.199 14.6331 27.8844 14.3602 27.3386L9.68417 17.9949C9.2998 17.2261 9.61126 16.2917 10.381 15.9053C11.1498 15.5178 12.0863 15.8324 12.4727 16.6021L17.1488 25.9449C17.5331 26.7136 17.2217 27.6501 16.4519 28.0344C16.2279 28.1459 15.9894 28.199 15.755 28.199Z" fill="white"/>
<path d="M65.6291 28.1989H34.4573C33.5968 28.1989 32.8989 27.502 32.8989 26.6416V20.4135C32.8989 19.5541 33.5968 18.8562 34.4573 18.8562H65.6291C66.4896 18.8562 67.1875 19.5541 67.1875 20.4135V26.6416C67.1875 27.502 66.4896 28.1989 65.6291 28.1989ZM36.0156 25.0854H64.0708V21.9708H36.0156V25.0854Z" fill="white"/>
</g>
<defs>
<clipPath id="clip0_481_694">
<rect width="100" height="100" fill="white"/>
</clipPath>
</defs>
</svg>
