<svg width="100" height="100" viewBox="0 0 100 100" fill="none" xmlns="http://www.w3.org/2000/svg">
<g clip-path="url(#clip0_481_1007)">
<mask id="mask0_481_1007" style="mask-type:luminance" maskUnits="userSpaceOnUse" x="2" y="12" width="96" height="76">
<path d="M2.71777 12H97.3178V87.9969H2.71777V12Z" fill="white"/>
</mask>
<g mask="url(#mask0_481_1007)">
<path d="M90.7553 55.7344V52.0854H94.2813C94.6667 52.0854 94.9938 52.4104 94.9938 52.7969V55.0229C94.9938 55.4083 94.6667 55.7344 94.2813 55.7344H90.7553ZM87.0334 63.4531H53.6615C52.8761 63.4531 52.2365 62.8135 52.2365 62.0281C52.2365 61.2427 52.8761 60.6042 53.6615 60.6042H87.0334C87.8199 60.6042 88.4594 61.2427 88.4594 62.0281C88.4594 62.8135 87.8199 63.4531 87.0334 63.4531ZM74.1459 75.6688H70.5261V65.7479H74.1459V75.6688ZM60.0824 56.4406V34.9927C60.0824 27.8906 66.448 22.1125 74.273 22.1125C82.0949 22.1125 88.4594 27.8906 88.4594 34.9927V56.4406C88.4594 57.4531 87.7334 58.3083 86.874 58.3083H61.6709C60.8094 58.3083 60.0824 57.4531 60.0824 56.4406ZM57.7865 34.9927V42.3094H23.5907C22.4063 42.3094 21.4428 41.1167 21.4428 39.6521V16.9521C21.4428 15.4865 22.4063 14.2948 23.5907 14.2948H66.0803C67.2657 14.2948 68.2282 15.4865 68.2282 16.9521V20.8781C62.1199 23.1031 57.7865 28.5885 57.7865 34.9927ZM31.873 52.0854H57.7865V55.7344H31.873V52.0854ZM47.999 44.6052H57.7865V49.7896H47.999V44.6052ZM43.9699 44.6052H45.7032V49.7896H43.9699V44.6052ZM85.7896 81.3198C85.7896 81.8812 85.3313 82.3385 84.7709 82.3385C84.2094 82.3385 83.7522 81.8812 83.7522 81.3198C83.7522 80.7583 84.2094 80.3021 84.7709 80.3021C85.3313 80.3021 85.7896 80.7583 85.7896 81.3198ZM72.3344 85.7063C71.7719 85.7063 71.3157 85.25 71.3157 84.6885C71.3157 84.126 71.7719 83.6688 72.3344 83.6688C72.8969 83.6688 73.3542 84.126 73.3542 84.6885C73.3542 85.25 72.8969 85.7063 72.3344 85.7063ZM59.4386 82.3385C58.8761 82.3385 58.4188 81.8812 58.4188 81.3198C58.4188 80.7583 58.8761 80.3021 59.4386 80.3021C60.0011 80.3021 60.4584 80.7583 60.4584 81.3198C60.4584 81.8812 60.0011 82.3385 59.4386 82.3385ZM29.5772 55.7344H5.75632C5.36986 55.7344 5.04486 55.4083 5.04486 55.0229V52.7969C5.04486 52.4104 5.36986 52.0854 5.75632 52.0854H29.5772V55.7344ZM94.2813 49.7896H90.7553V34.9927C90.7553 26.625 83.3615 19.8177 74.273 19.8177C72.9834 19.8177 71.7303 19.9594 70.5261 20.2188V16.9521C70.5261 14.2208 68.5303 12 66.0803 12H23.5907C21.1396 12 19.1469 14.2208 19.1469 16.9521V39.6521C19.1469 42.3833 21.1396 44.6052 23.5907 44.6052H41.673V49.7896H5.75632C4.09798 49.7896 2.74902 51.1385 2.74902 52.7969V55.0229C2.74902 55.876 3.10736 56.6438 3.67819 57.1917V85.7885C3.67819 86.4219 4.19277 86.9354 4.82715 86.9354C5.46048 86.9354 5.97507 86.4219 5.97507 85.7885V58.0292H29.5772V84.8583C29.5772 85.4927 30.0907 86.0063 30.7251 86.0063C31.3584 86.0063 31.873 85.4927 31.873 84.8583V58.0292H58.0813C58.1188 58.125 58.1615 58.2167 58.2042 58.3083H53.6615C51.6105 58.3083 49.9407 59.9771 49.9407 62.0281C49.9407 64.0792 51.6105 65.7479 53.6615 65.7479H68.2282V74.6542L59.8042 78.0281C59.6844 78.0156 59.5626 78.0063 59.4386 78.0063C57.6105 78.0063 56.123 79.4938 56.123 81.3198C56.123 83.1469 57.6105 84.6344 59.4386 84.6344C61.2678 84.6344 62.7542 83.1469 62.7542 81.3198C62.7542 80.6615 62.5584 80.0479 62.2251 79.5312L68.2719 77.1094C68.4022 77.6 68.8459 77.9635 69.3782 77.9635H71.1886V81.5823C69.9251 82.051 69.0199 83.2635 69.0199 84.6885C69.0199 86.5156 70.5074 88.0021 72.3344 88.0021C74.1626 88.0021 75.6501 86.5156 75.6501 84.6885C75.6501 83.2656 74.7469 82.0521 73.4844 81.5844V77.9635H75.2938C75.8251 77.9635 76.2688 77.6 76.4001 77.1094L82.0855 79.3865C81.6907 79.9313 81.4563 80.5979 81.4563 81.3198C81.4563 83.1469 82.9428 84.6344 84.7709 84.6344C86.599 84.6344 88.0855 83.1469 88.0855 81.3198C88.0855 79.5094 86.624 78.0354 84.8178 78.0094L76.4417 74.6542V65.7479H87.0334C89.0855 65.7479 90.7553 64.0792 90.7553 62.0281C90.7553 60.9865 90.323 60.0438 89.6292 59.3688C89.9824 58.9865 90.2647 58.5333 90.4605 58.0292H94.0626V85.7885C94.0626 86.4219 94.5761 86.9354 95.2115 86.9354C95.8449 86.9354 96.3584 86.4219 96.3584 85.7885V57.1917C96.9303 56.6448 97.2886 55.876 97.2886 55.0229V52.7969C97.2886 51.1385 95.9407 49.7896 94.2813 49.7896Z" fill="white"/>
</g>
</g>
<defs>
<clipPath id="clip0_481_1007">
<rect width="100" height="100" fill="white"/>
</clipPath>
</defs>
</svg>
