<svg width="100" height="100" viewBox="0 0 100 100" fill="none" xmlns="http://www.w3.org/2000/svg">
<mask id="mask0_481_637" style="mask-type:luminance" maskUnits="userSpaceOnUse" x="12" y="3" width="76" height="94">
<path d="M12.8511 3.22192H87.0511V96.8001H12.8511V3.22192Z" fill="white"/>
</mask>
<g mask="url(#mask0_481_637)">
<path d="M85.4605 3.25427H14.4407C13.5719 3.25427 12.8782 3.96573 12.8782 4.83448V95.2095C12.8782 96.0793 13.5719 96.7907 14.4407 96.7907H85.4605C86.3292 96.7907 87.023 96.0793 87.023 95.2095V4.83448C87.023 3.96573 86.3292 3.25427 85.4605 3.25427ZM83.898 93.6439H16.0032V6.40011H83.898V93.6439Z" fill="white"/>
</g>
<path d="M80.1739 8.32922H19.7271C18.8437 8.32922 18.1489 9.02506 18.1489 9.91047V90.1344C18.1489 91.0199 18.8437 91.7157 19.7271 91.7157H80.1739C81.0573 91.7157 81.7521 91.0199 81.7521 90.1344V9.91047C81.7521 9.02506 81.0573 8.32922 80.1739 8.32922ZM48.3718 88.5532H21.3052V11.4907H48.3718V88.5532ZM78.5958 88.5532H51.5291V11.4907H78.5958V88.5532Z" fill="white"/>
<path d="M28.5177 43.0333H24.0364C23.1677 43.0333 22.4573 43.7448 22.4573 44.6146V57.1364C22.4573 58.0062 23.1677 58.7177 24.0364 58.7177H28.5177C29.3864 58.7177 30.0969 58.0062 30.0969 57.1364V44.6146C30.0969 43.7448 29.3864 43.0333 28.5177 43.0333ZM26.9396 55.5562H25.6146V46.1958H26.9396V55.5562Z" fill="white"/>
<path d="M75.8646 43.0333H71.3834C70.5146 43.0333 69.8042 43.7448 69.8042 44.6146V57.1364C69.8042 58.0062 70.5146 58.7177 71.3834 58.7177H75.8646C76.7334 58.7177 77.4438 58.0062 77.4438 57.1364V44.6146C77.4438 43.7448 76.7334 43.0333 75.8646 43.0333ZM74.2865 55.5562H72.9615V46.1958H74.2865V55.5562Z" fill="white"/>
<path d="M47.0145 28.5666L35.6062 38.1479C35.3218 38.401 34.9593 38.5281 34.5947 38.5281C34.1541 38.5281 33.6957 38.3218 33.3791 37.9583C32.827 37.2781 32.9218 36.2823 33.5843 35.7291L44.9947 26.1479C45.6572 25.5948 46.652 25.6729 47.2187 26.3375C47.7728 27.0177 47.6937 28.0135 47.0145 28.5666Z" fill="white"/>
<path d="M45.1999 36.3927L33.7895 45.9583C33.4916 46.2114 33.127 46.3385 32.7791 46.3385C32.3218 46.3385 31.8801 46.1479 31.5624 45.7687C30.9958 45.1052 31.0895 44.1083 31.752 43.5396L43.1624 33.9583C43.8416 33.4052 44.8354 33.4843 45.3874 34.1635C45.9416 34.8281 45.8624 35.8239 45.1999 36.3927Z" fill="white"/>
<path d="M39.4865 28.5667L28.076 38.1479C27.7927 38.401 27.4312 38.5114 27.0667 38.5114C26.6083 38.5114 26.1667 38.3219 25.851 37.9583C25.2969 37.2781 25.376 36.2823 26.0562 35.7292L37.4656 26.1479C38.1281 25.5781 39.1219 25.6729 39.6906 26.3375C40.2448 27.0177 40.15 28.0135 39.4865 28.5667Z" fill="white"/>
<path d="M66.5218 37.9583C66.2062 38.3218 65.7489 38.5281 65.3062 38.5281C64.9437 38.5281 64.5791 38.401 64.2947 38.1479L52.8864 28.5666C52.2062 28.0135 52.1281 27.0177 52.6812 26.3375C53.2478 25.6729 54.2416 25.5948 54.9041 26.1479L66.3156 35.7291C66.9791 36.2823 67.0739 37.2781 66.5218 37.9583Z" fill="white"/>
<path d="M68.3365 45.7687C68.0208 46.1479 67.5792 46.3385 67.1198 46.3385C66.7729 46.3385 66.4094 46.2114 66.1104 45.9583L54.699 36.3927C54.0365 35.8239 53.9573 34.8281 54.5104 34.1635C55.0781 33.4843 56.0729 33.4052 56.7354 33.9583L68.1458 43.5396C68.8104 44.1083 68.9052 45.1052 68.3365 45.7687Z" fill="white"/>
<path d="M74.0499 37.9583C73.7364 38.3219 73.2937 38.5114 72.8343 38.5114C72.4718 38.5114 72.1083 38.401 71.8249 38.1479L60.4145 28.5667C59.751 28.0135 59.6583 27.0177 60.2093 26.3375C60.777 25.6729 61.7718 25.5781 62.4343 26.1479L73.8437 35.7292C74.5239 36.2823 74.602 37.2781 74.0499 37.9583Z" fill="white"/>
</svg>
