<svg width="100" height="100" viewBox="0 0 100 100" fill="none" xmlns="http://www.w3.org/2000/svg">
<g clip-path="url(#clip0_481_959)">
<mask id="mask0_481_959" style="mask-type:luminance" maskUnits="userSpaceOnUse" x="2" y="2" width="96" height="90">
<path d="M2.4873 2.48755H97.4873V91.2001H2.4873V2.48755Z" fill="white"/>
</mask>
<g mask="url(#mask0_481_959)">
<path d="M83.0196 7.69276C74.1727 4.32817 62.4363 2.48755 49.9873 2.48755C37.5383 2.48755 25.8019 4.32817 16.955 7.69276C7.63314 11.2355 2.4873 16.124 2.4873 21.4876V87.9876C2.4873 88.8584 3.1998 89.5709 4.07064 89.5709C4.94147 89.5709 5.65397 88.8584 5.65397 87.9876C5.65397 84.4251 9.3748 80.8626 16.104 77.9532C22.8529 75.0438 32.0165 73.0844 42.0706 72.4115V89.5709C42.0706 90.4417 42.7831 91.1542 43.654 91.1542H56.3206C57.1915 91.1542 57.904 90.4417 57.904 89.5709V72.4115C67.9581 73.0844 77.1217 75.024 83.8706 77.9532C90.5998 80.8626 94.3206 84.4251 94.3206 87.9876C94.3206 88.8584 95.0331 89.5709 95.904 89.5709C96.7748 89.5709 97.4873 88.8584 97.4873 87.9876V21.4876C97.4873 16.124 92.3415 11.2355 83.0196 7.69276ZM64.2373 6.52505V25.5053C62.5946 25.3073 60.9321 25.149 59.23 25.0105L58.28 21.2105C57.8842 19.6271 56.7165 18.3803 55.1727 17.8657L53.8071 17.4105L54.2425 16.5396C54.579 15.8865 54.7373 15.1542 54.7373 14.4219V10.4042C54.7373 9.53338 54.0248 8.82088 53.154 8.82088H49.9873C47.3748 8.82088 45.2373 10.9584 45.2373 13.5709V14.4021C45.2373 15.1344 45.4154 15.8667 45.7321 16.5198L46.1675 17.3907L44.8019 17.8459C43.2581 18.3605 42.0904 19.6073 41.6946 21.1907L40.7446 24.9907C39.0425 25.1292 37.38 25.2875 35.7373 25.4855V6.52505C40.2696 5.95109 45.0592 5.65422 49.9873 5.65422C54.9154 5.65422 59.705 5.95109 64.2373 6.52505ZM64.2373 29.1271L58.4779 44.9407L54.7373 44.0105V42.4469L55.6477 40.6261C56.0831 39.7553 56.3206 38.7657 56.3206 37.7959V30.9876C56.3206 30.1167 55.6081 29.4042 54.7373 29.4042H49.9873C46.504 29.4042 43.654 32.2542 43.654 35.7375V37.7761C43.654 38.7459 43.8915 39.7355 44.3269 40.6063L45.2373 42.4271V43.9907L40.1113 45.2771C39.5571 45.4157 39.1217 45.8313 38.9633 46.3855L35.7373 57.6865V28.6917C40.2696 28.1178 45.0592 27.8209 49.9873 27.8209C54.9154 27.8209 59.705 28.1178 64.2373 28.6917V29.1271ZM48.404 67.4042V81.9313C47.9092 81.7532 47.3748 81.6542 46.8206 81.6542C46.2665 81.6542 45.7321 81.7532 45.2373 81.9313V62.6542H54.7373V81.9313C54.2425 81.7532 53.7081 81.6542 53.154 81.6542C52.5998 81.6542 52.0654 81.7532 51.5706 81.9313V67.4042H48.404ZM55.054 59.4876H44.9206L42.3675 47.9886L46.3258 46.999L46.6227 47.2959C47.5529 48.2261 48.7602 48.6813 49.9873 48.6813C51.2144 48.6813 52.4217 48.2261 53.3519 47.2959L53.6488 46.999L57.6071 47.9886L55.054 59.4876ZM53.154 37.7761C53.154 38.2709 53.0352 38.7459 52.8175 39.2011L51.729 41.3584C51.6102 41.5761 51.5706 41.8136 51.5706 42.0709V44.5844L51.1154 45.0396C50.8186 45.3365 50.4227 45.4948 49.9873 45.4948C49.5519 45.4948 49.1758 45.3365 48.8592 45.0396L48.404 44.5844V42.0709C48.404 41.8334 48.3446 41.5761 48.2456 41.3584L47.1571 39.2011C46.9394 38.7657 46.8206 38.2709 46.8206 37.7761V35.7375C46.8206 33.9959 48.2456 32.5709 49.9873 32.5709H53.154V37.7761ZM48.8988 19.8251C49.3342 19.6865 49.6904 19.35 49.8686 18.9344C49.9477 18.7365 49.9873 18.5386 49.9873 18.3209C49.9873 18.5188 50.0269 18.7365 50.1061 18.9344C50.2842 19.35 50.6404 19.6865 51.0758 19.8251L54.1831 20.8542C54.6977 21.0323 55.0936 21.448 55.2123 21.9625L55.9248 24.7928C53.9654 24.6938 52.0061 24.6542 50.0071 24.6542C48.0081 24.6542 46.029 24.6938 44.0894 24.7928L44.8019 21.9625C44.9404 21.4282 45.3165 21.0126 45.8311 20.8542L48.8988 19.8251ZM48.404 14.4021V13.5709C48.404 12.7 49.1165 11.9875 49.9873 11.9875H51.5706V14.4021C51.5706 14.6396 51.5113 14.8969 51.4123 15.1146L50.1654 17.6084C50.0467 17.8261 50.0071 18.0636 50.0071 18.3209C50.0071 18.0834 49.9477 17.8459 49.8488 17.6084L48.6019 15.1146C48.4633 14.8969 48.404 14.6594 48.404 14.4021ZM5.65397 21.4876C5.65397 17.5886 10.1863 13.65 18.0831 10.6615C22.2988 9.05838 27.2071 7.81151 32.5706 6.98026V25.9407C31.0665 26.1782 29.6019 26.4355 28.1769 26.7125L28.0977 26.2771C27.8008 24.5355 26.5936 23.1105 24.9113 22.5563L23.704 22.1605L24.1394 21.2896C24.4758 20.6365 24.6342 19.9042 24.6342 19.1719V15.1542C24.6342 14.2834 23.9217 13.5709 23.0508 13.5709H19.8842C17.2717 13.5709 15.1342 15.7084 15.1342 18.3209V19.1521C15.1342 19.8844 15.3123 20.6167 15.629 21.2698L16.0644 22.1407L14.8571 22.5365C13.1748 23.0907 11.9675 24.5157 11.6706 26.2573L10.6019 32.848C8.58314 34.0355 6.94043 35.3021 5.65397 36.648V21.4876ZM18.8154 24.5751C19.2508 24.4365 19.6071 24.1 19.7852 23.6844C19.8644 23.4865 19.904 23.2886 19.904 23.0907C19.904 23.2886 19.9436 23.5063 20.0227 23.6844C20.2008 24.1 20.5571 24.4365 20.9925 24.5751L23.9415 25.5646C24.4956 25.7428 24.9113 26.2178 25.0102 26.8115L25.1092 27.4053C22.1998 28.098 19.4686 28.9292 16.9748 29.8792C15.9852 30.2553 15.0352 30.6511 14.1248 31.0667L14.8373 26.8115C14.9363 26.2376 15.3321 25.7626 15.9061 25.5646L18.8154 24.5751ZM18.3206 19.1521V18.3209C18.3206 17.45 19.0331 16.7375 19.904 16.7375H21.4873V19.1521C21.4873 19.3896 21.4279 19.6469 21.329 19.8646L20.0821 22.3584C19.9633 22.5761 19.9238 22.8136 19.9238 23.0709C19.9238 22.8334 19.8644 22.5959 19.7654 22.3584L18.5186 19.8646C18.38 19.6469 18.3206 19.4094 18.3206 19.1521ZM5.65397 43.6542C5.65397 39.7553 10.1863 35.8167 18.0831 32.8282C22.2988 31.225 27.2071 29.9782 32.5706 29.1469V48.1073C31.0665 48.3448 29.6019 48.6021 28.1769 48.8792L28.0977 48.4438C27.8008 46.7021 26.5936 45.2771 24.9113 44.723L23.704 44.3271L24.1394 43.4563C24.4758 42.8032 24.6342 42.0709 24.6342 41.3386V37.3209C24.6342 36.4501 23.9217 35.7375 23.0508 35.7375H19.8842C17.2717 35.7375 15.1342 37.875 15.1342 40.4876V41.3188C15.1342 42.0511 15.3123 42.7834 15.629 43.4365L16.0644 44.3073L14.8571 44.7032C13.1748 45.2573 11.9675 46.6823 11.6706 48.424L10.6019 55.0146C8.58314 56.2021 6.94043 57.4688 5.65397 58.8146V43.6542ZM18.8154 46.7417C19.2508 46.6032 19.6071 46.2667 19.7852 45.8511C19.8644 45.6532 19.904 45.4553 19.904 45.2573C19.904 45.4553 19.9436 45.673 20.0227 45.8511C20.2008 46.2667 20.5571 46.6032 20.9925 46.7417L23.9415 47.7313C24.4956 47.9094 24.9113 48.3844 25.0102 48.9782L25.1092 49.5719C20.9925 50.5615 17.2915 51.7886 14.1248 53.2136L14.8373 48.9782C14.9363 48.4042 15.3321 47.9292 15.9061 47.7313L18.8154 46.7417ZM18.3206 41.3188V40.4876C18.3206 39.6167 19.0331 38.9042 19.904 38.9042H21.4873V41.3188C21.4873 41.5563 21.4279 41.8136 21.329 42.0313L20.0821 44.5251C19.9633 44.7428 19.9238 44.9803 19.9238 45.2376C19.9238 45 19.8644 44.7626 19.7654 44.5251L18.5186 42.0313C18.38 41.8136 18.3206 41.5761 18.3206 41.3188ZM5.65397 80.9417V65.8209C5.65397 59.7053 16.6383 53.8271 32.5706 51.3136V70.274C31.0665 70.5115 29.6019 70.7688 28.1769 71.0459L28.0977 70.6105C27.8008 68.8688 26.5936 67.4438 24.9113 66.8896L23.704 66.4938L24.1394 65.623C24.4758 64.9698 24.6342 64.2376 24.6342 63.5053V59.4876C24.6342 58.6167 23.9217 57.9042 23.0508 57.9042H19.8842C17.2717 57.9042 15.1342 60.0417 15.1342 62.6542V63.4855C15.1342 64.2178 15.3123 64.9501 15.629 65.6032L16.0644 66.474L14.8571 66.8698C13.1748 67.424 11.9675 68.849 11.6706 70.5907L10.6019 77.1813C8.58314 78.349 6.92064 79.6157 5.65397 80.9417ZM21.4873 61.0709V63.4855C21.4873 63.723 21.4279 63.9803 21.329 64.198L20.0821 66.6917C19.9633 66.9094 19.9238 67.1469 19.9238 67.4042C19.9238 67.1667 19.8644 66.9292 19.7654 66.6917L18.5186 64.198C18.3998 63.9803 18.3602 63.7428 18.3602 63.4855V62.6542C18.3602 61.7834 19.0727 61.0709 19.9436 61.0709H21.4873ZM14.8571 75.0438C14.5998 75.1428 14.3623 75.2615 14.1248 75.3605L14.8373 71.1251C14.9363 70.5511 15.3321 70.0761 15.9061 69.8782L18.855 68.8886C19.2904 68.7501 19.6467 68.4136 19.8248 67.998C19.904 67.8 19.9436 67.6021 19.9436 67.4042C19.9436 67.6021 19.9831 67.8198 20.0623 67.998C20.2404 68.4136 20.5967 68.7501 21.0321 68.8886L23.9811 69.8782C24.5352 70.0563 24.9508 70.5313 25.0498 71.1251L25.1488 71.7188C21.3092 72.6292 17.8654 73.7376 14.8571 75.0438ZM35.7373 69.8386V69.2053L40.2894 53.2532L42.0706 61.249V69.2448C39.9133 69.3834 37.7956 69.5813 35.7373 69.8386ZM45.2373 86.4042C45.2373 85.5334 45.9498 84.8209 46.8206 84.8209C47.6915 84.8209 48.404 85.5334 48.404 86.4042V87.9876H45.2373V86.4042ZM51.5706 86.4042C51.5706 85.5334 52.2831 84.8209 53.154 84.8209C54.0248 84.8209 54.7373 85.5334 54.7373 86.4042V87.9876H51.5706V86.4042ZM57.904 61.249L61.0113 47.2761L64.2373 38.4094V69.8584C62.179 69.6011 60.0613 69.4032 57.904 69.2646V61.249ZM74.8852 71.7188L74.9842 71.1251C75.0831 70.5511 75.479 70.0761 76.0529 69.8782L79.0019 68.8886C79.4373 68.7501 79.7936 68.4136 79.9717 67.998C80.0508 67.8 80.0904 67.6021 80.0904 67.4042C80.0904 67.6021 80.13 67.8198 80.2092 67.998C80.3873 68.4136 80.7436 68.7501 81.179 68.8886L84.1279 69.8782C84.6821 70.0563 85.0977 70.5313 85.1967 71.1251L85.9092 75.3605C85.6717 75.2417 85.4144 75.1428 85.1769 75.0438C82.1092 73.7376 78.6654 72.6292 74.8852 71.7188ZM78.4873 63.4855V62.6542C78.4873 61.7834 79.1998 61.0709 80.0706 61.0709H81.654V63.4855C81.654 63.723 81.5946 63.9803 81.4956 64.198L80.2488 66.6917C80.13 66.9094 80.0904 67.1469 80.0904 67.4042C80.0904 67.1667 80.0311 66.9292 79.9321 66.6917L78.6852 64.198C78.5467 63.9803 78.4873 63.7428 78.4873 63.4855ZM94.3206 80.9417C93.054 79.6157 91.3915 78.349 89.3727 77.1813L88.2842 70.6105C87.9873 68.8688 86.78 67.4438 85.0977 66.8896L83.8904 66.4938L84.3259 65.623C84.6623 64.9698 84.8206 64.2376 84.8206 63.5053V59.4876C84.8206 58.6167 84.1081 57.9042 83.2373 57.9042H80.0706C77.4581 57.9042 75.3206 60.0417 75.3206 62.6542V63.4855C75.3206 64.2178 75.4988 64.9501 75.8154 65.6032L76.2508 66.474L75.0436 66.8698C73.3613 67.424 72.154 68.849 71.8571 70.5907L71.7779 71.0261C70.3529 70.749 68.8884 70.4719 67.3842 70.2542V51.2938C83.3165 53.8271 94.3008 59.6855 94.3008 65.8011V80.9417H94.3206ZM78.9821 46.7417C79.4175 46.6032 79.7738 46.2667 79.9519 45.8511C80.0311 45.6532 80.0706 45.4553 80.0706 45.2573C80.0706 45.4553 80.1102 45.673 80.1894 45.8511C80.3675 46.2667 80.7238 46.6032 81.1592 46.7417L84.1081 47.7313C84.6623 47.9094 85.0779 48.3844 85.1769 48.9782L85.8894 53.2136C82.7227 51.7688 79.0217 50.5417 74.905 49.5719L75.004 48.9782C75.1029 48.4042 75.4988 47.9292 76.0727 47.7313L78.9821 46.7417ZM78.4873 41.3188V40.4876C78.4873 39.6167 79.1998 38.9042 80.0706 38.9042H81.654V41.3188C81.654 41.5563 81.5946 41.8136 81.4956 42.0313L80.2488 44.5251C80.13 44.7428 80.0904 44.9803 80.0904 45.2376C80.0904 45 80.0311 44.7626 79.9321 44.5251L78.6852 42.0313C78.5467 41.8136 78.4873 41.5761 78.4873 41.3188ZM94.3206 58.7948C93.054 57.449 91.3915 56.1823 89.3727 54.9948L88.2842 48.424C87.9873 46.6823 86.78 45.2573 85.0977 44.7032L83.8904 44.3073L84.3259 43.4365C84.6623 42.7834 84.8206 42.0511 84.8206 41.3188V37.3209C84.8206 36.4501 84.1081 35.7375 83.2373 35.7375H80.0706C77.4581 35.7375 75.3206 37.875 75.3206 40.4876V41.3188C75.3206 42.0511 75.4988 42.7834 75.8154 43.4365L76.2508 44.3073L75.0436 44.7032C73.3613 45.2573 72.154 46.6823 71.8571 48.424L71.7779 48.8594C70.3529 48.5823 68.8884 48.3251 67.3842 48.0876V29.1271C72.7477 29.9782 77.6561 31.225 81.8717 32.8084C89.7686 35.7969 94.3008 39.7553 94.3008 43.6344V58.7948H94.3206ZM78.9821 24.5751C79.4175 24.4365 79.7738 24.1 79.9519 23.6844C80.0311 23.4865 80.0706 23.2886 80.0706 23.0907C80.0706 23.2886 80.1102 23.5063 80.1894 23.6844C80.3675 24.1 80.7238 24.4365 81.1592 24.5751L84.1081 25.5646C84.6623 25.7428 85.0779 26.2178 85.1769 26.8115L85.8894 31.0667C84.979 30.6511 84.0488 30.2553 83.0394 29.8792C80.5456 28.9292 77.8144 28.098 74.905 27.4053L75.004 26.8115C75.1029 26.2376 75.4988 25.7626 76.0727 25.5646L78.9821 24.5751ZM78.4873 19.1521V18.3209C78.4873 17.45 79.1998 16.7375 80.0706 16.7375H81.654V19.1521C81.654 19.3896 81.5946 19.6469 81.4956 19.8646L80.2488 22.3584C80.13 22.5761 80.0904 22.8136 80.0904 23.0709C80.0904 22.8334 80.0311 22.5959 79.9321 22.3584L78.6852 19.8646C78.5467 19.6469 78.4873 19.4094 78.4873 19.1521ZM89.3727 32.848L88.2842 26.2771C87.9873 24.5355 86.78 23.1105 85.0977 22.5563L83.8904 22.1605L84.3259 21.2896C84.6623 20.6365 84.8206 19.9042 84.8206 19.1719V15.1542C84.8206 14.2834 84.1081 13.5709 83.2373 13.5709H80.0706C77.4581 13.5709 75.3206 15.7084 75.3206 18.3209V19.1521C75.3206 19.8844 75.4988 20.6167 75.8154 21.2698L76.2508 22.1407L75.0436 22.5365C73.3613 23.0907 72.154 24.5157 71.8571 26.2573L71.7779 26.6928C70.3529 26.3959 68.8884 26.1386 67.3842 25.9209V6.96047C72.7477 7.81151 77.6561 9.05838 81.8717 10.6417C89.7884 13.65 94.3206 17.5886 94.3206 21.4876V36.648C93.0342 35.3021 91.3915 34.0355 89.3727 32.848Z" fill="white"/>
</g>
<mask id="mask1_481_959" style="mask-type:luminance" maskUnits="userSpaceOnUse" x="29" y="80" width="42" height="18">
<path d="M29.3335 80H70.6668V97.4875H29.3335V80Z" fill="white"/>
</mask>
<g mask="url(#mask1_481_959)">
<path d="M61.5262 80.0312L60.6158 83.0594C64.7324 84.2865 67.4043 86.226 67.4043 87.9677C67.4043 90.9562 59.9626 94.301 49.9876 94.301C40.0126 94.301 32.571 90.9562 32.571 87.9677C32.571 86.226 35.2428 84.2865 39.3595 83.0594L38.4491 80.0312C32.7095 81.7531 29.4043 84.6427 29.4043 87.9875V97.4875H32.571V93.1927C36.1533 95.8052 42.4866 97.4875 49.9876 97.4875C57.4887 97.4875 63.822 95.825 67.4043 93.1927V97.4875H70.571V87.9875C70.571 84.6625 67.2658 81.7729 61.5262 80.0312Z" fill="white"/>
</g>
</g>
<defs>
<clipPath id="clip0_481_959">
<rect width="100" height="100" fill="white"/>
</clipPath>
</defs>
</svg>
